<?xml version="1.0" standalone="no"?>
<!DOCTYPE svg PUBLIC "-//W3C//DTD SVG 1.1//EN" "http://www.w3.org/Graphics/SVG/1.1/DTD/svg11.dtd" >
<svg xmlns="http://www.w3.org/2000/svg" xmlns:xlink="http://www.w3.org/1999/xlink" version="1.1">
<metadata>
Created by FontForge 20230101 at Thu Sep 10 20:32:51 2020
 By Unknown
Copyright 2020 Dinamo (Johannes Breyer, Fabian Harb). All rights reserved.
</metadata>
<defs>
<font id="ABCDiatype-Medium" horiz-adv-x="600" >
  <font-face 
    font-family="ABC Diatype Medium"
    font-weight="500"
    font-stretch="normal"
    units-per-em="1000"
    panose-1="2 11 6 4 4 2 2 6 2 3"
    ascent="850"
    descent="-150"
    x-height="484"
    cap-height="700"
    bbox="-199 -297 1089 1110"
    underline-thickness="50"
    underline-position="-150"
    unicode-range="U+0020-FB02"
  />
<missing-glyph horiz-adv-x="604" 
d="M526 0h-449v700h449v-700zM161 624v-548h282v548h-282z" />
    <glyph glyph-name="uniFB01" unicode="fi" horiz-adv-x="563" 
d="M494 0h-100v404h-184v-404h-100v404h-93v80h93v77q0 74 41 115t105 41q30 0 55 -9v-82q-18 4 -33 4q-32 0 -50 -18t-18 -51v-77h284v-484zM389 569v112h110v-112h-110z" />
    <glyph glyph-name="uniFB02" unicode="fl" horiz-adv-x="563" 
d="M110 0v404h-93v80h93v77q0 74 41 115t105 41q30 0 55 -9v-82q-18 4 -33 4q-32 0 -50 -18t-18 -51v-77h101v-80h-101v-404h-100zM395 700h99v-700h-99v700z" />
    <glyph glyph-name="f_f.liga" unicode="ff" horiz-adv-x="635" 
d="M535.5 612q-18.5 -18 -18.5 -51v-77h101v-80h-101v-404h-99v404h-208v-404h-100v404h-93v80h93v77q0 74 41 115t105 41q30 0 55 -9v-82q-18 4 -33 4q-32 0 -50 -18t-18 -51v-77h208v77q0 74 40.5 115t104.5 41q33 0 55 -9v-82q-18 4 -32 4q-32 0 -50.5 -18z" />
    <glyph glyph-name=".notdef" horiz-adv-x="604" 
d="M526 0h-449v700h449v-700zM161 624v-548h282v548h-282z" />
    <glyph glyph-name=".null" horiz-adv-x="0" 
 />
    <glyph glyph-name="nonmarkingreturn" horiz-adv-x="333" 
 />
    <glyph glyph-name="space" unicode=" " horiz-adv-x="227" 
 />
    <glyph glyph-name="exclam" unicode="!" horiz-adv-x="254" 
d="M151 197h-47l-31 285v218h109v-218zM188 0h-121v124h121v-124z" />
    <glyph glyph-name="quotedbl" unicode="&#x22;" horiz-adv-x="361" 
d="M129 459h-60l-19 151v90h97v-90zM292 459h-60l-19 151v90h97v-90z" />
    <glyph glyph-name="numbersign" unicode="#" horiz-adv-x="627" 
d="M198 0h-82l25 194h-107v76h119l21 165h-107v76h118l26 189h83l-27 -189h137l26 189h82l-26 -189h108v-76h-118l-23 -165h107v-76h-117l-26 -194h-82l25 194h-137zM256 435l-21 -165h136l23 165h-138z" />
    <glyph glyph-name="dollar" unicode="$" horiz-adv-x="601" 
d="M538.5 98q-26.5 -45 -75 -74.5t-113.5 -37.5v-97h-81v97q-107 10 -169.5 75.5t-67.5 169.5h102q2 -65 38 -108t97 -53v247l-26 6q-85 20 -137.5 69.5t-52.5 125.5q0 53 27.5 95.5t76.5 69.5t112 33v96h81v-98q90 -13 143 -70t58 -146h-103q-2 48 -28 82t-70 47v-231
l23 -5q88 -21 140 -68.5t52 -125.5q0 -54 -26.5 -99zM269 415v217q-53 -6 -84 -34.5t-31 -75.5q0 -78 115 -107zM350 71q52 9 82.5 40.5t30.5 77.5q0 42 -28.5 68t-84.5 42v-228z" />
    <glyph glyph-name="percent" unicode="%" horiz-adv-x="772" 
d="M73 421.5q-44 46.5 -44 121.5q0 74 44 120.5t115 46.5q70 0 114 -46.5t44 -120.5q0 -75 -44 -121.5t-114 -46.5q-71 0 -115 46.5zM180 0h-96l507 700h97zM240.5 473.5q20.5 26.5 20.5 69.5q0 44 -20.5 71.5t-52.5 27.5q-34 0 -54.5 -27.5t-20.5 -71.5q0 -43 20.5 -69.5
t54.5 -26.5q32 0 52.5 26.5zM470.5 37q-43.5 47 -43.5 122q0 74 43.5 120.5t113.5 46.5q71 0 115 -46.5t44 -120.5q0 -75 -44 -122t-115 -47q-70 0 -113.5 47zM638 89q21 27 21 70q0 44 -21 71.5t-54 27.5t-53.5 -27.5t-20.5 -71.5q0 -43 20.5 -70t53.5 -27t54 27z" />
    <glyph glyph-name="ampersand" unicode="&#x26;" horiz-adv-x="655" 
d="M152 7q-51 23 -81.5 66t-30.5 102q0 70 39 119t110 91l8 5l-5 7q-45 57 -62 89.5t-17 73.5q0 45 24.5 80.5t67 56t94.5 20.5q77 0 128 -41t51 -113q0 -58 -36.5 -105.5t-97.5 -84.5l-6 -3l108 -128q7 -10 23 -28q7 21 11 37q11 45 14 103h105q-3 -121 -65 -215l118 -139
h-125l-55 67q-89 -83 -209 -83q-60 0 -111 23zM289 437q90 52 90 123q0 34 -22.5 53t-56.5 19q-36 0 -59 -21t-23 -57q0 -28 15 -54t44 -61l5 -6zM415 133l-161 192l-7 -5q-49 -33 -75.5 -64t-26.5 -76q0 -50 35.5 -81t92.5 -31q84 0 142 65z" />
    <glyph glyph-name="quotesingle" unicode="'" horiz-adv-x="197" 
d="M129 459h-60l-19 151v90h97v-90z" />
    <glyph glyph-name="parenleft" unicode="(" horiz-adv-x="288" 
d="M177 -129q-58 78 -95.5 187.5t-37.5 243.5q0 130 38 241.5t95 186.5h92q-127 -197 -127 -427q0 -128 33.5 -233.5t92.5 -198.5h-91z" />
    <glyph glyph-name="parenright" unicode=")" horiz-adv-x="288" 
d="M112 730q58 -78 95.5 -188t37.5 -243q0 -130 -38 -241.5t-95 -186.5h-92q58 92 92 196.5t34 230.5q0 128 -33.5 233t-92.5 199h92z" />
    <glyph glyph-name="asterisk" unicode="*" horiz-adv-x="395" 
d="M198 500l-56 -99l-53 32l58 93l-109 -1v61l109 -1l-58 93l53 31l56 -98l54 98l54 -31l-58 -93l109 1v-61l-109 1l58 -93l-54 -32z" />
    <glyph glyph-name="plus" unicode="+" horiz-adv-x="540" 
d="M316 341h193v-84h-193v-203h-89v203h-192v84h192v202h89v-202z" />
    <glyph glyph-name="comma" unicode="," horiz-adv-x="250" 
d="M63 -108q28 8 44 28t16 62v18h-61v128h127v-136q0 -75 -34 -114.5t-92 -46.5v61z" />
    <glyph glyph-name="hyphen" unicode="-" horiz-adv-x="380" 
d="M320 213h-259v92h259v-92z" />
    <glyph glyph-name="period" unicode="." horiz-adv-x="248" 
d="M188 0h-128v128h128v-128z" />
    <glyph glyph-name="slash" unicode="/" horiz-adv-x="418" 
d="M121 0h-94l270 700h94z" />
    <glyph glyph-name="zero" unicode="0" horiz-adv-x="621" 
d="M117.5 80q-68.5 96 -68.5 270q0 114 32 196.5t91 126.5t139 44t139 -43.5t91 -126.5t32 -199q0 -172 -69 -268t-193 -96q-125 0 -193.5 96zM427.5 137.5q40.5 69.5 40.5 209.5q0 143 -40.5 214t-115.5 71q-77 0 -117.5 -70.5t-40.5 -215.5q0 -138 41.5 -208t116.5 -70
t115.5 69.5z" />
    <glyph glyph-name="one" unicode="1" horiz-adv-x="377" 
d="M291 700v-700h-102v490q0 41 2 61q-26 -42 -69.5 -68.5t-96.5 -28.5v99q64 8 114 49t66 98h86z" />
    <glyph glyph-name="two" unicode="2" horiz-adv-x="577" 
d="M42 0q1 56 20 99t54.5 79.5t96.5 81.5l75 56q61 46 96 90t35 99q0 57 -33.5 92t-91.5 35q-64 0 -100.5 -43.5t-36.5 -122.5v-11h-107v17q0 75 31 130.5t86.5 85t126.5 29.5q68 0 120 -26.5t80.5 -74.5t28.5 -111q0 -80 -47 -141.5t-147 -135.5l-48 -36q-54 -40 -77 -61
t-29 -37h356v-94h-489z" />
    <glyph glyph-name="three" unicode="3" horiz-adv-x="593" 
d="M110 45q-67 61 -67 166h104q0 -65 38.5 -104t106.5 -39q67 0 108 34.5t41 94.5q0 57 -41 90t-105 33h-44v88h45q56 0 92.5 29.5t36.5 84.5q0 51 -34 80.5t-92 29.5q-65 0 -102 -35t-39 -96h-106q3 98 69 157t179 59q66 0 118 -24t81.5 -67t29.5 -99t-34 -98t-94 -61
q68 -19 106 -64.5t38 -112.5q0 -60 -32.5 -107t-90 -73.5t-130.5 -26.5q-115 0 -182 61z" />
    <glyph glyph-name="four" unicode="4" horiz-adv-x="606" 
d="M451 0h-102v176h-324v93l292 431h134v-434h129v-90h-129v-176zM349 266v339q-9 -16 -29 -48l-172 -254l-12 -18l-14 -19h227z" />
    <glyph glyph-name="five" unicode="5" horiz-adv-x="576" 
d="M156.5 10.5q-54.5 26.5 -84 73.5t-30.5 108h104q1 -55 37 -89.5t99 -34.5q69 0 110 43.5t41 117.5q0 69 -37.5 112.5t-103.5 43.5q-48 0 -86 -25.5t-53 -59.5h-100l52 400h393v-95h-316l-23 -167q-5 -36 -8 -48q28 36 71.5 57.5t95.5 21.5q64 0 114 -31t77.5 -85
t27.5 -120q0 -74 -32 -130.5t-89 -87.5t-131 -31t-128.5 26.5z" />
    <glyph glyph-name="six" unicode="6" horiz-adv-x="606" 
d="M75 159q-26 74 -26 176q0 69 13.5 134t39.5 112q36 66 95.5 101t137.5 35q97 0 156 -53t62 -140h-103q-3 51 -34.5 80t-83.5 29q-83 0 -128 -63t-50 -180l-3 -36q25 44 75 74.5t111 30.5q63 0 112.5 -29.5t77.5 -82t28 -119.5q0 -70 -32 -125.5t-87.5 -87t-123.5 -31.5
q-178 0 -237 175zM411.5 109.5q39.5 43.5 39.5 114.5q0 65 -37.5 107.5t-99.5 42.5q-63 0 -104.5 -42t-41.5 -105q0 -78 39.5 -119.5t102.5 -41.5q62 0 101.5 43.5z" />
    <glyph glyph-name="seven" unicode="7" horiz-adv-x="526" 
d="M137 0q13 181 75 326t158 243q18 19 38 36h-386v95h481v-101q-108 -111 -175.5 -264t-75.5 -335h-115z" />
    <glyph glyph-name="eight" unicode="8" horiz-adv-x="606" 
d="M165.5 9q-57.5 25 -87.5 70t-30 105q0 61 39.5 109t107.5 70q-60 21 -95 62.5t-35 98.5q0 55 29.5 99t83.5 69t125 25q70 0 124 -25t83.5 -68.5t29.5 -98.5q0 -57 -35 -99.5t-95 -62.5q69 -21 108.5 -68.5t39.5 -107.5q0 -61 -31 -107t-88.5 -71t-136.5 -25t-136.5 25z
M399.5 439.5q37.5 31.5 37.5 81.5t-37 81.5t-97 31.5q-61 0 -98 -31t-37 -80q0 -51 37 -83t98 -32q59 0 96.5 31.5zM412 100.5q42 34.5 42 91.5q0 54 -42.5 89.5t-108.5 35.5t-108.5 -35.5t-42.5 -89.5q0 -57 41.5 -91.5t109.5 -34.5q67 0 109 34.5z" />
    <glyph glyph-name="nine" unicode="9" horiz-adv-x="597" 
d="M118 37q-58 53 -61 141h104q3 -53 34.5 -82.5t86.5 -29.5q84 0 125.5 72t39.5 179v30q-27 -39 -75 -66.5t-107 -27.5q-60 0 -110.5 28.5t-80 80.5t-29.5 120t32 121.5t88 83.5t124 30q85 0 144.5 -46.5t87.5 -132.5q27 -81 27 -185q0 -70 -13 -134.5t-39 -109.5
q-34 -62 -89.5 -93.5t-127.5 -31.5q-103 0 -161 53zM390 378q40 42 40 109q0 65 -39.5 106.5t-100.5 41.5q-60 0 -100 -41.5t-40 -106.5q0 -67 39 -109t100 -42t101 42z" />
    <glyph glyph-name="colon" unicode=":" horiz-adv-x="248" 
d="M188 0h-128v128h128v-128zM188 312h-128v128h128v-128z" />
    <glyph glyph-name="semicolon" unicode=";" horiz-adv-x="248" 
d="M188 312h-128v128h128v-128zM62 -108q28 8 44 28t16 62v18h-61v128h127v-136q0 -75 -34 -114.5t-92 -46.5v61z" />
    <glyph glyph-name="less" unicode="&#x3c;" horiz-adv-x="539" 
d="M478 63l-445 187v99l445 187v-101l-259 -103q-54 -22 -84 -32q62 -23 88 -34l255 -99v-104z" />
    <glyph glyph-name="equal" unicode="=" horiz-adv-x="603" 
d="M540 351h-474v85h474v-85zM540 163h-474v85h474v-85z" />
    <glyph glyph-name="greater" unicode="&#x3e;" horiz-adv-x="539" 
d="M60 63v104l263 102q57 22 82 31q-32 11 -81 31l-264 104v101l446 -187v-99z" />
    <glyph glyph-name="question" unicode="?" horiz-adv-x="515" 
d="M195 197q0 71 19.5 114t74.5 88l29 23q60 48 60 107q0 46 -30 74.5t-82 28.5q-62 0 -96.5 -39.5t-34.5 -109.5h-105q0 72 29.5 125t83.5 81t124 28q61 0 110.5 -24t77.5 -66t28 -93q0 -99 -100 -177l-31 -25q-33 -25 -46 -55t-13 -80h-98zM305 0h-121v124h121v-124z" />
    <glyph glyph-name="at" unicode="@" horiz-adv-x="774" 
d="M223 -66.5q-82 44.5 -128 126.5t-46 191q0 110 48 195.5t131.5 132t184.5 46.5q96 0 170.5 -41.5t116 -114.5t41.5 -165q0 -73 -23 -127t-62 -82t-84 -28q-73 0 -96 61q-17 -28 -46.5 -44.5t-65.5 -16.5q-40 0 -72.5 20.5t-52 58t-19.5 86.5q0 61 23.5 108.5t62.5 73.5
t84 26q33 0 57 -13.5t36 -33.5l4 36h79l-23 -233q-1 -5 -1 -14q0 -45 35 -45t58.5 45.5t23.5 117.5q0 74 -30.5 130t-86 87t-128.5 31q-80 0 -144 -36.5t-100.5 -104t-36.5 -156.5q0 -84 33.5 -148.5t96.5 -100.5t148 -36q53 0 96 13.5t86 42.5l40 -59q-44 -34 -103.5 -54
t-119.5 -20q-105 0 -187 44.5zM448 175.5q25 36.5 25 98.5q0 43 -21 68.5t-54 25.5q-39 0 -66.5 -38.5t-27.5 -92.5q0 -44 20 -71t57 -27q42 0 67 36.5z" />
    <glyph glyph-name="A" unicode="A" horiz-adv-x="694" 
d="M693 0h-118l-77 202h-308l-76 -202h-113l283 700h125zM224 291h241l-98 257l-22 63q-10 -31 -24 -63z" />
    <glyph glyph-name="B" unicode="B" horiz-adv-x="659" 
d="M85 0v700h282q104 0 166 -43.5t62 -132.5q0 -57 -35.5 -97.5t-88.5 -56.5q66 -18 104.5 -62t38.5 -109q0 -107 -75.5 -153t-193.5 -46h-260zM353 410q65 0 99 27t34 76q0 98 -129 98h-167v-201h163zM357 90q76 0 112 28.5t36 86.5q0 57 -35 86.5t-116 29.5h-164v-231h167
z" />
    <glyph glyph-name="C" unicode="C" horiz-adv-x="724" 
d="M204.5 28.5q-76.5 44.5 -118.5 128t-42 197.5q0 108 44.5 190.5t122 127.5t174.5 45q84 0 150 -31.5t106.5 -88.5t47.5 -130h-114q-12 75 -61.5 117.5t-130.5 42.5q-67 0 -119 -33t-80.5 -94.5t-28.5 -145.5q0 -85 29 -148.5t80.5 -98t117.5 -34.5q82 0 134.5 44.5
t65.5 118.5h108q-14 -116 -96 -184t-212 -68q-101 0 -177.5 44.5z" />
    <glyph glyph-name="D" unicode="D" horiz-adv-x="730" 
d="M85 0v700h224q178 0 276.5 -87t98.5 -263q0 -107 -41 -185.5t-122 -121.5t-197 -43h-239zM314 90q124 0 192 63.5t68 196.5q0 127 -65 194t-198 67h-120v-521h123z" />
    <glyph glyph-name="E" unicode="E" horiz-adv-x="614" 
d="M565 0h-480v700h467v-89h-361v-207h346v-90h-346v-224h374v-90z" />
    <glyph glyph-name="F" unicode="F" horiz-adv-x="586" 
d="M191 0h-106v700h467v-89h-361v-210h343v-89h-343v-312z" />
    <glyph glyph-name="G" unicode="G" horiz-adv-x="740" 
d="M201 30.5q-75 46.5 -116 129t-41 188.5q0 113 45 196.5t123.5 128t175.5 44.5q80 0 143.5 -29t102.5 -80t46 -116h-111q-10 60 -59 97.5t-121 37.5q-69 0 -122 -32.5t-83 -95.5t-30 -151q0 -81 29 -143.5t81.5 -97t120.5 -34.5q91 0 146 51.5t55 144.5v10h-209v90h306
v-369h-92v28q0 33 3 67q-29 -49 -86.5 -80t-132.5 -31q-99 0 -174 46.5z" />
    <glyph glyph-name="H" unicode="H" horiz-adv-x="736" 
d="M191 0h-106v700h106v-291h354v291h106v-700h-106v319h-354v-319z" />
    <glyph glyph-name="I" unicode="I" horiz-adv-x="277" 
d="M85 700h106v-700h-106v700z" />
    <glyph glyph-name="J" unicode="J" horiz-adv-x="547" 
d="M73.5 47q-55.5 63 -56.5 172h108q1 -69 28 -107.5t88 -38.5q121 0 121 149v478h107v-490q0 -105 -62 -165.5t-167 -60.5q-111 0 -166.5 63z" />
    <glyph glyph-name="K" unicode="K" horiz-adv-x="637" 
d="M657 0h-142l-274 318l-51 -53v-265h-105v700h105v-303q7 9 43 47l246 256h133l-300 -309z" />
    <glyph glyph-name="L" unicode="L" horiz-adv-x="560" 
d="M551 0h-466v700h106v-610h360v-90z" />
    <glyph glyph-name="M" unicode="M" horiz-adv-x="945" 
d="M85 0v700h167l198 -523q10 -25 26 -71q17 51 25 71l194 523h165v-700h-104v505q0 62 1 92l-221 -597h-123l-226 597q1 -30 1 -92v-505h-103z" />
    <glyph glyph-name="N" unicode="N" horiz-adv-x="770" 
d="M85 0v700h160l335 -571q-2 60 -2 95v476h107v-700h-144l-351 597q1 -33 1 -90v-507h-106z" />
    <glyph glyph-name="O" unicode="O" horiz-adv-x="761" 
d="M207.5 28.5q-76.5 44.5 -120 127.5t-43.5 194q0 109 43.5 192.5t120 129t172.5 45.5t172.5 -46t120.5 -129.5t44 -191.5q0 -110 -44 -193t-120.5 -128t-172.5 -45t-172.5 44.5zM498.5 106q51.5 33 79.5 95.5t28 148.5q0 84 -28.5 147t-79.5 96.5t-118 33.5t-118 -33.5
t-79.5 -96t-28.5 -147.5t28 -147.5t79.5 -96t118.5 -33.5t118.5 33z" />
    <glyph glyph-name="P" unicode="P" horiz-adv-x="636" 
d="M85 0v700h281q109 0 177.5 -48t68.5 -155t-68 -155t-178 -48h-175v-294h-106zM365 384q138 0 138 113q0 114 -138 114h-174v-227h174z" />
    <glyph glyph-name="Q" unicode="Q" horiz-adv-x="762" 
d="M690 194q-27 -70 -77 -119l70 -77l-70 -61l-76 84q-71 -37 -157 -37q-96 0 -172.5 44.5t-120 127.5t-43.5 194q0 109 43.5 192.5t120 129t172.5 45.5t172.5 -46t120.5 -129.5t44 -191.5q0 -86 -27 -156zM473 92l-86 95l69 61l90 -99q29 36 44.5 87t15.5 114
q0 84 -28.5 147t-79.5 96.5t-118 33.5t-118 -33.5t-79.5 -96t-28.5 -147.5t28 -147.5t79.5 -96t118.5 -33.5q49 0 93 19z" />
    <glyph glyph-name="R" unicode="R" horiz-adv-x="664" 
d="M85 0v700h302q102 0 162 -48t60 -136q0 -64 -39 -109t-92 -61q54 -9 85.5 -51.5t31.5 -109.5v-185h-106v165q0 74 -30.5 103.5t-104.5 29.5h-163v-298h-106zM364 388q66 0 101 28.5t35 83.5t-35 83t-101 28h-173v-223h173z" />
    <glyph glyph-name="S" unicode="S" horiz-adv-x="644" 
d="M174 14q-65 30 -101.5 86t-38.5 131h109q4 -74 55.5 -116t130.5 -42q76 0 120 30.5t44 84.5q0 44 -33 70t-97 39l-110 24q-87 19 -141 68t-54 127q0 58 34 103.5t93.5 71.5t134.5 26q119 0 190.5 -59.5t77.5 -159.5h-109q-4 58 -47 93.5t-116 35.5q-64 0 -106.5 -28.5
t-42.5 -73.5q0 -42 30 -66.5t91 -38.5l121 -26q89 -19 141 -67.5t52 -127.5q0 -61 -33 -110t-95.5 -77t-147.5 -28q-87 0 -152 30z" />
    <glyph glyph-name="T" unicode="T" horiz-adv-x="601" 
d="M353 0h-106v611h-239v89h583v-89h-238v-611z" />
    <glyph glyph-name="U" unicode="U" horiz-adv-x="698" 
d="M149 57q-71 73 -71 214v429h106v-414q0 -213 165 -213q166 0 166 213v414h106v-429q0 -140 -71.5 -213.5t-200.5 -73.5t-200 73z" />
    <glyph glyph-name="V" unicode="V" horiz-adv-x="673" 
d="M270 0l-265 700h117l184 -507q24 -64 33 -91q20 60 32 91l185 507h114l-271 -700h-129z" />
    <glyph glyph-name="W" unicode="W" horiz-adv-x="990" 
d="M200 0l-188 700h114l125 -490q10 -36 24 -97q5 24 14 59q3 9 10 38l129 490h142l125 -490q13 -45 24 -98l23 98l129 490h107l-188 -700h-137l-131 514q-17 68 -23 95q-6 -27 -23 -95l-138 -514h-138z" />
    <glyph glyph-name="X" unicode="X" horiz-adv-x="634" 
d="M-2 0l258 365l-236 335h127l139 -209l33 -51q11 17 34 51l138 209h123l-235 -334l259 -366h-128l-163 242l-31 48q-22 -34 -33 -49l-162 -241h-123z" />
    <glyph glyph-name="Y" unicode="Y" horiz-adv-x="617" 
d="M254 0v295l-249 405h122l138 -237q19 -31 43 -78l45 78l140 237h119l-251 -405v-295h-107z" />
    <glyph glyph-name="Z" unicode="Z" horiz-adv-x="605" 
d="M33 0v97l360 456q14 18 48 58h-391v89h512v-93l-359 -453l-53 -64h426v-90h-543z" />
    <glyph glyph-name="bracketleft" unicode="[" horiz-adv-x="307" 
d="M272 -129h-192v860h192v-76h-97v-708h97v-76z" />
    <glyph glyph-name="backslash" unicode="\" horiz-adv-x="420" 
d="M393 0h-95l-271 700h95z" />
    <glyph glyph-name="bracketright" unicode="]" horiz-adv-x="295" 
d="M23 731h192v-860h-192v76h97v708h-97v76z" />
    <glyph glyph-name="asciicircum" unicode="^" horiz-adv-x="490" 
d="M35 342l162 358h96l162 -358h-106l-72 174q-22 52 -33 84l-33 -84l-73 -174h-103z" />
    <glyph glyph-name="underscore" unicode="_" horiz-adv-x="584" 
d="M536 -124h-487v88h487v-88z" />
    <glyph glyph-name="grave" unicode="`" horiz-adv-x="282" 
d="M234 562h-85l-107 136h123z" />
    <glyph glyph-name="a" unicode="a" horiz-adv-x="517" 
d="M125.5 2q-38.5 18 -61 52t-22.5 79q0 128 171 154l91 14q28 4 39.5 14.5t11.5 31.5q0 35 -25 56t-66 21q-49 0 -77.5 -25t-30.5 -68h-101q3 47 28 85.5t69.5 61t104.5 22.5q97 0 146.5 -51t49.5 -144v-305h-94v23q0 13 2 43q-19 -38 -58 -60t-94 -22q-45 0 -83.5 18z
M320 94.5q36 34.5 36 90.5v64q-11 -12 -55 -21l-58 -11q-99 -19 -99 -82q0 -35 24 -55t61 -20q55 0 91 34.5z" />
    <glyph glyph-name="b" unicode="b" horiz-adv-x="585" 
d="M231 6.5q-41 22.5 -63 60.5q1 -15 1 -43v-24h-99v700h99v-240l-1 -43q25 37 65 60t92 23q65 0 115.5 -33t78.5 -91.5t28 -134.5q0 -77 -28 -135t-78.5 -90t-115.5 -32q-53 0 -94 22.5zM405 111.5q39 49.5 39 129.5q0 81 -38.5 130.5t-102.5 49.5q-62 0 -101 -48.5
t-39 -130.5q0 -80 39 -130t101 -50q63 0 102 49.5z" />
    <glyph glyph-name="c" unicode="c" horiz-adv-x="541" 
d="M156.5 14q-54.5 30 -85.5 88.5t-31 140.5q0 76 32.5 134.5t88.5 90.5t125 32q93 0 151.5 -51t66.5 -135h-102q-5 47 -35.5 77t-81.5 30q-63 0 -103 -49.5t-40 -129.5q0 -81 39.5 -130.5t103.5 -49.5q53 0 85.5 29.5t37.5 79.5h100q-9 -86 -67.5 -136.5t-158.5 -50.5
q-71 0 -125.5 30z" />
    <glyph glyph-name="d" unicode="d" horiz-adv-x="585" 
d="M147.5 14q-50.5 30 -79 88t-28.5 139q0 77 29 136t80 91t115 32q55 0 94.5 -24t59.5 -59q-2 15 -2 43v240h100v-700h-100v25q0 29 2 42q-19 -35 -60 -59t-96 -24q-64 0 -114.5 30zM383.5 111.5q39.5 49.5 39.5 130.5t-39 130t-101 49t-101.5 -49.5t-39.5 -129.5
q0 -81 39 -130.5t102 -49.5q61 0 100.5 49.5z" />
    <glyph glyph-name="e" unicode="e" horiz-adv-x="544" 
d="M104.5 52q-64.5 68 -64.5 192q0 74 30.5 132.5t84 91t120.5 32.5q108 0 168 -69.5t60 -188.5v-21h-362q1 -73 40 -116t100 -43q46 0 78 22t40 69h100q-8 -73 -65 -121t-154 -48q-111 0 -175.5 68zM398 292q0 60 -33 96t-90 36q-55 0 -91.5 -37t-41.5 -95h256z" />
    <glyph glyph-name="f" unicode="f" horiz-adv-x="327" 
d="M110 0v404h-93v80h93v77q0 74 41 115t105 41q30 0 55 -9v-82q-18 4 -33 4q-32 0 -50 -18t-18 -51v-77h101v-80h-101v-404h-100z" />
    <glyph glyph-name="g" unicode="g" horiz-adv-x="583" 
d="M120 -175q-58 50 -58 133h99q1 -48 32.5 -76.5t85.5 -28.5q63 0 99 34.5t36 103.5v56q0 15 2 43q-21 -36 -62 -58t-94 -22q-65 0 -114.5 29.5t-77 85t-27.5 129.5q0 73 29.5 129t79.5 86.5t110 30.5q106 0 156 -83q-2 28 -2 43v24h100v-463q0 -123 -61 -184.5t-175 -61.5
q-100 0 -158 50zM382 134q39 46 39 120q0 73 -39 120t-100 47q-62 0 -100.5 -46.5t-38.5 -120.5t38.5 -120t100.5 -46q61 0 100 46z" />
    <glyph glyph-name="h" unicode="h" horiz-adv-x="556" 
d="M70 0v700h99v-239q0 -28 -1 -44q20 37 59 60t89 23q83 0 129.5 -51.5t46.5 -142.5v-306h-99v292q0 129 -103 129q-54 0 -87.5 -38t-33.5 -94v-289h-99z" />
    <glyph glyph-name="i" unicode="i" horiz-adv-x="238" 
d="M64 569v112h110v-112h-110zM70 484h99v-484h-99v484z" />
    <glyph glyph-name="j" unicode="j" horiz-adv-x="246" 
d="M71 569v112h110v-112h-110zM176 484v-571q0 -57 -34 -97.5t-107 -40.5q-33 0 -54 6v84q9 -4 25 -4q35 0 53 18t18 59v546h99z" />
    <glyph glyph-name="k" unicode="k" horiz-adv-x="502" 
d="M511 0h-132l-165 211l-45 -44v-167h-99v700h99v-416q17 20 37 40l155 160h127l-207 -206z" />
    <glyph glyph-name="l" unicode="l" horiz-adv-x="238" 
d="M70 700h99v-700h-99v700z" />
    <glyph glyph-name="m" unicode="m" horiz-adv-x="837" 
d="M70 0v484h99v-32q0 -23 -1 -35q22 37 57.5 60t83.5 23q46 0 83 -25t55 -68q25 41 66.5 67t91.5 26q75 0 121.5 -50.5t46.5 -143.5v-306h-99v288q0 133 -94 133q-49 0 -79 -38.5t-30 -96.5v-286h-100v287q0 134 -92 134q-50 0 -80 -39t-30 -99v-283h-99z" />
    <glyph glyph-name="n" unicode="n" horiz-adv-x="556" 
d="M70 0v484h99v-29q0 -24 -1 -38q20 36 59.5 59.5t88.5 23.5q83 0 129.5 -51.5t46.5 -142.5v-306h-99v292q0 129 -101 129q-55 0 -89 -38t-34 -94v-289h-99z" />
    <glyph glyph-name="o" unicode="o" horiz-adv-x="563" 
d="M156 16q-55 32 -85.5 90.5t-30.5 135.5q0 76 31 134.5t86 91t125 32.5t125 -32.5t86 -91t31 -134.5q0 -77 -31 -135.5t-86 -90.5t-125 -32q-71 0 -126 32zM384 110.5q38 48.5 38 131.5q0 82 -38.5 130.5t-101.5 48.5t-101.5 -48.5t-38.5 -130.5q0 -83 38 -131.5
t102 -48.5t102 48.5z" />
    <glyph glyph-name="p" unicode="p" horiz-adv-x="585" 
d="M70 -208v692h99v-30q0 -23 -1 -37q22 37 64 60t95 23q66 0 116 -33t76.5 -91.5t26.5 -133.5q0 -76 -28.5 -135t-79 -91t-114.5 -32q-53 0 -92 22t-64 61q1 -16 1 -43v-232h-99zM405 112q38 50 38 130t-38 129.5t-101 49.5q-62 0 -101 -49t-39 -130q0 -80 39 -130t101 -50
q63 0 101 50z" />
    <glyph glyph-name="q" unicode="q" horiz-adv-x="586" 
d="M417 24q0 13 2 43q-21 -38 -61.5 -60.5t-94.5 -22.5q-66 0 -116.5 30.5t-78.5 88.5t-28 139q0 75 28.5 133.5t79.5 91.5t117 33q54 0 94 -23t62 -60q-1 17 -1 45v22h97v-692h-100v232zM383 110.5q39 48.5 39 131.5t-38 131t-101 48t-102 -49t-39 -130q0 -84 38.5 -132
t101.5 -48q62 0 101 48.5z" />
    <glyph glyph-name="r" unicode="r" horiz-adv-x="353" 
d="M70 0v484h99v-27q0 -38 -1 -56q19 44 57 71.5t91 27.5q15 0 23 -1v-98q-11 3 -30 3q-67 0 -103.5 -38t-36.5 -116v-250h-99z" />
    <glyph glyph-name="s" unicode="s" horiz-adv-x="489" 
d="M93 32q-57 48 -61 130h99q2 -47 32.5 -74.5t84.5 -27.5q47 0 75 19.5t28 53.5q0 27 -20.5 43.5t-62.5 24.5l-67 13q-73 14 -112.5 49.5t-39.5 92.5q0 41 24.5 74t68 51.5t99.5 18.5q90 0 143.5 -43t57.5 -117h-99q-4 40 -32 62t-74 22q-40 0 -64.5 -17.5t-24.5 -45.5
q0 -27 19 -41.5t62 -22.5l69 -13q72 -13 111.5 -48.5t39.5 -94.5q0 -44 -24.5 -80t-70 -56.5t-106.5 -20.5q-98 0 -155 48z" />
    <glyph glyph-name="t" unicode="t" horiz-adv-x="349" 
d="M151 29.5q-39 36.5 -39 113.5v261h-98v80h98v166h100v-166h107v-80h-107v-249q0 -77 71 -77q17 0 36 3v-80q-30 -8 -62 -8q-67 0 -106 36.5z" />
    <glyph glyph-name="u" unicode="u" horiz-adv-x="551" 
d="M110.5 34q-46.5 50 -46.5 142v308h100v-289q0 -132 102 -132q55 0 86 38.5t31 107.5v275h98v-484h-97v26q0 28 1 41q-18 -38 -56.5 -60.5t-90.5 -22.5q-81 0 -127.5 50z" />
    <glyph glyph-name="v" unicode="v" horiz-adv-x="499" 
d="M195 0l-184 484h108l117 -339q6 -18 16 -53q6 21 17 53l114 339h104l-182 -484h-110z" />
    <glyph glyph-name="w" unicode="w" horiz-adv-x="794" 
d="M165 0l-154 484h106l99 -347q8 -27 10 -43q8 23 12 43l97 347h127l101 -347q12 -52 10 -42q3 15 11 43l98 346h98l-150 -484h-120l-100 352q-8 28 -11 45q-4 -17 -12 -45l-101 -352h-121z" />
    <glyph glyph-name="x" unicode="x" horiz-adv-x="490" 
d="M8 0l182 247l-170 237h117l84 -125q18 -25 27 -41q9 16 27 41l86 125h113l-175 -235l181 -249h-117l-93 137q-19 30 -27 42l-27 -42l-95 -137h-113z" />
    <glyph glyph-name="y" unicode="y" horiz-adv-x="491" 
d="M118 -208l85 220l-192 472h110l114 -310q9 -24 21 -59q9 33 19 59l103 310h104l-258 -692h-106z" />
    <glyph glyph-name="z" unicode="z" horiz-adv-x="470" 
d="M35 0v85l257 290l29 31h-276v78h383v-86l-256 -288q-20 -22 -31 -32h295v-78h-401z" />
    <glyph glyph-name="braceleft" unicode="{" horiz-adv-x="329" 
d="M265 -129q-77 0 -116 42t-39 124v129q0 84 -95 92v86q95 8 95 92v128q0 166 155 166h34v-76h-13q-42 0 -60.5 -22t-18.5 -72v-141q0 -48 -25.5 -78t-73.5 -40q49 -10 74 -40t25 -77v-143q0 -51 18.5 -72.5t60.5 -21.5h13v-76h-34z" />
    <glyph glyph-name="bar" unicode="|" horiz-adv-x="256" 
d="M175 -129h-95v859h95v-859z" />
    <glyph glyph-name="braceright" unicode="}" horiz-adv-x="329" 
d="M29 -129v76h14q41 0 60 22.5t19 71.5v142q0 47 24.5 77t70.5 40q-46 10 -70.5 39t-24.5 76v145q0 50 -19 72t-61 22h-13v76h34q155 0 155 -166v-129q0 -83 92 -92v-86q-91 -9 -91 -92v-128q0 -166 -156 -166h-34z" />
    <glyph glyph-name="asciitilde" unicode="~" horiz-adv-x="587" 
d="M64 232q2 68 42 101t95 33q39 0 104 -25q28 -10 45.5 -15t33.5 -5q45 0 53 46h89q-1 -63 -38.5 -97.5t-95.5 -34.5q-26 0 -51.5 6t-59.5 18q-27 10 -44 14.5t-32 4.5q-21 0 -34.5 -12.5t-16.5 -33.5h-90z" />
    <glyph glyph-name="uni00A0" unicode="&#xa0;" horiz-adv-x="227" 
 />
    <glyph glyph-name="exclamdown" unicode="&#xa1;" horiz-adv-x="241" 
d="M59 484h121v-124h-121v124zM96 288h47l31 -286v-218h-109v218z" />
    <glyph glyph-name="cent" unicode="&#xa2;" horiz-adv-x="611" 
d="M578 261q-11 -89 -70.5 -148.5t-153.5 -70.5v-99h-81v100q-112 14 -176.5 97t-64.5 214q0 80 30.5 145t85.5 106.5t125 52.5v100h81v-99q98 -10 156.5 -69t66.5 -149h-104q-2 51 -35 86.5t-84 45.5v-444q50 11 83 46.5t38 85.5h103zM173 205q37 -59 100 -75v441
q-63 -16 -100 -72.5t-37 -144.5q0 -90 37 -149z" />
    <glyph glyph-name="sterling" unicode="&#xa3;" horiz-adv-x="653" 
d="M50 0v89h96v199h-110v86h110v114q0 106 64 167.5t170 61.5q104 0 163 -58.5t62 -161.5h-103q-2 63 -33.5 97.5t-91.5 34.5q-62 0 -93.5 -38t-31.5 -109v-108h235v-86h-235v-199h356v-89h-558z" />
    <glyph glyph-name="currency" unicode="&#xa4;" horiz-adv-x="655" 
d="M527 195l80 -80l-57 -58l-80 80q-61 -43 -142 -43q-82 0 -143 43l-80 -80l-56 58l80 80q-46 67 -46 161q0 95 45 162l-79 79l56 60l81 -81q60 43 142 43q81 0 142 -43l80 81l57 -60l-80 -79q45 -69 45 -162t-45 -161zM433 223q41 46 41 133t-41.5 133.5t-104.5 46.5
q-64 0 -105.5 -46.5t-41.5 -133.5t41 -133t106 -46q64 0 105 46z" />
    <glyph glyph-name="yen" unicode="&#xa5;" horiz-adv-x="632" 
d="M601 700l-190 -326h151v-77h-196v-75h196v-76h-196v-146h-102v146h-194v76h194v75h-194v77h149l-188 326h120l122 -233l42 -82q13 22 45 82l125 233h116z" />
    <glyph glyph-name="brokenbar" unicode="&#xa6;" horiz-adv-x="256" 
d="M175 392h-95v338h95v-338zM175 -129h-95v338h95v-338z" />
    <glyph glyph-name="section" unicode="&#xa7;" horiz-adv-x="543" 
d="M474 14q0 -69 -56 -111t-151 -42q-93 0 -148.5 44t-64.5 120h107q10 -83 109 -83q48 0 74 16.5t26 43.5q0 25 -19 43.5t-62 39.5l-127 64q-58 29 -88.5 63.5t-30.5 81.5q0 91 110 144q-81 53 -81 130q0 65 52.5 107t143.5 42q88 0 141 -42.5t58 -116.5h-106
q-4 40 -29.5 59.5t-68.5 19.5q-42 0 -64.5 -17t-22.5 -44q0 -24 19.5 -43t60.5 -39l129 -63q61 -30 91 -65t30 -84q0 -46 -30 -82t-81 -60q79 -54 79 -126zM164 268.5q16 -18.5 54 -38.5l111 -54q34 16 53.5 38.5t19.5 50.5q0 27 -16 45.5t-52 36.5l-116 55
q-32 -16 -51 -38.5t-19 -49.5t16 -45.5z" />
    <glyph glyph-name="dieresis" unicode="&#xa8;" horiz-adv-x="402" 
d="M156 569h-109v112h109v-112zM355 569h-109v112h109v-112z" />
    <glyph glyph-name="copyright" unicode="&#xa9;" horiz-adv-x="813" 
d="M224 33.5q-83 49.5 -132.5 133.5t-49.5 184q0 99 49.5 183t133.5 133.5t182 49.5q99 0 182.5 -49.5t132.5 -133.5t49 -183q0 -101 -49 -185.5t-133 -133t-184 -48.5q-98 0 -181 49.5zM553 93.5q66 39.5 104.5 107.5t38.5 150t-38.5 149.5t-105 107t-145.5 39.5
q-80 0 -146.5 -39.5t-105 -107t-38.5 -149.5q0 -83 38.5 -151t105.5 -107t147 -39q79 0 145 39.5zM274 199.5q-51 53.5 -51 150.5q0 60 24 106t67.5 72t97.5 26q72 0 118.5 -40t51.5 -107h-78q-5 37 -28.5 59.5t-61.5 22.5q-49 0 -79.5 -39t-30.5 -100q0 -63 29 -101t79 -38
q38 0 64 22.5t30 61.5h79q-5 -69 -52 -109t-123 -40q-85 0 -136 53.5z" />
    <glyph glyph-name="ordfeminine" unicode="&#xaa;" horiz-adv-x="399" 
d="M78 383q-34 29 -34 77t34.5 73.5t89.5 32.5l54 7q20 3 27.5 9.5t7.5 20.5q0 18 -14.5 30.5t-40.5 12.5q-29 0 -46 -14.5t-18 -39.5h-85q5 53 43 85.5t100 32.5q143 0 143 -147v-197h-78v13q0 20 1 31q-31 -56 -101 -56q-49 0 -83 29zM236 438q23 21 23 54v41
q-14 -10 -35 -13l-41 -6q-58 -8 -58 -51q0 -22 15.5 -34t39.5 -12q33 0 56 21z" />
    <glyph glyph-name="guillemotleft" unicode="&#xab;" horiz-adv-x="486" 
d="M235 30l-192 176v98l192 175v-121l-78 -66l-43 -37q41 -35 43 -37l78 -67v-121zM449 30l-192 176v98l192 175v-121l-78 -66l-43 -37l43 -37l78 -67v-121z" />
    <glyph glyph-name="logicalnot" unicode="&#xac;" horiz-adv-x="604" 
d="M536 97h-89v160h-385v85h474v-245z" />
    <glyph glyph-name="uni00AD" unicode="&#xad;" horiz-adv-x="380" 
d="M320 213h-259v92h259v-92z" />
    <glyph glyph-name="registered" unicode="&#xae;" horiz-adv-x="640" 
d="M182.5 203.5q-62.5 37.5 -99.5 100.5t-37 137q0 75 37 138.5t100 100.5t137 37t136.5 -37t99 -100.5t36.5 -138.5t-36.5 -138t-99.5 -100t-138 -37q-73 0 -135.5 37.5zM427.5 252q48.5 29 77 79t28.5 110t-28.5 110.5t-77 79.5t-107.5 29t-108.5 -29t-78 -79.5
t-28.5 -110.5t28.5 -110t78 -79t109.5 -29q58 0 106.5 29zM218 295v294h117q49 0 76.5 -22t27.5 -60q0 -25 -14 -44t-38 -28q46 -13 46 -67v-73h-58v67q0 27 -11 38t-39 11h-50v-116h-57zM331 460q51 0 51 41q0 37 -51 37h-56v-78h56z" />
    <glyph glyph-name="macron" unicode="&#xaf;" horiz-adv-x="383" 
d="M347 584h-300v81h300v-81z" />
    <glyph glyph-name="degree" unicode="&#xb0;" horiz-adv-x="370" 
d="M108.5 428.5q-34.5 19.5 -55 53.5t-20.5 76q0 41 20.5 75t55 53.5t75.5 19.5q42 0 77.5 -19.5t56 -53.5t20.5 -75q0 -42 -20.5 -76t-56 -53.5t-77.5 -19.5q-41 0 -75.5 19.5zM238 502.5q21 21.5 21 55.5q0 33 -21 54.5t-54 21.5q-31 0 -52 -21.5t-21 -54.5t21 -55t52 -22
q33 0 54 21.5z" />
    <glyph glyph-name="plusminus" unicode="&#xb1;" horiz-adv-x="609" 
d="M349 543v-130h194v-85h-194v-130h-87v130h-193v85h193v130h87zM543 54h-474v85h474v-85z" />
    <glyph glyph-name="uni00B2" unicode="&#xb2;" horiz-adv-x="409" 
d="M36 341q1 62 28.5 107t83.5 82l57 37q37 25 55.5 48.5t18.5 55.5t-19.5 52t-51.5 20q-38 0 -58.5 -23t-22.5 -65h-90q2 70 48 114t124 44q73 0 115.5 -40.5t42.5 -100.5q0 -52 -30 -90.5t-85 -74.5l-56 -36q-45 -29 -49 -54h221v-76h-332z" />
    <glyph glyph-name="uni00B3" unicode="&#xb3;" horiz-adv-x="422" 
d="M80.5 372.5q-47.5 42.5 -48.5 116.5h87q1 -42 24 -65.5t63 -23.5q39 0 62.5 19.5t23.5 53.5q0 33 -22.5 52.5t-63.5 19.5h-33v69h37q33 0 52.5 17.5t19.5 47.5t-19.5 47.5t-53.5 17.5q-38 0 -58.5 -21t-22.5 -56h-91q3 66 50 106t124 40q69 0 113.5 -36t44.5 -93
q0 -37 -22 -63.5t-62 -39.5q45 -13 70 -42.5t25 -71.5q0 -60 -47.5 -98.5t-126.5 -38.5q-78 0 -125.5 42.5z" />
    <glyph glyph-name="acute" unicode="&#xb4;" horiz-adv-x="282" 
d="M122 562h-84l73 136h119z" />
    <glyph glyph-name="mu" unicode="&#xb5;" horiz-adv-x="573" 
d="M78 -208v693h99v-290q0 -132 103 -132q54 0 85 38.5t31 107.5v275h99v-484h-98v26q0 28 2 41q-19 -38 -56.5 -60.5t-84.5 -22.5q-50 0 -82 24q1 -12 1 -37v-179h-99z" />
    <glyph glyph-name="paragraph" unicode="&#xb6;" horiz-adv-x="571" 
d="M225 339q-89 0 -142.5 48.5t-53.5 130.5t55.5 132t150.5 50h243v-829h-83v752h-86v-752h-84v468z" />
    <glyph glyph-name="periodcentered" unicode="&#xb7;" horiz-adv-x="249" 
d="M189 251h-128v128h128v-128z" />
    <glyph glyph-name="cedilla" unicode="&#xb8;" horiz-adv-x="305" 
d="M84.5 -203q-28.5 12 -47.5 32l37 44q32 -30 67 -30q19 0 32 8t13 23q0 12 -10.5 20t-29.5 8q-15 0 -29 -6l-33 37l62 92l58 -20l-40 -57q42 0 68 -21t26 -55q0 -38 -30 -62.5t-83 -24.5q-32 0 -60.5 12z" />
    <glyph glyph-name="uni00B9" unicode="&#xb9;" horiz-adv-x="292" 
d="M144 647q0 24 1 36q-18 -24 -50.5 -40t-70.5 -16v75q49 5 85.5 32.5t45.5 67.5h77v-461h-88v306z" />
    <glyph glyph-name="ordmasculine" unicode="&#xba;" horiz-adv-x="412" 
d="M117 378q-38 24 -58 64.5t-20 89.5q0 77 45 127.5t122 50.5t122 -50.5t45 -127.5q0 -49 -20 -89.5t-58 -64.5t-89 -24t-89 24zM267.5 449.5q21.5 30.5 21.5 82.5t-21.5 83t-61.5 31t-61.5 -31t-21.5 -83t21.5 -82.5t61.5 -30.5t61.5 30.5z" />
    <glyph glyph-name="guillemotright" unicode="&#xbb;" horiz-adv-x="486" 
d="M56 480l191 -175v-99l-191 -175v121l77 66q22 18 43 37l-19 17l-24 21l-77 66v121zM269 480l192 -175v-99l-192 -175v121l78 66l43 37q-35 30 -43 38l-78 66v121z" />
    <glyph glyph-name="onequarter" unicode="&#xbc;" horiz-adv-x="860" 
d="M755 0h-80v102h-196v64l177 253h99v-255h77v-62h-77v-102zM675 164v173l-13 -20l-90 -129q-7 -12 -17 -24h120zM137 560q0 21 1 32q-17 -22 -46.5 -36.5t-63.5 -14.5v68q44 5 77 30t42 61h70v-419h-80v279zM205 0h-96l508 700h96z" />
    <glyph glyph-name="onehalf" unicode="&#xbd;" horiz-adv-x="898" 
d="M137 560q0 21 1 32q-17 -22 -46.5 -36.5t-63.5 -14.5v68q44 5 77 30t42 61h70v-419h-80v279zM205 0h-96l508 700h96zM557 0q1 57 26 97.5t76 73.5l52 35q33 22 50 43.5t17 50.5q0 30 -17.5 48t-47.5 18q-34 0 -53 -21t-21 -59h-82q2 63 44 103t113 40q66 0 105 -37
t39 -91q0 -47 -27.5 -82.5t-77.5 -67.5l-50 -33q-42 -26 -46 -49h202v-69h-302z" />
    <glyph glyph-name="threequarters" unicode="&#xbe;" horiz-adv-x="943" 
d="M76.5 311q-43.5 39 -44.5 106h79q1 -38 22 -59.5t57 -21.5t57.5 17.5t21.5 48.5q0 30 -21 48t-57 18h-31v63h34q30 0 47.5 15.5t17.5 42.5q0 28 -17.5 43.5t-48.5 15.5q-34 0 -53 -19t-21 -50h-82q2 60 45 96t112 36q64 0 104.5 -32.5t40.5 -84.5q0 -33 -20 -58t-56 -36
q40 -11 62.5 -38t22.5 -66q0 -54 -43 -89t-114 -35t-114.5 39zM289 0h-96l508 700h96zM839 0h-80v102h-196v64l177 253h99v-255h77v-62h-77v-102zM759 164v173l-13 -20l-90 -129q-7 -12 -17 -24h120z" />
    <glyph glyph-name="questiondown" unicode="&#xbf;" horiz-adv-x="509" 
d="M207 484h121v-124h-121v124zM317 288q0 -72 -19 -115t-75 -88l-29 -23q-60 -48 -60 -107q0 -46 30 -74t82 -28q62 0 96.5 39t34.5 109h105q0 -71 -29.5 -124t-83.5 -81.5t-124 -28.5q-61 0 -110.5 24t-77 66t-27.5 93q0 101 99 178l32 24q32 26 45 56t13 80h98z" />
    <glyph glyph-name="Agrave" unicode="&#xc0;" horiz-adv-x="694" 
d="M334 913l69 -135h-85l-107 135h123zM693 0h-118l-77 202h-308l-76 -202h-113l283 700h125zM224 291h241l-98 257l-22 63q-10 -31 -24 -63z" />
    <glyph glyph-name="Aacute" unicode="&#xc1;" horiz-adv-x="694" 
d="M372 913h119l-108 -135h-83zM693 0h-118l-77 202h-308l-76 -202h-113l283 700h125zM224 291h241l-98 257l-22 63q-10 -31 -24 -63z" />
    <glyph glyph-name="Acircumflex" unicode="&#xc2;" horiz-adv-x="694" 
d="M288 781h-100l97 132h123l96 -132h-98l-30 39l-30 41q-2 -3 -29 -41zM693 0h-118l-77 202h-308l-76 -202h-113l283 700h125zM224 291h241l-98 257l-22 63q-10 -31 -24 -63z" />
    <glyph glyph-name="Atilde" unicode="&#xc3;" horiz-adv-x="694" 
d="M258 794h-78q0 57 27 85.5t72 28.5q20 0 35.5 -5.5t40.5 -16.5q16 -8 27.5 -12.5t22.5 -4.5q16 0 23 9t8 28h78q0 -56 -25.5 -84t-71.5 -28q-19 0 -35.5 5.5t-39.5 15.5q-13 6 -27 11t-25 5q-31 0 -32 -37zM693 0h-118l-77 202h-308l-76 -202h-113l283 700h125zM224 291
h241l-98 257l-22 63q-10 -31 -24 -63z" />
    <glyph glyph-name="Adieresis" unicode="&#xc4;" horiz-adv-x="694" 
d="M192 897h110v-112h-110v112zM392 897h109v-112h-109v112zM693 0h-118l-77 202h-308l-76 -202h-113l283 700h125zM224 291h241l-98 257l-22 63q-10 -31 -24 -63z" />
    <glyph glyph-name="Aring" unicode="&#xc5;" horiz-adv-x="694" 
d="M282 775q-27 25 -27 65t27 65.5t65 25.5t65 -25.5t27 -65.5q0 -39 -27 -64.5t-65 -25.5t-65 25zM322.5 867q-9.5 -10 -9.5 -27t9.5 -27t24.5 -10q16 0 25 10t9 27t-9.5 27t-24.5 10t-24.5 -10zM693 0h-118l-77 202h-308l-76 -202h-113l283 700h125zM224 291h241l-98 257
l-22 63q-10 -31 -24 -63z" />
    <glyph glyph-name="AE" unicode="&#xc6;" horiz-adv-x="920" 
d="M511 319v-229h360v-90h-466v201h-200l-98 -201h-117l358 700h510v-89h-347v-202h332v-90h-332zM249 290h156v322q-18 -42 -32 -69z" />
    <glyph glyph-name="Ccedilla" unicode="&#xc7;" horiz-adv-x="724" 
d="M690 236q-13 -109 -86.5 -176t-190.5 -75l-26 -37q42 0 68 -21t26 -55q0 -38 -30 -62.5t-82 -24.5q-33 0 -61.5 12t-47.5 32l37 44q32 -30 67 -30q20 0 33 8.5t13 22.5q0 12 -11 20t-29 8q-15 0 -29 -6l-34 37l36 53q-91 8 -158 54.5t-104 126.5t-37 187
q0 108 44.5 190.5t122 127.5t174.5 45q84 0 150 -31.5t106.5 -88.5t47.5 -130h-114q-12 75 -61.5 117.5t-130.5 42.5q-67 0 -119 -33t-80.5 -94.5t-28.5 -145.5q0 -85 29 -148.5t80.5 -98t117.5 -34.5q82 0 134.5 44.5t65.5 118.5h108z" />
    <glyph glyph-name="Egrave" unicode="&#xc8;" horiz-adv-x="614" 
d="M382 778h-85l-107 136h124zM565 0h-480v700h467v-89h-361v-207h346v-90h-346v-224h374v-90z" />
    <glyph glyph-name="Eacute" unicode="&#xc9;" horiz-adv-x="614" 
d="M362 778h-84l73 136h119zM565 0h-480v700h467v-89h-361v-207h346v-90h-346v-224h374v-90z" />
    <glyph glyph-name="Ecircumflex" unicode="&#xca;" horiz-adv-x="614" 
d="M167 782l97 132h122l97 -132h-99l-30 38q-27 38 -29 41l-30 -41l-29 -38h-99zM565 0h-480v700h467v-89h-361v-207h346v-90h-346v-224h374v-90z" />
    <glyph glyph-name="Edieresis" unicode="&#xcb;" horiz-adv-x="614" 
d="M280 785h-109v112h109v-112zM479 785h-109v112h109v-112zM565 0h-480v700h467v-89h-361v-207h346v-90h-346v-224h374v-90z" />
    <glyph glyph-name="Igrave" unicode="&#xcc;" horiz-adv-x="277" 
d="M126 914l68 -136h-85l-107 136h124zM85 700h106v-700h-106v700z" />
    <glyph glyph-name="Iacute" unicode="&#xcd;" horiz-adv-x="277" 
d="M164 914h119l-108 -136h-84zM85 700h106v-700h-106v700z" />
    <glyph glyph-name="Icircumflex" unicode="&#xce;" horiz-adv-x="277" 
d="M199 914l97 -132h-99l-30 38q-27 38 -29 41l-30 -41l-29 -38h-99l97 132h122zM85 700h106v-700h-106v700z" />
    <glyph glyph-name="Idieresis" unicode="&#xcf;" horiz-adv-x="277" 
d="M-16 897h109v-112h-109v112zM183 785v112h109v-112h-109zM85 700h106v-700h-106v700z" />
    <glyph glyph-name="Eth" unicode="&#xd0;" horiz-adv-x="739" 
d="M318 700q178 0 276 -87t98 -263q0 -107 -41 -185.5t-121.5 -121.5t-196.5 -43h-239v313h-72v81h72v306h224zM323 90q124 0 192 63.5t68 196.5q0 127 -65 194t-198 67h-120v-217h102v-81h-102v-223h123z" />
    <glyph glyph-name="Ntilde" unicode="&#xd1;" horiz-adv-x="770" 
d="M429.5 799.5q-16.5 5.5 -39.5 15.5q-13 6 -27 11t-25 5q-31 0 -32 -37h-78q0 57 27 85.5t72 28.5q20 0 35.5 -5.5t40.5 -16.5q16 -8 27.5 -12.5t22.5 -4.5q16 0 23 9t8 29h78q0 -57 -25.5 -85t-71.5 -28q-19 0 -35.5 5.5zM85 0v700h160l335 -571q-2 60 -2 95v476h107
v-700h-144l-351 597q1 -33 1 -90v-507h-106z" />
    <glyph glyph-name="Ograve" unicode="&#xd2;" horiz-adv-x="761" 
d="M436 778h-85l-107 136h124zM207.5 28.5q-76.5 44.5 -120 127.5t-43.5 194q0 109 43.5 192.5t120 129t172.5 45.5t172.5 -46t120.5 -129.5t44 -191.5q0 -110 -44 -193t-120.5 -128t-172.5 -45t-172.5 44.5zM498.5 106q51.5 33 79.5 95.5t28 148.5q0 84 -28.5 147
t-79.5 96.5t-118 33.5t-118 -33.5t-79.5 -96t-28.5 -147.5t28 -147.5t79.5 -96t118.5 -33.5t118.5 33z" />
    <glyph glyph-name="Oacute" unicode="&#xd3;" horiz-adv-x="761" 
d="M416 778h-84l73 136h119zM207.5 28.5q-76.5 44.5 -120 127.5t-43.5 194q0 109 43.5 192.5t120 129t172.5 45.5t172.5 -46t120.5 -129.5t44 -191.5q0 -110 -44 -193t-120.5 -128t-172.5 -45t-172.5 44.5zM498.5 106q51.5 33 79.5 95.5t28 148.5q0 84 -28.5 147t-79.5 96.5
t-118 33.5t-118 -33.5t-79.5 -96t-28.5 -147.5t28 -147.5t79.5 -96t118.5 -33.5t118.5 33z" />
    <glyph glyph-name="Ocircumflex" unicode="&#xd4;" horiz-adv-x="761" 
d="M222 782l97 132h122l97 -132h-99l-30 38q-27 38 -29 41l-30 -41l-29 -38h-99zM207.5 28.5q-76.5 44.5 -120 127.5t-43.5 194q0 109 43.5 192.5t120 129t172.5 45.5t172.5 -46t120.5 -129.5t44 -191.5q0 -110 -44 -193t-120.5 -128t-172.5 -45t-172.5 44.5zM498.5 106
q51.5 33 79.5 95.5t28 148.5q0 84 -28.5 147t-79.5 96.5t-118 33.5t-118 -33.5t-79.5 -96t-28.5 -147.5t28 -147.5t79.5 -96t118.5 -33.5t118.5 33z" />
    <glyph glyph-name="Otilde" unicode="&#xd5;" horiz-adv-x="761" 
d="M414.5 799.5q-16.5 5.5 -39.5 15.5q-13 6 -27 11t-25 5q-31 0 -32 -37h-78q0 57 27 85.5t72 28.5q20 0 35.5 -5.5t40.5 -16.5q16 -8 27.5 -12.5t22.5 -4.5q16 0 23 9t8 29h78q0 -57 -25.5 -85t-71.5 -28q-19 0 -35.5 5.5zM207.5 28.5q-76.5 44.5 -120 127.5t-43.5 194
q0 109 43.5 192.5t120 129t172.5 45.5t172.5 -46t120.5 -129.5t44 -191.5q0 -110 -44 -193t-120.5 -128t-172.5 -45t-172.5 44.5zM498.5 106q51.5 33 79.5 95.5t28 148.5q0 84 -28.5 147t-79.5 96.5t-118 33.5t-118 -33.5t-79.5 -96t-28.5 -147.5t28 -147.5t79.5 -96
t118.5 -33.5t118.5 33z" />
    <glyph glyph-name="Odieresis" unicode="&#xd6;" horiz-adv-x="761" 
d="M334 785h-109v112h109v-112zM533 785h-109v112h109v-112zM207.5 28.5q-76.5 44.5 -120 127.5t-43.5 194q0 109 43.5 192.5t120 129t172.5 45.5t172.5 -46t120.5 -129.5t44 -191.5q0 -110 -44 -193t-120.5 -128t-172.5 -45t-172.5 44.5zM498.5 106q51.5 33 79.5 95.5
t28 148.5q0 84 -28.5 147t-79.5 96.5t-118 33.5t-118 -33.5t-79.5 -96t-28.5 -147.5t28 -147.5t79.5 -96t118.5 -33.5t118.5 33z" />
    <glyph glyph-name="multiply" unicode="&#xd7;" horiz-adv-x="544" 
d="M273 240l-169 -170l-62 63l169 168l-168 166l64 62l165 -167l166 167l63 -62l-167 -166l168 -168l-62 -63z" />
    <glyph glyph-name="Oslash" unicode="&#xd8;" horiz-adv-x="761" 
d="M631 605q41 -48 63.5 -113t22.5 -142q0 -110 -44 -193t-120.5 -128t-172.5 -45q-103 0 -184 52l-56 -74l-70 50l61 80q-42 48 -64.5 114t-22.5 144q0 109 43.5 192.5t120 129t172.5 45.5q106 0 187 -55l59 78l68 -52zM196 176l312 410q-53 41 -128 41q-67 0 -118 -33.5
t-79.5 -96t-28.5 -147.5q0 -104 42 -174zM498.5 106q51.5 33 79.5 95.5t28 148.5q0 101 -40 170l-312 -409q53 -38 126 -38q67 0 118.5 33z" />
    <glyph glyph-name="Ugrave" unicode="&#xd9;" horiz-adv-x="698" 
d="M405 778h-85l-107 136h124zM149 57q-71 73 -71 214v429h106v-414q0 -213 165 -213q166 0 166 213v414h106v-429q0 -140 -71.5 -213.5t-200.5 -73.5t-200 73z" />
    <glyph glyph-name="Uacute" unicode="&#xda;" horiz-adv-x="698" 
d="M385 778h-84l73 136h119zM149 57q-71 73 -71 214v429h106v-414q0 -213 165 -213q166 0 166 213v414h106v-429q0 -140 -71.5 -213.5t-200.5 -73.5t-200 73z" />
    <glyph glyph-name="Ucircumflex" unicode="&#xdb;" horiz-adv-x="698" 
d="M191 782l97 132h122l97 -132h-99l-30 38q-27 38 -29 41l-30 -41l-29 -38h-99zM149 57q-71 73 -71 214v429h106v-414q0 -213 165 -213q166 0 166 213v414h106v-429q0 -140 -71.5 -213.5t-200.5 -73.5t-200 73z" />
    <glyph glyph-name="Udieresis" unicode="&#xdc;" horiz-adv-x="698" 
d="M304 785h-109v112h109v-112zM503 785h-109v112h109v-112zM149 57q-71 73 -71 214v429h106v-414q0 -213 165 -213q166 0 166 213v414h106v-429q0 -140 -71.5 -213.5t-200.5 -73.5t-200 73z" />
    <glyph glyph-name="Yacute" unicode="&#xdd;" horiz-adv-x="617" 
d="M348 778h-84l73 136h119zM254 0v295l-249 405h122l138 -237q19 -31 43 -78l45 78l140 237h119l-251 -405v-295h-107z" />
    <glyph glyph-name="Thorn" unicode="&#xde;" horiz-adv-x="642" 
d="M85 0v700h106v-132h169q108 0 176.5 -48.5t68.5 -153.5q0 -107 -68.5 -155t-179.5 -48h-166v-163h-106zM359 252q137 0 137 115q0 112 -137 112h-168v-227h168z" />
    <glyph glyph-name="germandbls" unicode="&#xdf;" horiz-adv-x="588" 
d="M276 -14q-22 2 -32 6v85q30 -7 58 -7q66 0 105 31t39 90q0 60 -41.5 94t-106.5 34h-46v79h47q59 0 98.5 33t39.5 89q0 54 -33.5 86t-91.5 32q-68 0 -105.5 -42.5t-37.5 -113.5v-482h-99v483q0 68 28.5 121t84 83t132.5 30q65 0 115.5 -22.5t79.5 -65t29 -99.5
q0 -61 -37.5 -106.5t-97.5 -62.5q66 -17 105 -62.5t39 -111.5q0 -95 -62.5 -149t-168.5 -54q-19 0 -41 2z" />
    <glyph glyph-name="agrave" unicode="&#xe0;" horiz-adv-x="517" 
d="M316 562h-85l-107 136h124zM125.5 2q-38.5 18 -61 52t-22.5 79q0 128 171 154l91 14q28 4 39.5 14.5t11.5 31.5q0 35 -25 56t-66 21q-49 0 -77.5 -25t-30.5 -68h-101q3 47 28 85.5t69.5 61t104.5 22.5q97 0 146.5 -51t49.5 -144v-305h-94v23q0 13 2 43q-19 -38 -58 -60
t-94 -22q-45 0 -83.5 18zM320 94.5q36 34.5 36 90.5v64q-11 -12 -55 -21l-58 -11q-99 -19 -99 -82q0 -35 24 -55t61 -20q55 0 91 34.5z" />
    <glyph glyph-name="aacute" unicode="&#xe1;" horiz-adv-x="517" 
d="M296 562h-84l73 136h119zM125.5 2q-38.5 18 -61 52t-22.5 79q0 128 171 154l91 14q28 4 39.5 14.5t11.5 31.5q0 35 -25 56t-66 21q-49 0 -77.5 -25t-30.5 -68h-101q3 47 28 85.5t69.5 61t104.5 22.5q97 0 146.5 -51t49.5 -144v-305h-94v23q0 13 2 43q-19 -38 -58 -60
t-94 -22q-45 0 -83.5 18zM320 94.5q36 34.5 36 90.5v64q-11 -12 -55 -21l-58 -11q-99 -19 -99 -82q0 -35 24 -55t61 -20q55 0 91 34.5z" />
    <glyph glyph-name="acircumflex" unicode="&#xe2;" horiz-adv-x="517" 
d="M102 566l97 132h122l97 -132h-99l-30 38q-27 38 -29 41l-30 -41l-29 -38h-99zM125.5 2q-38.5 18 -61 52t-22.5 79q0 128 171 154l91 14q28 4 39.5 14.5t11.5 31.5q0 35 -25 56t-66 21q-49 0 -77.5 -25t-30.5 -68h-101q3 47 28 85.5t69.5 61t104.5 22.5q97 0 146.5 -51
t49.5 -144v-305h-94v23q0 13 2 43q-19 -38 -58 -60t-94 -22q-45 0 -83.5 18zM320 94.5q36 34.5 36 90.5v64q-11 -12 -55 -21l-58 -11q-99 -19 -99 -82q0 -35 24 -55t61 -20q55 0 91 34.5z" />
    <glyph glyph-name="atilde" unicode="&#xe3;" horiz-adv-x="517" 
d="M294.5 583.5q-16.5 5.5 -39.5 15.5q-13 6 -27 11t-25 5q-31 0 -32 -37h-78q0 57 27 85.5t72 28.5q20 0 35.5 -5.5t40.5 -16.5q16 -8 27.5 -12.5t22.5 -4.5q16 0 23 9t8 29h78q0 -57 -25.5 -85t-71.5 -28q-19 0 -35.5 5.5zM125.5 2q-38.5 18 -61 52t-22.5 79
q0 128 171 154l91 14q28 4 39.5 14.5t11.5 31.5q0 35 -25 56t-66 21q-49 0 -77.5 -25t-30.5 -68h-101q3 47 28 85.5t69.5 61t104.5 22.5q97 0 146.5 -51t49.5 -144v-305h-94v23q0 13 2 43q-19 -38 -58 -60t-94 -22q-45 0 -83.5 18zM320 94.5q36 34.5 36 90.5v64
q-11 -12 -55 -21l-58 -11q-99 -19 -99 -82q0 -35 24 -55t61 -20q55 0 91 34.5z" />
    <glyph glyph-name="adieresis" unicode="&#xe4;" horiz-adv-x="517" 
d="M214 569h-109v112h109v-112zM413 569h-109v112h109v-112zM125.5 2q-38.5 18 -61 52t-22.5 79q0 128 171 154l91 14q28 4 39.5 14.5t11.5 31.5q0 35 -25 56t-66 21q-49 0 -77.5 -25t-30.5 -68h-101q3 47 28 85.5t69.5 61t104.5 22.5q97 0 146.5 -51t49.5 -144v-305h-94v23
q0 13 2 43q-19 -38 -58 -60t-94 -22q-45 0 -83.5 18zM320 94.5q36 34.5 36 90.5v64q-11 -12 -55 -21l-58 -11q-99 -19 -99 -82q0 -35 24 -55t61 -20q55 0 91 34.5z" />
    <glyph glyph-name="aring" unicode="&#xe5;" horiz-adv-x="517" 
d="M195.5 559q-26.5 25 -26.5 65t26.5 66t64.5 26t65 -26t27 -66t-27 -65t-65 -25t-64.5 25zM285 597q9 10 9 27q0 18 -9.5 28t-24.5 10t-24.5 -10t-9.5 -28q0 -17 9.5 -27t24.5 -10q16 0 25 10zM125.5 2q-38.5 18 -61 52t-22.5 79q0 128 171 154l91 14q28 4 39.5 14.5
t11.5 31.5q0 35 -25 56t-66 21q-49 0 -77.5 -25t-30.5 -68h-101q3 47 28 85.5t69.5 61t104.5 22.5q97 0 146.5 -51t49.5 -144v-305h-94v23q0 13 2 43q-19 -38 -58 -60t-94 -22q-45 0 -83.5 18zM320 94.5q36 34.5 36 90.5v64q-11 -12 -55 -21l-58 -11q-99 -19 -99 -82
q0 -35 24 -55t61 -20q55 0 91 34.5z" />
    <glyph glyph-name="ae" unicode="&#xe6;" horiz-adv-x="862" 
d="M90 25.5q-48 41.5 -48 109.5q0 69 48 105t126 47l91 13q26 4 38 15t12 31q0 35 -26 56.5t-68 21.5q-50 0 -77 -25t-29 -68h-101q3 48 28 86.5t70 60.5t104 22q113 0 164 -81q32 39 76 60t96 21q107 0 167 -69.5t60 -188.5v-21h-362q1 -72 39.5 -115.5t98.5 -43.5
q47 0 80 22t40 69h100q-8 -72 -65 -120.5t-154 -48.5q-68 0 -118.5 27t-80.5 79q-24 -51 -74 -78.5t-112 -27.5q-75 0 -123 41.5zM717 292q-1 60 -33.5 96t-89.5 36q-55 0 -91.5 -37.5t-42.5 -94.5h257zM321 95q37 35 37 90v64q-8 -12 -48 -20l-64 -12q-47 -8 -74 -27
t-27 -55q0 -35 23.5 -55t59.5 -20q56 0 93 35z" />
    <glyph glyph-name="ccedilla" unicode="&#xe7;" horiz-adv-x="541" 
d="M508 171q-8 -80 -59.5 -129.5t-139.5 -56.5l-26 -37q42 0 68 -21t26 -55q0 -38 -30 -62.5t-83 -24.5q-32 0 -60.5 12t-47.5 32l37 44q32 -30 67 -30q19 0 32 8t13 23q0 12 -10.5 20t-29.5 8q-15 0 -29 -6l-33 37l36 54q-90 13 -144.5 79.5t-54.5 176.5q0 76 32.5 134.5
t88.5 90.5t125 32q93 0 151.5 -51t66.5 -135h-102q-5 47 -35.5 77t-81.5 30q-63 0 -103 -49.5t-40 -129.5q0 -81 39.5 -130.5t103.5 -49.5q53 0 85.5 29.5t37.5 79.5h100z" />
    <glyph glyph-name="egrave" unicode="&#xe8;" horiz-adv-x="544" 
d="M333 562h-85l-107 136h124zM104.5 52q-64.5 68 -64.5 192q0 74 30.5 132.5t84 91t120.5 32.5q108 0 168 -69.5t60 -188.5v-21h-362q1 -73 40 -116t100 -43q46 0 78 22t40 69h100q-8 -73 -65 -121t-154 -48q-111 0 -175.5 68zM398 292q0 60 -33 96t-90 36q-55 0 -91.5 -37
t-41.5 -95h256z" />
    <glyph glyph-name="eacute" unicode="&#xe9;" horiz-adv-x="544" 
d="M313 562h-84l73 136h119zM104.5 52q-64.5 68 -64.5 192q0 74 30.5 132.5t84 91t120.5 32.5q108 0 168 -69.5t60 -188.5v-21h-362q1 -73 40 -116t100 -43q46 0 78 22t40 69h100q-8 -73 -65 -121t-154 -48q-111 0 -175.5 68zM398 292q0 60 -33 96t-90 36q-55 0 -91.5 -37
t-41.5 -95h256z" />
    <glyph glyph-name="ecircumflex" unicode="&#xea;" horiz-adv-x="544" 
d="M118 566l97 132h122l97 -132h-99l-30 38q-27 38 -29 41l-30 -41l-29 -38h-99zM104.5 52q-64.5 68 -64.5 192q0 74 30.5 132.5t84 91t120.5 32.5q108 0 168 -69.5t60 -188.5v-21h-362q1 -73 40 -116t100 -43q46 0 78 22t40 69h100q-8 -73 -65 -121t-154 -48
q-111 0 -175.5 68zM398 292q0 60 -33 96t-90 36q-55 0 -91.5 -37t-41.5 -95h256z" />
    <glyph glyph-name="edieresis" unicode="&#xeb;" horiz-adv-x="544" 
d="M231 569h-109v112h109v-112zM430 569h-109v112h109v-112zM104.5 52q-64.5 68 -64.5 192q0 74 30.5 132.5t84 91t120.5 32.5q108 0 168 -69.5t60 -188.5v-21h-362q1 -73 40 -116t100 -43q46 0 78 22t40 69h100q-8 -73 -65 -121t-154 -48q-111 0 -175.5 68zM398 292
q0 60 -33 96t-90 36q-55 0 -91.5 -37t-41.5 -95h256z" />
    <glyph glyph-name="igrave" unicode="&#xec;" horiz-adv-x="238" 
d="M107 698l68 -136h-85l-107 136h124zM70 484h99v-484h-99v484z" />
    <glyph glyph-name="iacute" unicode="&#xed;" horiz-adv-x="238" 
d="M145 698h119l-108 -136h-84zM70 484h99v-484h-99v484z" />
    <glyph glyph-name="icircumflex" unicode="&#xee;" horiz-adv-x="238" 
d="M180 698l97 -132h-99l-30 38q-27 38 -29 41l-30 -41l-29 -38h-99l97 132h122zM70 484h99v-484h-99v484z" />
    <glyph glyph-name="idieresis" unicode="&#xef;" horiz-adv-x="238" 
d="M-35 681h109v-112h-109v112zM164 569v112h109v-112h-109zM70 484h99v-484h-99v484z" />
    <glyph glyph-name="eth" unicode="&#xf0;" horiz-adv-x="566" 
d="M422 579q51 -68 76.5 -152t25.5 -175q0 -81 -31 -141.5t-86.5 -93.5t-125.5 -33q-71 0 -125.5 32t-85 90.5t-30.5 135.5q0 76 30 134.5t82 91t117 32.5q32 0 62.5 -11t54.5 -35q-4 8 -27 45q-19 29 -39 50l-121 -35l-21 69l80 23q-34 27 -84 54l77 61q71 -36 118 -82
l107 31l20 -69zM384 110.5q38 48.5 38 131.5q0 82 -38.5 130.5t-101.5 48.5t-101.5 -48.5t-38.5 -130.5q0 -83 38 -131.5t102 -48.5t102 48.5z" />
    <glyph glyph-name="ntilde" unicode="&#xf1;" horiz-adv-x="556" 
d="M322.5 583.5q-16.5 5.5 -39.5 15.5q-13 6 -27 11t-25 5q-31 0 -32 -37h-78q0 57 27 85.5t72 28.5q20 0 35.5 -5.5t40.5 -16.5q16 -8 27.5 -12.5t22.5 -4.5q16 0 23 9t8 29h78q0 -57 -25.5 -85t-71.5 -28q-19 0 -35.5 5.5zM70 0v484h99v-29q0 -24 -1 -38q20 36 59.5 59.5
t88.5 23.5q83 0 129.5 -51.5t46.5 -142.5v-306h-99v292q0 129 -101 129q-55 0 -89 -38t-34 -94v-289h-99z" />
    <glyph glyph-name="ograve" unicode="&#xf2;" horiz-adv-x="563" 
d="M338 562h-85l-107 136h124zM156 16q-55 32 -85.5 90.5t-30.5 135.5q0 76 31 134.5t86 91t125 32.5t125 -32.5t86 -91t31 -134.5q0 -77 -31 -135.5t-86 -90.5t-125 -32q-71 0 -126 32zM384 110.5q38 48.5 38 131.5q0 82 -38.5 130.5t-101.5 48.5t-101.5 -48.5
t-38.5 -130.5q0 -83 38 -131.5t102 -48.5t102 48.5z" />
    <glyph glyph-name="oacute" unicode="&#xf3;" horiz-adv-x="563" 
d="M318 562h-84l73 136h119zM156 16q-55 32 -85.5 90.5t-30.5 135.5q0 76 31 134.5t86 91t125 32.5t125 -32.5t86 -91t31 -134.5q0 -77 -31 -135.5t-86 -90.5t-125 -32q-71 0 -126 32zM384 110.5q38 48.5 38 131.5q0 82 -38.5 130.5t-101.5 48.5t-101.5 -48.5t-38.5 -130.5
q0 -83 38 -131.5t102 -48.5t102 48.5z" />
    <glyph glyph-name="ocircumflex" unicode="&#xf4;" horiz-adv-x="563" 
d="M123 566l97 132h122l97 -132h-99l-30 38q-27 38 -29 41l-30 -41l-29 -38h-99zM156 16q-55 32 -85.5 90.5t-30.5 135.5q0 76 31 134.5t86 91t125 32.5t125 -32.5t86 -91t31 -134.5q0 -77 -31 -135.5t-86 -90.5t-125 -32q-71 0 -126 32zM384 110.5q38 48.5 38 131.5
q0 82 -38.5 130.5t-101.5 48.5t-101.5 -48.5t-38.5 -130.5q0 -83 38 -131.5t102 -48.5t102 48.5z" />
    <glyph glyph-name="otilde" unicode="&#xf5;" horiz-adv-x="563" 
d="M316.5 583.5q-16.5 5.5 -39.5 15.5q-13 6 -27 11t-25 5q-31 0 -32 -37h-78q0 57 27 85.5t72 28.5q20 0 35.5 -5.5t40.5 -16.5q16 -8 27.5 -12.5t22.5 -4.5q16 0 23 9t8 29h78q0 -57 -25.5 -85t-71.5 -28q-19 0 -35.5 5.5zM156 16q-55 32 -85.5 90.5t-30.5 135.5
q0 76 31 134.5t86 91t125 32.5t125 -32.5t86 -91t31 -134.5q0 -77 -31 -135.5t-86 -90.5t-125 -32q-71 0 -126 32zM384 110.5q38 48.5 38 131.5q0 82 -38.5 130.5t-101.5 48.5t-101.5 -48.5t-38.5 -130.5q0 -83 38 -131.5t102 -48.5t102 48.5z" />
    <glyph glyph-name="odieresis" unicode="&#xf6;" horiz-adv-x="563" 
d="M236 569h-109v112h109v-112zM435 569h-109v112h109v-112zM156 16q-55 32 -85.5 90.5t-30.5 135.5q0 76 31 134.5t86 91t125 32.5t125 -32.5t86 -91t31 -134.5q0 -77 -31 -135.5t-86 -90.5t-125 -32q-71 0 -126 32zM384 110.5q38 48.5 38 131.5q0 82 -38.5 130.5
t-101.5 48.5t-101.5 -48.5t-38.5 -130.5q0 -83 38 -131.5t102 -48.5t102 48.5z" />
    <glyph glyph-name="divide" unicode="&#xf7;" horiz-adv-x="580" 
d="M341 436h-101v104h101v-104zM529 257h-474v85h474v-85zM341 60h-101v103h101v-103z" />
    <glyph glyph-name="oslash" unicode="&#xf8;" horiz-adv-x="563" 
d="M466 418q58 -71 58 -176q0 -77 -31 -135.5t-86 -90.5t-125 -32q-68 0 -124 31l-44 -58l-63 46l47 62q-28 33 -43 78.5t-15 98.5q0 76 31 134.5t86 91t125 32.5q69 0 124 -32l45 60l63 -47zM160 146l194 254q-31 21 -72 21q-63 0 -101.5 -48.5t-38.5 -130.5q0 -57 18 -96z
M384 110.5q38 48.5 38 131.5q0 56 -18 95l-194 -254q30 -21 72 -21q64 0 102 48.5z" />
    <glyph glyph-name="ugrave" unicode="&#xf9;" horiz-adv-x="551" 
d="M334 562h-85l-107 136h124zM110.5 34q-46.5 50 -46.5 142v308h100v-289q0 -132 102 -132q55 0 86 38.5t31 107.5v275h98v-484h-97v26q0 28 1 41q-18 -38 -56.5 -60.5t-90.5 -22.5q-81 0 -127.5 50z" />
    <glyph glyph-name="uacute" unicode="&#xfa;" horiz-adv-x="551" 
d="M314 562h-84l73 136h119zM110.5 34q-46.5 50 -46.5 142v308h100v-289q0 -132 102 -132q55 0 86 38.5t31 107.5v275h98v-484h-97v26q0 28 1 41q-18 -38 -56.5 -60.5t-90.5 -22.5q-81 0 -127.5 50z" />
    <glyph glyph-name="ucircumflex" unicode="&#xfb;" horiz-adv-x="551" 
d="M120 566l97 132h122l97 -132h-99l-30 38q-27 38 -29 41l-30 -41l-29 -38h-99zM110.5 34q-46.5 50 -46.5 142v308h100v-289q0 -132 102 -132q55 0 86 38.5t31 107.5v275h98v-484h-97v26q0 28 1 41q-18 -38 -56.5 -60.5t-90.5 -22.5q-81 0 -127.5 50z" />
    <glyph glyph-name="udieresis" unicode="&#xfc;" horiz-adv-x="551" 
d="M232 569h-109v112h109v-112zM431 569h-109v112h109v-112zM110.5 34q-46.5 50 -46.5 142v308h100v-289q0 -132 102 -132q55 0 86 38.5t31 107.5v275h98v-484h-97v26q0 28 1 41q-18 -38 -56.5 -60.5t-90.5 -22.5q-81 0 -127.5 50z" />
    <glyph glyph-name="yacute" unicode="&#xfd;" horiz-adv-x="491" 
d="M286 562h-84l73 136h119zM118 -208l85 220l-192 472h110l114 -310q9 -24 21 -59q9 33 19 59l103 310h104l-258 -692h-106z" />
    <glyph glyph-name="thorn" unicode="&#xfe;" horiz-adv-x="585" 
d="M70 -208v908h99v-246q0 -23 -1 -37q22 37 64 60t95 23q66 0 116 -33t76.5 -91.5t26.5 -133.5q0 -76 -28.5 -135t-79 -91t-114.5 -32q-54 0 -94 22t-62 61q1 -16 1 -43v-232h-99zM405 112q38 50 38 130t-38 129.5t-101 49.5q-62 0 -101 -49t-39 -130q0 -80 39 -130
t101 -50q63 0 101 50z" />
    <glyph glyph-name="ydieresis" unicode="&#xff;" horiz-adv-x="491" 
d="M205 569h-109v112h109v-112zM404 569h-109v112h109v-112zM118 -208l85 220l-192 472h110l114 -310q9 -24 21 -59q9 33 19 59l103 310h104l-258 -692h-106z" />
    <glyph glyph-name="Amacron" unicode="&#x100;" horiz-adv-x="694" 
d="M197 880h300v-80h-300v80zM693 0h-118l-77 202h-308l-76 -202h-113l283 700h125zM224 291h241l-98 257l-22 63q-10 -31 -24 -63z" />
    <glyph glyph-name="amacron" unicode="&#x101;" horiz-adv-x="517" 
d="M410 584h-300v81h300v-81zM125.5 2q-38.5 18 -61 52t-22.5 79q0 128 171 154l91 14q28 4 39.5 14.5t11.5 31.5q0 35 -25 56t-66 21q-49 0 -77.5 -25t-30.5 -68h-101q3 47 28 85.5t69.5 61t104.5 22.5q97 0 146.5 -51t49.5 -144v-305h-94v23q0 13 2 43q-19 -38 -58 -60
t-94 -22q-45 0 -83.5 18zM320 94.5q36 34.5 36 90.5v64q-11 -12 -55 -21l-58 -11q-99 -19 -99 -82q0 -35 24 -55t61 -20q55 0 91 34.5z" />
    <glyph glyph-name="Abreve" unicode="&#x102;" horiz-adv-x="694" 
d="M246 814q-35 38 -35 99h75q2 -62 60 -62q31 0 46 17t16 45h75q0 -62 -35 -99.5t-102 -37.5q-65 0 -100 38zM693 0h-118l-77 202h-308l-76 -202h-113l283 700h125zM224 291h241l-98 257l-22 63q-10 -31 -24 -63z" />
    <glyph glyph-name="abreve" unicode="&#x103;" horiz-adv-x="517" 
d="M159 598q-35 38 -35 100h75q2 -63 60 -63q31 0 46 17t16 46h75q0 -63 -35 -100.5t-102 -37.5q-65 0 -100 38zM125.5 2q-38.5 18 -61 52t-22.5 79q0 128 171 154l91 14q28 4 39.5 14.5t11.5 31.5q0 35 -25 56t-66 21q-49 0 -77.5 -25t-30.5 -68h-101q3 47 28 85.5t69.5 61
t104.5 22.5q97 0 146.5 -51t49.5 -144v-305h-94v23q0 13 2 43q-19 -38 -58 -60t-94 -22q-45 0 -83.5 18zM320 94.5q36 34.5 36 90.5v64q-11 -12 -55 -21l-58 -11q-99 -19 -99 -82q0 -35 24 -55t61 -20q55 0 91 34.5z" />
    <glyph glyph-name="Aogonek" unicode="&#x104;" horiz-adv-x="694" 
d="M696 -116v-67q-22 -12 -60 -12q-49 0 -79.5 25.5t-30.5 67.5q0 65 76 102h-27l-77 202h-308l-76 -202h-113l283 700h125l284 -700q-37 -19 -59 -39.5t-22 -44.5q0 -20 13 -29.5t31 -9.5q22 0 40 7zM224 291h241l-98 257l-22 63q-10 -31 -24 -63z" />
    <glyph glyph-name="aogonek" unicode="&#x105;" horiz-adv-x="517" 
d="M456 -116v-67q-24 -12 -58 -12q-50 0 -81 26t-31 70q0 62 73 103v19q0 13 2 43q-19 -38 -58 -60t-94 -22q-45 0 -83.5 18t-61 52t-22.5 79q0 128 171 154l91 14q28 4 39.5 14.5t11.5 31.5q0 35 -25 56t-66 21q-49 0 -77.5 -25t-30.5 -68h-101q3 47 28 85.5t69.5 61
t104.5 22.5q97 0 146.5 -51t49.5 -144v-305q-81 -41 -81 -84q0 -20 13 -29.5t33 -9.5q18 0 38 7zM356 249q-11 -12 -55 -21l-58 -11q-99 -19 -99 -82q0 -35 24 -55t61 -20q55 0 91 34.5t36 90.5v64z" />
    <glyph glyph-name="Cacute" unicode="&#x106;" horiz-adv-x="724" 
d="M419 778h-84l73 135h119zM204.5 28.5q-76.5 44.5 -118.5 128t-42 197.5q0 108 44.5 190.5t122 127.5t174.5 45q84 0 150 -31.5t106.5 -88.5t47.5 -130h-114q-12 75 -61.5 117.5t-130.5 42.5q-67 0 -119 -33t-80.5 -94.5t-28.5 -145.5q0 -85 29 -148.5t80.5 -98
t117.5 -34.5q82 0 134.5 44.5t65.5 118.5h108q-14 -116 -96 -184t-212 -68q-101 0 -177.5 44.5z" />
    <glyph glyph-name="cacute" unicode="&#x107;" horiz-adv-x="541" 
d="M322 562h-83l72 136h120zM156.5 14q-54.5 30 -85.5 88.5t-31 140.5q0 76 32.5 134.5t88.5 90.5t125 32q93 0 151.5 -51t66.5 -135h-102q-5 47 -35.5 77t-81.5 30q-63 0 -103 -49.5t-40 -129.5q0 -81 39.5 -130.5t103.5 -49.5q53 0 85.5 29.5t37.5 79.5h100
q-9 -86 -67.5 -136.5t-158.5 -50.5q-71 0 -125.5 30z" />
    <glyph glyph-name="Ccircumflex" unicode="&#x108;" horiz-adv-x="724" 
d="M224 782l97 132h122l97 -132h-99l-30 38q-27 38 -29 41l-30 -41l-29 -38h-99zM204.5 28.5q-76.5 44.5 -118.5 128t-42 197.5q0 108 44.5 190.5t122 127.5t174.5 45q84 0 150 -31.5t106.5 -88.5t47.5 -130h-114q-12 75 -61.5 117.5t-130.5 42.5q-67 0 -119 -33
t-80.5 -94.5t-28.5 -145.5q0 -85 29 -148.5t80.5 -98t117.5 -34.5q82 0 134.5 44.5t65.5 118.5h108q-14 -116 -96 -184t-212 -68q-101 0 -177.5 44.5z" />
    <glyph glyph-name="ccircumflex" unicode="&#x109;" horiz-adv-x="541" 
d="M128 566l97 132h122l97 -132h-99l-30 38q-27 38 -29 41l-30 -41l-29 -38h-99zM156.5 14q-54.5 30 -85.5 88.5t-31 140.5q0 76 32.5 134.5t88.5 90.5t125 32q93 0 151.5 -51t66.5 -135h-102q-5 47 -35.5 77t-81.5 30q-63 0 -103 -49.5t-40 -129.5q0 -81 39.5 -130.5
t103.5 -49.5q53 0 85.5 29.5t37.5 79.5h100q-9 -86 -67.5 -136.5t-158.5 -50.5q-71 0 -125.5 30z" />
    <glyph glyph-name="Cdotaccent" unicode="&#x10a;" horiz-adv-x="724" 
d="M437 785h-110v112h110v-112zM204.5 28.5q-76.5 44.5 -118.5 128t-42 197.5q0 108 44.5 190.5t122 127.5t174.5 45q84 0 150 -31.5t106.5 -88.5t47.5 -130h-114q-12 75 -61.5 117.5t-130.5 42.5q-67 0 -119 -33t-80.5 -94.5t-28.5 -145.5q0 -85 29 -148.5t80.5 -98
t117.5 -34.5q82 0 134.5 44.5t65.5 118.5h108q-14 -116 -96 -184t-212 -68q-101 0 -177.5 44.5z" />
    <glyph glyph-name="cdotaccent" unicode="&#x10b;" horiz-adv-x="541" 
d="M341 569h-110v112h110v-112zM156.5 14q-54.5 30 -85.5 88.5t-31 140.5q0 76 32.5 134.5t88.5 90.5t125 32q93 0 151.5 -51t66.5 -135h-102q-5 47 -35.5 77t-81.5 30q-63 0 -103 -49.5t-40 -129.5q0 -81 39.5 -130.5t103.5 -49.5q53 0 85.5 29.5t37.5 79.5h100
q-9 -86 -67.5 -136.5t-158.5 -50.5q-71 0 -125.5 30z" />
    <glyph glyph-name="Ccaron" unicode="&#x10c;" horiz-adv-x="724" 
d="M321 781l-97 132h99l29 -38l30 -41l30 40l29 39h99l-97 -132h-122zM204.5 28.5q-76.5 44.5 -118.5 128t-42 197.5q0 108 44.5 190.5t122 127.5t174.5 45q84 0 150 -31.5t106.5 -88.5t47.5 -130h-114q-12 75 -61.5 117.5t-130.5 42.5q-67 0 -119 -33t-80.5 -94.5
t-28.5 -145.5q0 -85 29 -148.5t80.5 -98t117.5 -34.5q82 0 134.5 44.5t65.5 118.5h108q-14 -116 -96 -184t-212 -68q-101 0 -177.5 44.5z" />
    <glyph glyph-name="ccaron" unicode="&#x10d;" horiz-adv-x="541" 
d="M225 566l-97 132h99l29 -39l30 -40q21 28 29 40l30 39h99l-97 -132h-122zM156.5 14q-54.5 30 -85.5 88.5t-31 140.5q0 76 32.5 134.5t88.5 90.5t125 32q93 0 151.5 -51t66.5 -135h-102q-5 47 -35.5 77t-81.5 30q-63 0 -103 -49.5t-40 -129.5q0 -81 39.5 -130.5
t103.5 -49.5q53 0 85.5 29.5t37.5 79.5h100q-9 -86 -67.5 -136.5t-158.5 -50.5q-71 0 -125.5 30z" />
    <glyph glyph-name="Dcaron" unicode="&#x10e;" horiz-adv-x="730" 
d="M288 782l-96 132h99l29 -39l29 -40q6 7 30 40l29 39h100l-98 -132h-122zM85 0v700h224q178 0 276.5 -87t98.5 -263q0 -107 -41 -185.5t-122 -121.5t-197 -43h-239zM314 90q124 0 192 63.5t68 196.5q0 127 -65 194t-198 67h-120v-521h123z" />
    <glyph glyph-name="dcaron" unicode="&#x10f;" horiz-adv-x="657" 
d="M147.5 14q-50.5 30 -79 88t-28.5 139q0 77 29 136t80 91t115 32q55 0 94.5 -24t59.5 -59q-2 15 -2 43v240h100v-700h-100v25q0 29 2 42q-19 -35 -60 -59t-96 -24q-64 0 -114.5 30zM578 535q27 3 39.5 17t12.5 50h-51v98h110v-94q0 -118 -111 -124v53zM383.5 111.5
q39.5 49.5 39.5 130.5t-39 130t-101 49t-101.5 -49.5t-39.5 -129.5q0 -81 39 -130.5t102 -49.5q61 0 100.5 49.5z" />
    <glyph glyph-name="Dcroat" unicode="&#x110;" horiz-adv-x="739" 
d="M318 700q178 0 276 -87t98 -263q0 -107 -41 -185.5t-121.5 -121.5t-196.5 -43h-239v313h-72v81h72v306h224zM323 90q124 0 192 63.5t68 196.5q0 127 -65 194t-198 67h-120v-217h102v-81h-102v-223h123z" />
    <glyph glyph-name="dcroat" unicode="&#x111;" horiz-adv-x="585" 
d="M589 629v-81h-73v-548h-100v25q0 29 2 42q-19 -35 -60 -59t-96 -24q-64 0 -114.5 30t-79 88t-28.5 139q0 77 29 136t80 91t115 32q55 0 94.5 -24t59.5 -59q-2 15 -2 43v88h-167v81h167v71h100v-71h73zM383.5 111.5q39.5 49.5 39.5 130.5t-39 130t-101 49t-101.5 -49.5
t-39.5 -129.5q0 -81 39 -130.5t102 -49.5q61 0 100.5 49.5z" />
    <glyph glyph-name="Emacron" unicode="&#x112;" horiz-adv-x="614" 
d="M476 800h-300v81h300v-81zM565 0h-480v700h467v-89h-361v-207h346v-90h-346v-224h374v-90z" />
    <glyph glyph-name="emacron" unicode="&#x113;" horiz-adv-x="544" 
d="M427 584h-300v81h300v-81zM104.5 52q-64.5 68 -64.5 192q0 74 30.5 132.5t84 91t120.5 32.5q108 0 168 -69.5t60 -188.5v-21h-362q1 -73 40 -116t100 -43q46 0 78 22t40 69h100q-8 -73 -65 -121t-154 -48q-111 0 -175.5 68zM398 292q0 60 -33 96t-90 36q-55 0 -91.5 -37
t-41.5 -95h256z" />
    <glyph glyph-name="Ebreve" unicode="&#x114;" horiz-adv-x="614" 
d="M225 814q-35 38 -35 100h75q2 -63 60 -63q31 0 46 17t16 46h75q0 -63 -35 -100.5t-102 -37.5q-65 0 -100 38zM565 0h-480v700h467v-89h-361v-207h346v-90h-346v-224h374v-90z" />
    <glyph glyph-name="ebreve" unicode="&#x115;" horiz-adv-x="544" 
d="M176 598q-35 38 -35 100h75q2 -63 60 -63q31 0 46 17t16 46h75q0 -63 -35 -100.5t-102 -37.5q-65 0 -100 38zM104.5 52q-64.5 68 -64.5 192q0 74 30.5 132.5t84 91t120.5 32.5q108 0 168 -69.5t60 -188.5v-21h-362q1 -73 40 -116t100 -43q46 0 78 22t40 69h100
q-8 -73 -65 -121t-154 -48q-111 0 -175.5 68zM398 292q0 60 -33 96t-90 36q-55 0 -91.5 -37t-41.5 -95h256z" />
    <glyph glyph-name="Edotaccent" unicode="&#x116;" horiz-adv-x="614" 
d="M380 785h-110v112h110v-112zM565 0h-480v700h467v-89h-361v-207h346v-90h-346v-224h374v-90z" />
    <glyph glyph-name="edotaccent" unicode="&#x117;" horiz-adv-x="544" 
d="M331 569h-110v112h110v-112zM104.5 52q-64.5 68 -64.5 192q0 74 30.5 132.5t84 91t120.5 32.5q108 0 168 -69.5t60 -188.5v-21h-362q1 -73 40 -116t100 -43q46 0 78 22t40 69h100q-8 -73 -65 -121t-154 -48q-111 0 -175.5 68zM398 292q0 60 -33 96t-90 36
q-55 0 -91.5 -37t-41.5 -95h256z" />
    <glyph glyph-name="Eogonek" unicode="&#x118;" horiz-adv-x="614" 
d="M569 -116v-67q-24 -12 -58 -12q-50 0 -81 26t-31 70q0 59 66 99h-380v700h467v-89h-361v-207h346v-90h-346v-224h374v-90h1q-81 -41 -81 -84q0 -20 13 -29.5t33 -9.5q18 0 38 7z" />
    <glyph glyph-name="eogonek" unicode="&#x119;" horiz-adv-x="544" 
d="M225.5 -169.5q-31.5 25.5 -31.5 69.5q0 51 45 86q-92 11 -145.5 78.5t-53.5 179.5q0 74 30.5 132.5t84 91t120.5 32.5q108 0 168 -69.5t60 -188.5v-21h-362q1 -73 40 -116t100 -43q46 0 78 22t40 69h100q-6 -55 -42.5 -98t-97.5 -61q-36 -11 -57 -31.5t-21 -45.5
q0 -20 13 -30t33 -10t37 7v-67q-22 -12 -57 -12q-50 0 -81.5 25.5zM398 292q0 60 -33 96t-90 36q-55 0 -91.5 -37t-41.5 -95h256z" />
    <glyph glyph-name="Ecaron" unicode="&#x11a;" horiz-adv-x="614" 
d="M264 782l-96 132h99l29 -39l29 -40q6 7 30 40l29 39h100l-98 -132h-122zM565 0h-480v700h467v-89h-361v-207h346v-90h-346v-224h374v-90z" />
    <glyph glyph-name="ecaron" unicode="&#x11b;" horiz-adv-x="544" 
d="M215 566l-96 132h99l29 -39l29 -40q6 7 30 40l29 39h100l-98 -132h-122zM104.5 52q-64.5 68 -64.5 192q0 74 30.5 132.5t84 91t120.5 32.5q108 0 168 -69.5t60 -188.5v-21h-362q1 -73 40 -116t100 -43q46 0 78 22t40 69h100q-8 -73 -65 -121t-154 -48q-111 0 -175.5 68z
M398 292q0 60 -33 96t-90 36q-55 0 -91.5 -37t-41.5 -95h256z" />
    <glyph glyph-name="Gcircumflex" unicode="&#x11c;" horiz-adv-x="740" 
d="M230 782l97 132h122l97 -132h-99l-30 38q-27 38 -29 41l-30 -41l-29 -38h-99zM201 30.5q-75 46.5 -116 129t-41 188.5q0 113 45 196.5t123.5 128t175.5 44.5q80 0 143.5 -29t102.5 -80t46 -116h-111q-10 60 -59 97.5t-121 37.5q-69 0 -122 -32.5t-83 -95.5t-30 -151
q0 -81 29 -143.5t81.5 -97t120.5 -34.5q91 0 146 51.5t55 144.5v10h-209v90h306v-369h-92v28q0 33 3 67q-29 -49 -86.5 -80t-132.5 -31q-99 0 -174 46.5z" />
    <glyph glyph-name="gcircumflex" unicode="&#x11d;" horiz-adv-x="583" 
d="M138 566l97 132h122l97 -132h-99l-30 38q-27 38 -29 41l-30 -41l-29 -38h-99zM120 -175q-58 50 -58 133h99q1 -48 32.5 -76.5t85.5 -28.5q63 0 99 34.5t36 103.5v56q0 15 2 43q-21 -36 -62 -58t-94 -22q-65 0 -114.5 29.5t-77 85t-27.5 129.5q0 73 29.5 129t79.5 86.5
t110 30.5q106 0 156 -83q-2 28 -2 43v24h100v-463q0 -123 -61 -184.5t-175 -61.5q-100 0 -158 50zM382 134q39 46 39 120q0 73 -39 120t-100 47q-62 0 -100.5 -46.5t-38.5 -120.5t38.5 -120t100.5 -46q61 0 100 46z" />
    <glyph glyph-name="Gbreve" unicode="&#x11e;" horiz-adv-x="740" 
d="M288 814q-35 38 -35 100h75q2 -63 60 -63q31 0 46 17t16 46h75q0 -63 -35 -100.5t-102 -37.5q-65 0 -100 38zM201 30.5q-75 46.5 -116 129t-41 188.5q0 113 45 196.5t123.5 128t175.5 44.5q80 0 143.5 -29t102.5 -80t46 -116h-111q-10 60 -59 97.5t-121 37.5
q-69 0 -122 -32.5t-83 -95.5t-30 -151q0 -81 29 -143.5t81.5 -97t120.5 -34.5q91 0 146 51.5t55 144.5v10h-209v90h306v-369h-92v28q0 33 3 67q-29 -49 -86.5 -80t-132.5 -31q-99 0 -174 46.5z" />
    <glyph glyph-name="gbreve" unicode="&#x11f;" horiz-adv-x="583" 
d="M196 598q-35 38 -35 100h75q2 -63 60 -63q31 0 46 17t16 46h75q0 -63 -35 -100.5t-102 -37.5q-65 0 -100 38zM120 -175q-58 50 -58 133h99q1 -48 32.5 -76.5t85.5 -28.5q63 0 99 34.5t36 103.5v56q0 15 2 43q-21 -36 -62 -58t-94 -22q-65 0 -114.5 29.5t-77 85
t-27.5 129.5q0 73 29.5 129t79.5 86.5t110 30.5q106 0 156 -83q-2 28 -2 43v24h100v-463q0 -123 -61 -184.5t-175 -61.5q-100 0 -158 50zM382 134q39 46 39 120q0 73 -39 120t-100 47q-62 0 -100.5 -46.5t-38.5 -120.5t38.5 -120t100.5 -46q61 0 100 46z" />
    <glyph glyph-name="Gdotaccent" unicode="&#x120;" horiz-adv-x="740" 
d="M443 785h-110v112h110v-112zM201 30.5q-75 46.5 -116 129t-41 188.5q0 113 45 196.5t123.5 128t175.5 44.5q80 0 143.5 -29t102.5 -80t46 -116h-111q-10 60 -59 97.5t-121 37.5q-69 0 -122 -32.5t-83 -95.5t-30 -151q0 -81 29 -143.5t81.5 -97t120.5 -34.5q91 0 146 51.5
t55 144.5v10h-209v90h306v-369h-92v28q0 33 3 67q-29 -49 -86.5 -80t-132.5 -31q-99 0 -174 46.5z" />
    <glyph glyph-name="gdotaccent" unicode="&#x121;" horiz-adv-x="583" 
d="M351 569h-110v112h110v-112zM120 -175q-58 50 -58 133h99q1 -48 32.5 -76.5t85.5 -28.5q63 0 99 34.5t36 103.5v56q0 15 2 43q-21 -36 -62 -58t-94 -22q-65 0 -114.5 29.5t-77 85t-27.5 129.5q0 73 29.5 129t79.5 86.5t110 30.5q106 0 156 -83q-2 28 -2 43v24h100v-463
q0 -123 -61 -184.5t-175 -61.5q-100 0 -158 50zM382 134q39 46 39 120q0 73 -39 120t-100 47q-62 0 -100.5 -46.5t-38.5 -120.5t38.5 -120t100.5 -46q61 0 100 46z" />
    <glyph glyph-name="uni0122" unicode="&#x122;" horiz-adv-x="740" 
d="M201 30.5q-75 46.5 -116 129t-41 188.5q0 113 45 196.5t123.5 128t175.5 44.5q80 0 143.5 -29t102.5 -80t46 -116h-111q-10 60 -59 97.5t-121 37.5q-69 0 -122 -32.5t-83 -95.5t-30 -151q0 -81 29 -143.5t81.5 -97t120.5 -34.5q91 0 146 51.5t55 144.5v10h-209v90h306
v-369h-92v28q0 33 3 67q-29 -49 -86.5 -80t-132.5 -31q-99 0 -174 46.5zM330 -245q27 3 39.5 17.5t12.5 49.5h-51v98h110v-93q0 -118 -111 -124v52z" />
    <glyph glyph-name="uni0123" unicode="&#x123;" horiz-adv-x="583" 
d="M352 731q-28 -3 -40.5 -17t-12.5 -50h52v-98h-111v94q0 118 112 124v-53zM120 -175q-58 50 -58 133h99q1 -48 32.5 -76.5t85.5 -28.5q63 0 99 34.5t36 103.5v56q0 15 2 43q-21 -36 -62 -58t-94 -22q-65 0 -114.5 29.5t-77 85t-27.5 129.5q0 73 29.5 129t79.5 86.5
t110 30.5q106 0 156 -83q-2 28 -2 43v24h100v-463q0 -123 -61 -184.5t-175 -61.5q-100 0 -158 50zM382 134q39 46 39 120q0 73 -39 120t-100 47q-62 0 -100.5 -46.5t-38.5 -120.5t38.5 -120t100.5 -46q61 0 100 46z" />
    <glyph glyph-name="Hcircumflex" unicode="&#x124;" horiz-adv-x="736" 
d="M210 782l97 132h122l97 -132h-99l-30 38q-27 38 -29 41l-30 -41l-29 -38h-99zM191 0h-106v700h106v-291h354v291h106v-700h-106v319h-354v-319z" />
    <glyph glyph-name="hcircumflex" unicode="&#x125;" horiz-adv-x="556" 
d="M127 748l97 132h122l97 -132h-99l-30 38q-27 38 -29 41l-30 -41l-29 -38h-99zM70 0v700h99v-239q0 -28 -1 -44q20 37 59 60t89 23q83 0 129.5 -51.5t46.5 -142.5v-306h-99v292q0 129 -103 129q-54 0 -87.5 -38t-33.5 -94v-289h-99z" />
    <glyph glyph-name="Hbar" unicode="&#x126;" horiz-adv-x="736" 
d="M651 595h70v-81h-70v-514h-106v319h-354v-319h-106v514h-70v81h70v105h106v-105h354v105h106v-105zM191 409h354v105h-354v-105z" />
    <glyph glyph-name="hbar" unicode="&#x127;" horiz-adv-x="556" 
d="M445.5 448.5q46.5 -51.5 46.5 -142.5v-306h-99v292q0 129 -103 129q-54 0 -87.5 -38t-33.5 -94v-289h-99v548h-74v81h74v71h99v-71h167v-81h-167v-87q0 -28 -1 -44q20 37 59 60t89 23q83 0 129.5 -51.5z" />
    <glyph glyph-name="Itilde" unicode="&#x128;" horiz-adv-x="277" 
d="M305 907q0 -57 -25.5 -85t-71.5 -28q-19 0 -35.5 5.5t-39.5 15.5q-13 6 -27 11t-25 5q-31 0 -32 -37h-78q0 57 27 85.5t72 28.5q20 0 35.5 -5.5t40.5 -16.5q16 -8 27.5 -12.5t22.5 -4.5q16 0 23 9t8 29h78zM85 700h106v-700h-106v700z" />
    <glyph glyph-name="itilde" unicode="&#x129;" horiz-adv-x="238" 
d="M286 691q0 -57 -25.5 -85t-71.5 -28q-19 0 -35.5 5.5t-39.5 15.5q-13 6 -27 11t-25 5q-31 0 -32 -37h-78q0 57 27 85.5t72 28.5q20 0 35.5 -5.5t40.5 -16.5q16 -8 27.5 -12.5t22.5 -4.5q16 0 23 9t8 29h78zM70 484h99v-484h-99v484z" />
    <glyph glyph-name="Imacron" unicode="&#x12a;" horiz-adv-x="277" 
d="M-12 800v81h300v-81h-300zM85 700h106v-700h-106v700z" />
    <glyph glyph-name="imacron" unicode="&#x12b;" horiz-adv-x="238" 
d="M-31 584v81h300v-81h-300zM70 484h99v-484h-99v484z" />
    <glyph glyph-name="Ibreve" unicode="&#x12c;" horiz-adv-x="277" 
d="M275 914q0 -63 -35 -100.5t-102 -37.5q-65 0 -100 38t-35 100h75q2 -63 60 -63q31 0 46 17t16 46h75zM85 700h106v-700h-106v700z" />
    <glyph glyph-name="ibreve" unicode="&#x12d;" horiz-adv-x="238" 
d="M256 698q0 -63 -35 -100.5t-102 -37.5q-65 0 -100 38t-35 100h75q2 -63 60 -63q31 0 46 17t16 46h75zM70 484h99v-484h-99v484z" />
    <glyph glyph-name="Iogonek" unicode="&#x12e;" horiz-adv-x="277" 
d="M194 -116v-67q-22 -12 -59 -12q-49 0 -80 25t-31 67q0 64 61 103v700h106v-700q-37 -20 -59 -40t-22 -44q0 -20 13.5 -29.5t32.5 -9.5q18 0 38 7z" />
    <glyph glyph-name="iogonek" unicode="&#x12f;" horiz-adv-x="238" 
d="M64 569v112h110v-112h-110zM101 -113.5q13 -9.5 33 -9.5q18 0 38 7v-67q-24 -12 -58 -12q-50 0 -81 26t-31 70q0 60 68 100v483h99v-484q-81 -41 -81 -84q0 -20 13 -29.5z" />
    <glyph glyph-name="Idotaccent" unicode="&#x130;" horiz-adv-x="277" 
d="M83 785v112h110v-112h-110zM85 700h106v-700h-106v700z" />
    <glyph glyph-name="dotlessi" unicode="&#x131;" horiz-adv-x="238" 
d="M70 484h99v-484h-99v484z" />
    <glyph glyph-name="IJ" unicode="&#x132;" horiz-adv-x="824" 
d="M85 700h106v-700h-106v700zM350.5 47q-55.5 63 -56.5 172h108q1 -69 28 -107.5t88 -38.5q121 0 121 149v478h107v-490q0 -105 -62 -165.5t-167 -60.5q-111 0 -166.5 63z" />
    <glyph glyph-name="ij" unicode="&#x133;" horiz-adv-x="483" 
d="M64 569v112h110v-112h-110zM70 484h99v-484h-99v484zM309 569v112h110v-112h-110zM414 484v-571q0 -57 -34 -97.5t-107 -40.5q-33 0 -54 6v84q9 -4 25 -4q35 0 53 18t18 59v546h99z" />
    <glyph glyph-name="Jcircumflex" unicode="&#x134;" horiz-adv-x="547" 
d="M257 782l97 132h122l97 -132h-99l-30 38q-27 38 -29 41l-30 -41l-29 -38h-99zM73.5 47q-55.5 63 -56.5 172h108q1 -69 28 -107.5t88 -38.5q121 0 121 149v478h107v-490q0 -105 -62 -165.5t-167 -60.5q-111 0 -166.5 63z" />
    <glyph glyph-name="jcircumflex" unicode="&#x135;" horiz-adv-x="246" 
d="M187 698l97 -132h-99l-30 38q-27 38 -29 41l-30 -41l-29 -38h-99l97 132h122zM176 484v-571q0 -57 -34 -97.5t-107 -40.5q-33 0 -54 6v84q9 -4 25 -4q35 0 53 18t18 59v546h99z" />
    <glyph glyph-name="uni0136" unicode="&#x136;" horiz-adv-x="637" 
d="M312 391l345 -391h-142l-274 318l-51 -53v-265h-105v700h105v-303q7 9 43 47l246 256h133zM287 -178v98h110v-93q0 -118 -111 -124v52q27 3 39.5 17.5t12.5 49.5h-51z" />
    <glyph glyph-name="uni0137" unicode="&#x137;" horiz-adv-x="502" 
d="M281 278l230 -278h-132l-165 211l-45 -44v-167h-99v700h99v-416q17 20 37 40l155 160h127zM215 -178v98h110v-93q0 -118 -111 -124v52q27 3 39.5 17.5t12.5 49.5h-51z" />
    <glyph glyph-name="Lacute" unicode="&#x139;" horiz-adv-x="560" 
d="M175 778h-84l73 136h119zM551 0h-466v700h106v-610h360v-90z" />
    <glyph glyph-name="lacute" unicode="&#x13a;" horiz-adv-x="238" 
d="M145 914h119l-108 -136h-84zM70 700h99v-700h-99v700z" />
    <glyph glyph-name="uni013B" unicode="&#x13b;" horiz-adv-x="560" 
d="M551 0h-466v700h106v-610h360v-90zM263 -245q27 3 39.5 17.5t12.5 49.5h-51v98h110v-93q0 -118 -111 -124v52z" />
    <glyph glyph-name="uni013C" unicode="&#x13c;" horiz-adv-x="238" 
d="M169 700v-700h-99v700h99zM65 -80h110v-93q0 -118 -111 -124v52q27 3 39.5 17.5t12.5 49.5h-51v98z" />
    <glyph glyph-name="Lcaron" unicode="&#x13d;" horiz-adv-x="560" 
d="M551 0h-466v700h106v-610h360v-90zM320 535q27 3 39.5 17t12.5 50h-51v98h110v-94q0 -118 -111 -124v53z" />
    <glyph glyph-name="lcaron" unicode="&#x13e;" horiz-adv-x="323" 
d="M70 700h99v-700h-99v700zM223 700h110v-94q0 -118 -111 -124v53q27 3 39.5 17t12.5 50h-51v98z" />
    <glyph glyph-name="Ldot" unicode="&#x13f;" horiz-adv-x="560" 
d="M551 0h-466v700h106v-610h360v-90zM464 275h-128v129h128v-129z" />
    <glyph glyph-name="ldot" unicode="&#x140;" horiz-adv-x="399" 
d="M70 700h99v-700h-99v700zM383 295h-128v128h128v-128z" />
    <glyph glyph-name="Lslash" unicode="&#x141;" horiz-adv-x="588" 
d="M204 291v-201h360v-90h-466v245l-76 -34v92l76 34v363h106v-316l171 76v-93z" />
    <glyph glyph-name="lslash" unicode="&#x142;" horiz-adv-x="341" 
d="M222 390l95 43v-93l-95 -43v-297h-100v252l-91 -41v93l91 41v355h100v-310z" />
    <glyph glyph-name="Nacute" unicode="&#x143;" horiz-adv-x="770" 
d="M431 778h-84l73 136h119zM85 0v700h160l335 -571q-2 60 -2 95v476h107v-700h-144l-351 597q1 -33 1 -90v-507h-106z" />
    <glyph glyph-name="nacute" unicode="&#x144;" horiz-adv-x="556" 
d="M324 562h-84l73 136h119zM70 0v484h99v-29q0 -24 -1 -38q20 36 59.5 59.5t88.5 23.5q83 0 129.5 -51.5t46.5 -142.5v-306h-99v292q0 129 -101 129q-55 0 -89 -38t-34 -94v-289h-99z" />
    <glyph glyph-name="uni0145" unicode="&#x145;" horiz-adv-x="770" 
d="M85 0v700h160l335 -571q-2 60 -2 95v476h107v-700h-144l-351 597q1 -33 1 -90v-507h-106zM343 -245q27 3 39.5 17.5t12.5 49.5h-51v98h110v-93q0 -118 -111 -124v52z" />
    <glyph glyph-name="uni0146" unicode="&#x146;" horiz-adv-x="556" 
d="M70 0v484h99v-29q0 -24 -1 -38q20 36 59.5 59.5t88.5 23.5q83 0 129.5 -51.5t46.5 -142.5v-306h-99v292q0 129 -101 129q-55 0 -89 -38t-34 -94v-289h-99zM229 -245q27 3 39.5 17.5t12.5 49.5h-51v98h110v-93q0 -118 -111 -124v52z" />
    <glyph glyph-name="Ncaron" unicode="&#x147;" horiz-adv-x="770" 
d="M333 782l-96 132h99l29 -39l29 -40q6 7 30 40l29 39h100l-98 -132h-122zM85 0v700h160l335 -571q-2 60 -2 95v476h107v-700h-144l-351 597q1 -33 1 -90v-507h-106z" />
    <glyph glyph-name="ncaron" unicode="&#x148;" horiz-adv-x="556" 
d="M226 566l-96 132h99l29 -39l29 -40q6 7 30 40l29 39h100l-98 -132h-122zM70 0v484h99v-29q0 -24 -1 -38q20 36 59.5 59.5t88.5 23.5q83 0 129.5 -51.5t46.5 -142.5v-306h-99v292q0 129 -101 129q-55 0 -89 -38t-34 -94v-289h-99z" />
    <glyph glyph-name="Eng" unicode="&#x14a;" horiz-adv-x="770" 
d="M473 -215v86q20 -6 41 -6q72 0 72 79v39l-397 608q2 -34 2 -91v-500h-106v700h152l344 -529q-3 33 -3 72v457h107v-789q0 -53 -34.5 -94.5t-107.5 -41.5q-40 0 -70 10z" />
    <glyph glyph-name="eng" unicode="&#x14b;" horiz-adv-x="556" 
d="M445.5 448.5q46.5 -51.5 46.5 -142.5v-395q0 -54 -34.5 -95t-107.5 -41q-40 0 -70 10v86q20 -6 42 -6q71 0 71 79v348q0 129 -101 129q-55 0 -89 -38t-34 -94v-289h-99v484h99v-29q0 -24 -1 -38q20 36 59.5 59.5t88.5 23.5q83 0 129.5 -51.5z" />
    <glyph glyph-name="Omacron" unicode="&#x14c;" horiz-adv-x="761" 
d="M530 800h-300v81h300v-81zM207.5 28.5q-76.5 44.5 -120 127.5t-43.5 194q0 109 43.5 192.5t120 129t172.5 45.5t172.5 -46t120.5 -129.5t44 -191.5q0 -110 -44 -193t-120.5 -128t-172.5 -45t-172.5 44.5zM498.5 106q51.5 33 79.5 95.5t28 148.5q0 84 -28.5 147
t-79.5 96.5t-118 33.5t-118 -33.5t-79.5 -96t-28.5 -147.5t28 -147.5t79.5 -96t118.5 -33.5t118.5 33z" />
    <glyph glyph-name="omacron" unicode="&#x14d;" horiz-adv-x="563" 
d="M432 584h-300v81h300v-81zM156 16q-55 32 -85.5 90.5t-30.5 135.5q0 76 31 134.5t86 91t125 32.5t125 -32.5t86 -91t31 -134.5q0 -77 -31 -135.5t-86 -90.5t-125 -32q-71 0 -126 32zM384 110.5q38 48.5 38 131.5q0 82 -38.5 130.5t-101.5 48.5t-101.5 -48.5t-38.5 -130.5
q0 -83 38 -131.5t102 -48.5t102 48.5z" />
    <glyph glyph-name="Obreve" unicode="&#x14e;" horiz-adv-x="761" 
d="M279 814q-35 38 -35 100h75q2 -63 60 -63q31 0 46 17t16 46h75q0 -63 -35 -100.5t-102 -37.5q-65 0 -100 38zM207.5 28.5q-76.5 44.5 -120 127.5t-43.5 194q0 109 43.5 192.5t120 129t172.5 45.5t172.5 -46t120.5 -129.5t44 -191.5q0 -110 -44 -193t-120.5 -128
t-172.5 -45t-172.5 44.5zM498.5 106q51.5 33 79.5 95.5t28 148.5q0 84 -28.5 147t-79.5 96.5t-118 33.5t-118 -33.5t-79.5 -96t-28.5 -147.5t28 -147.5t79.5 -96t118.5 -33.5t118.5 33z" />
    <glyph glyph-name="obreve" unicode="&#x14f;" horiz-adv-x="563" 
d="M181 598q-35 38 -35 100h75q2 -63 60 -63q31 0 46 17t16 46h75q0 -63 -35 -100.5t-102 -37.5q-65 0 -100 38zM156 16q-55 32 -85.5 90.5t-30.5 135.5q0 76 31 134.5t86 91t125 32.5t125 -32.5t86 -91t31 -134.5q0 -77 -31 -135.5t-86 -90.5t-125 -32q-71 0 -126 32z
M384 110.5q38 48.5 38 131.5q0 82 -38.5 130.5t-101.5 48.5t-101.5 -48.5t-38.5 -130.5q0 -83 38 -131.5t102 -48.5t102 48.5z" />
    <glyph glyph-name="Ohungarumlaut" unicode="&#x150;" horiz-adv-x="761" 
d="M336 778h-71l44 136h117zM489 778h-75l50 136h119zM207.5 28.5q-76.5 44.5 -120 127.5t-43.5 194q0 109 43.5 192.5t120 129t172.5 45.5t172.5 -46t120.5 -129.5t44 -191.5q0 -110 -44 -193t-120.5 -128t-172.5 -45t-172.5 44.5zM498.5 106q51.5 33 79.5 95.5t28 148.5
q0 84 -28.5 147t-79.5 96.5t-118 33.5t-118 -33.5t-79.5 -96t-28.5 -147.5t28 -147.5t79.5 -96t118.5 -33.5t118.5 33z" />
    <glyph glyph-name="ohungarumlaut" unicode="&#x151;" horiz-adv-x="563" 
d="M238 562h-71l44 136h117zM391 562h-75l50 136h119zM156 16q-55 32 -85.5 90.5t-30.5 135.5q0 76 31 134.5t86 91t125 32.5t125 -32.5t86 -91t31 -134.5q0 -77 -31 -135.5t-86 -90.5t-125 -32q-71 0 -126 32zM384 110.5q38 48.5 38 131.5q0 82 -38.5 130.5t-101.5 48.5
t-101.5 -48.5t-38.5 -130.5q0 -83 38 -131.5t102 -48.5t102 48.5z" />
    <glyph glyph-name="OE" unicode="&#x152;" horiz-adv-x="920" 
d="M392 0q-95 0 -175 42.5t-127 122t-47 187.5q0 105 48 184t129.5 121.5t177.5 42.5h462v-89h-313v-202h296v-90h-296v-229h325v-90h-480zM441 90v521h-47q-65 0 -120 -30.5t-87.5 -88.5t-32.5 -139q0 -82 32 -141.5t86.5 -90.5t121.5 -31h47z" />
    <glyph glyph-name="oe" unicode="&#x153;" horiz-adv-x="925" 
d="M156 16q-55 32 -85.5 90.5t-30.5 135.5q0 76 31 134.5t86 91t125 32.5q60 0 109.5 -24.5t80.5 -69.5q32 45 80 69.5t105 24.5q108 0 168 -69.5t60 -188.5v-21h-362q1 -72 40 -115.5t99 -43.5q46 0 78.5 22t40.5 69h100q-8 -72 -65 -120.5t-155 -48.5q-63 0 -111.5 22.5
t-79.5 66.5q-32 -43 -80.5 -66t-107.5 -23q-71 0 -126 32zM780 292q0 60 -32.5 96t-90.5 36q-55 0 -91 -37.5t-41 -94.5h255zM384 110.5q38 48.5 38 131.5t-38 131t-102 48t-102 -48t-38 -131t38 -131.5t102 -48.5t102 48.5z" />
    <glyph glyph-name="Racute" unicode="&#x154;" horiz-adv-x="664" 
d="M367 778h-84l73 136h119zM85 0v700h302q102 0 162 -48t60 -136q0 -64 -39 -109t-92 -61q54 -9 85.5 -51.5t31.5 -109.5v-185h-106v165q0 74 -30.5 103.5t-104.5 29.5h-163v-298h-106zM364 388q66 0 101 28.5t35 83.5t-35 83t-101 28h-173v-223h173z" />
    <glyph glyph-name="racute" unicode="&#x155;" horiz-adv-x="353" 
d="M235 562h-84l73 136h119zM70 0v484h99v-27q0 -38 -1 -56q19 44 57 71.5t91 27.5q15 0 23 -1v-98q-11 3 -30 3q-67 0 -103.5 -38t-36.5 -116v-250h-99z" />
    <glyph glyph-name="uni0156" unicode="&#x156;" horiz-adv-x="664" 
d="M85 0v700h302q102 0 162 -48t60 -136q0 -64 -39 -109t-92 -61q54 -9 85.5 -51.5t31.5 -109.5v-185h-106v165q0 74 -30.5 103.5t-104.5 29.5h-163v-298h-106zM364 388q66 0 101 28.5t35 83.5t-35 83t-101 28h-173v-223h173zM293 -245q27 3 39.5 17.5t12.5 49.5h-51v98h110
v-93q0 -118 -111 -124v52z" />
    <glyph glyph-name="uni0157" unicode="&#x157;" horiz-adv-x="353" 
d="M70 0v484h99v-27q0 -38 -1 -56q19 44 57 71.5t91 27.5q15 0 23 -1v-98q-11 3 -30 3q-67 0 -103.5 -38t-36.5 -116v-250h-99zM64 -245q27 3 39.5 17.5t12.5 49.5h-51v98h110v-93q0 -118 -111 -124v52z" />
    <glyph glyph-name="Rcaron" unicode="&#x158;" horiz-adv-x="664" 
d="M269 782l-96 132h99l29 -39l29 -40q6 7 30 40l29 39h100l-98 -132h-122zM85 0v700h302q102 0 162 -48t60 -136q0 -64 -39 -109t-92 -61q54 -9 85.5 -51.5t31.5 -109.5v-185h-106v165q0 74 -30.5 103.5t-104.5 29.5h-163v-298h-106zM364 388q66 0 101 28.5t35 83.5t-35 83
t-101 28h-173v-223h173z" />
    <glyph glyph-name="rcaron" unicode="&#x159;" horiz-adv-x="353" 
d="M137 566l-96 132h99l29 -39l29 -40q6 7 30 40l29 39h100l-98 -132h-122zM70 0v484h99v-27q0 -38 -1 -56q19 44 57 71.5t91 27.5q15 0 23 -1v-98q-11 3 -30 3q-67 0 -103.5 -38t-36.5 -116v-250h-99z" />
    <glyph glyph-name="Sacute" unicode="&#x15a;" horiz-adv-x="644" 
d="M357 778h-84l73 136h119zM174 14q-65 30 -101.5 86t-38.5 131h109q4 -74 55.5 -116t130.5 -42q76 0 120 30.5t44 84.5q0 44 -33 70t-97 39l-110 24q-87 19 -141 68t-54 127q0 58 34 103.5t93.5 71.5t134.5 26q119 0 190.5 -59.5t77.5 -159.5h-109q-4 58 -47 93.5
t-116 35.5q-64 0 -106.5 -28.5t-42.5 -73.5q0 -42 30 -66.5t91 -38.5l121 -26q89 -19 141 -67.5t52 -127.5q0 -61 -33 -110t-95.5 -77t-147.5 -28q-87 0 -152 30z" />
    <glyph glyph-name="sacute" unicode="&#x15b;" horiz-adv-x="489" 
d="M277 562h-84l73 136h119zM93 32q-57 48 -61 130h99q2 -47 32.5 -74.5t84.5 -27.5q47 0 75 19.5t28 53.5q0 27 -20.5 43.5t-62.5 24.5l-67 13q-73 14 -112.5 49.5t-39.5 92.5q0 41 24.5 74t68 51.5t99.5 18.5q90 0 143.5 -43t57.5 -117h-99q-4 40 -32 62t-74 22
q-40 0 -64.5 -17.5t-24.5 -45.5q0 -27 19 -41.5t62 -22.5l69 -13q72 -13 111.5 -48.5t39.5 -94.5q0 -44 -24.5 -80t-70 -56.5t-106.5 -20.5q-98 0 -155 48z" />
    <glyph glyph-name="Scircumflex" unicode="&#x15c;" horiz-adv-x="644" 
d="M163 782l97 132h122l97 -132h-99l-30 38q-27 38 -29 41l-30 -41l-29 -38h-99zM174 14q-65 30 -101.5 86t-38.5 131h109q4 -74 55.5 -116t130.5 -42q76 0 120 30.5t44 84.5q0 44 -33 70t-97 39l-110 24q-87 19 -141 68t-54 127q0 58 34 103.5t93.5 71.5t134.5 26
q119 0 190.5 -59.5t77.5 -159.5h-109q-4 58 -47 93.5t-116 35.5q-64 0 -106.5 -28.5t-42.5 -73.5q0 -42 30 -66.5t91 -38.5l121 -26q89 -19 141 -67.5t52 -127.5q0 -61 -33 -110t-95.5 -77t-147.5 -28q-87 0 -152 30z" />
    <glyph glyph-name="scircumflex" unicode="&#x15d;" horiz-adv-x="489" 
d="M83 566l97 132h122l97 -132h-99l-30 38q-27 38 -29 41l-30 -41l-29 -38h-99zM93 32q-57 48 -61 130h99q2 -47 32.5 -74.5t84.5 -27.5q47 0 75 19.5t28 53.5q0 27 -20.5 43.5t-62.5 24.5l-67 13q-73 14 -112.5 49.5t-39.5 92.5q0 41 24.5 74t68 51.5t99.5 18.5
q90 0 143.5 -43t57.5 -117h-99q-4 40 -32 62t-74 22q-40 0 -64.5 -17.5t-24.5 -45.5q0 -27 19 -41.5t62 -22.5l69 -13q72 -13 111.5 -48.5t39.5 -94.5q0 -44 -24.5 -80t-70 -56.5t-106.5 -20.5q-98 0 -155 48z" />
    <glyph glyph-name="Scedilla" unicode="&#x15e;" horiz-adv-x="644" 
d="M572.5 95q-29.5 -47 -85 -76t-131.5 -34l-26 -37q42 0 68 -21t26 -55q0 -38 -30 -62.5t-83 -24.5q-32 0 -60.5 12t-47.5 32l37 44q32 -30 67 -30q19 0 32 8t13 23q0 12 -10.5 20t-29.5 8q-15 0 -29 -6l-33 37l36 53q-114 10 -181 75t-71 170h109q4 -74 55.5 -116
t130.5 -42q76 0 120 30.5t44 84.5q0 44 -33 70t-97 39l-110 24q-87 19 -141 68t-54 127q0 58 34 103.5t93.5 71.5t134.5 26q119 0 190.5 -59.5t77.5 -159.5h-109q-4 58 -47 93.5t-116 35.5q-64 0 -106.5 -28.5t-42.5 -73.5q0 -42 30 -66.5t91 -38.5l121 -26
q89 -19 141 -67.5t52 -127.5q0 -57 -29.5 -104z" />
    <glyph glyph-name="scedilla" unicode="&#x15f;" horiz-adv-x="489" 
d="M404 37.5q-45 -42.5 -121 -51.5l-27 -38q42 0 68 -21t26 -55q0 -38 -30 -62.5t-83 -24.5q-32 0 -60.5 12t-47.5 32l37 44q32 -30 67 -30q19 0 32 8t13 23q0 12 -10.5 20t-29.5 8q-15 0 -29 -6l-33 37l36 53q-82 9 -129 55.5t-51 120.5h99q2 -47 32.5 -74.5t84.5 -27.5
q47 0 75 19.5t28 53.5q0 27 -20.5 43.5t-62.5 24.5l-67 13q-73 14 -112.5 49.5t-39.5 92.5q0 41 24.5 74t68 51.5t99.5 18.5q90 0 143.5 -43t57.5 -117h-99q-4 40 -32 62t-74 22q-40 0 -64.5 -17.5t-24.5 -45.5q0 -27 19 -41.5t62 -22.5l69 -13q72 -13 111.5 -48.5
t39.5 -94.5q0 -61 -45 -103.5z" />
    <glyph glyph-name="Scaron" unicode="&#x160;" horiz-adv-x="644" 
d="M259 782l-96 132h99l29 -39l29 -40q6 7 30 40l29 39h100l-98 -132h-122zM174 14q-65 30 -101.5 86t-38.5 131h109q4 -74 55.5 -116t130.5 -42q76 0 120 30.5t44 84.5q0 44 -33 70t-97 39l-110 24q-87 19 -141 68t-54 127q0 58 34 103.5t93.5 71.5t134.5 26
q119 0 190.5 -59.5t77.5 -159.5h-109q-4 58 -47 93.5t-116 35.5q-64 0 -106.5 -28.5t-42.5 -73.5q0 -42 30 -66.5t91 -38.5l121 -26q89 -19 141 -67.5t52 -127.5q0 -61 -33 -110t-95.5 -77t-147.5 -28q-87 0 -152 30z" />
    <glyph glyph-name="scaron" unicode="&#x161;" horiz-adv-x="489" 
d="M179 566l-96 132h99l29 -39l29 -40q6 7 30 40l29 39h100l-98 -132h-122zM93 32q-57 48 -61 130h99q2 -47 32.5 -74.5t84.5 -27.5q47 0 75 19.5t28 53.5q0 27 -20.5 43.5t-62.5 24.5l-67 13q-73 14 -112.5 49.5t-39.5 92.5q0 41 24.5 74t68 51.5t99.5 18.5q90 0 143.5 -43
t57.5 -117h-99q-4 40 -32 62t-74 22q-40 0 -64.5 -17.5t-24.5 -45.5q0 -27 19 -41.5t62 -22.5l69 -13q72 -13 111.5 -48.5t39.5 -94.5q0 -44 -24.5 -80t-70 -56.5t-106.5 -20.5q-98 0 -155 48z" />
    <glyph glyph-name="uni0162" unicode="&#x162;" horiz-adv-x="601" 
d="M353 0h-16l-36 -52q42 0 68 -21t26 -55q0 -38 -30.5 -62.5t-82.5 -24.5q-33 0 -61.5 12t-47.5 32l38 44q30 -30 67 -30q19 0 32 8t13 23q0 12 -11 20t-29 8q-15 0 -29 -6l-33 37l45 67h-19v611h-239v89h583v-89h-238v-611z" />
    <glyph glyph-name="uni0163" unicode="&#x163;" horiz-adv-x="349" 
d="M319 404h-107v-249q0 -77 71 -77q17 0 36 3v-80q-30 -8 -62 -8h-13l-32 -45q42 0 68.5 -21t26.5 -55q0 -38 -30.5 -62.5t-82.5 -24.5q-33 0 -61.5 12t-47.5 32l38 44q30 -30 67 -30q19 0 32 8t13 23q0 12 -11 20t-29 8q-15 0 -29 -6l-33 37l50 74q-71 35 -71 136v261h-98
v80h98v166h100v-166h107v-80z" />
    <glyph glyph-name="Tcaron" unicode="&#x164;" horiz-adv-x="601" 
d="M238 782l-96 132h99l29 -39l29 -40q6 7 30 40l29 39h100l-98 -132h-122zM353 0h-106v611h-239v89h583v-89h-238v-611z" />
    <glyph glyph-name="tcaron" unicode="&#x165;" horiz-adv-x="349" 
d="M259 565q27 4 40 16t14 37h-54v82h110v-70q0 -51 -32.5 -78t-77.5 -29v42zM151 29.5q-39 36.5 -39 113.5v261h-98v80h98v166h100v-166h107v-80h-107v-249q0 -77 71 -77q17 0 36 3v-80q-30 -8 -62 -8q-67 0 -106 36.5z" />
    <glyph glyph-name="Tbar" unicode="&#x166;" horiz-adv-x="601" 
d="M591 700v-89h-238v-220h154v-81h-154v-310h-106v310h-154v81h154v220h-239v89h583z" />
    <glyph glyph-name="tbar" unicode="&#x167;" horiz-adv-x="355" 
d="M324 404h-107v-100h82v-79h-82v-70q0 -77 71 -77q17 0 36 3v-80q-30 -8 -62 -8q-67 0 -106 36.5t-39 113.5v82h-82v79h82v100h-98v80h98v166h100v-166h107v-80z" />
    <glyph glyph-name="Utilde" unicode="&#x168;" horiz-adv-x="698" 
d="M383.5 799.5q-16.5 5.5 -39.5 15.5q-13 6 -27 11t-25 5q-31 0 -32 -37h-78q0 57 27 85.5t72 28.5q20 0 35.5 -5.5t40.5 -16.5q16 -8 27.5 -12.5t22.5 -4.5q16 0 23 9t8 29h78q0 -57 -25.5 -85t-71.5 -28q-19 0 -35.5 5.5zM149 57q-71 73 -71 214v429h106v-414
q0 -213 165 -213q166 0 166 213v414h106v-429q0 -140 -71.5 -213.5t-200.5 -73.5t-200 73z" />
    <glyph glyph-name="utilde" unicode="&#x169;" horiz-adv-x="551" 
d="M312.5 583.5q-16.5 5.5 -39.5 15.5q-13 6 -27 11t-25 5q-31 0 -32 -37h-78q0 57 27 85.5t72 28.5q20 0 35.5 -5.5t40.5 -16.5q16 -8 27.5 -12.5t22.5 -4.5q16 0 23 9t8 29h78q0 -57 -25.5 -85t-71.5 -28q-19 0 -35.5 5.5zM110.5 34q-46.5 50 -46.5 142v308h100v-289
q0 -132 102 -132q55 0 86 38.5t31 107.5v275h98v-484h-97v26q0 28 1 41q-18 -38 -56.5 -60.5t-90.5 -22.5q-81 0 -127.5 50z" />
    <glyph glyph-name="Umacron" unicode="&#x16a;" horiz-adv-x="698" 
d="M499 800h-300v81h300v-81zM149 57q-71 73 -71 214v429h106v-414q0 -213 165 -213q166 0 166 213v414h106v-429q0 -140 -71.5 -213.5t-200.5 -73.5t-200 73z" />
    <glyph glyph-name="umacron" unicode="&#x16b;" horiz-adv-x="551" 
d="M428 584h-300v81h300v-81zM110.5 34q-46.5 50 -46.5 142v308h100v-289q0 -132 102 -132q55 0 86 38.5t31 107.5v275h98v-484h-97v26q0 28 1 41q-18 -38 -56.5 -60.5t-90.5 -22.5q-81 0 -127.5 50z" />
    <glyph glyph-name="Ubreve" unicode="&#x16c;" horiz-adv-x="698" 
d="M248 814q-35 38 -35 100h75q2 -63 60 -63q31 0 46 17t16 46h75q0 -63 -35 -100.5t-102 -37.5q-65 0 -100 38zM149 57q-71 73 -71 214v429h106v-414q0 -213 165 -213q166 0 166 213v414h106v-429q0 -140 -71.5 -213.5t-200.5 -73.5t-200 73z" />
    <glyph glyph-name="ubreve" unicode="&#x16d;" horiz-adv-x="551" 
d="M177 598q-35 38 -35 100h75q2 -63 60 -63q31 0 46 17t16 46h75q0 -63 -35 -100.5t-102 -37.5q-65 0 -100 38zM110.5 34q-46.5 50 -46.5 142v308h100v-289q0 -132 102 -132q55 0 86 38.5t31 107.5v275h98v-484h-97v26q0 28 1 41q-18 -38 -56.5 -60.5t-90.5 -22.5
q-81 0 -127.5 50z" />
    <glyph glyph-name="Uring" unicode="&#x16e;" horiz-adv-x="698" 
d="M284.5 775q-26.5 25 -26.5 65t26.5 66t64.5 26t65 -26t27 -66t-27 -65t-65 -25t-64.5 25zM374 813q9 10 9 27q0 18 -9.5 28t-24.5 10t-24.5 -10t-9.5 -28q0 -17 9.5 -27t24.5 -10q16 0 25 10zM149 57q-71 73 -71 214v429h106v-414q0 -213 165 -213q166 0 166 213v414h106
v-429q0 -140 -71.5 -213.5t-200.5 -73.5t-200 73z" />
    <glyph glyph-name="uring" unicode="&#x16f;" horiz-adv-x="551" 
d="M213.5 559q-26.5 25 -26.5 65t26.5 66t64.5 26t65 -26t27 -66t-27 -65t-65 -25t-64.5 25zM303 597q9 10 9 27q0 18 -9.5 28t-24.5 10t-24.5 -10t-9.5 -28q0 -17 9.5 -27t24.5 -10q16 0 25 10zM110.5 34q-46.5 50 -46.5 142v308h100v-289q0 -132 102 -132q55 0 86 38.5
t31 107.5v275h98v-484h-97v26q0 28 1 41q-18 -38 -56.5 -60.5t-90.5 -22.5q-81 0 -127.5 50z" />
    <glyph glyph-name="Uhungarumlaut" unicode="&#x170;" horiz-adv-x="698" 
d="M305 778h-71l44 136h117zM458 778h-75l50 136h119zM149 57q-71 73 -71 214v429h106v-414q0 -213 165 -213q166 0 166 213v414h106v-429q0 -140 -71.5 -213.5t-200.5 -73.5t-200 73z" />
    <glyph glyph-name="uhungarumlaut" unicode="&#x171;" horiz-adv-x="551" 
d="M234 562h-71l44 136h117zM387 562h-75l50 136h119zM110.5 34q-46.5 50 -46.5 142v308h100v-289q0 -132 102 -132q55 0 86 38.5t31 107.5v275h98v-484h-97v26q0 28 1 41q-18 -38 -56.5 -60.5t-90.5 -22.5q-81 0 -127.5 50z" />
    <glyph glyph-name="Uogonek" unicode="&#x172;" horiz-adv-x="698" 
d="M301 -170q-31 25 -31 67q0 54 48 88q-115 8 -177.5 81t-62.5 205v429h106v-414q0 -213 165 -213q166 0 166 213v414h106v-429q0 -113 -47.5 -182.5t-135.5 -94.5q-37 -11 -59.5 -32t-22.5 -45q0 -20 13.5 -30t33.5 -10q17 0 37 7v-67q-24 -12 -58 -12q-50 0 -81 25z" />
    <glyph glyph-name="uogonek" unicode="&#x173;" horiz-adv-x="551" 
d="M485 -116v-67q-24 -12 -58 -12q-50 0 -81 26t-31 70q0 61 69 101v24q0 28 1 41q-18 -38 -56.5 -60.5t-90.5 -22.5q-81 0 -127.5 50t-46.5 142v308h100v-289q0 -132 102 -132q55 0 86 38.5t31 107.5v275h98v-484h1q-81 -41 -81 -84q0 -20 13 -29.5t33 -9.5q18 0 38 7z" />
    <glyph glyph-name="Wcircumflex" unicode="&#x174;" horiz-adv-x="990" 
d="M340 782l97 132h122l97 -132h-99l-30 38q-27 38 -29 41l-30 -41l-29 -38h-99zM200 0l-188 700h114l125 -490q10 -36 24 -97q5 24 14 59q3 9 10 38l129 490h142l125 -490q13 -45 24 -98l23 98l129 490h107l-188 -700h-137l-131 514q-17 68 -23 95q-6 -27 -23 -95
l-138 -514h-138z" />
    <glyph glyph-name="wcircumflex" unicode="&#x175;" horiz-adv-x="794" 
d="M240 566l97 132h123l96 -132h-99l-29 38q-14 17 -30 41q-2 -3 -29 -41l-29 -38h-100zM165 0l-154 484h106l99 -347q8 -27 10 -43q8 23 12 43l97 347h127l101 -347q12 -52 10 -42q3 15 11 43l98 346h98l-150 -484h-120l-100 352q-8 28 -11 45q-4 -17 -12 -45l-101 -352
h-121z" />
    <glyph glyph-name="Ycircumflex" unicode="&#x176;" horiz-adv-x="617" 
d="M153 782l97 132h122l97 -132h-99l-30 38q-27 38 -29 41l-30 -41l-29 -38h-99zM254 0v295l-249 405h122l138 -237q19 -31 43 -78l45 78l140 237h119l-251 -405v-295h-107z" />
    <glyph glyph-name="ycircumflex" unicode="&#x177;" horiz-adv-x="491" 
d="M92 566l97 132h122l97 -132h-99l-30 38q-27 38 -29 41l-30 -41l-29 -38h-99zM118 -208l85 220l-192 472h110l114 -310q9 -24 21 -59q9 33 19 59l103 310h104l-258 -692h-106z" />
    <glyph glyph-name="Ydieresis" unicode="&#x178;" horiz-adv-x="617" 
d="M266 785h-109v112h109v-112zM465 785h-109v112h109v-112zM254 0v295l-249 405h122l138 -237q19 -31 43 -78l45 78l140 237h119l-251 -405v-295h-107z" />
    <glyph glyph-name="Zacute" unicode="&#x179;" horiz-adv-x="605" 
d="M347 778h-84l73 136h119zM33 0v97l360 456q14 18 48 58h-391v89h512v-93l-359 -453l-53 -64h426v-90h-543z" />
    <glyph glyph-name="zacute" unicode="&#x17a;" horiz-adv-x="470" 
d="M282 562h-83l72 136h119zM35 0v85l257 290l29 31h-276v78h383v-86l-256 -288q-20 -22 -31 -32h295v-78h-401z" />
    <glyph glyph-name="Zdotaccent" unicode="&#x17b;" horiz-adv-x="605" 
d="M365 785h-110v112h110v-112zM33 0v97l360 456q14 18 48 58h-391v89h512v-93l-359 -453l-53 -64h426v-90h-543z" />
    <glyph glyph-name="zdotaccent" unicode="&#x17c;" horiz-adv-x="470" 
d="M300 569h-110v112h110v-112zM35 0v85l257 290l29 31h-276v78h383v-86l-256 -288q-20 -22 -31 -32h295v-78h-401z" />
    <glyph glyph-name="Zcaron" unicode="&#x17d;" horiz-adv-x="605" 
d="M249 782l-96 132h99l29 -39l29 -40q6 7 30 40l29 39h100l-98 -132h-122zM33 0v97l360 456q14 18 48 58h-391v89h512v-93l-359 -453l-53 -64h426v-90h-543z" />
    <glyph glyph-name="zcaron" unicode="&#x17e;" horiz-adv-x="470" 
d="M185 566l-97 132h99l29 -39l12 -16q9 -14 18 -24l29 40l29 39h100l-98 -132h-121zM35 0v85l257 290l29 31h-276v78h383v-86l-256 -288q-20 -22 -31 -32h295v-78h-401z" />
    <glyph glyph-name="florin" unicode="&#x192;" horiz-adv-x="539" 
d="M386.5 612.5q-20.5 -19.5 -27.5 -61.5l-21 -122h164v-74h-176l-56 -327q-29 -156 -168 -156q-35 0 -72 11v85q17 -5 31 -8t28 -3q36 0 56.5 19t27.5 60l54 319h-154v74h166l23 133q27 155 168 155q32 0 72 -11v-85q-34 11 -59 11q-36 0 -56.5 -19.5z" />
    <glyph glyph-name="Aringacute" unicode="&#x1fa;" horiz-adv-x="694" 
d="M370 1110h120l-109 -136h-83zM282 775q-27 25 -27 65t27 65.5t65 25.5t65 -25.5t27 -65.5q0 -39 -27 -64.5t-65 -25.5t-65 25zM322.5 867q-9.5 -10 -9.5 -27t9.5 -27t24.5 -10q16 0 25 10t9 27t-9.5 27t-24.5 10t-24.5 -10zM693 0h-118l-77 202h-308l-76 -202h-113
l283 700h125zM224 291h241l-98 257l-22 63q-10 -31 -24 -63z" />
    <glyph glyph-name="aringacute" unicode="&#x1fb;" horiz-adv-x="517" 
d="M300 758h-84l73 136h119zM195.5 559q-26.5 25 -26.5 65t26.5 66t64.5 26t65 -26t27 -66t-27 -65t-65 -25t-64.5 25zM285 597q9 10 9 27q0 18 -9.5 28t-24.5 10t-24.5 -10t-9.5 -28q0 -17 9.5 -27t24.5 -10q16 0 25 10zM125.5 2q-38.5 18 -61 52t-22.5 79q0 128 171 154
l91 14q28 4 39.5 14.5t11.5 31.5q0 35 -25 56t-66 21q-49 0 -77.5 -25t-30.5 -68h-101q3 47 28 85.5t69.5 61t104.5 22.5q97 0 146.5 -51t49.5 -144v-305h-94v23q0 13 2 43q-19 -38 -58 -60t-94 -22q-45 0 -83.5 18zM320 94.5q36 34.5 36 90.5v64q-11 -12 -55 -21l-58 -11
q-99 -19 -99 -82q0 -35 24 -55t61 -20q55 0 91 34.5z" />
    <glyph glyph-name="AEacute" unicode="&#x1fc;" horiz-adv-x="920" 
d="M595 913h120l-108 -135h-84zM511 319v-229h360v-90h-466v201h-200l-98 -201h-117l358 700h510v-89h-347v-202h332v-90h-332zM249 290h156v322q-18 -42 -32 -69z" />
    <glyph glyph-name="aeacute" unicode="&#x1fd;" horiz-adv-x="862" 
d="M463 562h-84l72 136h120zM90 25.5q-48 41.5 -48 109.5q0 69 48 105t126 47l91 13q26 4 38 15t12 31q0 35 -26 56.5t-68 21.5q-50 0 -77 -25t-29 -68h-101q3 48 28 86.5t70 60.5t104 22q113 0 164 -81q32 39 76 60t96 21q107 0 167 -69.5t60 -188.5v-21h-362
q1 -72 39.5 -115.5t98.5 -43.5q47 0 80 22t40 69h100q-8 -72 -65 -120.5t-154 -48.5q-68 0 -118.5 27t-80.5 79q-24 -51 -74 -78.5t-112 -27.5q-75 0 -123 41.5zM717 292q-1 60 -33.5 96t-89.5 36q-55 0 -91.5 -37.5t-42.5 -94.5h257zM321 95q37 35 37 90v64q-8 -12 -48 -20
l-64 -12q-47 -8 -74 -27t-27 -55q0 -35 23.5 -55t59.5 -20q56 0 93 35z" />
    <glyph glyph-name="Oslashacute" unicode="&#x1fe;" horiz-adv-x="761" 
d="M405 914h119l-108 -136h-84zM631 605q41 -48 63.5 -113t22.5 -142q0 -110 -44 -193t-120.5 -128t-172.5 -45q-103 0 -184 52l-56 -74l-70 50l61 80q-42 48 -64.5 114t-22.5 144q0 109 43.5 192.5t120 129t172.5 45.5q106 0 187 -55l59 78l68 -52zM196 176l312 410
q-53 41 -128 41q-67 0 -118 -33.5t-79.5 -96t-28.5 -147.5q0 -104 42 -174zM498.5 106q51.5 33 79.5 95.5t28 148.5q0 101 -40 170l-312 -409q53 -38 126 -38q67 0 118.5 33z" />
    <glyph glyph-name="oslashacute" unicode="&#x1ff;" horiz-adv-x="563" 
d="M307 698h119l-108 -136h-84zM466 418q58 -71 58 -176q0 -77 -31 -135.5t-86 -90.5t-125 -32q-68 0 -124 31l-44 -58l-63 46l47 62q-28 33 -43 78.5t-15 98.5q0 76 31 134.5t86 91t125 32.5q69 0 124 -32l45 60l63 -47zM160 146l194 254q-31 21 -72 21q-63 0 -101.5 -48.5
t-38.5 -130.5q0 -57 18 -96zM384 110.5q38 48.5 38 131.5q0 56 -18 95l-194 -254q30 -21 72 -21q64 0 102 48.5z" />
    <glyph glyph-name="uni0218" unicode="&#x218;" horiz-adv-x="644" 
d="M174 14q-65 30 -101.5 86t-38.5 131h109q4 -74 55.5 -116t130.5 -42q76 0 120 30.5t44 84.5q0 44 -33 70t-97 39l-110 24q-87 19 -141 68t-54 127q0 58 34 103.5t93.5 71.5t134.5 26q119 0 190.5 -59.5t77.5 -159.5h-109q-4 58 -47 93.5t-116 35.5q-64 0 -106.5 -28.5
t-42.5 -73.5q0 -42 30 -66.5t91 -38.5l121 -26q89 -19 141 -67.5t52 -127.5q0 -61 -33 -110t-95.5 -77t-147.5 -28q-87 0 -152 30zM274 -245q27 3 39.5 17.5t12.5 49.5h-51v98h110v-93q0 -118 -111 -124v52z" />
    <glyph glyph-name="uni0219" unicode="&#x219;" horiz-adv-x="489" 
d="M93 32q-57 48 -61 130h99q2 -47 32.5 -74.5t84.5 -27.5q47 0 75 19.5t28 53.5q0 27 -20.5 43.5t-62.5 24.5l-67 13q-73 14 -112.5 49.5t-39.5 92.5q0 41 24.5 74t68 51.5t99.5 18.5q90 0 143.5 -43t57.5 -117h-99q-4 40 -32 62t-74 22q-40 0 -64.5 -17.5t-24.5 -45.5
q0 -27 19 -41.5t62 -22.5l69 -13q72 -13 111.5 -48.5t39.5 -94.5q0 -44 -24.5 -80t-70 -56.5t-106.5 -20.5q-98 0 -155 48zM199 -245q27 3 39.5 17.5t12.5 49.5h-51v98h110v-93q0 -118 -111 -124v52z" />
    <glyph glyph-name="uni021A" unicode="&#x21a;" horiz-adv-x="601" 
d="M353 0h-106v611h-239v89h583v-89h-238v-611zM245 -245q27 3 39.5 17.5t12.5 49.5h-51v98h110v-93q0 -118 -111 -124v52z" />
    <glyph glyph-name="uni021B" unicode="&#x21b;" horiz-adv-x="349" 
d="M151 29.5q-39 36.5 -39 113.5v261h-98v80h98v166h100v-166h107v-80h-107v-249q0 -77 71 -77q17 0 36 3v-80q-30 -8 -62 -8q-67 0 -106 36.5zM158 -245q28 3 40.5 17.5t12.5 49.5h-52v98h110v-93q0 -118 -111 -124v52z" />
    <glyph glyph-name="uni0226" unicode="&#x226;" horiz-adv-x="694" 
d="M291 897h110v-112h-110v112zM693 0h-118l-77 202h-308l-76 -202h-113l283 700h125zM224 291h241l-98 257l-22 63q-10 -31 -24 -63z" />
    <glyph glyph-name="uni0227" unicode="&#x227;" horiz-adv-x="517" 
d="M315 569h-110v112h110v-112zM125.5 2q-38.5 18 -61 52t-22.5 79q0 128 171 154l91 14q28 4 39.5 14.5t11.5 31.5q0 35 -25 56t-66 21q-49 0 -77.5 -25t-30.5 -68h-101q3 47 28 85.5t69.5 61t104.5 22.5q97 0 146.5 -51t49.5 -144v-305h-94v23q0 13 2 43q-19 -38 -58 -60
t-94 -22q-45 0 -83.5 18zM320 94.5q36 34.5 36 90.5v64q-11 -12 -55 -21l-58 -11q-99 -19 -99 -82q0 -35 24 -55t61 -20q55 0 91 34.5z" />
    <glyph glyph-name="uni0232" unicode="&#x232;" horiz-adv-x="617" 
d="M461 800h-300v81h300v-81zM254 0v295l-249 405h122l138 -237q19 -31 43 -78l45 78l140 237h119l-251 -405v-295h-107z" />
    <glyph glyph-name="uni0233" unicode="&#x233;" horiz-adv-x="491" 
d="M400 584h-300v81h300v-81zM118 -208l85 220l-192 472h110l114 -310q9 -24 21 -59q9 33 19 59l103 310h104l-258 -692h-106z" />
    <glyph glyph-name="uni0237" unicode="&#x237;" horiz-adv-x="246" 
d="M176 484v-571q0 -57 -34 -97.5t-107 -40.5q-33 0 -54 6v84q9 -4 25 -4q35 0 53 18t18 59v546h99z" />
    <glyph glyph-name="circumflex" unicode="&#x2c6;" horiz-adv-x="410" 
d="M48 566l97 132h122l97 -132h-99l-29 38q-14 17 -30 41q-6 -9 -18 -25l-12 -16l-29 -38h-99z" />
    <glyph glyph-name="caron" unicode="&#x2c7;" horiz-adv-x="410" 
d="M145 566l-97 132h99l29 -39l30 -40q21 28 29 40l29 39h100l-97 -132h-122z" />
    <glyph glyph-name="breve" unicode="&#x2d8;" horiz-adv-x="366" 
d="M82 598q-35 38 -35 100h75q2 -63 60 -63q31 0 46 17t16 46h75q0 -63 -35 -100.5t-102 -37.5q-65 0 -100 38z" />
    <glyph glyph-name="dotaccent" unicode="&#x2d9;" horiz-adv-x="203" 
d="M157 569h-110v112h110v-112z" />
    <glyph glyph-name="ring" unicode="&#x2da;" horiz-adv-x="277" 
d="M73.5 559q-26.5 25 -26.5 65t26.5 66t64.5 26t65 -26t27 -66t-27 -65t-65 -25t-64.5 25zM163 597q9 10 9 27q0 18 -9.5 28t-24.5 10t-24.5 -10t-9.5 -28q0 -17 9.5 -27t24.5 -10q16 0 25 10z" />
    <glyph glyph-name="ogonek" unicode="&#x2db;" horiz-adv-x="260" 
d="M75 -169q-31 26 -31 70q0 73 99 116l68 -17q-81 -41 -81 -84q0 -20 13 -29.5t33 -9.5q18 0 38 7v-67q-24 -12 -58 -12q-50 0 -81 26z" />
    <glyph glyph-name="tilde" unicode="&#x2dc;" horiz-adv-x="428" 
d="M248.5 583.5q-16.5 5.5 -39.5 15.5q-13 6 -27 11t-25 5q-31 0 -32 -37h-78q0 57 27 85.5t72 28.5q20 0 35.5 -5.5t40.5 -16.5q16 -8 27.5 -12.5t22.5 -4.5q16 0 23 9t8 29h78q0 -57 -25.5 -85t-71.5 -28q-19 0 -35.5 5.5z" />
    <glyph glyph-name="hungarumlaut" unicode="&#x2dd;" horiz-adv-x="408" 
d="M116 562h-71l44 136h117zM269 562h-75l50 136h119z" />
    <glyph glyph-name="uni0394" unicode="&#x394;" horiz-adv-x="674" 
d="M644 0h-614v86l259 614h95l260 -614v-86zM129 86h415l-172 416l-36 89q-11 -31 -35 -89z" />
    <glyph glyph-name="uni03A9" unicode="&#x3a9;" horiz-adv-x="766" 
d="M74 0v84h84q16 0 32 -2q-3 2 -9.5 6t-11.5 8q-56 41 -88.5 109.5t-32.5 155.5q0 106 43.5 187t119.5 125t172 44t172 -44t119.5 -125t43.5 -187q0 -86 -33 -155t-89 -110q-7 -6 -21 -14q16 2 33 2h82v-84h-263v84q82 11 131.5 83.5t49.5 188.5q0 84 -28 145t-79 93.5
t-118 32.5q-68 0 -119 -32.5t-79 -93.5t-28 -145q0 -116 49.5 -188.5t131.5 -83.5v-84h-264z" />
    <glyph glyph-name="uni03BC" unicode="&#x3bc;" horiz-adv-x="573" 
d="M78 -208v693h99v-290q0 -132 103 -132q54 0 85 38.5t31 107.5v275h99v-484h-98v26q0 28 2 41q-19 -38 -56.5 -60.5t-84.5 -22.5q-50 0 -82 24q1 -12 1 -37v-179h-99z" />
    <glyph glyph-name="pi" unicode="&#x3c0;" horiz-adv-x="595" 
d="M392.5 20q-39.5 36 -39.5 114v272h-150v-406h-100v406h-79v78h532v-78h-104v-262q0 -40 18 -57.5t55 -17.5q17 0 35 3v-82q-22 -6 -58 -6q-70 0 -109.5 36z" />
    <glyph glyph-name="uni0E3F" unicode="&#xe3f;" horiz-adv-x="620" 
d="M515.5 55q-61.5 -46 -162.5 -54v-112h-79v111h-188v700h188v111h79v-111q95 -5 150.5 -48.5t55.5 -127.5q0 -57 -35.5 -97.5t-88.5 -56.5q65 -19 103.5 -63.5t38.5 -109.5q0 -96 -61.5 -142zM274 616h-86v-208h86v208zM429.5 582.5q-24.5 26.5 -76.5 32.5v-205
q50 6 75.5 33t25.5 71q0 42 -24.5 68.5zM188 323v-238h86v238h-86zM353 86q119 11 119 120q0 51 -27.5 80.5t-91.5 35.5v-236z" />
    <glyph glyph-name="Wgrave" unicode="&#x1e80;" horiz-adv-x="990" 
d="M554 778h-85l-107 136h124zM200 0l-188 700h114l125 -490q10 -36 24 -97q5 24 14 59q3 9 10 38l129 490h142l125 -490q13 -45 24 -98l23 98l129 490h107l-188 -700h-137l-131 514q-17 68 -23 95q-6 -27 -23 -95l-138 -514h-138z" />
    <glyph glyph-name="wgrave" unicode="&#x1e81;" horiz-adv-x="794" 
d="M455 562h-85l-107 136h123zM165 0l-154 484h106l99 -347q8 -27 10 -43q8 23 12 43l97 347h127l101 -347q12 -52 10 -42q3 15 11 43l98 346h98l-150 -484h-120l-100 352q-8 28 -11 45q-4 -17 -12 -45l-101 -352h-121z" />
    <glyph glyph-name="Wacute" unicode="&#x1e82;" horiz-adv-x="990" 
d="M535 778h-84l73 136h119zM200 0l-188 700h114l125 -490q10 -36 24 -97q5 24 14 59q3 9 10 38l129 490h142l125 -490q13 -45 24 -98l23 98l129 490h107l-188 -700h-137l-131 514q-17 68 -23 95q-6 -27 -23 -95l-138 -514h-138z" />
    <glyph glyph-name="wacute" unicode="&#x1e83;" horiz-adv-x="794" 
d="M435 562h-84l73 136h119zM165 0l-154 484h106l99 -347q8 -27 10 -43q8 23 12 43l97 347h127l101 -347q12 -52 10 -42q3 15 11 43l98 346h98l-150 -484h-120l-100 352q-8 28 -11 45q-4 -17 -12 -45l-101 -352h-121z" />
    <glyph glyph-name="Wdieresis" unicode="&#x1e84;" horiz-adv-x="990" 
d="M453 785h-109v112h109v-112zM652 785h-109v112h109v-112zM200 0l-188 700h114l125 -490q10 -36 24 -97q5 24 14 59q3 9 10 38l129 490h142l125 -490q13 -45 24 -98l23 98l129 490h107l-188 -700h-137l-131 514q-17 68 -23 95q-6 -27 -23 -95l-138 -514h-138z" />
    <glyph glyph-name="wdieresis" unicode="&#x1e85;" horiz-adv-x="794" 
d="M354 569h-110v112h110v-112zM552 569h-108v112h108v-112zM165 0l-154 484h106l99 -347q8 -27 10 -43q8 23 12 43l97 347h127l101 -347q12 -52 10 -42q3 15 11 43l98 346h98l-150 -484h-120l-100 352q-8 28 -11 45q-4 -17 -12 -45l-101 -352h-121z" />
    <glyph glyph-name="uni1E9E" unicode="&#x1e9e;" horiz-adv-x="671" 
d="M282 -3v89q41 -13 93 -13q67 0 106 29.5t39 87.5t-40.5 88.5t-118.5 30.5h-62v90h62q69 0 105 30t36 79q0 50 -37 76.5t-106 26.5h-168v-611h-106v700h283q78 0 132 -24t81 -65t27 -92q0 -61 -38.5 -103.5t-93.5 -58.5q68 -17 109 -63.5t41 -115.5q0 -54 -27 -98
t-80.5 -70t-131.5 -26q-64 0 -105 13z" />
    <glyph glyph-name="Ygrave" unicode="&#x1ef2;" horiz-adv-x="617" 
d="M367 778h-85l-107 136h124zM254 0v295l-249 405h122l138 -237q19 -31 43 -78l45 78l140 237h119l-251 -405v-295h-107z" />
    <glyph glyph-name="ygrave" unicode="&#x1ef3;" horiz-adv-x="491" 
d="M306 562h-85l-107 136h124zM118 -208l85 220l-192 472h110l114 -310q9 -24 21 -59q9 33 19 59l103 310h104l-258 -692h-106z" />
    <glyph glyph-name="uni2002" unicode="&#x2002;" horiz-adv-x="458" 
 />
    <glyph glyph-name="uni2003" unicode="&#x2003;" horiz-adv-x="914" 
 />
    <glyph glyph-name="uni2009" unicode="&#x2009;" horiz-adv-x="117" 
 />
    <glyph glyph-name="uni200A" unicode="&#x200a;" horiz-adv-x="41" 
 />
    <glyph glyph-name="endash" unicode="&#x2013;" horiz-adv-x="557" 
d="M497 213h-436v92h436v-92z" />
    <glyph glyph-name="emdash" unicode="&#x2014;" horiz-adv-x="831" 
d="M771 213h-710v92h710v-92z" />
    <glyph glyph-name="uni2015" unicode="&#x2015;" horiz-adv-x="831" 
d="M771 213h-710v92h710v-92z" />
    <glyph glyph-name="quoteleft" unicode="&#x2018;" horiz-adv-x="234" 
d="M176 652q-25 -8 -41 -28.5t-16 -57.5v-16h56v-122h-120v129q0 70 34.5 107t86.5 42v-54z" />
    <glyph glyph-name="quoteright" unicode="&#x2019;" horiz-adv-x="227" 
d="M59 476q25 8 41 28.5t16 57.5v16h-55v122h119v-128q0 -71 -34 -108t-87 -42v54z" />
    <glyph glyph-name="quotesinglbase" unicode="&#x201a;" horiz-adv-x="241" 
d="M59 -102q25 8 41 28.5t16 57.5v16h-55v122h119v-128q0 -71 -34 -108t-87 -42v54z" />
    <glyph glyph-name="quotedblleft" unicode="&#x201c;" horiz-adv-x="421" 
d="M176 652q-25 -8 -41 -28.5t-16 -57.5v-16h55v-122h-119v129q0 70 34.5 107t86.5 42v-54zM362 652q-25 -8 -40.5 -28.5t-15.5 -57.5v-16h55v-122h-119v129q0 70 34 107t86 42v-54z" />
    <glyph glyph-name="quotedblright" unicode="&#x201d;" horiz-adv-x="413" 
d="M59 476q25 8 41 28.5t16 57.5v16h-55v122h119v-128q0 -71 -34 -108t-87 -42v54zM246 476q25 8 41 28.5t16 57.5v16h-55v122h119v-128q0 -71 -34 -108t-87 -42v54z" />
    <glyph glyph-name="quotedblbase" unicode="&#x201e;" horiz-adv-x="427" 
d="M59 -102q25 8 41 28.5t16 57.5v16h-55v122h119v-128q0 -71 -34 -108t-87 -42v54zM246 -102q25 8 41 28.5t16 57.5v16h-55v122h119v-128q0 -71 -34 -108t-87 -42v54z" />
    <glyph glyph-name="dagger" unicode="&#x2020;" horiz-adv-x="492" 
d="M293 0h-94v419h-169v89h169v192h94v-192h169v-89h-169v-419z" />
    <glyph glyph-name="daggerdbl" unicode="&#x2021;" horiz-adv-x="529" 
d="M480 508v-89h-169v-157h169v-88h-169v-174h-94v174h-169v88h169v157h-169v89h169v192h94v-192h169z" />
    <glyph glyph-name="bullet" unicode="&#x2022;" horiz-adv-x="423" 
d="M133.5 153q-35.5 21 -56 56.5t-20.5 77.5t20.5 78t56 57.5t77.5 21.5t77.5 -21.5t56.5 -57.5t21 -78t-21 -77.5t-56.5 -56.5t-77.5 -21t-77.5 21z" />
    <glyph glyph-name="ellipsis" unicode="&#x2026;" horiz-adv-x="738" 
d="M184 0h-124v128h124v-128zM432 0h-125v128h125v-128zM679 0h-126v128h126v-128z" />
    <glyph glyph-name="perthousand" unicode="&#x2030;" horiz-adv-x="1016" 
d="M302 421.5q-44 -46.5 -114 -46.5q-71 0 -115 46.5t-44 121.5q0 74 44 120.5t115 46.5q70 0 114 -46.5t44 -120.5q0 -75 -44 -121.5zM84 0l507 700h97l-508 -700h-96zM133.5 473.5q20.5 -26.5 54.5 -26.5q32 0 52.5 26.5t20.5 69.5q0 44 -20.5 71.5t-52.5 27.5
q-34 0 -54.5 -27.5t-20.5 -71.5q0 -43 20.5 -69.5zM936.5 279.5q43.5 -46.5 43.5 -120.5q0 -75 -43.5 -122t-111.5 -47q-38 0 -70 17.5t-52 47.5q-20 -30 -52 -47.5t-70 -17.5q-68 0 -111 47t-43 122q0 74 43 120.5t111 46.5q39 0 70.5 -17t51.5 -48q20 31 51.5 48t70.5 17
q68 0 111.5 -46.5zM638 89q21 27 21 70q0 44 -21 71.5t-54 27.5t-53.5 -27.5t-20.5 -71.5q0 -43 20.5 -70t53.5 -27t54 27zM875.5 88.5q20.5 26.5 20.5 70.5t-20.5 71.5t-54.5 27.5q-33 0 -53.5 -27.5t-20.5 -71.5q0 -43 20.5 -70t53.5 -27q34 0 54.5 26.5z" />
    <glyph glyph-name="guilsinglleft" unicode="&#x2039;" horiz-adv-x="295" 
d="M235 30l-192 176v98l192 175v-121l-78 -66l-43 -37q41 -35 43 -37l78 -67v-121z" />
    <glyph glyph-name="guilsinglright" unicode="&#x203a;" horiz-adv-x="289" 
d="M55 480l192 -175v-99l-192 -175v121l78 66l43 37q-28 24 -43 38l-78 66v121z" />
    <glyph glyph-name="fraction" unicode="&#x2044;" horiz-adv-x="207" 
d="M-103 0h-96l508 700h96z" />
    <glyph glyph-name="uni2070" unicode="&#x2070;" horiz-adv-x="440" 
d="M87.5 394q-48.5 64 -48.5 176q0 113 48.5 178t133.5 65q83 0 131.5 -65.5t48.5 -177.5t-48 -176t-132 -64q-85 0 -133.5 64zM288 445q24 44 24 125q0 83 -24 128t-67 45q-44 0 -68.5 -45t-24.5 -128q0 -80 24.5 -124.5t68.5 -44.5q43 0 67 44z" />
    <glyph glyph-name="uni2074" unicode="&#x2074;" horiz-adv-x="437" 
d="M328 341h-88v112h-216v70l194 279h110v-281h84v-68h-84v-112zM108 521h132v191l-15 -23l-98 -141z" />
    <glyph glyph-name="uni2075" unicode="&#x2075;" horiz-adv-x="409" 
d="M79.5 369.5q-46.5 39.5 -45.5 101.5h88q0 -30 22 -50.5t57 -20.5q39 0 63 25.5t24 67.5q0 40 -22.5 65.5t-60.5 25.5q-24 0 -44.5 -11.5t-30.5 -31.5h-90l38 261h273v-78h-209l-13 -88q-2 -10 -6 -28q19 20 47 32.5t60 12.5q64 0 105.5 -44t41.5 -115q0 -75 -49 -119.5
t-125 -44.5q-77 0 -123.5 39.5z" />
    <glyph glyph-name="uni2076" unicode="&#x2076;" horiz-adv-x="430" 
d="M87.5 391.5q-48.5 61.5 -48.5 174.5q0 116 52 181.5t144 65.5q67 0 108 -36.5t46 -97.5h-88q-9 64 -69 64q-47 0 -73 -35t-29 -97q0 -15 -1 -22q19 24 48 39t66 15q65 0 107.5 -41t42.5 -108q0 -47 -22 -84.5t-60.5 -58.5t-85.5 -21q-89 0 -137.5 61.5zM282.5 424
q22.5 24 22.5 64q0 38 -22.5 62t-58.5 24q-38 0 -61 -23.5t-23 -61.5q0 -41 22 -65t60 -24t60.5 24z" />
    <glyph glyph-name="uni2077" unicode="&#x2077;" horiz-adv-x="383" 
d="M95 341q8 110 47.5 203.5t106.5 157.5q13 13 27 22h-254v78h341v-66q-74 -81 -116 -176t-48 -219h-104z" />
    <glyph glyph-name="uni2078" unicode="&#x2078;" horiz-adv-x="430" 
d="M85 366q-47 36 -47 94q0 42 26 72.5t72 46.5q-41 15 -63.5 42.5t-22.5 62.5q0 58 45.5 93.5t120.5 35.5q73 0 119 -35.5t46 -90.5q0 -39 -23.5 -67.5t-64.5 -40.5q47 -14 73 -44t26 -70q0 -61 -48 -98t-130 -37t-129 36zM272 630q21 18 21 48q0 29 -21 46.5t-56 17.5
q-36 0 -57.5 -17t-21.5 -46q0 -31 21.5 -49t57.5 -18q35 0 56 18zM280 421q24 20 24 52t-24.5 53t-63.5 21q-40 0 -65 -21t-25 -53q0 -33 24.5 -52.5t65.5 -19.5q40 0 64 20z" />
    <glyph glyph-name="uni2079" unicode="&#x2079;" horiz-adv-x="423" 
d="M86 366.5q-42 36.5 -46 95.5h88q7 -64 73 -64q48 0 70.5 36.5t27.5 109.5q0 8 1 13q-18 -23 -46.5 -38.5t-64.5 -15.5q-66 0 -108.5 42.5t-42.5 110.5q0 45 22 80.5t60 56t85 20.5q84 0 131.5 -63.5t47.5 -175.5q0 -118 -48.5 -181t-139.5 -63q-68 0 -110 36.5z
M262.5 598q22.5 24 22.5 62q0 37 -22.5 60t-57.5 23t-57.5 -23.5t-22.5 -59.5q0 -39 22 -62.5t58 -23.5q35 0 57.5 24z" />
    <glyph glyph-name="uni20A6" unicode="&#x20a6;" horiz-adv-x="602" 
d="M516 382h75v-70h-75v-312h-143l-100 312h-92v-312h-97v312h-74v70h74v318h149l102 -318h85v318h96v-318zM181 382h70l-71 220q1 -29 1 -85v-135zM421 114q-1 28 -1 89v109h-63z" />
    <glyph glyph-name="uni20A9" unicode="&#x20a9;" horiz-adv-x="1082" 
d="M1038 471v-70h-102l-22 -79h124v-69h-142l-68 -253h-131l-62 253h-184l-67 -253h-130l-68 253h-143v69h125l-21 79h-104v70h85l-61 229h107l58 -229h187l60 229h131l58 -229h186l60 229h102l-62 -229h84zM509 471h72l-11 45l-25 97q-9 -42 -24 -97zM400 401h-150l20 -79
h109zM490 401l-21 -79h149l-20 79h-108zM706 322h109l21 79h-150zM361 253h-73l11 -43q17 -71 25 -108l26 108zM797 253h-73l11 -43l26 -110q8 42 25 110z" />
    <glyph glyph-name="uni20AA" unicode="&#x20aa;" horiz-adv-x="677" 
d="M58 0v700h203q95 0 147 -54t52 -151v-331h-87v336q0 55 -29.5 85.5t-83.5 30.5h-106v-616h-96zM416 0q-95 0 -147.5 54t-52.5 151v331h88v-336q0 -55 29 -85.5t84 -30.5h106v616h96v-700h-203z" />
    <glyph glyph-name="Euro" unicode="&#x20ac;" horiz-adv-x="642" 
d="M606 236q-12 -117 -75.5 -184.5t-170.5 -67.5q-103 0 -170 65.5t-88 185.5h-72v74h63q-1 13 -1 41q0 26 1 38h-63v74h72q22 121 91.5 188t171.5 67q105 0 166 -64.5t70 -177.5h-103q-7 70 -41.5 113.5t-94.5 43.5q-129 0 -158 -170h215v-74h-223q-1 -12 -1 -39t1 -40h223
v-74h-215q16 -84 56.5 -125.5t100.5 -41.5q64 0 99.5 45t42.5 123h103z" />
    <glyph glyph-name="uni20B4" unicode="&#x20b4;" horiz-adv-x="563" 
d="M547 470v-71h-531v71h378q8 24 8 50q0 48 -29.5 79.5t-81.5 31.5t-83 -28.5t-34 -73.5h-105q3 51 31.5 94t78.5 68.5t112 25.5q65 0 112.5 -26t72.5 -69.5t25 -94.5q0 -33 -9 -57h55zM16 257v71h531v-71h-359q-21 -36 -21 -77q0 -47 31 -79t83 -32t83 29t34 74h105
q-2 -52 -31 -95t-78.5 -68t-112.5 -25q-66 0 -114 26t-73 69t-25 94q0 46 19 84h-72z" />
    <glyph glyph-name="uni20B8" unicode="&#x20b8;" horiz-adv-x="593" 
d="M559 612h-526v88h526v-88zM348 0h-104v434h-211v88h526v-88h-211v-434z" />
    <glyph glyph-name="uni20B9" unicode="&#x20b9;" horiz-adv-x="610" 
d="M575 700v-74h-176q22 -12 33 -23q26 -26 36 -64h107v-74h-106q-13 -84 -80 -125t-161 -41h-42q5 -5 13 -12.5t18 -15.5l279 -271h-138l-301 299v84h160q125 0 145 82h-305v74h306q-19 87 -146 87h-160v74h518z" />
    <glyph glyph-name="uni20BA" unicode="&#x20ba;" horiz-adv-x="595" 
d="M564 284q-3 -89 -47 -153t-118 -97.5t-169 -33.5h-101v227l-77 -39v78l77 40v81l-77 -40v79l77 40v234h102v-182l212 109v-79l-212 -109v-81l212 109v-79l-212 -108v-194q99 0 161.5 50t68.5 148h103z" />
    <glyph glyph-name="uni20BD" unicode="&#x20bd;" horiz-adv-x="635" 
d="M226 308v-82h254v-73h-254v-153h-102v153h-74v73h74v82h-74v74h74v318h234q109 0 177 -46.5t68 -150.5q0 -101 -68.5 -148t-176.5 -47h-132zM226 616v-234h133q70 0 105 32.5t35 86.5t-34 84.5t-106 30.5h-133z" />
    <glyph glyph-name="uni20BF" unicode="&#x20bf;" horiz-adv-x="618" 
d="M514.5 55q-61.5 -46 -161.5 -53v-113h-81v111h-186v700h186v111h81v-111q95 -5 150 -48.5t55 -127.5q0 -57 -35.5 -97.5t-88.5 -56.5q65 -19 103.5 -63.5t38.5 -109.5q0 -96 -61.5 -142zM188 616v-208h133q65 0 98.5 28t33.5 78q0 47 -30.5 74.5t-96.5 27.5h-138zM325 85
q146 0 146 121q0 57 -34.5 87t-114.5 30h-134v-238h137z" />
    <glyph glyph-name="uni2113" unicode="&#x2113;" horiz-adv-x="518" 
d="M484 227q-4 -106 -53.5 -174.5t-136.5 -68.5q-149 0 -183 201q-46 -9 -79 -10v87q35 1 71 9q-1 12 -1 36q0 108 23.5 201t75.5 151t133 58q74 0 111 -45t37 -117q0 -76 -37 -144t-101.5 -120t-146.5 -82q17 -145 99 -145q48 0 70 49.5t25 113.5h93zM192 299
q90 37 145 103.5t55 153.5q0 38 -15.5 59t-45.5 21q-47 0 -78.5 -51t-46 -126t-14.5 -149v-11z" />
    <glyph glyph-name="uni2116" unicode="&#x2116;" horiz-adv-x="1133" 
d="M832 378q-38 24 -58.5 64.5t-20.5 89.5q0 50 20.5 90.5t58.5 64t89 23.5q77 0 122.5 -50.5t45.5 -127.5q0 -49 -20 -89.5t-58.5 -64.5t-89.5 -24t-89 24zM86 0v700h159l335 -571q-1 28 -1 93v478h107v-700h-144l-352 597q2 -33 2 -90v-507h-106zM982.5 449.5
q20.5 29.5 20.5 82.5t-21 83.5t-61 30.5t-61 -31t-21 -83t21 -82t61 -30q41 0 61.5 29.5zM1082 219h-322v77h322v-77z" />
    <glyph glyph-name="uni2117" unicode="&#x2117;" horiz-adv-x="813" 
d="M224 33.5q-83 49.5 -132.5 133.5t-49.5 184q0 99 49.5 183t133.5 133.5t182 49.5q99 0 182.5 -49.5t132.5 -133.5t49 -183q0 -101 -49 -185.5t-133 -133t-184 -48.5q-98 0 -181 49.5zM553 93.5q66 39.5 104.5 107.5t38.5 150t-38.5 149.5t-105 107t-145.5 39.5
q-80 0 -146.5 -39.5t-105 -107t-38.5 -149.5q0 -83 38.5 -151t105.5 -107t147 -39q79 0 145 39.5zM284 155v390h171q60 0 97 -33t37 -90q0 -58 -37 -91t-97 -33h-99v-143h-72zM442 361q34 0 54 15t20 46t-20 46t-54 15h-86v-122h86z" />
    <glyph glyph-name="trademark" unicode="&#x2122;" horiz-adv-x="923" 
d="M240 317h-78v313h-131v70h340v-70h-131v-313zM420 317v383h110l91 -248l15 -44q10 30 16 44l92 248h107v-383h-75v237q0 33 1 53q-13 -36 -20 -53l-86 -237h-73l-85 236q-8 25 -19 53q1 -20 1 -53v-236h-75z" />
    <glyph glyph-name="Omega" unicode="&#x2126;" horiz-adv-x="766" 
d="M74 0v84h84q16 0 32 -2q-3 2 -9.5 6t-11.5 8q-56 41 -88.5 109.5t-32.5 155.5q0 106 43.5 187t119.5 125t172 44t172 -44t119.5 -125t43.5 -187q0 -86 -33 -155t-89 -110q-7 -6 -21 -14q16 2 33 2h82v-84h-263v84q82 11 131.5 83.5t49.5 188.5q0 84 -28 145t-79 93.5
t-118 32.5q-68 0 -119 -32.5t-79 -93.5t-28 -145q0 -116 49.5 -188.5t131.5 -83.5v-84h-264z" />
    <glyph glyph-name="onethird" unicode="&#x2153;" horiz-adv-x="896" 
d="M137 560q0 21 1 32q-17 -22 -46.5 -36.5t-63.5 -14.5v68q44 5 77 30t42 61h70v-419h-80v279zM205 0h-96l508 700h96zM585.5 29q-43.5 39 -44.5 106h79q1 -38 22 -59.5t57 -21.5t57.5 17.5t21.5 48.5q0 30 -21 48t-57 18h-31v63h34q30 0 47.5 15.5t17.5 42.5
q0 28 -17.5 43.5t-48.5 15.5q-34 0 -53 -19t-21 -50h-82q2 60 45 96t112 36q64 0 104.5 -32.5t40.5 -84.5q0 -33 -20 -58t-56 -36q40 -11 62.5 -38t22.5 -66q0 -54 -43 -89t-114 -35t-114.5 39z" />
    <glyph glyph-name="twothirds" unicode="&#x2154;" horiz-adv-x="986" 
d="M38 281q1 57 26 97.5t76 73.5l52 35q33 22 50 43.5t17 50.5q0 30 -17.5 48t-47.5 18q-34 0 -53 -21t-21 -59h-82q2 63 44 103t113 40q66 0 105 -37t39 -91q0 -47 -27.5 -82.5t-77.5 -67.5l-50 -33q-42 -26 -46 -49h202v-69h-302zM299 0h-96l508 700h96zM680.5 29
q-43.5 39 -44.5 106h79q1 -38 22 -59.5t57 -21.5t57.5 17.5t21.5 48.5q0 30 -21 48t-57 18h-31v63h34q30 0 47.5 15.5t17.5 42.5q0 28 -17.5 43.5t-48.5 15.5q-34 0 -53 -19t-21 -50h-82q2 60 45 96t112 36q64 0 104.5 -32.5t40.5 -84.5q0 -33 -20 -58t-56 -36
q40 -11 62.5 -38t22.5 -66q0 -54 -43 -89t-114 -35t-114.5 39z" />
    <glyph glyph-name="uni2155" unicode="&#x2155;" horiz-adv-x="899" 
d="M591.5 26q-42.5 36 -41.5 92h80q0 -27 20 -45.5t52 -18.5q35 0 57 23t22 61q0 37 -20.5 60t-54.5 23q-22 0 -40.5 -10.5t-28.5 -28.5h-82l35 237h248v-71h-189l-13 -79q-3 -18 -5 -27q18 19 43 30.5t54 11.5q58 0 95.5 -40t37.5 -105q0 -69 -43.5 -109t-113.5 -40
t-112.5 36zM137 560q0 21 1 32q-17 -22 -46.5 -36.5t-63.5 -14.5v68q44 5 77 30t42 61h70v-419h-80v279zM205 0h-96l508 700h96z" />
    <glyph glyph-name="uni2156" unicode="&#x2156;" horiz-adv-x="989" 
d="M38 281q1 57 26 97.5t76 73.5l52 35q33 22 50 43.5t17 50.5q0 30 -17.5 48t-47.5 18q-34 0 -53 -21t-21 -59h-82q2 63 44 103t113 40q66 0 105 -37t39 -91q0 -47 -27.5 -82.5t-77.5 -67.5l-50 -33q-42 -26 -46 -49h202v-69h-302zM299 0h-96l508 700h96zM684.5 26
q-42.5 36 -41.5 92h80q0 -27 20 -45.5t52 -18.5q35 0 57 23t22 61q0 37 -20.5 60t-54.5 23q-22 0 -40.5 -10.5t-28.5 -28.5h-82l35 237h248v-71h-189l-13 -79q-3 -18 -5 -27q18 19 43 30.5t54 11.5q58 0 95.5 -40t37.5 -105q0 -69 -43.5 -109t-113.5 -40t-112.5 36z" />
    <glyph glyph-name="uni2157" unicode="&#x2157;" horiz-adv-x="976" 
d="M72.5 311q-43.5 39 -44.5 106h79q1 -38 22 -59.5t57 -21.5t57.5 17.5t21.5 48.5q0 30 -21 48t-57 18h-31v63h34q30 0 47.5 15.5t17.5 42.5q0 28 -17.5 43.5t-48.5 15.5q-34 0 -53 -19t-21 -50h-82q2 60 45 96t112 36q64 0 104.5 -32.5t40.5 -84.5q0 -33 -20 -58t-56 -36
q40 -11 62.5 -38t22.5 -66q0 -54 -43 -89t-114 -35t-114.5 39zM286 0h-96l508 700h96zM671.5 26q-42.5 36 -41.5 92h80q0 -27 20 -45.5t52 -18.5q35 0 57 23t22 61q0 37 -20.5 60t-54.5 23q-22 0 -40.5 -10.5t-28.5 -28.5h-82l35 237h248v-71h-189l-13 -79q-3 -18 -5 -27
q18 19 43 30.5t54 11.5q58 0 95.5 -40t37.5 -105q0 -69 -43.5 -109t-113.5 -40t-112.5 36z" />
    <glyph glyph-name="uni2158" unicode="&#x2158;" horiz-adv-x="999" 
d="M304 0h-96l508 700h96zM690.5 26q-42.5 36 -41.5 92h80q0 -27 20 -45.5t52 -18.5q35 0 57 23t22 61q0 37 -20.5 60t-54.5 23q-22 0 -40.5 -10.5t-28.5 -28.5h-82l35 237h248v-71h-189l-13 -79q-3 -18 -5 -27q18 19 43 30.5t54 11.5q58 0 95.5 -40t37.5 -105
q0 -69 -43.5 -109t-113.5 -40t-112.5 36zM302 281h-80v102h-196v64l177 253h99v-255h77v-62h-77v-102zM222 445v173l-13 -20l-90 -129q-7 -12 -17 -24h120z" />
    <glyph glyph-name="uni2159" unicode="&#x2159;" horiz-adv-x="907" 
d="M593 46q-44 56 -44 159q0 106 47.5 165t131.5 59q61 0 98 -33t42 -88h-81q-8 57 -62 57q-43 0 -66.5 -31.5t-25.5 -88.5q-1 -7 -1 -19q17 21 43 35t60 14q59 0 97.5 -37.5t38.5 -98.5q0 -64 -43.5 -106.5t-109.5 -42.5q-81 0 -125 56zM771 76q21 22 21 58q0 34 -20.5 56
t-53.5 22q-35 0 -56 -21.5t-21 -55.5q0 -37 20 -59t55 -22q34 0 55 22zM137 560q0 21 1 32q-17 -22 -46.5 -36.5t-63.5 -14.5v68q44 5 77 30t42 61h70v-419h-80v279zM205 0h-96l508 700h96z" />
    <glyph glyph-name="uni215A" unicode="&#x215a;" horiz-adv-x="986" 
d="M71.5 307q-42.5 36 -41.5 92h80q0 -27 20 -45.5t52 -18.5q35 0 57 23t22 61q0 37 -20.5 60t-54.5 23q-22 0 -40.5 -10.5t-28.5 -28.5h-82l35 237h248v-71h-189l-13 -79q-3 -18 -5 -27q18 19 43 30.5t54 11.5q58 0 95.5 -40t37.5 -105q0 -69 -43.5 -109t-113.5 -40
t-112.5 36zM288 0h-96l508 700h96zM675 46q-44 56 -44 159q0 106 47.5 165t131.5 59q61 0 98 -33t42 -88h-81q-8 57 -62 57q-43 0 -66.5 -31.5t-25.5 -88.5q-1 -7 -1 -19q17 21 43 35t60 14q59 0 97.5 -37.5t38.5 -98.5q0 -64 -43.5 -106.5t-109.5 -42.5q-81 0 -125 56z
M853 76q21 22 21 58q0 34 -20.5 56t-53.5 22q-35 0 -56 -21.5t-21 -55.5q0 -37 20 -59t55 -22q34 0 55 22z" />
    <glyph glyph-name="oneeighth" unicode="&#x215b;" horiz-adv-x="900" 
d="M586 23q-43 33 -43 85q0 38 23.5 65.5t65.5 42.5q-37 14 -57.5 39t-20.5 57q0 53 41.5 85t109.5 32q67 0 108.5 -32.5t41.5 -81.5q0 -36 -20.5 -62t-58.5 -37q42 -13 66 -40t24 -63q0 -55 -44 -89t-118 -34q-75 0 -118 33zM756.5 262.5q19.5 16.5 19.5 43.5
q0 26 -19.5 42.5t-50.5 16.5q-33 0 -52.5 -16t-19.5 -42q0 -28 19.5 -44.5t52.5 -16.5q31 0 50.5 16.5zM764 72.5q22 18.5 22 47.5t-22.5 48t-58.5 19t-59 -19t-23 -48q0 -30 22.5 -48t59.5 -18t59 18.5zM137 560q0 21 1 32q-17 -22 -46.5 -36.5t-63.5 -14.5v68q44 5 77 30
t42 61h70v-419h-80v279zM205 0h-96l508 700h96z" />
    <glyph glyph-name="threeeighths" unicode="&#x215c;" horiz-adv-x="976" 
d="M72.5 311q-43.5 39 -44.5 106h79q1 -38 22 -59.5t57 -21.5t57.5 17.5t21.5 48.5q0 30 -21 48t-57 18h-31v63h34q30 0 47.5 15.5t17.5 42.5q0 28 -17.5 43.5t-48.5 15.5q-34 0 -53 -19t-21 -50h-82q2 60 45 96t112 36q64 0 104.5 -32.5t40.5 -84.5q0 -33 -20 -58t-56 -36
q40 -11 62.5 -38t22.5 -66q0 -54 -43 -89t-114 -35t-114.5 39zM286 0h-96l508 700h96zM666 23q-43 33 -43 85q0 38 23.5 65.5t65.5 42.5q-37 14 -57.5 39t-20.5 57q0 53 41.5 85t109.5 32q67 0 108.5 -32.5t41.5 -81.5q0 -36 -20.5 -62t-58.5 -37q42 -13 66 -40t24 -63
q0 -55 -44 -89t-118 -34q-75 0 -118 33zM836.5 262.5q19.5 16.5 19.5 43.5q0 26 -19.5 42.5t-50.5 16.5q-33 0 -52.5 -16t-19.5 -42q0 -28 19.5 -44.5t52.5 -16.5q31 0 50.5 16.5zM844 72.5q22 18.5 22 47.5t-22.5 48t-58.5 19t-59 -19t-23 -48q0 -30 22.5 -48t59.5 -18
t59 18.5z" />
    <glyph glyph-name="fiveeighths" unicode="&#x215d;" horiz-adv-x="979" 
d="M71.5 307q-42.5 36 -41.5 92h80q0 -27 20 -45.5t52 -18.5q35 0 57 23t22 61q0 37 -20.5 60t-54.5 23q-22 0 -40.5 -10.5t-28.5 -28.5h-82l35 237h248v-71h-189l-13 -79q-3 -18 -5 -27q18 19 43 30.5t54 11.5q58 0 95.5 -40t37.5 -105q0 -69 -43.5 -109t-113.5 -40
t-112.5 36zM288 0h-96l508 700h96zM669 23q-43 33 -43 85q0 38 23.5 65.5t65.5 42.5q-37 14 -57.5 39t-20.5 57q0 53 41.5 85t109.5 32q67 0 108.5 -32.5t41.5 -81.5q0 -36 -20.5 -62t-58.5 -37q42 -13 66 -40t24 -63q0 -55 -44 -89t-118 -34q-75 0 -118 33zM839.5 262.5
q19.5 16.5 19.5 43.5q0 26 -19.5 42.5t-50.5 16.5q-33 0 -52.5 -16t-19.5 -42q0 -28 19.5 -44.5t52.5 -16.5q31 0 50.5 16.5zM847 72.5q22 18.5 22 47.5t-22.5 48t-58.5 19t-59 -19t-23 -48q0 -30 22.5 -48t59.5 -18t59 18.5z" />
    <glyph glyph-name="seveneighths" unicode="&#x215e;" horiz-adv-x="916" 
d="M221 0h-96l508 700h96zM602 23q-43 33 -43 85q0 38 23.5 65.5t65.5 42.5q-37 14 -57.5 39t-20.5 57q0 53 41.5 85t109.5 32q67 0 108.5 -32.5t41.5 -81.5q0 -36 -20.5 -62t-58.5 -37q42 -13 66 -40t24 -63q0 -55 -44 -89t-118 -34q-75 0 -118 33zM772.5 262.5
q19.5 16.5 19.5 43.5q0 26 -19.5 42.5t-50.5 16.5q-33 0 -52.5 -16t-19.5 -42q0 -28 19.5 -44.5t52.5 -16.5q31 0 50.5 16.5zM780 72.5q22 18.5 22 47.5t-22.5 48t-58.5 19t-59 -19t-23 -48q0 -30 22.5 -48t59.5 -18t59 18.5zM94 281q6 100 42.5 185t96.5 144q14 12 25 19
h-231v71h310v-60q-68 -73 -105.5 -159.5t-43.5 -199.5h-94z" />
    <glyph glyph-name="uni215F" unicode="&#x215f;" horiz-adv-x="748" 
d="M147 560q0 21 1 32q-17 -22 -46.5 -36.5t-63.5 -14.5v68q44 5 77 30t42 61h70v-419h-80v279zM215 0h-96l508 700h96z" />
    <glyph glyph-name="arrowleft" unicode="&#x2190;" horiz-adv-x="786" 
d="M207 305l261 -260h-126l-312 310l312 311h126l-261 -261h540v-100h-540z" />
    <glyph glyph-name="arrowup" unicode="&#x2191;" horiz-adv-x="684" 
d="M392 0h-100v540l-260 -261v127l310 311l311 -311v-127l-261 261v-540z" />
    <glyph glyph-name="arrowright" unicode="&#x2192;" horiz-adv-x="786" 
d="M445 45h-126l261 260h-541v100h541l-261 261h126l311 -311z" />
    <glyph glyph-name="arrowdown" unicode="&#x2193;" horiz-adv-x="683" 
d="M291 160v540h101v-540l260 261v-127l-311 -311l-310 311v127z" />
    <glyph glyph-name="uni2196" unicode="&#x2196;" horiz-adv-x="665" 
d="M615 224l-70 -71l-387 387v-369l-90 90v439h439l91 -89h-369z" />
    <glyph glyph-name="uni2197" unicode="&#x2197;" horiz-adv-x="665" 
d="M508 540l-387 -387l-71 71l386 387h-368l90 89h440v-439l-91 -90z" />
    <glyph glyph-name="uni2198" unicode="&#x2198;" horiz-adv-x="667" 
d="M51 476l70 72l387 -388v369l90 -89v-440h-440l-90 90l368 -1z" />
    <glyph glyph-name="uni2199" unicode="&#x2199;" horiz-adv-x="667" 
d="M158 160l387 388l70 -72l-385 -387l368 1l-90 -90h-440v440l90 89v-369z" />
    <glyph glyph-name="partialdiff" unicode="&#x2202;" horiz-adv-x="595" 
d="M134.5 11q-51.5 27 -81 78.5t-29.5 121.5q0 64 30 121.5t85 92t125 34.5q65 0 113.5 -33t73.5 -89q1 8 2 19t2 26q2 26 2 37q0 99 -55.5 156t-153.5 59v83q92 0 160 -39.5t104 -113.5t36 -174q0 -111 -34 -203.5t-101.5 -147.5t-162.5 -55q-64 0 -115.5 27zM368 113
q44 48 44 125q0 62 -37.5 101t-96.5 39q-69 0 -111 -47t-42 -125q0 -64 35 -102.5t91 -38.5q73 0 117 48z" />
    <glyph glyph-name="emptyset" unicode="&#x2205;" horiz-adv-x="604" 
d="M488 421q34 -35 53 -81t19 -97q0 -70 -34.5 -129.5t-94 -94.5t-129.5 -35q-67 0 -123 31l-44 -57l-63 46l45 58q-35 36 -54.5 82.5t-19.5 98.5q0 70 35 129t94.5 93.5t129.5 34.5q66 0 125 -32l46 61l62 -47zM170 132l204 268q-35 16 -72 16q-47 0 -86.5 -23.5t-62.5 -63
t-23 -86.5q0 -63 40 -111zM387.5 91.5q39.5 23.5 63 64t23.5 87.5q0 60 -39 109l-204 -268q35 -16 71 -16q46 0 85.5 23.5z" />
    <glyph glyph-name="Delta" unicode="&#x2206;" horiz-adv-x="674" 
d="M644 0h-614v86l259 614h95l260 -614v-86zM129 86h415l-172 416l-36 89q-11 -31 -35 -89z" />
    <glyph glyph-name="product" unicode="&#x220f;" horiz-adv-x="598" 
d="M565 700v-81h-89v-748h-95v748h-165v-748h-94v748h-88v81h531z" />
    <glyph glyph-name="summation" unicode="&#x2211;" horiz-adv-x="532" 
d="M36 -129v92l257 322l-257 321v94h459v-81h-353q30 -36 44 -54l197 -248v-63l-200 -250q-26 -34 -43 -52h355v-81h-459z" />
    <glyph glyph-name="minus" unicode="&#x2212;" horiz-adv-x="604" 
d="M539 257h-474v85h474v-85z" />
    <glyph glyph-name="uni2215" unicode="&#x2215;" horiz-adv-x="418" 
d="M121 0h-94l270 700h94z" />
    <glyph glyph-name="radical" unicode="&#x221a;" horiz-adv-x="550" 
d="M120 -129l-108 413h95l58 -232q12 -46 21 -89l18 90l135 647h199v-81h-124l-160 -748h-134z" />
    <glyph glyph-name="infinity" unicode="&#x221e;" horiz-adv-x="763" 
d="M120.5 148.5q-37.5 22.5 -58 63t-20.5 91.5q0 50 21 90.5t59 63t85 22.5q56 0 95.5 -28.5t79.5 -80.5q40 52 79.5 80.5t95.5 28.5q47 0 84.5 -22.5t58.5 -63t21 -90.5q0 -78 -46.5 -127.5t-119.5 -49.5q-54 0 -95 29t-79 83q-39 -54 -78.5 -83t-97.5 -29
q-47 0 -84.5 22.5zM274 229q28 24 62 72q-34 49 -62 73.5t-63 24.5q-38 0 -61 -26.5t-23 -69.5q0 -44 23 -71t61 -27q35 0 63 24zM612.5 232q23.5 27 23.5 71q0 43 -23.5 69.5t-60.5 26.5q-35 0 -62.5 -23t-63.5 -73q37 -50 64 -74t62 -24q37 0 60.5 27z" />
    <glyph glyph-name="integral" unicode="&#x222b;" horiz-adv-x="334" 
d="M28 -208v84h25q34 0 50.5 19t16.5 58v585q0 162 161 162h25v-84h-25q-68 0 -68 -78v-585q0 -161 -160 -161h-25z" />
    <glyph glyph-name="approxequal" unicode="&#x2248;" horiz-adv-x="587" 
d="M64 323q2 68 42 101t95 33q39 0 104 -25q28 -10 45.5 -15t33.5 -5q45 0 53 46h89q-1 -63 -38.5 -97.5t-95.5 -34.5q-26 0 -51.5 6t-59.5 18q-27 10 -44 14.5t-32 4.5q-21 0 -34.5 -12.5t-16.5 -33.5h-90zM64 128q2 68 42 101t95 33q39 0 104 -25q28 -10 45.5 -15t33.5 -5
q45 0 53 46h89q-1 -63 -38.5 -97.5t-95.5 -34.5q-26 0 -51.5 6t-59.5 18q-27 10 -44 14.5t-32 4.5q-21 0 -34.5 -12.5t-16.5 -33.5h-90z" />
    <glyph glyph-name="notequal" unicode="&#x2260;" horiz-adv-x="603" 
d="M540 435v-85h-170l-48 -102h218v-85h-258l-68 -143h-90l68 143h-126v85h166l48 102h-214v85h254l68 143h90l-68 -143h130z" />
    <glyph glyph-name="lessequal" unicode="&#x2264;" horiz-adv-x="601" 
d="M530 141l-473 171v99l473 171v-101l-288 -92q-6 -2 -56 -18l-28 -9q28 -8 84 -26l288 -94v-101zM531 0h-474v85h474v-85z" />
    <glyph glyph-name="greaterequal" unicode="&#x2265;" 
d="M73 141v101l288 93l47 15q12 3 36 11q-19 5 -83 26l-288 94v101l472 -171v-100zM546 0h-474v85h474v-85z" />
    <glyph glyph-name="angleleft" unicode="&#x2329;" horiz-adv-x="326" 
d="M312 731l-194 -426l199 -434h-101l-197 432l193 428h100z" />
    <glyph glyph-name="angleright" unicode="&#x232a;" horiz-adv-x="327" 
d="M9 731h101l198 -432l-194 -428h-99l194 426z" />
    <glyph glyph-name="uni2460" unicode="&#x2460;" horiz-adv-x="813" 
d="M224.5 33q-83.5 49 -133 133.5t-49.5 184.5q0 99 49.5 183t133.5 133.5t182 49.5q99 0 182.5 -49.5t132.5 -133.5t49 -183q0 -100 -49 -184.5t-132.5 -133.5t-182.5 -49t-182.5 49zM554 90.5q67 39.5 106 108.5t39 152t-39 151t-106 107.5t-147 39.5q-81 0 -148 -39.5
t-105.5 -107.5t-38.5 -151t38.5 -152t105.5 -108.5t148 -39.5q80 0 147 39.5zM390 418q0 27 2 42q-15 -25 -45 -42t-66 -18v67q45 5 78 30.5t41 60.5h64v-419h-74v279z" />
    <glyph glyph-name="uni2461" unicode="&#x2461;" horiz-adv-x="813" 
d="M224.5 33q-83.5 49 -133 133.5t-49.5 184.5q0 99 49.5 183t133.5 133.5t182 49.5q99 0 182.5 -49.5t132.5 -133.5t49 -183q0 -100 -49 -184.5t-132.5 -133.5t-182.5 -49t-182.5 49zM554 90.5q67 39.5 106 108.5t39 152t-39 151t-106 107.5t-147 39.5q-81 0 -148 -39.5
t-105.5 -107.5t-38.5 -151t38.5 -152t105.5 -108.5t148 -39.5q80 0 147 39.5zM258 145q1 56 26 95.5t76 73.5l50 35q33 21 50 42t17 49q0 29 -17.5 47.5t-46.5 18.5q-33 0 -52 -21t-21 -58h-82q2 62 44 102.5t112 40.5q65 0 104.5 -37.5t39.5 -91.5q0 -45 -27.5 -80
t-78.5 -67l-49 -33q-21 -14 -32 -25t-13 -22h200v-69h-300z" />
    <glyph glyph-name="uni2462" unicode="&#x2462;" horiz-adv-x="813" 
d="M224.5 33q-83.5 49 -133 133.5t-49.5 184.5q0 99 49.5 183t133.5 133.5t182 49.5q99 0 182.5 -49.5t132.5 -133.5t49 -183q0 -100 -49 -184.5t-132.5 -133.5t-182.5 -49t-182.5 49zM554 90.5q67 39.5 106 108.5t39 152t-39 151t-106 107.5t-147 39.5q-81 0 -148 -39.5
t-105.5 -107.5t-38.5 -151t38.5 -152t105.5 -108.5t148 -39.5q80 0 147 39.5zM291.5 168.5q-42.5 38.5 -43.5 106.5h74q1 -39 23 -60.5t58 -21.5q37 0 59.5 17.5t22.5 49.5q0 31 -21.5 49t-59.5 18h-27v62h31q29 0 48.5 15t19.5 43t-18.5 44.5t-51.5 16.5q-35 0 -54.5 -19.5
t-21.5 -51.5h-76q2 60 43.5 96.5t110.5 36.5q63 0 103 -33t40 -85q0 -34 -21 -58.5t-56 -34.5q39 -11 63 -38.5t24 -66.5q0 -54 -43.5 -89t-113.5 -35t-112.5 38.5z" />
    <glyph glyph-name="uni2463" unicode="&#x2463;" horiz-adv-x="813" 
d="M224.5 33q-83.5 49 -133 133.5t-49.5 184.5q0 99 49.5 183t133.5 133.5t182 49.5q99 0 182.5 -49.5t132.5 -133.5t49 -183q0 -100 -49 -184.5t-132.5 -133.5t-182.5 -49t-182.5 49zM554 90.5q67 39.5 106 108.5t39 152t-39 151t-106 107.5t-147 39.5q-81 0 -148 -39.5
t-105.5 -107.5t-38.5 -151t38.5 -152t105.5 -108.5t148 -39.5q80 0 147 39.5zM494 139h-74v103h-196v64l176 252h94v-255h76v-61h-76v-103zM420 303v184q-11 -20 -18 -29l-90 -131l-18 -24h126z" />
    <glyph glyph-name="uni2464" unicode="&#x2464;" horiz-adv-x="813" 
d="M224.5 33q-83.5 49 -133 133.5t-49.5 184.5q0 99 49.5 183t133.5 133.5t182 49.5q99 0 182.5 -49.5t132.5 -133.5t49 -183q0 -100 -49 -184.5t-132.5 -133.5t-182.5 -49t-182.5 49zM554 90.5q67 39.5 106 108.5t39 152t-39 151t-106 107.5t-147 39.5q-81 0 -148 -39.5
t-105.5 -107.5t-38.5 -151t38.5 -152t105.5 -108.5t148 -39.5q80 0 147 39.5zM296 166q-41 36 -41 92h74q1 -27 21 -46t54 -19q37 0 60 23.5t23 62.5q0 34 -21 57.5t-58 23.5q-23 0 -42.5 -11.5t-28.5 -27.5h-76l34 232h244v-70h-191l-13 -83l-5 -26q16 21 42 34t59 13
q57 0 93.5 -39.5t36.5 -101.5q0 -70 -43.5 -110t-111.5 -40q-69 0 -110 36z" />
    <glyph glyph-name="uni2465" unicode="&#x2465;" horiz-adv-x="813" 
d="M224.5 33q-83.5 49 -133 133.5t-49.5 184.5q0 99 49.5 183t133.5 133.5t182 49.5q99 0 182.5 -49.5t132.5 -133.5t49 -183q0 -100 -49 -184.5t-132.5 -133.5t-182.5 -49t-182.5 49zM554 90.5q67 39.5 106 108.5t39 152t-39 151t-106 107.5t-147 39.5q-81 0 -148 -39.5
t-105.5 -107.5t-38.5 -151t38.5 -152t105.5 -108.5t148 -39.5q80 0 147 39.5zM287 186q-43 56 -43 159q0 104 46 164.5t130 60.5q60 0 96 -33t41 -88h-75q-3 28 -20 43t-46 15q-46 0 -69 -35t-25 -95l-2 -19q17 25 44 41t63 16q58 0 96 -37t38 -98q0 -65 -43 -107.5
t-107 -42.5q-81 0 -124 56zM465 215q22 22 22 59q0 35 -21.5 56.5t-55.5 21.5q-36 0 -58 -21t-22 -56q0 -38 21.5 -60t56.5 -22t57 22z" />
    <glyph glyph-name="uni2466" unicode="&#x2466;" horiz-adv-x="813" 
d="M224.5 33q-83.5 49 -133 133.5t-49.5 184.5q0 99 49.5 183t133.5 133.5t182 49.5q99 0 182.5 -49.5t132.5 -133.5t49 -183q0 -100 -49 -184.5t-132.5 -133.5t-182.5 -49t-182.5 49zM554 90.5q67 39.5 106 108.5t39 152t-39 151t-106 107.5t-147 39.5q-81 0 -148 -39.5
t-105.5 -107.5t-38.5 -151t38.5 -152t105.5 -108.5t148 -39.5q80 0 147 39.5zM332 139q5 106 39.5 188t91.5 135q12 12 25 21h-222v70h294v-59q-64 -71 -100 -154.5t-40 -200.5h-88z" />
    <glyph glyph-name="uni2467" unicode="&#x2467;" horiz-adv-x="813" 
d="M224.5 33q-83.5 49 -133 133.5t-49.5 184.5q0 99 49.5 183t133.5 133.5t182 49.5q99 0 182.5 -49.5t132.5 -133.5t49 -183q0 -100 -49 -184.5t-132.5 -133.5t-182.5 -49t-182.5 49zM554 90.5q67 39.5 106 108.5t39 152t-39 151t-106 107.5t-147 39.5q-81 0 -148 -39.5
t-105.5 -107.5t-38.5 -151t38.5 -152t105.5 -108.5t148 -39.5q80 0 147 39.5zM290 163q-41 33 -41 86q0 39 23.5 66t64.5 41q-35 14 -56.5 38t-21.5 58q0 52 40.5 85t107.5 33q66 0 106.5 -32.5t40.5 -82.5q0 -36 -21 -62t-58 -37q41 -12 65.5 -39t24.5 -64q0 -55 -43 -89
t-116 -34q-75 0 -116 33zM460 402.5q20 16.5 20 43.5q0 28 -19.5 44t-52.5 16q-34 0 -54 -16t-20 -43q0 -28 20 -44.5t54 -16.5q32 0 52 16.5zM467.5 212q23.5 18 23.5 48t-23.5 49t-60.5 19t-60.5 -19t-23.5 -49t23 -48t61 -18q37 0 60.5 18z" />
    <glyph glyph-name="uni2468" unicode="&#x2468;" horiz-adv-x="813" 
d="M224.5 33q-83.5 49 -133 133.5t-49.5 184.5q0 99 49.5 183t133.5 133.5t182 49.5q99 0 182.5 -49.5t132.5 -133.5t49 -183q0 -100 -49 -184.5t-132.5 -133.5t-182.5 -49t-182.5 49zM554 90.5q67 39.5 106 108.5t39 152t-39 151t-106 107.5t-147 39.5q-81 0 -148 -39.5
t-105.5 -107.5t-38.5 -151t38.5 -152t105.5 -108.5t148 -39.5q80 0 147 39.5zM304 163q-37 33 -42 87h75q6 -58 69 -58q47 0 67.5 35t24.5 100l2 18q-16 -23 -43 -39.5t-63 -16.5q-58 0 -96 37.5t-38 100.5q0 41 20 73.5t54.5 51t75.5 18.5q73 0 116 -56.5t43 -160.5
q0 -110 -43.5 -166.5t-124.5 -56.5q-60 0 -97 33zM463.5 373q21.5 22 21.5 57q0 34 -21 55.5t-54 21.5t-54.5 -21.5t-21.5 -55.5q0 -36 21 -57.5t55 -21.5q32 0 53.5 22z" />
    <glyph glyph-name="uni24EA" unicode="&#x24ea;" horiz-adv-x="813" 
d="M224.5 33q-83.5 49 -133 133.5t-49.5 184.5q0 99 49.5 183t133.5 133.5t182 49.5q99 0 182.5 -49.5t132.5 -133.5t49 -183q0 -100 -49 -184.5t-132.5 -133.5t-182.5 -49t-182.5 49zM554 90.5q67 39.5 106 108.5t39 152t-39 151t-106 107.5t-147 39.5q-81 0 -148 -39.5
t-105.5 -107.5t-38.5 -151t38.5 -152t105.5 -108.5t148 -39.5q80 0 147 39.5zM288 188.5q-43 58.5 -43 159.5q0 103 44 162.5t118 59.5q73 0 117 -59.5t44 -162.5q0 -100 -43 -159t-118 -59q-76 0 -119 58.5zM470 233q23 39 23 115q0 79 -22.5 118.5t-62.5 39.5
q-41 0 -64.5 -39.5t-23.5 -118.5q0 -76 24 -115t64 -39q39 0 62 39z" />
    <glyph glyph-name="uni24FF" unicode="&#x24ff;" horiz-adv-x="813" 
d="M589 32.5q84 48.5 133 133t49 185.5q0 99 -49 183t-132.5 133.5t-182.5 49.5q-98 0 -182 -49.5t-133.5 -133.5t-49.5 -183q0 -100 49.5 -184t132.5 -133.5t181 -49.5q100 0 184 48.5zM288 188.5q-43 58.5 -43 159.5q0 103 44 162.5t119 59.5q73 0 117 -59.5t44 -162.5
q0 -100 -43 -159t-118 -59q-77 0 -120 58.5zM471 233q23 39 23 115q0 79 -23 118.5t-63 39.5q-41 0 -64 -39.5t-23 -118.5q0 -76 23.5 -115t63.5 -39t63 39z" />
    <glyph glyph-name="filledbox" unicode="&#x25a0;" horiz-adv-x="873" 
d="M786 0h-700v700h700v-700z" />
    <glyph glyph-name="H22073" unicode="&#x25a1;" horiz-adv-x="873" 
d="M786 0h-700v700h700v-700zM174 614v-528h525v528h-525z" />
    <glyph glyph-name="H18543" unicode="&#x25aa;" horiz-adv-x="553" 
d="M476 150h-400v400h400v-400z" />
    <glyph glyph-name="H18551" unicode="&#x25ab;" horiz-adv-x="553" 
d="M476 150h-400v400h400v-400zM161 467v-234h231v234h-231z" />
    <glyph glyph-name="triagup" unicode="&#x25b2;" horiz-adv-x="799" 
d="M777 0h-756l378 718z" />
    <glyph glyph-name="uni25B3" unicode="&#x25b3;" horiz-adv-x="798" 
d="M776 0h-755l377 718zM398 538l-238 -455h478z" />
    <glyph glyph-name="uni25B6" unicode="&#x25b6;" horiz-adv-x="731" 
d="M710 350l-625 -358v716z" />
    <glyph glyph-name="uni25B7" unicode="&#x25b7;" horiz-adv-x="731" 
d="M710 350l-625 -358v716zM169 565v-430l376 215z" />
    <glyph glyph-name="triagdn" unicode="&#x25bc;" horiz-adv-x="799" 
d="M399 -18l-378 718h756z" />
    <glyph glyph-name="uni25BD" unicode="&#x25bd;" horiz-adv-x="798" 
d="M398 -18l-377 718h755zM638 617h-478l238 -455z" />
    <glyph glyph-name="uni25C0" unicode="&#x25c0;" horiz-adv-x="732" 
d="M646 708v-716l-625 358z" />
    <glyph glyph-name="uni25C1" unicode="&#x25c1;" horiz-adv-x="732" 
d="M646 708v-716l-625 358zM187 350l376 -215v430z" />
    <glyph glyph-name="uni25C6" unicode="&#x25c6;" horiz-adv-x="842" 
d="M824 350l-403 -403l-403 403l403 402z" />
    <glyph glyph-name="uni25C7" unicode="&#x25c7;" horiz-adv-x="842" 
d="M824 350l-403 -403l-403 403l403 402zM137 350l284 -285l285 285l-285 285z" />
    <glyph glyph-name="lozenge" unicode="&#x25ca;" horiz-adv-x="510" 
d="M302 0h-93l-176 350l176 350h93l175 -350zM285 156l97 191l-98 196q-15 28 -30 62q-6 -14 -15.5 -33.5t-13.5 -28.5l-97 -190l99 -197q15 -34 29 -60q14 26 29 60z" />
    <glyph glyph-name="circle" unicode="&#x25cb;" horiz-adv-x="837" 
d="M231 25.5q-86 50.5 -136.5 137t-50.5 187.5t50.5 187.5t136.5 137t188 50.5q101 0 187.5 -50.5t137 -137t50.5 -187.5t-50.5 -187.5t-137 -137t-187.5 -50.5q-102 0 -188 50.5zM562 98q65 39 103 105.5t38 146.5t-38 147t-103 105.5t-143 38.5t-143.5 -38.5
t-103.5 -105.5t-38 -147t38 -146.5t103.5 -105.5t143.5 -39t143 39z" />
    <glyph glyph-name="H18533" unicode="&#x25cf;" horiz-adv-x="821" 
d="M227.5 31.5q-84.5 49.5 -134 134.5t-49.5 184t49.5 184t134 134.5t183.5 49.5t183.5 -49.5t134 -134.5t49.5 -184t-49.5 -184t-134 -134.5t-183.5 -49.5t-183.5 49.5z" />
    <glyph glyph-name="uni25FB" unicode="&#x25fb;" horiz-adv-x="723" 
d="M636 75h-550v550h550v-550zM171 542v-384h381v384h-381z" />
    <glyph glyph-name="uni25FC" unicode="&#x25fc;" horiz-adv-x="723" 
d="M636 75h-550v550h550v-550z" />
    <glyph glyph-name="uni2661" unicode="&#x2661;" horiz-adv-x="792" 
d="M662.5 688.5q42.5 -26.5 66 -74.5t23.5 -111q0 -79 -39.5 -158t-116 -165t-201.5 -199q-123 112 -199 197.5t-116 165.5t-40 159q0 63 23.5 111t66 74.5t98.5 26.5t101.5 -29.5t66.5 -80.5q21 51 66.5 80.5t101.5 29.5t98.5 -26.5zM605.5 323.5q62.5 95.5 62.5 181.5
q0 61 -29.5 97t-81.5 36q-53 0 -84 -33.5t-35 -97.5h-84q-4 64 -34.5 97.5t-84.5 33.5q-53 0 -82 -35.5t-29 -96.5q0 -87 63 -184t208 -237q148 143 210.5 238.5z" />
    <glyph glyph-name="heart" unicode="&#x2665;" horiz-adv-x="792" 
d="M663 689q42 -26 65.5 -74t23.5 -110q0 -116 -86 -237t-271 -287q-181 163 -268 285.5t-87 239.5q0 62 23.5 109.5t66 73.5t96.5 26q67 0 111.5 -39t58.5 -105q14 66 58.5 105t111.5 39q55 0 97 -26z" />
    <glyph glyph-name="uni2776" unicode="&#x2776;" horiz-adv-x="813" 
d="M589 32.5q84 48.5 133 133t49 185.5q0 99 -49 183t-132.5 133.5t-182.5 49.5q-98 0 -182 -49.5t-133.5 -133.5t-49.5 -183q0 -100 49.5 -184t132.5 -133.5t181 -49.5q100 0 184 48.5zM390 418q0 27 2 42q-15 -25 -45 -42t-66 -18v67q45 5 78 30.5t41 60.5h64v-419h-74
v279z" />
    <glyph glyph-name="uni2777" unicode="&#x2777;" horiz-adv-x="813" 
d="M589 32.5q84 48.5 133 133t49 185.5q0 99 -49 183t-132.5 133.5t-182.5 49.5q-98 0 -182 -49.5t-133.5 -133.5t-49.5 -183q0 -100 49.5 -184t132.5 -133.5t181 -49.5q100 0 184 48.5zM258 145q1 56 26 95.5t76 73.5l50 35q33 21 50 42t17 49q0 29 -17.5 47.5t-46.5 18.5
q-33 0 -52 -21t-21 -58h-82q2 62 44 102.5t112 40.5q65 0 104.5 -37.5t39.5 -91.5q0 -45 -27.5 -80t-78.5 -67l-49 -33q-21 -14 -32 -25t-13 -22h200v-69h-300z" />
    <glyph glyph-name="uni2778" unicode="&#x2778;" horiz-adv-x="813" 
d="M589 32.5q84 48.5 133 133t49 185.5q0 99 -49 183t-132.5 133.5t-182.5 49.5q-98 0 -182 -49.5t-133.5 -133.5t-49.5 -183q0 -100 49.5 -184t132.5 -133.5t181 -49.5q100 0 184 48.5zM291.5 168.5q-42.5 38.5 -43.5 106.5h74q1 -39 23 -60.5t58 -21.5q37 0 59.5 17.5
t22.5 49.5q0 31 -21.5 49t-59.5 18h-27v62h31q29 0 48.5 15t19.5 43t-18.5 44.5t-51.5 16.5q-35 0 -54.5 -19.5t-21.5 -51.5h-76q2 60 43.5 96.5t110.5 36.5q63 0 103 -33t40 -85q0 -34 -21 -58.5t-56 -34.5q39 -11 63 -38.5t24 -66.5q0 -54 -43.5 -89t-113.5 -35
t-112.5 38.5z" />
    <glyph glyph-name="uni2779" unicode="&#x2779;" horiz-adv-x="813" 
d="M589 32.5q84 48.5 133 133t49 185.5q0 99 -49 183t-132.5 133.5t-182.5 49.5q-98 0 -182 -49.5t-133.5 -133.5t-49.5 -183q0 -100 49.5 -184t132.5 -133.5t181 -49.5q100 0 184 48.5zM494 139h-74v103h-196v64l176 252h94v-255h76v-61h-76v-103zM420 303v184
q-11 -20 -18 -29l-90 -131l-18 -24h126z" />
    <glyph glyph-name="uni277A" unicode="&#x277a;" horiz-adv-x="813" 
d="M589 32.5q84 48.5 133 133t49 185.5q0 99 -49 183t-132.5 133.5t-182.5 49.5q-98 0 -182 -49.5t-133.5 -133.5t-49.5 -183q0 -100 49.5 -184t132.5 -133.5t181 -49.5q100 0 184 48.5zM296 166q-41 36 -41 92h74q1 -27 21 -46t54 -19q37 0 60 23.5t23 62.5q0 34 -21 57.5
t-58 23.5q-23 0 -42.5 -11.5t-28.5 -27.5h-76l34 232h244v-70h-191l-13 -83l-5 -26q16 21 42 34t59 13q57 0 93.5 -39.5t36.5 -101.5q0 -70 -43.5 -110t-111.5 -40q-69 0 -110 36z" />
    <glyph glyph-name="uni277B" unicode="&#x277b;" horiz-adv-x="813" 
d="M589 32.5q84 48.5 133 133t49 185.5q0 99 -49 183t-132.5 133.5t-182.5 49.5q-98 0 -182 -49.5t-133.5 -133.5t-49.5 -183q0 -100 49.5 -184t132.5 -133.5t181 -49.5q100 0 184 48.5zM287 186q-43 56 -43 159q0 104 46 164.5t130 60.5q60 0 96 -33t41 -88h-75
q-3 28 -20 43t-46 15q-46 0 -69 -35t-25 -95l-2 -19q17 25 44 41t63 16q58 0 96 -37t38 -98q0 -65 -43 -107.5t-107 -42.5q-81 0 -124 56zM465 215q22 22 22 59q0 35 -21.5 56.5t-55.5 21.5q-36 0 -58 -21t-22 -56q0 -38 21.5 -60t56.5 -22t57 22z" />
    <glyph glyph-name="uni277C" unicode="&#x277c;" horiz-adv-x="813" 
d="M589 32.5q84 48.5 133 133t49 185.5q0 99 -49 183t-132.5 133.5t-182.5 49.5q-98 0 -182 -49.5t-133.5 -133.5t-49.5 -183q0 -100 49.5 -184t132.5 -133.5t181 -49.5q100 0 184 48.5zM332 139q5 106 39.5 188t91.5 135q12 12 25 21h-222v70h294v-59q-64 -71 -100 -154.5
t-40 -200.5h-88z" />
    <glyph glyph-name="uni277D" unicode="&#x277d;" horiz-adv-x="813" 
d="M589 32.5q84 48.5 133 133t49 185.5q0 99 -49 183t-132.5 133.5t-182.5 49.5q-98 0 -182 -49.5t-133.5 -133.5t-49.5 -183q0 -100 49.5 -184t132.5 -133.5t181 -49.5q100 0 184 48.5zM290.5 163q-41.5 33 -41.5 86q0 39 23.5 66t65.5 41q-36 13 -57 37.5t-21 58.5
q0 52 40.5 85t107.5 33q66 0 106 -32.5t40 -82.5q0 -36 -21 -62t-57 -37q41 -12 65 -39t24 -64q0 -55 -43 -89t-116 -34q-74 0 -115.5 33zM460 402.5q20 16.5 20 43.5q0 28 -19.5 44t-52.5 16q-34 0 -54 -16t-20 -43q0 -28 20 -44.5t54 -16.5q32 0 52 16.5zM467.5 212
q23.5 18 23.5 48t-23.5 49t-60.5 19t-60.5 -19t-23.5 -49t23 -48t61 -18q37 0 60.5 18z" />
    <glyph glyph-name="uni277E" unicode="&#x277e;" horiz-adv-x="813" 
d="M589 32.5q84 48.5 133 133t49 185.5q0 99 -49 183t-132.5 133.5t-182.5 49.5q-98 0 -182 -49.5t-133.5 -133.5t-49.5 -183q0 -100 49.5 -184t132.5 -133.5t181 -49.5q100 0 184 48.5zM304 163q-37 33 -42 87h75q6 -58 69 -58q47 0 67.5 35t24.5 100l2 18
q-16 -23 -43 -39.5t-63 -16.5q-58 0 -96 37.5t-38 100.5q0 41 20 73.5t54.5 51t75.5 18.5q73 0 116 -56.5t43 -160.5q0 -110 -43.5 -166.5t-124.5 -56.5q-60 0 -97 33zM463.5 373q21.5 22 21.5 57q0 34 -21 55.5t-54 21.5t-54.5 -21.5t-21.5 -55.5q0 -36 21 -57.5t55 -21.5
q32 0 53.5 22z" />
    <glyph glyph-name="uni300A" unicode="&#x300a;" horiz-adv-x="535" 
d="M312 731l-194 -426l199 -434h-101l-197 432l193 428h100zM520 731l-194 -426l199 -434h-101l-197 432l193 428h100z" />
    <glyph glyph-name="uni300B" unicode="&#x300b;" horiz-adv-x="535" 
d="M10 731h101l197 -432l-193 -428h-100l194 426zM218 731h101l198 -432l-194 -428h-99l193 426z" />
    <glyph glyph-name="uni300C" unicode="&#x300c;" horiz-adv-x="303" 
d="M165 300h-95v431h217v-76h-122v-355z" />
    <glyph glyph-name="uni300D" unicode="&#x300d;" horiz-adv-x="288" 
d="M130 300h95v-431h-217v76h122v355z" />
    <glyph glyph-name="uni300E" unicode="&#x300e;" horiz-adv-x="456" 
d="M280 233h-209v498h352v-200h-143v-298zM147 668v-368h57v295h143v73h-200z" />
    <glyph glyph-name="uni300F" unicode="&#x300f;" horiz-adv-x="450" 
d="M173 369h209v-498h-352v200h143v298zM306 -66v368h-57v-294h-143v-74h200z" />
    <glyph glyph-name="uni3010" unicode="&#x3010;" horiz-adv-x="332" 
d="M86 -129v860h243v-3q-80 -96 -118 -197t-38 -229t37.5 -229t118.5 -200v-2h-243z" />
    <glyph glyph-name="uni3011" unicode="&#x3011;" horiz-adv-x="327" 
d="M247 731v-860h-244v3q80 96 118 197t38 229t-37.5 229t-118.5 200v2h244z" />
    <glyph glyph-name="uni3014" unicode="&#x3014;" horiz-adv-x="278" 
d="M254 -95l-69 -49l-127 170v548l128 172l69 -50l-102 -134v-521z" />
    <glyph glyph-name="uni3015" unicode="&#x3015;" horiz-adv-x="278" 
d="M24 697l69 49l127 -170v-548l-129 -172l-68 50l102 135v520z" />
    <glyph glyph-name="uniE000" unicode="&#xe000;" horiz-adv-x="782" 
d="M391 287l-298 -303l-63 64l299 303l-295 301l63 64l295 -302l295 302l65 -62l-298 -303l297 -302l-64 -64z" />
    <glyph glyph-name="uniE001" unicode="&#xe001;" horiz-adv-x="894" 
d="M358 138l433 566l73 -60l-507 -659l-323 414l76 60z" />
    <glyph glyph-name="uniE002" unicode="&#xe002;" horiz-adv-x="927" 
d="M850 579h-774v90h774v-90zM850 307h-774v89h774v-89zM850 34h-774v90h774v-90z" />
    <glyph glyph-name="uniE003" unicode="&#xe003;" horiz-adv-x="873" 
d="M788 0h-703v700h703v-700zM182 613v-525h509v525h-509z" />
    <glyph glyph-name="uniE004" unicode="&#xe004;" horiz-adv-x="873" 
d="M257 450l77 49l111 -181l287 396l75 -56l-370 -499zM180 86h511v242h96v-328h-702v700h454v-86h-359v-528z" />
    <glyph glyph-name="uniE005" unicode="&#xe005;" horiz-adv-x="873" 
d="M788 0h-703v700h703v-700zM181 614v-528h511v528h-511zM501 289h-128v128h128v-128z" />
    <glyph glyph-name="uniE006" unicode="&#xe006;" horiz-adv-x="684" 
d="M392 267l137 142l69 -68l-255 -252l-254 252l69 68l136 -142v440h98v-440zM23 89h638v-89h-638v89z" />
    <glyph glyph-name="uniE008" unicode="&#xe008;" horiz-adv-x="687" 
d="M194 90.5q-69 40.5 -109.5 109.5t-40.5 150t40.5 150t109.5 109.5t150 40.5t150 -40.5t109.5 -109.5t40.5 -150t-40.5 -150t-109.5 -109.5t-150 -40.5t-150 40.5z" />
    <glyph glyph-name="uniE009" unicode="&#xe009;" horiz-adv-x="567" 
d="M164 142.5q-55 32.5 -87.5 87.5t-32.5 120t32.5 120t87.5 87.5t120 32.5t120 -32.5t87.5 -87.5t32.5 -120t-32.5 -120t-87.5 -87.5t-120 -32.5t-120 32.5z" />
    <glyph glyph-name="uniE010" unicode="&#xe010;" horiz-adv-x="717" 
d="M201.5 77.5q-72.5 42.5 -115 115t-42.5 157.5t42.5 157.5t115 115t157.5 42.5t157.5 -42.5t115 -115t42.5 -157.5t-42.5 -157.5t-115 -115t-157.5 -42.5t-157.5 42.5zM471.5 152q51.5 31 82 83.5t30.5 114.5t-30.5 114.5t-82 83.5t-112.5 31t-113 -31t-82.5 -83.5
t-30.5 -114.5t30.5 -114.5t82.5 -83.5t113 -31t112.5 31z" />
    <glyph glyph-name="uniE011" unicode="&#xe011;" horiz-adv-x="567" 
d="M164 142.5q-55 32.5 -87.5 87.5t-32.5 120t32.5 120t87.5 87.5t120 32.5t120 -32.5t87.5 -87.5t32.5 -120t-32.5 -120t-87.5 -87.5t-120 -32.5t-120 32.5zM361.5 214q35.5 21 56 57.5t20.5 78.5t-20.5 78.5t-56 57.5t-77.5 21q-43 0 -78.5 -21t-56 -57.5t-20.5 -78.5
t20.5 -78.5t56 -57.5t78.5 -21q42 0 77.5 21z" />
    <glyph glyph-name="uniE012" unicode="&#xe012;" horiz-adv-x="837" 
d="M231.5 25.5q-86.5 50.5 -137 137t-50.5 187.5q0 102 50.5 188t137 136.5t187.5 50.5q102 0 188 -50.5t136.5 -136.5t50.5 -188q0 -101 -50.5 -187.5t-136.5 -137t-188 -50.5q-101 0 -187.5 50.5zM567.5 92q68.5 40 109 108.5t40.5 149.5t-40.5 149.5t-109 109
t-148.5 40.5q-81 0 -149.5 -40.5t-109 -109t-40.5 -149.5t40.5 -149.5t109 -108.5t149.5 -40q80 0 148.5 40zM302.5 148.5q-53.5 31.5 -85 85t-31.5 116.5t31.5 116.5t85 85t116.5 31.5t116.5 -31.5t85 -85t31.5 -116.5t-31.5 -116.5t-85 -85t-116.5 -31.5t-116.5 31.5z
M497.5 214q35.5 21 56.5 57t21 79t-21 79t-56.5 57t-78.5 21t-79 -21t-57 -57t-21 -79t21 -79t57 -57t79 -21t78.5 21zM358 289q-26 26 -26 61q0 36 26 61.5t61 25.5q36 0 61.5 -25.5t25.5 -61.5q0 -35 -25.5 -61t-61.5 -26q-35 0 -61 26z" />
    <glyph glyph-name="uniE013" unicode="&#xe013;" horiz-adv-x="721" 
d="M203.5 77.5q-72.5 42.5 -115 115t-42.5 157.5t42.5 157.5t115 115t157.5 42.5t157.5 -42.5t115 -115t42.5 -157.5t-42.5 -157.5t-115 -115t-157.5 -42.5t-157.5 42.5zM477 147.5q53 31.5 84.5 85.5t31.5 117t-31.5 117t-84.5 85.5t-116 31.5t-116.5 -31.5t-85 -85.5
t-31.5 -117t31.5 -117t85 -85.5t116.5 -31.5t116 31.5zM278 207q-38 22 -60 60t-22 83t22 83t60 60t83 22t83 -22t60 -60t22 -83t-22 -83t-60 -60t-83 -22t-83 22zM420.5 290.5q24.5 24.5 24.5 59.5t-24.5 59.5t-59.5 24.5t-60 -24.5t-25 -59.5q0 -34 25 -59t60 -25
t59.5 24.5z" />
    <glyph glyph-name="uniE014" unicode="&#xe014;" horiz-adv-x="571" 
d="M166 142.5q-55 32.5 -87.5 87.5t-32.5 120t32.5 120t87.5 87.5t120 32.5t120 -32.5t87.5 -87.5t32.5 -120t-32.5 -120t-87.5 -87.5t-120 -32.5t-120 32.5zM365.5 211.5q36.5 21.5 57.5 58.5t21 80t-21 80t-57.5 58.5t-79.5 21.5q-44 0 -80.5 -21.5t-57.5 -58.5t-21 -80
t21 -80t57.5 -58.5t80.5 -21.5q43 0 79.5 21.5zM223 287.5q-26 26.5 -26 62.5q0 37 26 63t63 26t62.5 -26t25.5 -63q0 -36 -26 -62.5t-62 -26.5q-37 0 -63 26.5z" />
    <glyph glyph-name="uniE015" unicode="&#xe015;" horiz-adv-x="873" 
d="M786 0h-700v700h700v-700zM170 617v-534h532v534h-532zM635 152h-397v397h397v-397zM318 468v-236h236v236h-236zM486 300h-100v100h100v-100z" />
    <glyph glyph-name="uniE016" unicode="&#xe016;" horiz-adv-x="723" 
d="M636 75h-550v550h550v-550zM167 545v-390h389v390h-389zM491 220h-259v260h259v-260zM309 403v-106h105v106h-105z" />
    <glyph glyph-name="uniE017" unicode="&#xe017;" horiz-adv-x="553" 
d="M476 150h-400v400h400v-400zM158 469v-238h237v238h-237zM326 300h-100v100h100v-100z" />
    <glyph glyph-name="uniF8FF" unicode="&#xf8ff;" horiz-adv-x="931" 
d="M100.5 661q4.5 -11 7.5 -36q1 -5 4 -24t10 -36q9 -19 27 -47t33 -46q16 -18 41 -27t69 -7q46 3 80 3q39 0 76 -4q40 -4 58 -4q36 0 65 8q18 5 37 20.5t28 30.5q12 19 29 37t32 18q12 0 17 -9t5 -27q0 -13 8 -20t21 -7q19 0 29 10q1 1 14 19q8 13 14 20t15 7
q16 0 25.5 -27.5t9.5 -54.5q0 -61 -4.5 -89.5t-21.5 -73.5q-7 -16 -18 -71.5t-16 -87.5q-4 -27 -8 -96q-4 -44 -32 -40q-9 1 -17 11t-18 28q-8 15 -14.5 23t-12.5 8q-4 0 -5 -7t-1.5 -13t-0.5 -9q-1 -21 -3.5 -32.5t-9.5 -14.5q-6 -2 -10 -2q-12 0 -24 11t-17 36
q-13 55 -45 90q-20 23 -37 32.5t-52 9.5q-26 0 -66 -6q-37 -6 -56.5 -20t-27.5 -37.5t-13 -65.5q-7 -46 -24 -46q-13 0 -20.5 12.5t-13.5 33.5q-3 9 -6 16.5t-7 7.5q-7 0 -10.5 -7.5t-8.5 -25.5q-5 -21 -11.5 -33t-18.5 -12q-9 0 -17 8.5t-11 29.5l-22 184q-4 33 -12 72.5
t-11 47.5q-11 29 -31 64q-3 6 -13.5 25.5t-20.5 44.5q-9 24 -17 62.5t-8 71.5q0 34 9.5 54t29.5 20q15 0 19.5 -11zM687 510q-15 -9 -17 -19v-3q0 -11 6 -17zM826 485q0 7 -5 14q-8 -15 -8 -26q0 -8 4 -12q5 6 8 16q1 3 1 8zM725 368q0 8 -8.5 14t-30.5 16q-13 6 -21.5 -6.5
t-8.5 -27.5q16 19 32 16q17 -3 17 -17q0 -12 -5 -15.5t-15.5 -4t-14.5 -3.5q-8 -7 -8 -11q0 -5 12 -7q15 -3 23 -3q1 6 4 10.5t7 8.5q9 7 14 18q3 6 3 12zM801 331.5q7 7.5 7 16.5q0 13 -8 23t-16 10q-5 0 -8 -5q12 0 19 -20q3 -8 -3.5 -17.5t-18.5 -9.5q3 -5 6 -7t9 0
t13 9.5z" />
    <glyph glyph-name="G.aalt" horiz-adv-x="733" 
d="M200 30q-76 46 -116 128.5t-40 188.5q0 113 45.5 196.5t124.5 128.5t177 45q81 0 144.5 -28.5t102 -79.5t45.5 -117h-111q-10 60 -59 97.5t-122 37.5q-69 0 -122.5 -33t-84 -96t-30.5 -151q0 -81 27.5 -143t79.5 -96.5t122 -34.5q58 0 104.5 24.5t73 70t26.5 107.5v4
h-208v90h312v-82q0 -85 -38.5 -154.5t-109 -109t-163.5 -39.5q-104 0 -180 46z" />
    <glyph glyph-name="Gbreve.aalt" horiz-adv-x="733" 
d="M288 814q-35 38 -35 100h75q2 -63 60 -63q31 0 46 17t16 46h75q0 -63 -35 -100.5t-102 -37.5q-65 0 -100 38zM200 30q-76 46 -116 128.5t-40 188.5q0 113 45.5 196.5t124.5 128.5t177 45q81 0 144.5 -28.5t102 -79.5t45.5 -117h-111q-10 60 -59 97.5t-122 37.5
q-69 0 -122.5 -33t-84 -96t-30.5 -151q0 -81 27.5 -143t79.5 -96.5t122 -34.5q58 0 104.5 24.5t73 70t26.5 107.5v4h-208v90h312v-82q0 -85 -38.5 -154.5t-109 -109t-163.5 -39.5q-104 0 -180 46z" />
    <glyph glyph-name="Gcircumflex.aalt" horiz-adv-x="733" 
d="M230 782l97 132h122l97 -132h-99l-30 38q-27 38 -29 41l-30 -41l-29 -38h-99zM200 30q-76 46 -116 128.5t-40 188.5q0 113 45.5 196.5t124.5 128.5t177 45q81 0 144.5 -28.5t102 -79.5t45.5 -117h-111q-10 60 -59 97.5t-122 37.5q-69 0 -122.5 -33t-84 -96t-30.5 -151
q0 -81 27.5 -143t79.5 -96.5t122 -34.5q58 0 104.5 24.5t73 70t26.5 107.5v4h-208v90h312v-82q0 -85 -38.5 -154.5t-109 -109t-163.5 -39.5q-104 0 -180 46z" />
    <glyph glyph-name="uni0122.ss06" horiz-adv-x="733" 
d="M200 30q-76 46 -116 128.5t-40 188.5q0 113 45.5 196.5t124.5 128.5t177 45q81 0 144.5 -28.5t102 -79.5t45.5 -117h-111q-10 60 -59 97.5t-122 37.5q-69 0 -122.5 -33t-84 -96t-30.5 -151q0 -81 27.5 -143t79.5 -96.5t122 -34.5q58 0 104.5 24.5t73 70t26.5 107.5v4
h-208v90h312v-82q0 -85 -38.5 -154.5t-109 -109t-163.5 -39.5q-104 0 -180 46zM330 -245q27 3 39.5 17.5t12.5 49.5h-51v98h110v-93q0 -118 -111 -124v52z" />
    <glyph glyph-name="uni0122.ss06.ss12" horiz-adv-x="733" 
d="M200 30q-76 46 -116 128.5t-40 188.5q0 113 45.5 196.5t124.5 128.5t177 45q81 0 144.5 -28.5t102 -79.5t45.5 -117h-111q-10 60 -59 97.5t-122 37.5q-69 0 -122.5 -33t-84 -96t-30.5 -151q0 -81 27.5 -143t79.5 -96.5t122 -34.5q58 0 104.5 24.5t73 70t26.5 107.5v4
h-208v90h312v-82q0 -85 -38.5 -154.5t-109 -109t-163.5 -39.5q-104 0 -180 46zM354 -286h-78l63 206h108z" />
    <glyph glyph-name="uni0122.ss12" horiz-adv-x="740" 
d="M201 30.5q-75 46.5 -116 129t-41 188.5q0 113 45 196.5t123.5 128t175.5 44.5q80 0 143.5 -29t102.5 -80t46 -116h-111q-10 60 -59 97.5t-121 37.5q-69 0 -122 -32.5t-83 -95.5t-30 -151q0 -81 29 -143.5t81.5 -97t120.5 -34.5q91 0 146 51.5t55 144.5v10h-209v90h306
v-369h-92v28q0 33 3 67q-29 -49 -86.5 -80t-132.5 -31q-99 0 -174 46.5zM354 -286h-78l63 206h108z" />
    <glyph glyph-name="Gdotaccent.aalt" horiz-adv-x="733" 
d="M443 785h-110v112h110v-112zM200 30q-76 46 -116 128.5t-40 188.5q0 113 45.5 196.5t124.5 128.5t177 45q81 0 144.5 -28.5t102 -79.5t45.5 -117h-111q-10 60 -59 97.5t-122 37.5q-69 0 -122.5 -33t-84 -96t-30.5 -151q0 -81 27.5 -143t79.5 -96.5t122 -34.5
q58 0 104.5 24.5t73 70t26.5 107.5v4h-208v90h312v-82q0 -85 -38.5 -154.5t-109 -109t-163.5 -39.5q-104 0 -180 46z" />
    <glyph glyph-name="I.aalt" horiz-adv-x="407" 
d="M361 700v-88h-104v-523h104v-89h-314v89h104v523h-104v88h314z" />
    <glyph glyph-name="IJ.aalt" horiz-adv-x="998" 
d="M361 700v-88h-104v-523h104v-89h-314v89h104v523h-104v88h314zM980 612h-106v-402q0 -105 -62 -165.5t-167 -60.5q-111 0 -166.5 63t-56.5 172h108q1 -69 28 -107.5t88 -38.5q121 0 121 149v390h-157v88h370v-88z" />
    <glyph glyph-name="Iacute.aalt" horiz-adv-x="407" 
d="M230 914h119l-108 -136h-84zM361 700v-88h-104v-523h104v-89h-314v89h104v523h-104v88h314z" />
    <glyph glyph-name="Ibreve.aalt" horiz-adv-x="407" 
d="M104 814q-35 38 -35 100h75q2 -63 60 -63q31 0 46 17t16 46h75q0 -63 -35 -100.5t-102 -37.5q-65 0 -100 38zM361 700v-88h-104v-523h104v-89h-314v89h104v523h-104v88h314z" />
    <glyph glyph-name="Icircumflex.aalt" horiz-adv-x="407" 
d="M145 782h-99l97 132h122l97 -132h-99l-30 38q-27 38 -29 41l-30 -41zM47 700h314v-88h-104v-523h104v-89h-314v89h104v523h-104v88z" />
    <glyph glyph-name="Idieresis.aalt" horiz-adv-x="407" 
d="M50 897h109v-112h-109v112zM249 897h109v-112h-109v112zM361 700v-88h-104v-523h104v-89h-314v89h104v523h-104v88h314z" />
    <glyph glyph-name="Idotaccent.aalt" horiz-adv-x="407" 
d="M149 897h110v-112h-110v112zM361 700v-88h-104v-523h104v-89h-314v89h104v523h-104v88h314z" />
    <glyph glyph-name="Igrave.aalt" horiz-adv-x="407" 
d="M192 914l68 -136h-85l-107 136h124zM361 700v-88h-104v-523h104v-89h-314v89h104v523h-104v88h314z" />
    <glyph glyph-name="Imacron.aalt" horiz-adv-x="407" 
d="M54 881h300v-81h-300v81zM361 700v-88h-104v-523h104v-89h-314v89h104v523h-104v88h314z" />
    <glyph glyph-name="Iogonek.aalt" horiz-adv-x="407" 
d="M361 612h-104v-523h104v-89h-103q-81 -41 -81 -84q0 -20 13 -29.5t33 -9.5q18 0 38 7v-67q-24 -12 -58 -12q-50 0 -81 26t-31 70q0 59 66 99h-110v89h104v523h-104v88h314v-88z" />
    <glyph glyph-name="Itilde.aalt" horiz-adv-x="407" 
d="M115 794h-78q0 57 27 85.5t72 28.5q20 0 35.5 -5.5t40.5 -16.5q16 -8 27.5 -12.5t22.5 -4.5q16 0 23 9t8 29h78q0 -57 -25.5 -85t-71.5 -28q-19 0 -35.5 5.5t-39.5 15.5q-13 6 -27 11t-25 5q-31 0 -32 -37zM47 700h314v-88h-104v-523h104v-89h-314v89h104v523h-104v88z
" />
    <glyph glyph-name="J.aalt" horiz-adv-x="592" 
d="M575 612h-106v-402q0 -105 -62 -165.5t-167 -60.5q-111 0 -166.5 63t-56.5 172h108q1 -69 28 -107.5t88 -38.5q121 0 121 149v390h-157v88h370v-88z" />
    <glyph glyph-name="Jcircumflex.aalt" horiz-adv-x="592" 
d="M356 782h-99l97 132h122l97 -132h-99l-30 38q-27 38 -29 41l-30 -41zM575 612h-106v-402q0 -105 -62 -165.5t-167 -60.5q-111 0 -166.5 63t-56.5 172h108q1 -69 28 -107.5t88 -38.5q121 0 121 149v390h-157v88h370v-88z" />
    <glyph glyph-name="uni0136.aalt" horiz-adv-x="637" 
d="M312 391l345 -391h-142l-274 318l-51 -53v-265h-105v700h105v-303q7 9 43 47l246 256h133zM311 -286h-78l63 206h108z" />
    <glyph glyph-name="Lcaron.aalt" horiz-adv-x="560" 
d="M551 0h-466v700h106v-610h360v-90zM390 494h-78l63 206h108z" />
    <glyph glyph-name="uni013B.aalt" horiz-adv-x="560" 
d="M551 0h-466v700h106v-610h360v-90zM288 -286h-78l63 206h108z" />
    <glyph glyph-name="uni0145.aalt" horiz-adv-x="770" 
d="M85 0v700h160l335 -571q-2 60 -2 95v476h107v-700h-144l-351 597q1 -33 1 -90v-507h-106zM367 -286h-78l63 206h108z" />
    <glyph glyph-name="R.aalt" horiz-adv-x="657" 
d="M633 0h-132l-223 309h-88v-309h-105v700h296q108 0 172 -51.5t64 -145.5q0 -87 -59 -137.5t-158 -55.5zM190 396h180q68 0 103 27.5t35 79.5q0 53 -34.5 80.5t-103.5 27.5h-180v-215z" />
    <glyph glyph-name="Racute.aalt" horiz-adv-x="657" 
d="M342 914h119l-108 -136h-84zM633 0h-132l-223 309h-88v-309h-105v700h296q108 0 172 -51.5t64 -145.5q0 -87 -59 -137.5t-158 -55.5zM190 396h180q68 0 103 27.5t35 79.5q0 53 -34.5 80.5t-103.5 27.5h-180v-215z" />
    <glyph glyph-name="Rcaron.aalt" horiz-adv-x="657" 
d="M377 782h-122l-96 132h99l29 -39l29 -40q6 7 30 40l29 39h100zM633 0h-132l-223 309h-88v-309h-105v700h296q108 0 172 -51.5t64 -145.5q0 -87 -59 -137.5t-158 -55.5zM190 396h180q68 0 103 27.5t35 79.5q0 53 -34.5 80.5t-103.5 27.5h-180v-215z" />
    <glyph glyph-name="uni0156.ss07" horiz-adv-x="657" 
d="M633 0h-132l-223 309h-88v-309h-105v700h296q108 0 172 -51.5t64 -145.5q0 -87 -59 -137.5t-158 -55.5zM190 396h180q68 0 103 27.5t35 79.5q0 53 -34.5 80.5t-103.5 27.5h-180v-215zM292 -178v98h110v-93q0 -118 -111 -124v52q27 3 39.5 17.5t12.5 49.5h-51z" />
    <glyph glyph-name="uni0156.ss07.ss12" horiz-adv-x="657" 
d="M633 0h-132l-223 309h-88v-309h-105v700h296q108 0 172 -51.5t64 -145.5q0 -87 -59 -137.5t-158 -55.5zM190 396h180q68 0 103 27.5t35 79.5q0 53 -34.5 80.5t-103.5 27.5h-180v-215zM316 -286h-78l63 206h108z" />
    <glyph glyph-name="uni0156.ss12" horiz-adv-x="664" 
d="M85 0v700h302q102 0 162 -48t60 -136q0 -64 -39 -109t-92 -61q54 -9 85.5 -51.5t31.5 -109.5v-185h-106v165q0 74 -30.5 103.5t-104.5 29.5h-163v-298h-106zM364 388q66 0 101 28.5t35 83.5t-35 83t-101 28h-173v-223h173zM318 -286h-78l63 206h108z" />
    <glyph glyph-name="uni0218.aalt" horiz-adv-x="644" 
d="M174 14q-65 30 -101.5 86t-38.5 131h109q4 -74 55.5 -116t130.5 -42q76 0 120 30.5t44 84.5q0 44 -33 70t-97 39l-110 24q-87 19 -141 68t-54 127q0 58 34 103.5t93.5 71.5t134.5 26q119 0 190.5 -59.5t77.5 -159.5h-109q-4 58 -47 93.5t-116 35.5q-64 0 -106.5 -28.5
t-42.5 -73.5q0 -42 30 -66.5t91 -38.5l121 -26q89 -19 141 -67.5t52 -127.5q0 -61 -33 -110t-95.5 -77t-147.5 -28q-87 0 -152 30zM299 -286h-78l63 206h108z" />
    <glyph glyph-name="uni021A.aalt" horiz-adv-x="601" 
d="M353 0h-106v611h-239v89h583v-89h-238v-611zM269 -286h-78l63 206h108z" />
    <glyph glyph-name="a.salt" horiz-adv-x="585" 
d="M147.5 14q-50.5 30 -79 88t-28.5 140q0 77 29 135.5t80 90.5t115 32q55 0 94.5 -24t59.5 -59q-2 14 -2 43v24h100v-484h-100v24q0 29 2 42q-19 -35 -59.5 -58.5t-96.5 -23.5q-64 0 -114.5 30zM383 111q39 49 39 131q0 81 -38.5 130t-100.5 49t-101.5 -49.5t-39.5 -129.5
q0 -81 39 -130.5t102 -49.5q61 0 100 49z" />
    <glyph glyph-name="aacute.aalt" horiz-adv-x="585" 
d="M329 562h-84l73 136h119zM147.5 14q-50.5 30 -79 88t-28.5 140q0 77 29 135.5t80 90.5t115 32q55 0 94.5 -24t59.5 -59q-2 14 -2 43v24h100v-484h-100v24q0 29 2 42q-19 -35 -59.5 -58.5t-96.5 -23.5q-64 0 -114.5 30zM383 111q39 49 39 131q0 81 -38.5 130t-100.5 49
t-101.5 -49.5t-39.5 -129.5q0 -81 39 -130.5t102 -49.5q61 0 100 49z" />
    <glyph glyph-name="abreve.aalt" horiz-adv-x="585" 
d="M192 598q-35 38 -35 100h75q2 -63 60 -63q31 0 46 17t16 46h75q0 -63 -35 -100.5t-102 -37.5q-65 0 -100 38zM147.5 14q-50.5 30 -79 88t-28.5 140q0 77 29 135.5t80 90.5t115 32q55 0 94.5 -24t59.5 -59q-2 14 -2 43v24h100v-484h-100v24q0 29 2 42q-19 -35 -59.5 -58.5
t-96.5 -23.5q-64 0 -114.5 30zM383 111q39 49 39 131q0 81 -38.5 130t-100.5 49t-101.5 -49.5t-39.5 -129.5q0 -81 39 -130.5t102 -49.5q61 0 100 49z" />
    <glyph glyph-name="acircumflex.aalt" horiz-adv-x="585" 
d="M134 566l97 132h122l97 -132h-99l-30 38q-27 38 -29 41l-30 -41l-29 -38h-99zM147.5 14q-50.5 30 -79 88t-28.5 140q0 77 29 135.5t80 90.5t115 32q55 0 94.5 -24t59.5 -59q-2 14 -2 43v24h100v-484h-100v24q0 29 2 42q-19 -35 -59.5 -58.5t-96.5 -23.5q-64 0 -114.5 30z
M383 111q39 49 39 131q0 81 -38.5 130t-100.5 49t-101.5 -49.5t-39.5 -129.5q0 -81 39 -130.5t102 -49.5q61 0 100 49z" />
    <glyph glyph-name="adieresis.aalt" horiz-adv-x="585" 
d="M247 569h-109v112h109v-112zM446 569h-109v112h109v-112zM147.5 14q-50.5 30 -79 88t-28.5 140q0 77 29 135.5t80 90.5t115 32q55 0 94.5 -24t59.5 -59q-2 14 -2 43v24h100v-484h-100v24q0 29 2 42q-19 -35 -59.5 -58.5t-96.5 -23.5q-64 0 -114.5 30zM383 111
q39 49 39 131q0 81 -38.5 130t-100.5 49t-101.5 -49.5t-39.5 -129.5q0 -81 39 -130.5t102 -49.5q61 0 100 49z" />
    <glyph glyph-name="uni0227.aalt" horiz-adv-x="585" 
d="M347 569h-110v112h110v-112zM147.5 14q-50.5 30 -79 88t-28.5 140q0 77 29 135.5t80 90.5t115 32q55 0 94.5 -24t59.5 -59q-2 14 -2 43v24h100v-484h-100v24q0 29 2 42q-19 -35 -59.5 -58.5t-96.5 -23.5q-64 0 -114.5 30zM383 111q39 49 39 131q0 81 -38.5 130t-100.5 49
t-101.5 -49.5t-39.5 -129.5q0 -81 39 -130.5t102 -49.5q61 0 100 49z" />
    <glyph glyph-name="agrave.aalt" horiz-adv-x="585" 
d="M349 562h-85l-107 136h124zM147.5 14q-50.5 30 -79 88t-28.5 140q0 77 29 135.5t80 90.5t115 32q55 0 94.5 -24t59.5 -59q-2 14 -2 43v24h100v-484h-100v24q0 29 2 42q-19 -35 -59.5 -58.5t-96.5 -23.5q-64 0 -114.5 30zM383 111q39 49 39 131q0 81 -38.5 130t-100.5 49
t-101.5 -49.5t-39.5 -129.5q0 -81 39 -130.5t102 -49.5q61 0 100 49z" />
    <glyph glyph-name="amacron.aalt" horiz-adv-x="585" 
d="M443 584h-300v81h300v-81zM147.5 14q-50.5 30 -79 88t-28.5 140q0 77 29 135.5t80 90.5t115 32q55 0 94.5 -24t59.5 -59q-2 14 -2 43v24h100v-484h-100v24q0 29 2 42q-19 -35 -59.5 -58.5t-96.5 -23.5q-64 0 -114.5 30zM383 111q39 49 39 131q0 81 -38.5 130t-100.5 49
t-101.5 -49.5t-39.5 -129.5q0 -81 39 -130.5t102 -49.5q61 0 100 49z" />
    <glyph glyph-name="aogonek.aalt" horiz-adv-x="585" 
d="M519 -116v-67q-24 -12 -58 -12q-50 0 -81 26t-31 70q0 60 67 100v23q0 29 2 42q-19 -35 -59.5 -58.5t-96.5 -23.5q-64 0 -114.5 30t-79 88t-28.5 140q0 77 29 135.5t80 90.5t115 32q55 0 94.5 -24t59.5 -59q-2 14 -2 43v24h100v-484q-81 -41 -81 -84q0 -20 13 -29.5
t33 -9.5q18 0 38 7zM383 111q39 49 39 131q0 81 -38.5 130t-100.5 49t-101.5 -49.5t-39.5 -129.5q0 -81 39 -130.5t102 -49.5q61 0 100 49z" />
    <glyph glyph-name="aring.aalt" horiz-adv-x="585" 
d="M228.5 559q-26.5 25 -26.5 65t26.5 66t64.5 26t65 -26t27 -66t-27 -65t-65 -25t-64.5 25zM318 597q9 10 9 27q0 18 -9.5 28t-24.5 10t-24.5 -10t-9.5 -28q0 -17 9.5 -27t24.5 -10q16 0 25 10zM147.5 14q-50.5 30 -79 88t-28.5 140q0 77 29 135.5t80 90.5t115 32
q55 0 94.5 -24t59.5 -59q-2 14 -2 43v24h100v-484h-100v24q0 29 2 42q-19 -35 -59.5 -58.5t-96.5 -23.5q-64 0 -114.5 30zM383 111q39 49 39 131q0 81 -38.5 130t-100.5 49t-101.5 -49.5t-39.5 -129.5q0 -81 39 -130.5t102 -49.5q61 0 100 49z" />
    <glyph glyph-name="aringacute.aalt" horiz-adv-x="585" 
d="M333 758h-84l73 136h119zM228.5 559q-26.5 25 -26.5 65t26.5 66t64.5 26t65 -26t27 -66t-27 -65t-65 -25t-64.5 25zM318 597q9 10 9 27q0 18 -9.5 28t-24.5 10t-24.5 -10t-9.5 -28q0 -17 9.5 -27t24.5 -10q16 0 25 10zM147.5 14q-50.5 30 -79 88t-28.5 140q0 77 29 135.5
t80 90.5t115 32q55 0 94.5 -24t59.5 -59q-2 14 -2 43v24h100v-484h-100v24q0 29 2 42q-19 -35 -59.5 -58.5t-96.5 -23.5q-64 0 -114.5 30zM383 111q39 49 39 131q0 81 -38.5 130t-100.5 49t-101.5 -49.5t-39.5 -129.5q0 -81 39 -130.5t102 -49.5q61 0 100 49z" />
    <glyph glyph-name="atilde.aalt" horiz-adv-x="585" 
d="M327.5 583.5q-16.5 5.5 -39.5 15.5q-13 6 -27 11t-25 5q-31 0 -32 -37h-78q0 57 27 85.5t72 28.5q20 0 35.5 -5.5t40.5 -16.5q16 -8 27.5 -12.5t22.5 -4.5q16 0 23 9t8 29h78q0 -57 -25.5 -85t-71.5 -28q-19 0 -35.5 5.5zM147.5 14q-50.5 30 -79 88t-28.5 140
q0 77 29 135.5t80 90.5t115 32q55 0 94.5 -24t59.5 -59q-2 14 -2 43v24h100v-484h-100v24q0 29 2 42q-19 -35 -59.5 -58.5t-96.5 -23.5q-64 0 -114.5 30zM383 111q39 49 39 131q0 81 -38.5 130t-100.5 49t-101.5 -49.5t-39.5 -129.5q0 -81 39 -130.5t102 -49.5q61 0 100 49z
" />
    <glyph glyph-name="dcaron.aalt" horiz-adv-x="648" 
d="M147.5 14q-50.5 30 -79 88t-28.5 139q0 77 29 136t80 91t115 32q55 0 94.5 -24t59.5 -59q-2 15 -2 43v240h100v-700h-100v25q0 29 2 42q-19 -35 -60 -59t-96 -24q-64 0 -114.5 30zM620 494h-78l63 206h108zM383.5 111.5q39.5 49.5 39.5 130.5t-39 130t-101 49
t-101.5 -49.5t-39.5 -129.5q0 -81 39 -130.5t102 -49.5q61 0 100.5 49.5z" />
    <glyph glyph-name="uni0123.aalt" horiz-adv-x="583" 
d="M303 772h78l-63 -206h-108zM120 -175q-58 50 -58 133h99q1 -48 32.5 -76.5t85.5 -28.5q63 0 99 34.5t36 103.5v56q0 15 2 43q-21 -36 -62 -58t-94 -22q-65 0 -114.5 29.5t-77 85t-27.5 129.5q0 73 29.5 129t79.5 86.5t110 30.5q106 0 156 -83q-2 28 -2 43v24h100v-463
q0 -123 -61 -184.5t-175 -61.5q-100 0 -158 50zM382 134q39 46 39 120q0 73 -39 120t-100 47q-62 0 -100.5 -46.5t-38.5 -120.5t38.5 -120t100.5 -46q61 0 100 46z" />
    <glyph glyph-name="i.aalt" horiz-adv-x="238" 
d="M64 569v112h110v-112h-110zM70 484h99v-484h-99v484z" />
    <glyph glyph-name="lcaron.aalt" horiz-adv-x="293" 
d="M70 700h99v-700h-99v700zM195 494l63 206h109l-93 -206h-79z" />
    <glyph glyph-name="uni013C.aalt" horiz-adv-x="238" 
d="M169 700v-700h-99v700h99zM11 -286l63 206h108l-93 -206h-78z" />
    <glyph glyph-name="uni0146.aalt" horiz-adv-x="556" 
d="M70 0v484h99v-29q0 -24 -1 -38q20 36 59.5 59.5t88.5 23.5q83 0 129.5 -51.5t46.5 -142.5v-306h-99v292q0 129 -101 129q-55 0 -89 -38t-34 -94v-289h-99zM253 -286h-78l63 206h108z" />
    <glyph glyph-name="q.aalt" horiz-adv-x="590" 
d="M517 -128h100v-80h-200v232q0 13 2 43q-21 -38 -61.5 -60.5t-94.5 -22.5q-66 0 -116.5 30.5t-78.5 88.5t-28 139q0 75 28.5 133.5t79.5 91.5t117 33q54 0 94 -23t62 -60q-1 17 -1 45v22h97v-612zM383 110.5q39 48.5 39 131.5t-38 131t-101 48t-102 -49t-39 -130
q0 -84 38.5 -132t101.5 -48q62 0 101 48.5z" />
    <glyph glyph-name="uni0157.aalt" horiz-adv-x="353" 
d="M70 0v484h99v-27q0 -38 -1 -56q19 44 57 71.5t91 27.5q15 0 23 -1v-98q-11 3 -30 3q-67 0 -103.5 -38t-36.5 -116v-250h-99zM89 -286h-78l63 206h108z" />
    <glyph glyph-name="glyph277" horiz-adv-x="353" 
d="M339 499v-98q-11 3 -30 3q-67 0 -103.5 -38t-36.5 -116v-250h-99v484h99v-27q0 -38 -1 -56q19 44 57 71.5t91 27.5q15 0 23 -1zM89 -286h-78l63 206h108z" />
    <glyph glyph-name="uni0219.aalt" horiz-adv-x="489" 
d="M93 32q-57 48 -61 130h99q2 -47 32.5 -74.5t84.5 -27.5q47 0 75 19.5t28 53.5q0 27 -20.5 43.5t-62.5 24.5l-67 13q-73 14 -112.5 49.5t-39.5 92.5q0 41 24.5 74t68 51.5t99.5 18.5q90 0 143.5 -43t57.5 -117h-99q-4 40 -32 62t-74 22q-40 0 -64.5 -17.5t-24.5 -45.5
q0 -27 19 -41.5t62 -22.5l69 -13q72 -13 111.5 -48.5t39.5 -94.5q0 -44 -24.5 -80t-70 -56.5t-106.5 -20.5q-98 0 -155 48zM224 -286h-78l63 206h108z" />
    <glyph glyph-name="t.aalt" horiz-adv-x="390" 
d="M244 0h-99v404h-131v80h131v166h99v-166h132v-80h-132v-404z" />
    <glyph glyph-name="tbar.aalt" horiz-adv-x="402" 
d="M383 484v-80h-132v-102h82v-79h-82v-223h-100v223h-82v79h82v102h-131v80h131v166h100v-166h132z" />
    <glyph glyph-name="tcaron.ss03" horiz-adv-x="390" 
d="M292 565q27 4 40 16t14 37h-54v82h110v-70q0 -51 -32.5 -78t-77.5 -29v42zM244 0h-99v404h-131v80h131v166h99v-166h132v-80h-132v-404z" />
    <glyph glyph-name="tcaron.ss03.ss12" horiz-adv-x="390" 
d="M357 543h-73l59 157h99zM244 0h-99v404h-131v80h131v166h99v-166h132v-80h-132v-404z" />
    <glyph glyph-name="tcaron.ss12" horiz-adv-x="349" 
d="M325 543h-73l58 157h100zM151 29.5q-39 36.5 -39 113.5v261h-98v80h98v166h100v-166h107v-80h-107v-249q0 -77 71 -77q17 0 36 3v-80q-30 -8 -62 -8q-67 0 -106 36.5z" />
    <glyph glyph-name="uni0163.ss03" horiz-adv-x="390" 
d="M244 0h-12l-36 -52q42 0 68 -21t26 -55q0 -38 -30 -62.5t-83 -24.5q-32 0 -60.5 12t-47.5 32l37 44q32 -30 67 -30q19 0 32 8t13 23q0 12 -10.5 20t-29.5 8q-15 0 -29 -6l-33 37l45 67h-16v404h-131v80h131v166h99v-166h132v-80h-132v-404z" />
    <glyph glyph-name="uni021B.ss03" horiz-adv-x="390" 
d="M244 0h-99v404h-131v80h131v166h99v-166h132v-80h-132v-404zM139 -245q27 3 39.5 17.5t12.5 49.5h-51v98h110v-93q0 -118 -111 -124v52z" />
    <glyph glyph-name="uni021B.ss03.ss12" horiz-adv-x="390" 
d="M244 0h-99v404h-131v80h131v166h99v-166h132v-80h-132v-404zM164 -286h-78l63 206h108z" />
    <glyph glyph-name="uni021B.ss12" horiz-adv-x="349" 
d="M151 29.5q-39 36.5 -39 113.5v261h-98v80h98v166h100v-166h107v-80h-107v-249q0 -77 71 -77q17 0 36 3v-80q-30 -8 -62 -8q-67 0 -106 36.5zM183 -286h-78l63 206h108z" />
    <glyph glyph-name="u.aalt" horiz-adv-x="545" 
d="M117.5 37q-53.5 53 -53.5 155v292h100v-285q0 -134 109 -134q55 0 82 34.5t27 99.5v285h99v-293q0 -102 -53 -154.5t-155 -52.5t-155.5 53z" />
    <glyph glyph-name="uacute.aalt" horiz-adv-x="545" 
d="M310 562h-84l73 136h119zM117.5 37q-53.5 53 -53.5 155v292h100v-285q0 -134 109 -134q55 0 82 34.5t27 99.5v285h99v-293q0 -102 -53 -154.5t-155 -52.5t-155.5 53z" />
    <glyph glyph-name="ubreve.aalt" horiz-adv-x="545" 
d="M173 598q-35 38 -35 100h75q2 -63 60 -63q31 0 46 17t16 46h75q0 -63 -35 -100.5t-102 -37.5q-65 0 -100 38zM117.5 37q-53.5 53 -53.5 155v292h100v-285q0 -134 109 -134q55 0 82 34.5t27 99.5v285h99v-293q0 -102 -53 -154.5t-155 -52.5t-155.5 53z" />
    <glyph glyph-name="ucircumflex.aalt" horiz-adv-x="545" 
d="M115 566l97 132h122l97 -132h-99l-30 38q-27 38 -29 41l-30 -41l-29 -38h-99zM117.5 37q-53.5 53 -53.5 155v292h100v-285q0 -134 109 -134q55 0 82 34.5t27 99.5v285h99v-293q0 -102 -53 -154.5t-155 -52.5t-155.5 53z" />
    <glyph glyph-name="udieresis.aalt" horiz-adv-x="545" 
d="M228 569h-109v112h109v-112zM427 569h-109v112h109v-112zM117.5 37q-53.5 53 -53.5 155v292h100v-285q0 -134 109 -134q55 0 82 34.5t27 99.5v285h99v-293q0 -102 -53 -154.5t-155 -52.5t-155.5 53z" />
    <glyph glyph-name="ugrave.aalt" horiz-adv-x="545" 
d="M329 562h-85l-107 136h124zM117.5 37q-53.5 53 -53.5 155v292h100v-285q0 -134 109 -134q55 0 82 34.5t27 99.5v285h99v-293q0 -102 -53 -154.5t-155 -52.5t-155.5 53z" />
    <glyph glyph-name="uhungarumlaut.aalt" horiz-adv-x="545" 
d="M230 562h-71l44 136h117zM383 562h-75l50 136h119zM117.5 37q-53.5 53 -53.5 155v292h100v-285q0 -134 109 -134q55 0 82 34.5t27 99.5v285h99v-293q0 -102 -53 -154.5t-155 -52.5t-155.5 53z" />
    <glyph glyph-name="umacron.aalt" horiz-adv-x="545" 
d="M423 584h-300v81h300v-81zM117.5 37q-53.5 53 -53.5 155v292h100v-285q0 -134 109 -134q55 0 82 34.5t27 99.5v285h99v-293q0 -102 -53 -154.5t-155 -52.5t-155.5 53z" />
    <glyph glyph-name="uogonek.aalt" horiz-adv-x="545" 
d="M235 -169.5q-31 25.5 -31 69.5q0 48 44 85q-90 5 -137 58t-47 149v292h100v-285q0 -134 109 -134q55 0 82 34.5t27 99.5v285h99v-293q0 -147 -109 -190q-36 -15 -59 -37.5t-23 -46.5q0 -20 12.5 -30t31.5 -10q20 0 40 7v-67q-24 -12 -59 -12q-49 0 -80 25.5z" />
    <glyph glyph-name="uring.aalt" horiz-adv-x="545" 
d="M208.5 559q-26.5 25 -26.5 65t26.5 66t64.5 26t65 -26t27 -66t-27 -65t-65 -25t-64.5 25zM298 597q9 10 9 27q0 18 -9.5 28t-24.5 10t-24.5 -10t-9.5 -28q0 -17 9.5 -27t24.5 -10q16 0 25 10zM117.5 37q-53.5 53 -53.5 155v292h100v-285q0 -134 109 -134q55 0 82 34.5
t27 99.5v285h99v-293q0 -102 -53 -154.5t-155 -52.5t-155.5 53z" />
    <glyph glyph-name="utilde.aalt" horiz-adv-x="545" 
d="M307.5 583.5q-16.5 5.5 -39.5 15.5q-13 6 -27 11t-25 5q-31 0 -32 -37h-78q0 57 27 85.5t72 28.5q20 0 35.5 -5.5t40.5 -16.5q16 -8 27.5 -12.5t22.5 -4.5q16 0 23 9t8 29h78q0 -57 -25.5 -85t-71.5 -28q-19 0 -35.5 5.5zM117.5 37q-53.5 53 -53.5 155v292h100v-285
q0 -134 109 -134q55 0 82 34.5t27 99.5v285h99v-293q0 -102 -53 -154.5t-155 -52.5t-155.5 53z" />
    <glyph glyph-name="y.aalt" horiz-adv-x="491" 
d="M39 -218v85q18 -6 40 -6q33 0 56 17t40 62l27 73l-192 471h110l116 -311l20 -56q4 14 18 57l103 310h104l-215 -576q-26 -69 -68 -101t-106 -32q-32 0 -53 7z" />
    <glyph glyph-name="yacute.aalt" horiz-adv-x="491" 
d="M285 562h-84l73 136h119zM39 -218v85q18 -6 40 -6q33 0 56 17t40 62l27 73l-192 471h110l116 -311l20 -56q4 14 18 57l103 310h104l-215 -576q-26 -69 -68 -101t-106 -32q-32 0 -53 7z" />
    <glyph glyph-name="ycircumflex.aalt" horiz-adv-x="491" 
d="M91 566l97 132h122l97 -132h-99l-30 38q-27 38 -29 41l-30 -41l-29 -38h-99zM39 -218v85q18 -6 40 -6q33 0 56 17t40 62l27 73l-192 471h110l116 -311l20 -56q4 14 18 57l103 310h104l-215 -576q-26 -69 -68 -101t-106 -32q-32 0 -53 7z" />
    <glyph glyph-name="ydieresis.aalt" horiz-adv-x="491" 
d="M204 569h-109v112h109v-112zM403 569h-109v112h109v-112zM39 -218v85q18 -6 40 -6q33 0 56 17t40 62l27 73l-192 471h110l116 -311l20 -56q4 14 18 57l103 310h104l-215 -576q-26 -69 -68 -101t-106 -32q-32 0 -53 7z" />
    <glyph glyph-name="ygrave.aalt" horiz-adv-x="491" 
d="M305 562h-85l-107 136h124zM39 -218v85q18 -6 40 -6q33 0 56 17t40 62l27 73l-192 471h110l116 -311l20 -56q4 14 18 57l103 310h104l-215 -576q-26 -69 -68 -101t-106 -32q-32 0 -53 7z" />
    <glyph glyph-name="uni0233.aalt" horiz-adv-x="491" 
d="M399 584h-300v81h300v-81zM39 -218v85q18 -6 40 -6q33 0 56 17t40 62l27 73l-192 471h110l116 -311l20 -56q4 14 18 57l103 310h104l-215 -576q-26 -69 -68 -101t-106 -32q-32 0 -53 7z" />
    <glyph glyph-name="zero.zero" horiz-adv-x="621" 
d="M450 673.5q59 -43.5 91 -126.5t32 -199q0 -172 -69 -268t-193 -96q-125 0 -193.5 96t-68.5 270q0 114 32 196.5t91 126.5t139 44t139 -43.5zM194.5 561.5q-40.5 -70.5 -40.5 -215.5q0 -74 13 -134l248 368q-39 52 -103 52q-77 0 -117.5 -70.5zM427.5 137.5
q40.5 69.5 40.5 209.5q0 77 -13 140l-247 -367q39 -52 104 -52q75 0 115.5 69.5z" />
    <glyph glyph-name="one.ss09" horiz-adv-x="358" 
d="M10 611v89h262v-700h-102v611h-160z" />
    <glyph glyph-name="three.ss10" horiz-adv-x="571" 
d="M336 413q99 -13 149 -71t50 -135q0 -64 -32 -115t-88 -79.5t-127 -28.5q-116 0 -182.5 61t-66.5 166h104q0 -64 38 -103.5t107 -39.5q62 0 102 38.5t40 100.5q0 67 -47 101.5t-129 34.5q-20 0 -30 -1v77l167 188h-317v93h433v-99z" />
    <glyph glyph-name="four.ss09" horiz-adv-x="645" 
d="M491 0h-102v217h-314v483h102v-392h212v392h102v-392h129v-91h-129v-217z" />
    <glyph glyph-name="six.ss11" horiz-adv-x="575" 
d="M428 429.5q51 -29.5 80.5 -83t29.5 -122.5q0 -72 -32 -126.5t-88.5 -84t-128.5 -29.5t-128 30t-87 85t-31 126q0 67 20 118t60 113l156 244h120l-172 -262q40 21 88 21q62 0 113 -29.5zM394 111.5q40 41.5 40 109.5q0 67 -38.5 110t-101.5 43q-65 0 -105 -42.5
t-40 -109.5q0 -68 39 -110t102 -42q64 0 104 41.5z" />
    <glyph glyph-name="nine.ss11" horiz-adv-x="576" 
d="M414.5 686.5q55.5 -30.5 86.5 -86.5t31 -130q0 -64 -20 -117t-56 -111l-146 -242h-121l172 275q-43 -25 -92 -25q-65 0 -116.5 29.5t-80.5 82t-29 117.5q0 68 32 122.5t88 85t126 30.5t125.5 -30.5zM185.5 376.5q38.5 -41.5 100.5 -41.5q63 0 102 41.5t39 104.5
q0 66 -38 107.5t-101 41.5t-102 -41.5t-39 -107.5q0 -63 38.5 -104.5z" />
    <glyph glyph-name="uni24EA.aalt" horiz-adv-x="813" 
d="M589.5 667.5q83.5 -49.5 132.5 -133.5t49 -183q0 -100 -49 -184.5t-132.5 -133.5t-182.5 -49t-182.5 49t-133 133.5t-49.5 184.5q0 99 49.5 183t133.5 133.5t182 49.5q99 0 182.5 -49.5zM554 90.5q67 39.5 106 108.5t39 152t-39 151t-106 107.5t-147 39.5
q-81 0 -148 -39.5t-105.5 -107.5t-38.5 -151t38.5 -152t105.5 -108.5t148 -39.5q80 0 147 39.5zM524 510.5q44 -59.5 44 -162.5q0 -100 -43 -159t-118 -59q-76 0 -119 58.5t-43 159.5q0 103 44 162.5t118 59.5q73 0 117 -59.5zM343.5 466.5q-23.5 -39.5 -23.5 -118.5
q0 -31 5 -63l134 198q-20 23 -51 23q-41 0 -64.5 -39.5zM470 233q23 39 23 115q0 44 -7 73l-134 -200q23 -27 56 -27q39 0 62 39z" />
    <glyph glyph-name="uni2460.aalt" horiz-adv-x="813" 
d="M224.5 33q-83.5 49 -133 133.5t-49.5 184.5q0 99 49.5 183t133.5 133.5t182 49.5q99 0 182.5 -49.5t132.5 -133.5t49 -183q0 -100 -49 -184.5t-132.5 -133.5t-182.5 -49t-182.5 49zM554 90.5q67 39.5 106 108.5t39 152t-39 151t-106 107.5t-147 39.5q-81 0 -148 -39.5
t-105.5 -107.5t-38.5 -151t38.5 -152t105.5 -108.5t148 -39.5q80 0 147 39.5zM468 139h-74v349h-92v70h166v-419z" />
    <glyph glyph-name="uni2462.aalt" horiz-adv-x="813" 
d="M224.5 33q-83.5 49 -133 133.5t-49.5 184.5q0 99 49.5 183t133.5 133.5t182 49.5q99 0 182.5 -49.5t132.5 -133.5t49 -183q0 -100 -49 -184.5t-132.5 -133.5t-182.5 -49t-182.5 49zM554 90.5q67 39.5 106 108.5t39 152t-39 151t-106 107.5t-147 39.5q-81 0 -148 -39.5
t-105.5 -107.5t-38.5 -151t38.5 -152t105.5 -108.5t148 -39.5q80 0 147 39.5zM297 168.5q-42 38.5 -43 106.5h73q1 -39 22.5 -60.5t58.5 -21.5q35 0 57 18.5t22 53.5q0 69 -107 67v60l85 91h-187v70h270v-68l-95 -101q56 -11 82.5 -43t26.5 -76q0 -60 -42.5 -97.5
t-111.5 -37.5t-111 38.5z" />
    <glyph glyph-name="uni2463.aalt" horiz-adv-x="813" 
d="M224.5 33q-83.5 49 -133 133.5t-49.5 184.5q0 99 49.5 183t133.5 133.5t182 49.5q99 0 182.5 -49.5t132.5 -133.5t49 -183q0 -100 -49 -184.5t-132.5 -133.5t-182.5 -49t-182.5 49zM554 90.5q67 39.5 106 108.5t39 152t-39 151t-106 107.5t-147 39.5q-81 0 -148 -39.5
t-105.5 -107.5t-38.5 -151t38.5 -152t105.5 -108.5t148 -39.5q80 0 147 39.5zM517 139h-73v123h-187v291h72v-230h115v230h73v-230h77v-61h-77v-123z" />
    <glyph glyph-name="uni2465.aalt" horiz-adv-x="813" 
d="M224.5 33q-83.5 49 -133 133.5t-49.5 184.5q0 99 49.5 183t133.5 133.5t182 49.5q99 0 182.5 -49.5t132.5 -133.5t49 -183q0 -100 -49 -184.5t-132.5 -133.5t-182.5 -49t-182.5 49zM554 90.5q67 39.5 106 108.5t39 152t-39 151t-106 107.5t-147 39.5q-81 0 -148 -39.5
t-105.5 -107.5t-38.5 -151t38.5 -152t105.5 -108.5t148 -39.5q80 0 147 39.5zM324.5 149.5q-34.5 19.5 -53.5 53.5t-19 75q0 62 42 126l98 154h85l-104 -152q27 9 48 9q57 0 95 -38t38 -99q0 -65 -43 -106.5t-108 -41.5q-44 0 -78.5 19.5zM459 215q21 22 21 58
q0 35 -20.5 57t-54.5 22q-35 0 -56.5 -21.5t-21.5 -55.5q0 -38 21 -60t55 -22q35 0 56 22z" />
    <glyph glyph-name="uni2468.aalt" horiz-adv-x="813" 
d="M224.5 33q-83.5 49 -133 133.5t-49.5 184.5q0 99 49.5 183t133.5 133.5t182 49.5q99 0 182.5 -49.5t132.5 -133.5t49 -183q0 -100 -49 -184.5t-132.5 -133.5t-182.5 -49t-182.5 49zM554 90.5q67 39.5 106 108.5t39 152t-39 151t-106 107.5t-147 39.5q-81 0 -148 -39.5
t-105.5 -107.5t-38.5 -151t38.5 -152t105.5 -108.5t148 -39.5q80 0 147 39.5zM441 300q-24 -11 -47 -11q-58 0 -97.5 38.5t-39.5 99.5q0 41 20 73.5t54 51t76 18.5q67 0 108.5 -40.5t41.5 -103.5q0 -65 -39 -130l-87 -157h-84zM460 373q21 22 21 57q0 34 -21 55.5t-53 21.5
t-53.5 -22t-21.5 -56q0 -35 21 -56.5t54 -21.5q32 0 53 22z" />
    <glyph glyph-name="uni24FF.aalt" horiz-adv-x="813" 
d="M589 32.5q84 48.5 133 133t49 185.5q0 99 -49 183t-132.5 133.5t-182.5 49.5q-98 0 -182 -49.5t-133.5 -133.5t-49.5 -183q0 -100 49.5 -184t132.5 -133.5t181 -49.5q100 0 184 48.5zM288 188.5q-43 58.5 -43 159.5q0 103 44 162.5t118 59.5q73 0 117 -59.5t44 -162.5
q0 -100 -43 -159t-118 -59q-76 0 -119 58.5zM458 483q-20 23 -50 23q-45 0 -67 -45.5t-22 -110.5q0 -35 6 -65zM472.5 238.5q21.5 44.5 21.5 107.5q0 38 -8 75l-134 -199q21 -28 56 -28q43 0 64.5 44.5z" />
    <glyph glyph-name="uni2776.aalt" horiz-adv-x="813" 
d="M589 32.5q84 48.5 133 133t49 185.5q0 99 -49 183t-132.5 133.5t-182.5 49.5q-98 0 -182 -49.5t-133.5 -133.5t-49.5 -183q0 -100 49.5 -184t132.5 -133.5t181 -49.5q100 0 184 48.5zM468 139h-74v349h-92v70h166v-419z" />
    <glyph glyph-name="uni2778.aalt" horiz-adv-x="813" 
d="M589 32.5q84 48.5 133 133t49 185.5q0 99 -49 183t-132.5 133.5t-182.5 49.5q-98 0 -182 -49.5t-133.5 -133.5t-49.5 -183q0 -100 49.5 -184t132.5 -133.5t181 -49.5q100 0 184 48.5zM297 168.5q-42 38.5 -43 106.5h73q1 -39 22.5 -60.5t58.5 -21.5q35 0 57 18.5t22 53.5
q0 69 -107 67v60l85 91h-187v70h270v-68l-95 -101q56 -11 82.5 -43t26.5 -76q0 -60 -42.5 -97.5t-111.5 -37.5t-111 38.5z" />
    <glyph glyph-name="uni2779.aalt" horiz-adv-x="813" 
d="M589 32.5q84 48.5 133 133t49 185.5q0 99 -49 183t-132.5 133.5t-182.5 49.5q-98 0 -182 -49.5t-133.5 -133.5t-49.5 -183q0 -100 49.5 -184t132.5 -133.5t181 -49.5q100 0 184 48.5zM517 139h-73v123h-187v291h72v-230h115v230h73v-230h77v-61h-77v-123z" />
    <glyph glyph-name="uni277B.aalt" horiz-adv-x="813" 
d="M589 32.5q84 48.5 133 133t49 185.5q0 99 -49 183t-132.5 133.5t-182.5 49.5q-98 0 -182 -49.5t-133.5 -133.5t-49.5 -183q0 -100 49.5 -184t132.5 -133.5t181 -49.5q100 0 184 48.5zM324.5 149.5q-34.5 19.5 -53.5 53.5t-19 75q0 62 42 126l98 154h85l-104 -152
q27 9 48 9q57 0 95 -38t38 -99q0 -65 -43 -106.5t-108 -41.5q-44 0 -78.5 19.5zM459 215q21 22 21 58q0 35 -20.5 57t-54.5 22q-35 0 -56.5 -21.5t-21.5 -55.5q0 -38 21 -60t55 -22q35 0 56 22z" />
    <glyph glyph-name="uni277E.aalt" horiz-adv-x="813" 
d="M589 32.5q84 48.5 133 133t49 185.5q0 99 -49 183t-132.5 133.5t-182.5 49.5q-98 0 -182 -49.5t-133.5 -133.5t-49.5 -183q0 -100 49.5 -184t132.5 -133.5t181 -49.5q100 0 184 48.5zM441 300q-24 -11 -47 -11q-58 0 -97.5 38.5t-39.5 99.5q0 41 20 73.5t54 51t76 18.5
q67 0 108.5 -40.5t41.5 -103.5q0 -65 -39 -130l-87 -157h-84zM460 373q21 22 21 57q0 34 -21 55.5t-53 21.5t-53.5 -22t-21.5 -56q0 -35 21 -56.5t54 -21.5q32 0 53 22z" />
    <glyph glyph-name="zero.tnum" 
d="M107.5 80q-68.5 96 -68.5 270q0 114 32 196.5t91 126.5t139 44t139 -43.5t91 -126.5t32 -199q0 -172 -69 -268t-193 -96q-125 0 -193.5 96zM417.5 137.5q40.5 69.5 40.5 209.5q0 143 -40.5 214t-115.5 71q-77 0 -117.5 -70.5t-40.5 -215.5q0 -138 41.5 -208t116.5 -70
t115.5 69.5z" />
    <glyph glyph-name="zero.tnum.zero" 
d="M440 673.5q59 -43.5 91 -126.5t32 -199q0 -172 -69 -268t-193 -96q-125 0 -193.5 96t-68.5 270q0 114 32 196.5t91 126.5t139 44t139 -43.5zM184.5 561.5q-40.5 -70.5 -40.5 -215.5q0 -74 13 -134l248 368q-39 52 -103 52q-77 0 -117.5 -70.5zM417.5 137.5
q40.5 69.5 40.5 209.5q0 77 -13 140l-247 -367q39 -52 104 -52q75 0 115.5 69.5z" />
    <glyph glyph-name="one.tnum" 
d="M365 91h200v-91h-509v91h208v399q0 21 2 61q-26 -41 -70 -68t-96 -29v99q63 8 113.5 49t66.5 98h85v-609z" />
    <glyph glyph-name="one.tnum.ss09" 
d="M365 700v-608h194v-92h-497v92h202v519h-165v89h266z" />
    <glyph glyph-name="two.tnum" 
d="M57 0q1 56 20 99t54.5 79.5t96.5 81.5l75 56q61 46 96 90t35 99q0 57 -33.5 92t-91.5 35q-64 0 -100.5 -43.5t-36.5 -122.5v-11h-107v17q0 75 31 130.5t86.5 85t126.5 29.5q68 0 120 -26.5t80.5 -74.5t28.5 -111q0 -80 -47 -141.5t-147 -135.5l-48 -36q-54 -40 -77 -61
t-29 -37h356v-94h-489z" />
    <glyph glyph-name="three.tnum" 
d="M117 45q-67 61 -67 166h104q0 -65 38.5 -104t106.5 -39q67 0 108 34.5t41 94.5q0 57 -41 90t-105 33h-44v88h45q56 0 92.5 29.5t36.5 84.5q0 51 -34 80.5t-92 29.5q-65 0 -102 -35t-39 -96h-106q3 98 69 157t179 59q66 0 118 -24t81.5 -67t29.5 -99t-34 -98t-94 -61
q68 -19 106 -64.5t38 -112.5q0 -60 -32.5 -107t-90 -73.5t-130.5 -26.5q-115 0 -182 61z" />
    <glyph glyph-name="three.tnum.ss10" 
d="M353 413q99 -13 149 -71t50 -135q0 -64 -32 -115t-88 -79.5t-127 -28.5q-116 0 -182.5 61t-66.5 166h104q0 -64 38 -103.5t107 -39.5q62 0 102 38.5t40 100.5q0 67 -47 101.5t-129 34.5q-20 0 -30 -1v77l167 188h-317v93h433v-99z" />
    <glyph glyph-name="four.tnum" 
d="M449 0h-102v176h-324v93l292 431h134v-434h129v-90h-129v-176zM347 266v339q-9 -16 -29 -48l-172 -254l-12 -18l-14 -19h227z" />
    <glyph glyph-name="four.tnum.ss09" 
d="M444 0h-102v217h-314v483h102v-392h212v392h102v-392h129v-91h-129v-217z" />
    <glyph glyph-name="five.tnum" 
d="M167.5 10.5q-54.5 26.5 -84 73.5t-30.5 108h104q1 -55 37 -89.5t99 -34.5q69 0 110 43.5t41 117.5q0 69 -37.5 112.5t-103.5 43.5q-48 0 -86 -25.5t-53 -59.5h-100l52 400h393v-95h-316l-23 -167q-5 -36 -8 -48q28 36 71.5 57.5t95.5 21.5q64 0 114 -31t77.5 -85
t27.5 -120q0 -74 -32 -130.5t-89 -87.5t-131 -31t-128.5 26.5z" />
    <glyph glyph-name="six.tnum" 
d="M74 159q-26 74 -26 176q0 69 13.5 134t39.5 112q36 66 95.5 101t137.5 35q97 0 156 -53t62 -140h-103q-3 51 -34.5 80t-83.5 29q-83 0 -128 -63t-50 -180l-3 -36q25 44 75 74.5t111 30.5q63 0 112.5 -29.5t77.5 -82t28 -119.5q0 -70 -32 -125.5t-87.5 -87t-123.5 -31.5
q-178 0 -237 175zM410.5 109.5q39.5 43.5 39.5 114.5q0 65 -37.5 107.5t-99.5 42.5q-63 0 -104.5 -42t-41.5 -105q0 -78 39.5 -119.5t102.5 -41.5q62 0 101.5 43.5z" />
    <glyph glyph-name="six.tnum.ss11" 
d="M437 429.5q51 -29.5 80.5 -83t29.5 -122.5q0 -72 -32 -126.5t-88.5 -84t-128.5 -29.5t-128 30t-87 85t-31 126q0 67 20 118t60 113l156 244h120l-172 -262q40 21 88 21q62 0 113 -29.5zM403 111.5q40 41.5 40 109.5q0 67 -38.5 110t-101.5 43q-65 0 -105 -42.5
t-40 -109.5q0 -68 39 -110t102 -42q64 0 104 41.5z" />
    <glyph glyph-name="seven.tnum" 
d="M176 0q13 181 75 326t158 243q18 19 38 36h-386v95h481v-101q-108 -111 -175.5 -264t-75.5 -335h-115z" />
    <glyph glyph-name="eight.tnum" 
d="M163.5 9q-57.5 25 -87.5 70t-30 105q0 61 39.5 109t107.5 70q-60 21 -95 62.5t-35 98.5q0 55 29.5 99t83.5 69t125 25q70 0 124 -25t83.5 -68.5t29.5 -98.5q0 -57 -35 -99.5t-95 -62.5q69 -21 108.5 -68.5t39.5 -107.5q0 -61 -31 -107t-88.5 -71t-136.5 -25t-136.5 25z
M397.5 439.5q37.5 31.5 37.5 81.5t-37 81.5t-97 31.5q-61 0 -98 -31t-37 -80q0 -51 37 -83t98 -32q59 0 96.5 31.5zM410 100.5q42 34.5 42 91.5q0 54 -42.5 89.5t-108.5 35.5t-108.5 -35.5t-42.5 -89.5q0 -57 41.5 -91.5t109.5 -34.5q67 0 109 34.5z" />
    <glyph glyph-name="nine.tnum" 
d="M122 37q-58 53 -61 141h104q3 -53 34.5 -82.5t86.5 -29.5q84 0 125.5 72t39.5 179v30q-27 -39 -75 -66.5t-107 -27.5q-60 0 -110.5 28.5t-80 80.5t-29.5 120t32 121.5t88 83.5t124 30q85 0 144.5 -46.5t87.5 -132.5q27 -81 27 -185q0 -70 -13 -134.5t-39 -109.5
q-34 -62 -89.5 -93.5t-127.5 -31.5q-103 0 -161 53zM394 378q40 42 40 109q0 65 -39.5 106.5t-100.5 41.5q-60 0 -100 -41.5t-40 -106.5q0 -67 39 -109t100 -42t101 42z" />
    <glyph glyph-name="nine.tnum.ss11" 
d="M428.5 686.5q55.5 -30.5 86.5 -86.5t31 -130q0 -64 -20 -117t-56 -111l-146 -242h-121l172 275q-43 -25 -92 -25q-65 0 -116.5 29.5t-80.5 82t-29 117.5q0 68 32 122.5t88 85t126 30.5t125.5 -30.5zM199.5 376.5q38.5 -41.5 100.5 -41.5q63 0 102 41.5t39 104.5
q0 66 -38 107.5t-101 41.5t-102 -41.5t-39 -107.5q0 -63 38.5 -104.5z" />
    <glyph glyph-name="zero.dnom" horiz-adv-x="400" 
d="M79.5 48q-44.5 58 -44.5 160t44.5 161.5t121.5 59.5q76 0 120 -59.5t44 -161.5t-43.5 -160t-120.5 -58t-121.5 58zM261.5 94.5q21.5 40.5 21.5 113.5q0 75 -21.5 116t-60.5 41q-41 0 -63 -40.5t-22 -116.5q0 -73 22.5 -113.5t62.5 -40.5q39 0 60.5 40.5z" />
    <glyph glyph-name="zero.dnom.zero" horiz-adv-x="400" 
d="M320 369.5q44 -59.5 44 -161.5q0 -100 -43.5 -159t-119.5 -59q-77 0 -121 58.5t-44 159.5q0 102 44.5 161.5t120.5 59.5q75 0 119 -59.5zM138.5 325q-22.5 -40 -22.5 -117q0 -34 4 -57l130 192q-21 22 -49 22q-40 0 -62.5 -40zM262.5 94.5q22.5 39.5 22.5 113.5
q0 39 -6 67l-131 -194q21 -26 53 -26q39 0 61.5 39.5z" />
    <glyph glyph-name="one.dnom" horiz-adv-x="265" 
d="M131 279q0 21 1 32q-17 -22 -46.5 -36.5t-63.5 -14.5v68q44 5 77 30t42 61h70v-419h-80v279z" />
    <glyph glyph-name="one.dnom.ss09" horiz-adv-x="251" 
d="M196 0h-80v348h-92v71h172v-419z" />
    <glyph glyph-name="two.dnom" horiz-adv-x="372" 
d="M33 0q1 57 26 97.5t76 73.5l52 35q33 22 50 43.5t17 50.5q0 30 -17.5 48t-47.5 18q-34 0 -53 -21t-21 -59h-82q2 63 44 103t113 40q66 0 105 -37t39 -91q0 -47 -27.5 -82.5t-77.5 -67.5l-50 -33q-42 -26 -46 -49h202v-69h-302z" />
    <glyph glyph-name="three.dnom" horiz-adv-x="384" 
d="M73.5 29q-43.5 39 -44.5 106h79q1 -38 22 -59.5t57 -21.5t57.5 17.5t21.5 48.5q0 30 -21 48t-57 18h-31v63h34q30 0 47.5 15.5t17.5 42.5q0 28 -17.5 43.5t-48.5 15.5q-34 0 -53 -19t-21 -50h-82q2 60 45 96t112 36q64 0 104.5 -32.5t40.5 -84.5q0 -33 -20 -58t-56 -36
q40 -11 62.5 -38t22.5 -66q0 -54 -43 -89t-114 -35t-114.5 39z" />
    <glyph glyph-name="three.dnom.ss10" horiz-adv-x="384" 
d="M75 28q-42 38 -43 106h74q1 -39 22 -60t59 -21q35 0 56.5 18.5t21.5 53.5q0 72 -106 70v59l86 95h-189v70h271v-68l-95 -105q56 -11 82.5 -43t26.5 -78q0 -60 -42.5 -97.5t-111.5 -37.5q-70 0 -112 38z" />
    <glyph glyph-name="four.dnom" horiz-adv-x="397" 
d="M298 0h-80v102h-196v64l177 253h99v-255h77v-62h-77v-102zM218 164v173l-13 -20l-90 -129q-7 -12 -17 -24h120z" />
    <glyph glyph-name="four.dnom.ss09" horiz-adv-x="413" 
d="M314 0h-80v122h-189v297h80v-235h109v235h80v-235h76v-62h-76v-122z" />
    <glyph glyph-name="five.dnom" horiz-adv-x="373" 
d="M72.5 26q-42.5 36 -41.5 92h80q0 -27 20 -45.5t52 -18.5q35 0 57 23t22 61q0 37 -20.5 60t-54.5 23q-22 0 -40.5 -10.5t-28.5 -28.5h-82l35 237h248v-71h-189l-13 -79q-3 -18 -5 -27q18 19 43 30.5t54 11.5q58 0 95.5 -40t37.5 -105q0 -69 -43.5 -109t-113.5 -40
t-112.5 36z" />
    <glyph glyph-name="six.dnom" horiz-adv-x="391" 
d="M79 46q-44 56 -44 159q0 106 47.5 165t131.5 59q61 0 98 -33t42 -88h-81q-8 57 -62 57q-43 0 -66.5 -31.5t-25.5 -88.5q-1 -7 -1 -19q17 21 43 35t60 14q59 0 97.5 -37.5t38.5 -98.5q0 -64 -43.5 -106.5t-109.5 -42.5q-81 0 -125 56zM257 76q21 22 21 58q0 34 -20.5 56
t-53.5 22q-35 0 -56 -21.5t-21 -55.5q0 -37 20 -59t55 -22q34 0 55 22z" />
    <glyph glyph-name="six.dnom.ss11" horiz-adv-x="372" 
d="M305 236.5q39 -38.5 39 -98.5q0 -64 -44 -106t-110 -42q-45 0 -80.5 19.5t-55 53.5t-19.5 75q0 59 43 126l98 155h91l-101 -151q21 7 42 7q58 0 97 -38.5zM244 76q20 22 20 57t-20.5 57t-51.5 22q-34 0 -54.5 -21.5t-20.5 -56.5q0 -37 19.5 -58.5t53.5 -21.5t54 22z" />
    <glyph glyph-name="seven.dnom" horiz-adv-x="348" 
d="M87 0q6 100 42.5 185t96.5 144q14 12 25 19h-231v71h310v-60q-68 -73 -105.5 -159.5t-43.5 -199.5h-94z" />
    <glyph glyph-name="eight.dnom" horiz-adv-x="391" 
d="M77 23q-43 33 -43 85q0 38 23.5 65.5t65.5 42.5q-37 14 -57.5 39t-20.5 57q0 53 41.5 85t109.5 32q67 0 108.5 -32.5t41.5 -81.5q0 -36 -20.5 -62t-58.5 -37q42 -13 66 -40t24 -63q0 -55 -44 -89t-118 -34q-75 0 -118 33zM247.5 262.5q19.5 16.5 19.5 43.5
q0 26 -19.5 42.5t-50.5 16.5q-33 0 -52.5 -16t-19.5 -42q0 -28 19.5 -44.5t52.5 -16.5q31 0 50.5 16.5zM255 72.5q22 18.5 22 47.5t-22.5 48t-58.5 19t-59 -19t-23 -48q0 -30 22.5 -48t59.5 -18t59 18.5z" />
    <glyph glyph-name="nine.dnom" horiz-adv-x="385" 
d="M78 23q-38 33 -42 87h81q6 -58 66 -58q43 0 63.5 33t24.5 100l2 11q-17 -21 -42.5 -35t-58.5 -14q-60 0 -99 39t-39 101q0 40 20 72.5t55 51t78 18.5q76 0 119 -57.5t43 -159.5q0 -107 -44 -164.5t-127 -57.5q-62 0 -100 33zM238.5 234q20.5 22 20.5 56t-20.5 54.5
t-52.5 20.5t-52.5 -21t-20.5 -54q0 -35 20.5 -56.5t52.5 -21.5t52.5 22z" />
    <glyph glyph-name="nine.dnom.ss11" horiz-adv-x="375" 
d="M297.5 388.5q42.5 -40.5 42.5 -103.5q0 -34 -10 -64t-29 -65l-89 -156h-88l92 156q-21 -8 -43 -8q-59 0 -99 39.5t-40 98.5q0 40 20 73t55.5 51.5t77.5 18.5q68 0 110.5 -40.5zM134.5 233.5q20.5 -21.5 52.5 -21.5q31 0 51 22t20 56q0 33 -20 54t-51 21t-52 -22t-21 -54
q0 -34 20.5 -55.5z" />
    <glyph glyph-name="zero.numr" horiz-adv-x="400" 
d="M79.5 329q-44.5 58 -44.5 160t44.5 161.5t121.5 59.5q76 0 120 -59.5t44 -161.5t-43.5 -160t-120.5 -58t-121.5 58zM261.5 375.5q21.5 40.5 21.5 113.5q0 75 -21.5 116t-60.5 41q-41 0 -63 -40.5t-22 -116.5q0 -73 22.5 -113.5t62.5 -40.5q39 0 60.5 40.5z" />
    <glyph glyph-name="zero.numr.zero" horiz-adv-x="400" 
d="M320 650.5q44 -59.5 44 -161.5q0 -100 -43.5 -159t-119.5 -59q-77 0 -121 58.5t-44 159.5q0 102 44.5 161.5t120.5 59.5q75 0 119 -59.5zM138.5 606q-22.5 -40 -22.5 -117q0 -34 4 -57l130 192q-21 22 -49 22q-40 0 -62.5 -40zM262.5 375.5q22.5 39.5 22.5 113.5
q0 39 -6 67l-131 -194q21 -26 53 -26q39 0 61.5 39.5z" />
    <glyph glyph-name="one.numr" horiz-adv-x="265" 
d="M132 560q0 21 1 32q-17 -22 -46.5 -36.5t-63.5 -14.5v68q44 5 77 30t42 61h70v-419h-80v279z" />
    <glyph glyph-name="one.numr.ss09" horiz-adv-x="251" 
d="M196 281h-80v348h-92v71h172v-419z" />
    <glyph glyph-name="two.numr" horiz-adv-x="372" 
d="M33 281q1 57 26 97.5t76 73.5l52 35q33 22 50 43.5t17 50.5q0 30 -17.5 48t-47.5 18q-34 0 -53 -21t-21 -59h-82q2 63 44 103t113 40q66 0 105 -37t39 -91q0 -47 -27.5 -82.5t-77.5 -67.5l-50 -33q-42 -26 -46 -49h202v-69h-302z" />
    <glyph glyph-name="three.numr" horiz-adv-x="384" 
d="M73.5 311q-43.5 39 -44.5 106h79q1 -38 22 -59.5t57 -21.5t57.5 17.5t21.5 48.5q0 30 -21 48t-57 18h-31v63h34q30 0 47.5 15.5t17.5 42.5q0 28 -17.5 43.5t-48.5 15.5q-34 0 -53 -19t-21 -50h-82q2 60 45 96t112 36q64 0 104.5 -32.5t40.5 -84.5q0 -33 -20 -58t-56 -36
q40 -11 62.5 -38t22.5 -66q0 -54 -43 -89t-114 -35t-114.5 39z" />
    <glyph glyph-name="three.numr.ss10" horiz-adv-x="384" 
d="M75 310q-42 38 -43 106h74q1 -39 22 -60t59 -21q35 0 56.5 18.5t21.5 53.5q0 72 -106 70v59l86 95h-189v70h271v-68l-95 -105q56 -11 82.5 -43t26.5 -78q0 -60 -42.5 -97.5t-111.5 -37.5q-70 0 -112 38z" />
    <glyph glyph-name="four.numr" horiz-adv-x="397" 
d="M298 281h-80v102h-196v64l177 253h99v-255h77v-62h-77v-102zM218 445v173l-13 -20l-90 -129q-7 -12 -17 -24h120z" />
    <glyph glyph-name="four.numr.ss09" horiz-adv-x="413" 
d="M314 281h-80v122h-189v297h80v-235h109v235h80v-235h76v-62h-76v-122z" />
    <glyph glyph-name="five.numr" horiz-adv-x="373" 
d="M72.5 307q-42.5 36 -41.5 92h80q0 -27 20 -45.5t52 -18.5q35 0 57 23t22 61q0 37 -20.5 60t-54.5 23q-22 0 -40.5 -10.5t-28.5 -28.5h-82l35 237h248v-71h-189l-13 -79q-3 -18 -5 -27q18 19 43 30.5t54 11.5q58 0 95.5 -40t37.5 -105q0 -69 -43.5 -109t-113.5 -40
t-112.5 36z" />
    <glyph glyph-name="six.numr" horiz-adv-x="391" 
d="M79 327q-44 56 -44 159q0 106 47.5 165t131.5 59q61 0 98 -33t42 -88h-81q-8 57 -62 57q-43 0 -66.5 -31.5t-25.5 -88.5q-1 -7 -1 -19q17 21 43 35t60 14q59 0 97.5 -37.5t38.5 -98.5q0 -64 -43.5 -106.5t-109.5 -42.5q-81 0 -125 56zM257 357q21 22 21 58q0 34 -20.5 56
t-53.5 22q-35 0 -56 -21.5t-21 -55.5q0 -37 20 -59t55 -22q34 0 55 22z" />
    <glyph glyph-name="six.numr.ss11" horiz-adv-x="372" 
d="M305 517.5q39 -38.5 39 -98.5q0 -64 -44 -106t-110 -42q-45 0 -80.5 19.5t-55 53.5t-19.5 75q0 59 43 126l98 155h91l-101 -151q21 7 42 7q58 0 97 -38.5zM244 357q20 22 20 57t-20.5 57t-51.5 22q-34 0 -54.5 -21.5t-20.5 -56.5q0 -37 19.5 -58.5t53.5 -21.5t54 22z" />
    <glyph glyph-name="seven.numr" horiz-adv-x="348" 
d="M88 281q6 100 42.5 185t96.5 144q14 12 25 19h-231v71h310v-60q-68 -73 -105.5 -159.5t-43.5 -199.5h-94z" />
    <glyph glyph-name="eight.numr" horiz-adv-x="391" 
d="M77 304q-43 33 -43 85q0 38 23.5 65.5t65.5 42.5q-37 14 -57.5 39t-20.5 57q0 53 41.5 85t109.5 32q67 0 108.5 -32.5t41.5 -81.5q0 -36 -20.5 -62t-58.5 -37q42 -13 66 -40t24 -63q0 -55 -44 -89t-118 -34q-75 0 -118 33zM247.5 543.5q19.5 16.5 19.5 43.5
q0 26 -19.5 42.5t-50.5 16.5q-33 0 -52.5 -16t-19.5 -42q0 -28 19.5 -44.5t52.5 -16.5q31 0 50.5 16.5zM255 353.5q22 18.5 22 47.5t-22.5 48t-58.5 19t-59 -19t-23 -48q0 -30 22.5 -48t59.5 -18t59 18.5z" />
    <glyph glyph-name="nine.numr" horiz-adv-x="385" 
d="M78 304q-38 33 -42 87h81q6 -58 66 -58q43 0 63.5 33t24.5 100l2 11q-17 -21 -42.5 -35t-58.5 -14q-60 0 -99 39t-39 101q0 40 20 72.5t55 51t78 18.5q76 0 119 -57.5t43 -159.5q0 -107 -44 -164.5t-127 -57.5q-62 0 -100 33zM238.5 515q20.5 22 20.5 56t-20.5 54.5
t-52.5 20.5t-52.5 -21t-20.5 -54q0 -35 20.5 -56.5t52.5 -21.5t52.5 22z" />
    <glyph glyph-name="nine.numr.ss11" horiz-adv-x="375" 
d="M297.5 669.5q42.5 -40.5 42.5 -103.5q0 -34 -10 -64t-29 -65l-89 -156h-88l92 156q-21 -8 -43 -8q-59 0 -99 39.5t-40 98.5q0 40 20 73t55.5 51.5t77.5 18.5q68 0 110.5 -40.5zM134.5 514.5q20.5 -21.5 52.5 -21.5q31 0 51 22t20 56q0 33 -20 54t-51 21t-52 -22t-21 -54
q0 -34 20.5 -55.5z" />
    <glyph glyph-name="uni2070.aalt" horiz-adv-x="440" 
d="M352 747.5q48 -65.5 48 -177.5q0 -111 -47.5 -175.5t-131.5 -64.5q-85 0 -133.5 64.5t-48.5 175.5q0 112 49.5 177.5t132.5 65.5t131 -65.5zM152 698q-25 -44 -25 -128q0 -32 5 -64l143 212q-21 24 -54 24q-44 0 -69 -44zM288.5 444.5q24.5 43.5 24.5 125.5q0 43 -6 74
l-144 -214q23 -29 58 -29q43 0 67.5 43.5z" />
    <glyph glyph-name="uni00B9.aalt" horiz-adv-x="275" 
d="M215 341h-88v383h-100v78h188v-461z" />
    <glyph glyph-name="uni00B3.aalt" horiz-adv-x="384" 
d="M75 402q-42 38 -43 106h74q1 -39 22 -60t59 -21q35 0 56.5 18.5t21.5 53.5q0 72 -106 70v59l86 95h-189v70h271v-68l-95 -105q56 -11 82.5 -43t26.5 -78q0 -60 -42.5 -97.5t-111.5 -37.5q-70 0 -112 38z" />
    <glyph glyph-name="uni2074.aalt" horiz-adv-x="453" 
d="M345 341h-88v134h-207v327h88v-259h119v259h88v-259h84v-68h-84v-134z" />
    <glyph glyph-name="uni2076.aalt" horiz-adv-x="408" 
d="M335.5 601q42.5 -42 42.5 -109q0 -46 -22 -83t-60.5 -58t-86.5 -21q-50 0 -88.5 21.5t-60 58.5t-21.5 82q0 67 47 139l108 171h99l-112 -167q22 8 48 8q64 0 106.5 -42zM268 424q22 24 22 63q0 38 -22 62.5t-57 24.5q-37 0 -60 -23.5t-23 -61.5q0 -41 22 -65t59 -24
t59 24z" />
    <glyph glyph-name="uni2079.aalt" horiz-adv-x="413" 
d="M327.5 768q46.5 -45 46.5 -114q0 -37 -11 -70t-32 -72l-97 -171h-98l102 172q-21 -9 -48 -9q-43 0 -77.5 19.5t-54.5 54t-20 77.5q0 45 22 81t60.5 56.5t85.5 20.5q75 0 121.5 -45zM147.5 597.5q22.5 -23.5 57.5 -23.5q34 0 56.5 24t22.5 62q0 36 -22.5 59.5t-56.5 23.5
t-57 -24.5t-23 -59.5q0 -38 22.5 -61.5z" />
    <glyph glyph-name="uni215F.aalt" horiz-adv-x="730" 
d="M210 281h-80v348h-92v71h172v-419zM198 0h-96l508 700h96z" />
    <glyph glyph-name="onehalf.aalt" horiz-adv-x="890" 
d="M210 281h-80v348h-92v71h172v-419zM198 0h-96l508 700h96zM549 0q1 57 26 97.5t76 73.5l52 35q33 22 50 43.5t17 50.5q0 30 -17.5 48t-47.5 18q-34 0 -53 -21t-21 -59h-82q2 63 44 103t113 40q66 0 105 -37t39 -91q0 -47 -27.5 -82.5t-77.5 -67.5l-50 -33
q-42 -26 -46 -49h202v-69h-302z" />
    <glyph glyph-name="onethird.ss09" horiz-adv-x="889" 
d="M210 281h-80v348h-92v71h172v-419zM198 0h-96l508 700h96zM578.5 29q-43.5 39 -44.5 106h79q1 -38 22 -59.5t57 -21.5t57.5 17.5t21.5 48.5q0 30 -21 48t-57 18h-31v63h34q30 0 47.5 15.5t17.5 42.5q0 28 -17.5 43.5t-48.5 15.5q-34 0 -53 -19t-21 -50h-82q2 60 45 96
t112 36q64 0 104.5 -32.5t40.5 -84.5q0 -33 -20 -58t-56 -36q40 -11 62.5 -38t22.5 -66q0 -54 -43 -89t-114 -35t-114.5 39z" />
    <glyph glyph-name="onethird.ss09.ss10" horiz-adv-x="889" 
d="M210 281h-80v348h-92v71h172v-419zM198 0h-96l508 700h96zM580 28q-42 38 -43 106h74q1 -39 22 -60t59 -21q35 0 56.5 18.5t21.5 53.5q0 72 -106 70v59l86 95h-189v70h271v-68l-95 -105q56 -11 82.5 -43t26.5 -78q0 -60 -42.5 -97.5t-111.5 -37.5q-70 0 -112 38z" />
    <glyph glyph-name="onethird.ss10" horiz-adv-x="896" 
d="M137 560q0 21 1 32q-17 -22 -46.5 -36.5t-63.5 -14.5v68q44 5 77 30t42 61h70v-419h-80v279zM205 0h-96l508 700h96zM587 28q-42 38 -43 106h74q1 -39 22 -60t59 -21q35 0 56.5 18.5t21.5 53.5q0 72 -106 70v59l86 95h-189v70h271v-68l-95 -105q56 -11 82.5 -43t26.5 -78
q0 -60 -42.5 -97.5t-111.5 -37.5q-70 0 -112 38z" />
    <glyph glyph-name="twothirds.aalt" horiz-adv-x="986" 
d="M38 281q1 57 26 97.5t76 73.5l52 35q33 22 50 43.5t17 50.5q0 30 -17.5 48t-47.5 18q-34 0 -53 -21t-21 -59h-82q2 63 44 103t113 40q66 0 105 -37t39 -91q0 -47 -27.5 -82.5t-77.5 -67.5l-50 -33q-42 -26 -46 -49h202v-69h-302zM299 0h-96l508 700h96zM682 28
q-42 38 -43 106h74q1 -39 22 -60t59 -21q35 0 56.5 18.5t21.5 53.5q0 72 -106 70v59l86 95h-189v70h271v-68l-95 -105q56 -11 82.5 -43t26.5 -78q0 -60 -42.5 -97.5t-111.5 -37.5q-70 0 -112 38z" />
    <glyph glyph-name="onequarter.aalt" horiz-adv-x="934" 
d="M831 0h-80v122h-189v297h80v-235h109v235h80v-235h76v-62h-76v-122zM210 281h-80v348h-92v71h172v-419zM198 0h-96l508 700h96z" />
    <glyph glyph-name="threequarters.ss09" horiz-adv-x="1026" 
d="M76.5 311q-43.5 39 -44.5 106h79q1 -38 22 -59.5t57 -21.5t57.5 17.5t21.5 48.5q0 30 -21 48t-57 18h-31v63h34q30 0 47.5 15.5t17.5 42.5q0 28 -17.5 43.5t-48.5 15.5q-34 0 -53 -19t-21 -50h-82q2 60 45 96t112 36q64 0 104.5 -32.5t40.5 -84.5q0 -33 -20 -58t-56 -36
q40 -11 62.5 -38t22.5 -66q0 -54 -43 -89t-114 -35t-114.5 39zM289 0h-96l508 700h96zM922 0h-80v122h-189v297h80v-235h109v235h80v-235h76v-62h-76v-122z" />
    <glyph glyph-name="threequarters.ss09.ss10" horiz-adv-x="1026" 
d="M77 310q-42 38 -43 106h74q1 -39 22 -60t59 -21q35 0 56.5 18.5t21.5 53.5q0 72 -106 70v59l86 95h-189v70h271v-68l-95 -105q56 -11 82.5 -43t26.5 -78q0 -60 -42.5 -97.5t-111.5 -37.5q-70 0 -112 38zM289 0h-96l508 700h96zM922 0h-80v122h-189v297h80v-235h109v235
h80v-235h76v-62h-76v-122z" />
    <glyph glyph-name="threequarters.ss10" horiz-adv-x="943" 
d="M77 310q-42 38 -43 106h74q1 -39 22 -60t59 -21q35 0 56.5 18.5t21.5 53.5q0 72 -106 70v59l86 95h-189v70h271v-68l-95 -105q56 -11 82.5 -43t26.5 -78q0 -60 -42.5 -97.5t-111.5 -37.5q-70 0 -112 38zM289 0h-96l508 700h96zM839 0h-80v102h-196v64l177 253h99v-255h77
v-62h-77v-102zM759 164v173l-13 -20l-90 -129q-7 -12 -17 -24h120z" />
    <glyph glyph-name="uni2155.aalt" horiz-adv-x="892" 
d="M584.5 26q-42.5 36 -41.5 92h80q0 -27 20 -45.5t52 -18.5q35 0 57 23t22 61q0 37 -20.5 60t-54.5 23q-22 0 -40.5 -10.5t-28.5 -28.5h-82l35 237h248v-71h-189l-13 -79q-3 -18 -5 -27q18 19 43 30.5t54 11.5q58 0 95.5 -40t37.5 -105q0 -69 -43.5 -109t-113.5 -40
t-112.5 36zM210 281h-80v348h-92v71h172v-419zM198 0h-96l508 700h96z" />
    <glyph glyph-name="uni2157.aalt" horiz-adv-x="976" 
d="M72 310q-42 38 -43 106h74q1 -39 22 -60t59 -21q35 0 56.5 18.5t21.5 53.5q0 72 -106 70v59l86 95h-189v70h271v-68l-95 -105q56 -11 82.5 -43t26.5 -78q0 -60 -42.5 -97.5t-111.5 -37.5q-70 0 -112 38zM286 0h-96l508 700h96zM671.5 26q-42.5 36 -41.5 92h80
q0 -27 20 -45.5t52 -18.5q35 0 57 23t22 61q0 37 -20.5 60t-54.5 23q-22 0 -40.5 -10.5t-28.5 -28.5h-82l35 237h248v-71h-189l-13 -79q-3 -18 -5 -27q18 19 43 30.5t54 11.5q58 0 95.5 -40t37.5 -105q0 -69 -43.5 -109t-113.5 -40t-112.5 36z" />
    <glyph glyph-name="uni2158.aalt" horiz-adv-x="1011" 
d="M315 0h-96l508 700h96zM702.5 26q-42.5 36 -41.5 92h80q0 -27 20 -45.5t52 -18.5q35 0 57 23t22 61q0 37 -20.5 60t-54.5 23q-22 0 -40.5 -10.5t-28.5 -28.5h-82l35 237h248v-71h-189l-13 -79q-3 -18 -5 -27q18 19 43 30.5t54 11.5q58 0 95.5 -40t37.5 -105
q0 -69 -43.5 -109t-113.5 -40t-112.5 36zM314 281h-80v122h-189v297h80v-235h109v235h80v-235h76v-62h-76v-122z" />
    <glyph glyph-name="uni2159.ss09" horiz-adv-x="900" 
d="M210 281h-80v348h-92v71h172v-419zM198 0h-96l508 700h96zM584 46q-44 56 -44 159q0 106 47.5 165t131.5 59q61 0 98 -33t42 -88h-81q-8 57 -62 57q-43 0 -66.5 -31.5t-25.5 -88.5q-1 -7 -1 -19q17 21 43 35t60 14q59 0 97.5 -37.5t38.5 -98.5q0 -64 -43.5 -106.5
t-109.5 -42.5q-81 0 -125 56zM762 76q21 22 21 58q0 34 -20.5 56t-53.5 22q-35 0 -56 -21.5t-21 -55.5q0 -37 20 -59t55 -22q34 0 55 22z" />
    <glyph glyph-name="uni2159.ss09.ss11" horiz-adv-x="870" 
d="M795 236.5q39 -38.5 39 -98.5q0 -64 -44 -106t-110 -42q-45 0 -80.5 19.5t-55 53.5t-19.5 75q0 59 43 126l98 155h91l-101 -151q21 7 42 7q58 0 97 -38.5zM734 76q20 22 20 57t-20.5 57t-51.5 22q-34 0 -54.5 -21.5t-20.5 -56.5q0 -37 19.5 -58.5t53.5 -21.5t54 22z
M210 281h-80v348h-92v71h172v-419zM198 0h-96l508 700h96z" />
    </font>
</defs>
</svg>
