<?xml version="1.0" standalone="no"?>
<!DOCTYPE svg PUBLIC "-//W3C//DTD SVG 1.1//EN" "http://www.w3.org/Graphics/SVG/1.1/DTD/svg11.dtd" >
<svg xmlns="http://www.w3.org/2000/svg" xmlns:xlink="http://www.w3.org/1999/xlink" version="1.1">
<metadata>
Created by FontForge 20230101 at Thu Sep 10 20:32:36 2020
 By Unknown
Copyright 2020 Dinamo (Johannes Breyer, Fabian Harb). All rights reserved.
</metadata>
<defs>
<font id="ABCDiatype-Regular" horiz-adv-x="600" >
  <font-face 
    font-family="ABC Diatype"
    font-weight="400"
    font-stretch="normal"
    units-per-em="1000"
    panose-1="2 11 5 4 4 2 2 6 2 3"
    ascent="850"
    descent="-150"
    x-height="482"
    cap-height="700"
    bbox="-187 -284 1077 1109"
    underline-thickness="50"
    underline-position="-150"
    unicode-range="U+0020-FB02"
  />
<missing-glyph horiz-adv-x="605" 
d="M517 0h-429v700h429v-700zM160 633v-566h286v566h-286z" />
    <glyph glyph-name="uniFB01" unicode="fi" horiz-adv-x="544" 
d="M471 0h-86v411h-189v-411h-86v411h-91v71h91v89q0 68 40 106.5t98 38.5q29 0 49 -9v-73q-27 3 -31 3q-34 0 -52 -18.5t-18 -53.5v-83h275v-482zM378 573v103h99v-103h-99z" />
    <glyph glyph-name="uniFB02" unicode="fl" horiz-adv-x="544" 
d="M110 0v411h-91v71h91v89q0 68 40 106.5t98 38.5q29 0 49 -9v-73q-27 3 -31 3q-34 0 -52 -18.5t-18 -53.5v-83h100v-71h-100v-411h-86zM385 700h86v-700h-86v700z" />
    <glyph glyph-name="f_f.liga" unicode="ff" horiz-adv-x="610" 
d="M509 618.5q-18 -18.5 -18 -53.5v-83h100v-71h-100v-411h-86v411h-209v-411h-86v411h-91v71h91v89q0 68 40 106.5t98 38.5q29 0 49 -9v-73q-27 3 -31 3q-34 0 -52 -18.5t-18 -53.5v-83h209v89q0 68 40 106.5t98 38.5q29 0 49 -9v-73q-27 3 -31 3q-34 0 -52 -18.5z" />
    <glyph glyph-name=".notdef" horiz-adv-x="605" 
d="M517 0h-429v700h429v-700zM160 633v-566h286v566h-286z" />
    <glyph glyph-name=".null" horiz-adv-x="0" 
 />
    <glyph glyph-name="nonmarkingreturn" horiz-adv-x="333" 
 />
    <glyph glyph-name="space" unicode=" " horiz-adv-x="237" 
 />
    <glyph glyph-name="exclam" unicode="!" horiz-adv-x="249" 
d="M145 188h-41l-27 289v223h96v-223zM176 0h-103v109h103v-109z" />
    <glyph glyph-name="quotedbl" unicode="&#x22;" horiz-adv-x="337" 
d="M114 476h-43l-18 138v86h79v-86zM266 476h-43l-18 138v86h79v-86z" />
    <glyph glyph-name="numbersign" unicode="#" horiz-adv-x="615" 
d="M185 0h-70l26 204h-105v66h115l23 168h-106v66h116l27 196h71l-28 -196h150l27 196h70l-27 -196h106v-66h-115l-24 -168h104v-66h-113l-27 -204h-70l26 204h-150zM244 438l-22 -168h149l24 168h-151z" />
    <glyph glyph-name="dollar" unicode="$" horiz-adv-x="599" 
d="M534.5 97q-26.5 -45 -75.5 -74t-114 -36v-98h-73v97q-109 10 -172.5 74t-65.5 165h88q2 -68 42 -113t108 -55v265l-26 6q-85 21 -137 70t-52 124q0 51 27.5 93t76.5 68.5t111 31.5v97h73v-99q91 -11 144 -66.5t55 -142.5h-88q-2 53 -31 90t-80 48v-252l30 -7
q186 -45 186 -189q0 -52 -26.5 -97zM272 406v238q-58 -7 -92 -38.5t-34 -83.5q0 -42 29 -71t94 -44zM345 58q59 9 92.5 44.5t33.5 85.5q0 45 -32 72.5t-94 44.5v-247z" />
    <glyph glyph-name="percent" unicode="%" horiz-adv-x="769" 
d="M74 422.5q-43 46.5 -43 120.5t43 120t112 46t112.5 -46t43.5 -120t-43.5 -120.5t-112.5 -46.5t-112 46.5zM172 0h-85l509 700h86zM242.5 471.5q21.5 27.5 21.5 71.5q0 46 -21.5 74.5t-56.5 28.5t-56.5 -28.5t-21.5 -74.5q0 -44 21.5 -71.5t56.5 -27.5t56.5 27.5z
M470.5 37.5q-42.5 46.5 -42.5 121.5q0 74 42.5 120t111.5 46q70 0 113 -46t43 -120q0 -75 -43 -121.5t-113 -46.5q-69 0 -111.5 46.5zM639 86.5q22 27.5 22 72.5q0 46 -22 74.5t-57 28.5t-56.5 -28.5t-21.5 -74.5q0 -45 21.5 -72.5t56.5 -27.5t57 27.5z" />
    <glyph glyph-name="ampersand" unicode="&#x26;" horiz-adv-x="636" 
d="M154 6.5q-50 21.5 -80.5 63.5t-30.5 100q0 72 40 121.5t116 95.5l7 5l-4 5q-50 63 -66.5 96.5t-16.5 73.5t22.5 74.5t63 54.5t92.5 20q74 0 123.5 -39.5t49.5 -106.5q0 -59 -39 -108.5t-98 -84.5l-5 -2l112 -139q-2 3 25 -31q2 7 5.5 16.5t6.5 22.5q10 59 13 101h92
q-5 -119 -62 -209l109 -136h-106l-56 71q-43 -41 -95 -63.5t-111 -22.5q-57 0 -107 21.5zM286 435q46 26 71.5 60.5t25.5 74.5q0 35 -24 54.5t-60 19.5q-40 0 -64.5 -22.5t-24.5 -60.5q0 -27 15.5 -53.5t47.5 -68.5l7 -8zM420 129l-165 205l-5 -4q-57 -39 -86.5 -72.5
t-29.5 -82.5q0 -53 36.5 -86t96.5 -33q90 0 153 73z" />
    <glyph glyph-name="quotesingle" unicode="'" horiz-adv-x="185" 
d="M114 476h-43l-18 138v86h79v-86z" />
    <glyph glyph-name="parenleft" unicode="(" horiz-adv-x="284" 
d="M183 -129q-61 77 -98.5 185.5t-37.5 243.5q0 134 38 243.5t98 186.5h80q-61 -98 -94.5 -200.5t-33.5 -228.5q0 -127 33.5 -230t94.5 -200h-80z" />
    <glyph glyph-name="parenright" unicode=")" horiz-adv-x="284" 
d="M101 730q61 -77 98.5 -185.5t37.5 -243.5q0 -134 -38 -243.5t-98 -186.5h-80q61 98 94.5 200.5t33.5 228.5q0 127 -33.5 230t-94.5 200h80z" />
    <glyph glyph-name="asterisk" unicode="*" horiz-adv-x="393" 
d="M197 516l-58 -100l-44 26l59 96l-112 -1v51l112 -1l-59 96l44 26l58 -100l56 100l45 -26l-59 -96l112 1v-51l-112 1l59 -96l-45 -26z" />
    <glyph glyph-name="plus" unicode="+" horiz-adv-x="546" 
d="M308 335h201v-71h-201v-210h-73v210h-200v71h200v208h73v-208z" />
    <glyph glyph-name="comma" unicode="," horiz-adv-x="245" 
d="M67 -108q26 8 39 28t13 65v15h-53v116h114v-127q0 -136 -113 -153v56z" />
    <glyph glyph-name="hyphen" unicode="-" horiz-adv-x="387" 
d="M324 232h-260v73h260v-73z" />
    <glyph glyph-name="period" unicode="." horiz-adv-x="242" 
d="M178 0h-114v116h114v-116z" />
    <glyph glyph-name="slash" unicode="/" horiz-adv-x="413" 
d="M107 0h-78l277 700h78z" />
    <glyph glyph-name="zero" unicode="0" horiz-adv-x="613" 
d="M119.5 80.5q-66.5 95.5 -66.5 268.5q0 114 30.5 196.5t88 126.5t135.5 44q77 0 134.5 -43.5t88.5 -126t31 -197.5q0 -174 -67 -269t-187 -95q-121 0 -187.5 95.5zM427 128.5q42 72.5 42 220.5q0 149 -41.5 222t-120.5 73q-163 0 -163 -295q0 -147 42.5 -220t120.5 -73
t120 72.5z" />
    <glyph glyph-name="one" unicode="1" horiz-adv-x="374" 
d="M283 700v-700h-88v491v69q-26 -42 -71.5 -70.5t-96.5 -30.5v88q60 7 113.5 51.5t70.5 101.5h72z" />
    <glyph glyph-name="two" unicode="2" horiz-adv-x="567" 
d="M46 0q0 68 32 119t114 113l95 73q59 46 95.5 93t36.5 106q0 62 -35.5 101t-97.5 39q-65 0 -104 -45.5t-39 -129.5v-13h-90v23q0 73 30.5 126.5t83.5 82t119 28.5q65 0 116 -26t79.5 -73.5t28.5 -111.5q0 -76 -45.5 -138.5t-149.5 -141.5l-49 -37q-54 -40 -80 -65t-31 -43
h367v-80h-476z" />
    <glyph glyph-name="three" unicode="3" horiz-adv-x="586" 
d="M159 12q-54 27 -83.5 76t-29.5 114h89q0 -64 40.5 -105t111.5 -41q70 0 113.5 37.5t43.5 101.5q0 62 -43.5 97t-110.5 35h-41v77h42q58 0 96.5 32.5t38.5 91.5q0 55 -36 85.5t-96 30.5q-70 0 -107.5 -36.5t-39.5 -103.5h-90q2 96 65 154t173 58q63 0 113.5 -23.5
t79.5 -65.5t29 -95q0 -55 -32.5 -98.5t-94.5 -64.5q71 -19 108 -65.5t37 -111.5q0 -60 -31.5 -107t-88 -73.5t-128.5 -26.5q-74 0 -128 27z" />
    <glyph glyph-name="four" unicode="4" horiz-adv-x="593" 
d="M436 0h-88v179h-321v85l291 436h118v-441h129v-80h-129v-179zM348 259v362l-30 -48l-185 -279l-23 -35h238z" />
    <glyph glyph-name="five" unicode="5" horiz-adv-x="570" 
d="M156 10.5q-53 25.5 -81.5 71t-28.5 105.5h90q0 -60 37.5 -95.5t103.5 -35.5q75 0 117.5 46.5t42.5 125.5q0 76 -39.5 122t-108.5 46q-52 0 -93 -29t-55 -64h-84l51 397h381v-80h-315l-23 -177l-6 -52q27 35 71 55.5t94 20.5q63 0 113 -30.5t77.5 -84t27.5 -118.5
q0 -73 -31 -129.5t-87 -88t-130 -31.5q-71 0 -124 25.5z" />
    <glyph glyph-name="six" unicode="6" horiz-adv-x="597" 
d="M160.5 29.5q-57.5 44.5 -83.5 129.5q-25 76 -25 175q0 70 14 135.5t40 112.5q36 65 94.5 99.5t133.5 34.5q61 0 108 -23.5t73.5 -65t26.5 -96.5h-89q-2 52 -34.5 83.5t-86.5 31.5q-88 0 -136.5 -67t-54.5 -195q-1 -10 -1 -32q24 45 74 76t112 31q64 0 113.5 -30.5
t76.5 -83.5t27 -119q0 -69 -31.5 -124t-86 -86t-121.5 -31q-86 0 -143.5 44.5zM380 73.5q34 21.5 53 61t19 90.5q0 69 -39.5 116t-103.5 47q-43 0 -78 -21.5t-55 -58t-20 -80.5q0 -86 41 -131t107 -45q42 0 76 21.5z" />
    <glyph glyph-name="seven" unicode="7" horiz-adv-x="512" 
d="M140 0q14 178 72.5 322t150.5 253q16 21 40 45h-380v80h463v-86q-108 -120 -176.5 -281t-75.5 -333h-94z" />
    <glyph glyph-name="eight" unicode="8" horiz-adv-x="602" 
d="M118.5 39q-66.5 54 -66.5 147q0 58 39.5 107t107.5 70q-60 22 -95 65.5t-35 99.5q0 53 29 96t82 67.5t121 24.5t120.5 -24.5t81.5 -67.5t29 -96q0 -56 -34.5 -99.5t-94.5 -65.5q68 -21 107.5 -70t39.5 -107q0 -93 -66.5 -147t-182.5 -54t-182.5 54zM403 440q39 34 39 88
q0 53 -38.5 86.5t-102.5 33.5t-103 -34t-39 -86q0 -54 39 -88t103 -34q63 0 102 34zM416 88q43 36 43 98q0 58 -44 96t-114 38t-114 -38t-44 -96q0 -62 43 -98t115 -36t115 36z" />
    <glyph glyph-name="nine" unicode="9" horiz-adv-x="591" 
d="M119 35q-54 50 -58 131h90q4 -54 36.5 -83t88.5 -29q87 0 130.5 75.5t43.5 188.5q0 17 -1 30q-26 -39 -74 -65t-105 -26q-62 0 -113.5 29t-81 81t-29.5 118t31 118.5t85.5 82.5t121.5 30q87 0 145 -47.5t85 -136.5q24 -79 24 -176q0 -71 -13.5 -136.5t-39.5 -111.5
q-34 -61 -88 -92t-125 -31q-99 0 -153 50zM361.5 346.5q34.5 21.5 54.5 58.5t20 83q0 45 -20 82t-54.5 58t-76.5 21q-41 0 -75 -21t-53 -58t-19 -82q0 -46 19 -83t53 -58.5t75 -21.5q42 0 76.5 21.5z" />
    <glyph glyph-name="colon" unicode=":" horiz-adv-x="242" 
d="M178 0h-114v116h114v-116zM178 323h-114v116h114v-116z" />
    <glyph glyph-name="semicolon" unicode=";" horiz-adv-x="242" 
d="M178 323h-114v116h114v-116zM65 -108q26 8 39 28t13 65v15h-53v116h114v-127q0 -136 -113 -153v56z" />
    <glyph glyph-name="less" unicode="&#x3c;" horiz-adv-x="540" 
d="M479 73l-445 187v79l445 188v-86l-274 -110l-76 -31l82 -34l268 -107v-86z" />
    <glyph glyph-name="equal" unicode="=" horiz-adv-x="610" 
d="M541 356h-474v71h474v-71zM541 171h-474v71h474v-71z" />
    <glyph glyph-name="greater" unicode="&#x3e;" horiz-adv-x="540" 
d="M60 73v86l266 107l85 34l-84 34l-267 107v86l446 -188v-79z" />
    <glyph glyph-name="question" unicode="?" horiz-adv-x="510" 
d="M197 188q0 71 19.5 116t78.5 93l25 21q66 52 66 116q0 48 -33 79t-90 31q-66 0 -104 -42.5t-38 -115.5h-89q0 71 29.5 123t82 79.5t119.5 27.5q61 0 110 -24t76.5 -64.5t27.5 -87.5q0 -57 -27.5 -100t-79.5 -85l-27 -22q-32 -26 -45.5 -59t-13.5 -86h-87zM293 0h-103v109
h103v-109z" />
    <glyph glyph-name="at" unicode="@" horiz-adv-x="760" 
d="M220.5 -66q-80.5 44 -127 126t-46.5 193t48.5 195t130.5 129.5t179 45.5q93 0 166.5 -41t115.5 -114.5t42 -167.5q0 -69 -20.5 -121.5t-57.5 -82t-85 -29.5q-31 0 -54.5 14t-35.5 43q-18 -27 -48.5 -42t-65.5 -15q-41 0 -75 20.5t-53.5 58t-19.5 86.5q0 60 23.5 107.5
t63.5 74t86 26.5q35 0 59.5 -13.5t36.5 -33.5l4 36h68l-24 -237l-1 -14q0 -52 41 -52q25 0 46 23.5t32.5 63t11.5 87.5q0 77 -32 135.5t-90 91t-134 32.5q-80 0 -145.5 -37t-104 -107t-38.5 -163q0 -89 35.5 -156.5t100.5 -104.5t149 -37q58 0 99 13.5t88 44.5l34 -48
q-45 -35 -102.5 -54.5t-118.5 -19.5q-101 0 -181.5 44zM445.5 166.5q28.5 40.5 28.5 109.5q0 47 -24 76t-61 29q-28 0 -52.5 -20.5t-38.5 -54.5t-14 -74q0 -46 22.5 -76t63.5 -30q47 0 75.5 40.5z" />
    <glyph glyph-name="A" unicode="A" horiz-adv-x="681" 
d="M676 0h-101l-80 208h-314l-80 -208h-96l280 700h110zM210 284h256l-108 280q-7 18 -8 23l-12 30l-20 -53z" />
    <glyph glyph-name="B" unicode="B" horiz-adv-x="653" 
d="M90 0v700h273q102 0 162 -44t60 -132q0 -55 -33.5 -96.5t-83.5 -57.5q63 -20 98.5 -64.5t35.5 -108.5q0 -108 -73.5 -152.5t-191.5 -44.5h-247zM350 405q68 0 105 29.5t37 82.5q0 50 -32.5 78.5t-102.5 28.5h-176v-219h169zM352 77q81 0 119 31t38 94q0 59 -37 92.5
t-124 33.5h-167v-251h171z" />
    <glyph glyph-name="C" unicode="C" horiz-adv-x="722" 
d="M207.5 29.5q-75.5 44.5 -117.5 128t-42 196.5q0 107 43.5 189.5t120.5 127.5t173 45q83 0 148 -31.5t104 -86.5t46 -124h-100q-14 78 -66 121.5t-136 43.5q-71 0 -124.5 -34.5t-83 -99t-29.5 -151.5q0 -88 30 -154.5t84 -102.5t123 -36q85 0 139 44.5t69 120.5h95
q-14 -112 -95 -176.5t-206 -64.5q-100 0 -175.5 44.5z" />
    <glyph glyph-name="D" unicode="D" horiz-adv-x="726" 
d="M90 0v700h210q178 0 277 -84.5t99 -264.5q0 -163 -91.5 -257t-262.5 -94h-232zM311 77q131 0 200.5 66t69.5 208q0 134 -67 203.5t-207 69.5h-126v-547h130z" />
    <glyph glyph-name="E" unicode="E" horiz-adv-x="609" 
d="M557 0h-467v700h455v-76h-364v-229h348v-77h-348v-241h376v-77z" />
    <glyph glyph-name="F" unicode="F" horiz-adv-x="582" 
d="M181 0h-91v700h456v-76h-365v-225h348v-76h-348v-323z" />
    <glyph glyph-name="G" unicode="G" horiz-adv-x="737" 
d="M203.5 32q-75.5 47 -116 129.5t-40.5 184.5q0 116 46 200t123.5 127t170.5 43q76 0 138.5 -28t101 -77.5t46.5 -113.5h-97q-11 63 -63 102.5t-126 39.5q-71 0 -126 -33.5t-86.5 -99.5t-31.5 -160q0 -81 30 -146t84.5 -102t124.5 -37q98 0 154.5 55.5t56.5 159.5v13h-220
v77h303v-366h-75v31v66q-29 -49 -89.5 -80.5t-132.5 -31.5q-100 0 -175.5 47z" />
    <glyph glyph-name="H" unicode="H" horiz-adv-x="735" 
d="M181 0h-91v700h91v-294h372v294h91v-700h-91v329h-372v-329z" />
    <glyph glyph-name="I" unicode="I" horiz-adv-x="272" 
d="M90 700h91v-700h-91v700z" />
    <glyph glyph-name="J" unicode="J" horiz-adv-x="552" 
d="M78 47.5q-56 62.5 -58 168.5h93q3 -155 130 -155q134 0 134 155v484h92v-489q0 -104 -62 -165t-167 -61q-106 0 -162 62.5z" />
    <glyph glyph-name="K" unicode="K" horiz-adv-x="622" 
d="M639 0h-123l-296 319l-40 -41v-278h-90v700h90v-307l42 42l257 265h113l-310 -318z" />
    <glyph glyph-name="L" unicode="L" horiz-adv-x="556" 
d="M546 0h-456v700h91v-623h365v-77z" />
    <glyph glyph-name="M" unicode="M" horiz-adv-x="939" 
d="M90 0v700h142l210 -533l30 -76l29 76l208 533h140v-700h-90v526v87l-238 -613h-102l-239 612v-86v-526h-90z" />
    <glyph glyph-name="N" unicode="N" horiz-adv-x="764" 
d="M181 0h-91v700h137l355 -597v88v509h92v-700h-127l-366 612v-85v-527z" />
    <glyph glyph-name="O" unicode="O" horiz-adv-x="758" 
d="M209.5 30.5q-75.5 45.5 -119 128.5t-43.5 191t43.5 191t119 129t169.5 46q95 0 170.5 -46t118.5 -129t43 -191t-43.5 -191t-119 -128.5t-169.5 -45.5t-169.5 45.5zM503 96q53 35 82.5 100.5t29.5 153.5t-29.5 153.5t-83 100.5t-123.5 35q-69 0 -122.5 -35t-83.5 -100.5
t-30 -153.5t29.5 -153.5t82.5 -100.5t124 -35t124 35z" />
    <glyph glyph-name="P" unicode="P" horiz-adv-x="630" 
d="M90 0v700h273q104 0 172 -46t68 -153t-66.5 -152.5t-173.5 -45.5h-182v-303h-91zM362 379q148 0 148 122q0 123 -148 123h-181v-245h181z" />
    <glyph glyph-name="Q" unicode="Q" horiz-adv-x="760" 
d="M684 195q-27 -70 -77 -119l74 -76l-58 -54l-79 82q-74 -43 -165 -43q-94 0 -169.5 45.5t-119 128.5t-43.5 191t43.5 191t119 129t169.5 46q95 0 170.5 -46t118.5 -129t43 -191q0 -85 -27 -155zM487 87l-94 97l57 54l99 -102q32 38 49 92.5t17 121.5q0 88 -29.5 153.5
t-83 100.5t-123.5 35q-69 0 -122.5 -35t-83.5 -100.5t-30 -153.5t29.5 -153.5t82.5 -100.5t124 -35q61 0 108 26z" />
    <glyph glyph-name="R" unicode="R" horiz-adv-x="665" 
d="M90 0v700h297q102 0 160.5 -48t58.5 -136q0 -62 -38.5 -108t-90.5 -62q51 -9 82.5 -51t31.5 -109v-186h-91v161q0 82 -33.5 113.5t-113.5 31.5h-172v-306h-91zM365 383q71 0 109.5 31.5t38.5 90.5t-38.5 89t-109.5 30h-184v-241h184z" />
    <glyph glyph-name="S" unicode="S" horiz-adv-x="637" 
d="M173 14q-64 29 -99 83.5t-36 127.5h93q4 -76 56 -120t135 -44q85 0 131.5 34.5t46.5 92.5q0 47 -35.5 73.5t-103.5 42.5l-104 24q-87 20 -141 68.5t-54 124.5q0 56 33 100.5t91.5 69.5t131.5 25q113 0 183.5 -57.5t76.5 -154.5h-93q-5 62 -50.5 98.5t-118.5 36.5
q-68 0 -113 -31t-45 -79q0 -45 30 -73t92 -42l124 -28q89 -21 140.5 -68.5t51.5 -123.5q0 -58 -33.5 -105.5t-95.5 -75.5t-146 -28t-148 29z" />
    <glyph glyph-name="T" unicode="T" horiz-adv-x="593" 
d="M342 0h-91v624h-242v76h574v-76h-241v-624z" />
    <glyph glyph-name="U" unicode="U" horiz-adv-x="693" 
d="M152 57.5q-69 72.5 -69 215.5v427h91v-415q0 -114 43 -169t129 -55t129.5 54.5t43.5 169.5v415h91v-427q0 -143 -69 -215.5t-195 -72.5q-125 0 -194 72.5z" />
    <glyph glyph-name="V" unicode="V" horiz-adv-x="655" 
d="M273 0l-265 700h100l187 -509l35 -93l35 93l187 509h97l-271 -700h-105z" />
    <glyph glyph-name="W" unicode="W" horiz-adv-x="963" 
d="M205 0l-190 700h94l136 -509q9 -30 22 -81l8 29q6 17 15 52l137 509h114l135 -509q12 -40 22 -82l22 82l139 509h89l-190 -700h-111l-139 524l-25 93l-24 -93l-142 -524h-112z" />
    <glyph glyph-name="X" unicode="X" horiz-adv-x="613" 
d="M4 0l247 365l-226 335h107l140 -217l13 -20q16 -26 23 -36l37 56l140 217h104l-228 -335l250 -365h-109l-167 256l-31 46l-30 -46l-166 -256h-104z" />
    <glyph glyph-name="Y" unicode="Y" horiz-adv-x="591" 
d="M249 0v302l-241 398h102l136 -235l29 -51q16 -29 19 -34q13 21 51 85l139 235h99l-243 -398v-302h-91z" />
    <glyph glyph-name="Z" unicode="Z" horiz-adv-x="593" 
d="M34 0v85l375 489q19 26 24 31l14 19h-396v76h499v-82l-368 -478l-48 -63h428v-77h-528z" />
    <glyph glyph-name="bracketleft" unicode="[" horiz-adv-x="295" 
d="M253 -129h-168v860h168v-67h-87v-726h87v-67z" />
    <glyph glyph-name="backslash" unicode="\" horiz-adv-x="415" 
d="M386 0h-79l-278 700h79z" />
    <glyph glyph-name="bracketright" unicode="]" horiz-adv-x="277" 
d="M24 731h168v-860h-168v67h87v726h-87v67z" />
    <glyph glyph-name="asciicircum" unicode="^" horiz-adv-x="476" 
d="M38 342l161 358h78l161 -358h-90l-76 184q-14 32 -35 83q-21 -51 -35 -83l-76 -184h-88z" />
    <glyph glyph-name="underscore" unicode="_" horiz-adv-x="570" 
d="M516 -109h-462v73h462v-73z" />
    <glyph glyph-name="grave" unicode="`" horiz-adv-x="273" 
d="M220 567h-72l-106 129h108z" />
    <glyph glyph-name="a" unicode="a" horiz-adv-x="509" 
d="M92.5 25q-47.5 40 -47.5 107q0 65 44.5 101.5t115.5 48.5l103 16q27 4 38 15t11 33q0 39 -27 61.5t-70 22.5q-54 0 -83 -26.5t-31 -72.5h-86q2 45 25 83t66.5 61t101.5 23q89 0 138.5 -49t49.5 -133v-316h-82v24v41q-18 -38 -56.5 -59t-91.5 -21q-71 0 -118.5 40zM319 88
q38 36 38 94v71q-8 -12 -53 -21l-70 -13q-100 -19 -100 -87q0 -36 25.5 -58t63.5 -22q58 0 96 36z" />
    <glyph glyph-name="b" unicode="b" horiz-adv-x="583" 
d="M225 7.5q-42 22.5 -65 59.5v-41v-26h-86v700h86v-244v-39q25 35 66.5 58t92.5 23q68 0 118.5 -33t77 -91.5t26.5 -132.5q0 -75 -27.5 -133t-78.5 -90.5t-118 -32.5q-50 0 -92 22.5zM410.5 104.5q40.5 52.5 40.5 136.5t-40.5 136.5t-107.5 52.5q-66 0 -107 -50.5
t-41 -137.5q0 -56 19 -99t52.5 -67t76.5 -24q67 0 107.5 52.5z" />
    <glyph glyph-name="c" unicode="c" horiz-adv-x="535" 
d="M160.5 14q-54.5 29 -86 87t-31.5 141q0 75 32 133t87.5 90.5t123.5 32.5q86 0 144.5 -48.5t65.5 -129.5h-89q-6 49 -38.5 79.5t-84.5 30.5q-45 0 -79.5 -24.5t-53.5 -67.5t-19 -96q0 -86 42 -138t112 -52q53 0 87 29t41 81h85q-7 -81 -63.5 -129t-153.5 -48
q-67 0 -121.5 29z" />
    <glyph glyph-name="d" unicode="d" horiz-adv-x="582" 
d="M151 15q-50 30 -79 88t-29 138q0 73 27.5 131.5t78.5 92t118 33.5q55 0 95.5 -24.5t59.5 -56.5v39v244h86v-700h-86v28v39q-20 -35 -62.5 -58.5t-94.5 -23.5q-64 0 -114 30zM386.5 104q41.5 52 41.5 138q0 85 -41 136.5t-107 51.5t-107 -52.5t-41 -136.5q0 -85 41 -137
t107 -52q65 0 106.5 52z" />
    <glyph glyph-name="e" unicode="e" horiz-adv-x="540" 
d="M106.5 52q-62.5 67 -62.5 191q0 73 29.5 131t82 91t117.5 33q106 0 164.5 -69t58.5 -187v-17h-366q1 -80 43 -126.5t106 -46.5q49 0 84 22.5t43 74.5h85q-8 -70 -62 -117t-151 -47q-109 0 -171.5 67zM404 286q0 66 -34.5 105t-96.5 39q-59 0 -97 -41t-43 -103h271z" />
    <glyph glyph-name="f" unicode="f" horiz-adv-x="314" 
d="M110 0v411h-91v71h91v89q0 68 40 106.5t98 38.5q29 0 49 -9v-73q-27 3 -31 3q-34 0 -52 -18.5t-18 -53.5v-83h100v-71h-100v-411h-86z" />
    <glyph glyph-name="g" unicode="g" horiz-adv-x="581" 
d="M122.5 -177.5q-57.5 49.5 -57.5 131.5h85q0 -52 34 -83t92 -31q70 0 107.5 38t37.5 116v59v32q-19 -37 -62 -58.5t-96 -21.5q-66 0 -115.5 30t-76.5 85.5t-27 129.5q0 73 29 129.5t79.5 87.5t113.5 31q55 0 94 -23.5t61 -57.5v39v26h86v-458q0 -251 -232 -251
q-95 0 -152.5 49.5zM386 121q41 49 41 129q0 52 -19 93t-52.5 64t-75.5 23q-65 0 -106 -50t-41 -130q0 -81 40.5 -129.5t106.5 -48.5q65 0 106 49z" />
    <glyph glyph-name="h" unicode="h" horiz-adv-x="554" 
d="M74 0v700h86v-242v-41q20 36 60 58.5t88 22.5q84 0 131 -51t47 -143v-304h-86v293q0 70 -26 103.5t-83 33.5q-60 0 -95.5 -40.5t-35.5 -99.5v-290h-86z" />
    <glyph glyph-name="i" unicode="i" horiz-adv-x="233" 
d="M67 573v103h99v-103h-99zM74 482h86v-482h-86v482z" />
    <glyph glyph-name="j" unicode="j" horiz-adv-x="241" 
d="M74 573v103h99v-103h-99zM167 482v-575q0 -53 -32 -93.5t-102 -40.5q-28 0 -48 5v77q12 -4 25 -4q34 0 52.5 19t18.5 63v549h86z" />
    <glyph glyph-name="k" unicode="k" horiz-adv-x="490" 
d="M498 0h-117l-180 219l-41 -40v-179h-86v700h86v-423q18 20 38 38l164 167h108l-210 -205z" />
    <glyph glyph-name="l" unicode="l" horiz-adv-x="233" 
d="M74 700h86v-700h-86v700z" />
    <glyph glyph-name="m" unicode="m" horiz-adv-x="840" 
d="M74 0v482h86v-38v-27q23 37 59.5 59t81.5 22q49 0 86.5 -24t58.5 -71q26 44 66.5 69.5t90.5 25.5q76 0 122.5 -49t46.5 -144v-305h-86v288q0 71 -23.5 106.5t-77.5 35.5q-55 0 -87 -41.5t-32 -101.5v-287h-86v285q0 71 -23.5 108t-75.5 37q-55 0 -88 -42.5t-33 -104.5
v-283h-86z" />
    <glyph glyph-name="n" unicode="n" horiz-adv-x="554" 
d="M74 0v482h86v-33v-32q20 33 60.5 57t87.5 24q84 0 131 -51t47 -143v-304h-86v293q0 70 -25 103.5t-81 33.5q-61 0 -97.5 -40.5t-36.5 -99.5v-290h-86z" />
    <glyph glyph-name="o" unicode="o" horiz-adv-x="560" 
d="M157 17q-54 32 -84 90.5t-30 134.5q0 74 30 132.5t84 91t123 32.5q68 0 122 -32.5t84.5 -91t30.5 -132.5q0 -76 -30.5 -134.5t-84.5 -90.5t-122 -32q-69 0 -123 32zM388 104q40 52 40 138q0 85 -40.5 136.5t-107.5 51.5t-107.5 -51.5t-40.5 -136.5q0 -86 40 -138t108 -52
t108 52z" />
    <glyph glyph-name="p" unicode="p" horiz-adv-x="583" 
d="M74 -211v693h86v-35v-31q22 34 65 58t94 24q68 0 118.5 -33t77 -91t26.5 -132q0 -76 -28 -134t-79 -90.5t-117 -32.5q-51 0 -92 22t-65 60v-40v-238h-86zM410.5 104.5q40.5 52.5 40.5 137.5q0 84 -40.5 136t-106.5 52t-107.5 -51.5t-41.5 -136.5t41.5 -137.5t107.5 -52.5
t106.5 52.5z" />
    <glyph glyph-name="q" unicode="q" horiz-adv-x="583" 
d="M424 26v41q-22 -39 -63 -60.5t-93 -21.5q-67 0 -118 30t-79 88t-28 138q0 73 27.5 131.5t78.5 92t119 33.5q54 0 96.5 -23.5t63.5 -57.5v42v23h82v-693h-86v237zM386.5 103.5q41.5 51.5 41.5 137.5t-40.5 137.5t-106.5 51.5q-67 0 -108 -52.5t-41 -136.5q0 -85 40.5 -137
t106.5 -52t107.5 51.5z" />
    <glyph glyph-name="r" unicode="r" horiz-adv-x="347" 
d="M74 0v482h86v-21v-59q19 43 58.5 69.5t92.5 26.5q14 0 22 -1v-85q-14 2 -27 2q-71 0 -108.5 -40t-37.5 -119v-255h-86z" />
    <glyph glyph-name="s" unicode="s" horiz-adv-x="483" 
d="M92.5 32.5q-54.5 47.5 -56.5 126.5h84q2 -50 34.5 -78.5t89.5 -28.5q50 0 80.5 21.5t30.5 57.5q0 58 -84 74l-73 14q-69 13 -108 48t-39 89q0 41 24 73t66.5 50.5t96.5 18.5q87 0 137 -40.5t55 -114.5h-85q-5 43 -34.5 65t-78.5 22q-43 0 -69 -19t-26 -50q0 -28 20 -44
t62 -24l75 -14q69 -13 107.5 -47t38.5 -92q0 -43 -24 -78.5t-68.5 -56t-104.5 -20.5q-96 0 -150.5 47.5z" />
    <glyph glyph-name="t" unicode="t" horiz-adv-x="330" 
d="M146.5 28.5q-38.5 33.5 -38.5 108.5v274h-90v71h90v159h86v-159h100v-71h-100v-265q0 -40 18.5 -57t52.5 -17q15 0 36 3v-74q-27 -6 -56 -6q-60 0 -98.5 33.5z" />
    <glyph glyph-name="u" unicode="u" horiz-adv-x="546" 
d="M112.5 34q-44.5 49 -44.5 141v307h86v-289q0 -71 26 -106t84 -35q59 0 91 43t32 121v266h85v-482h-84v29v38q-17 -38 -57 -60t-89 -22q-85 0 -129.5 49z" />
    <glyph glyph-name="v" unicode="v" horiz-adv-x="488" 
d="M199 0l-185 482h94l123 -349l8 -23l8 -24l8 24l8 23l120 349h90l-183 -482h-91z" />
    <glyph glyph-name="w" unicode="w" horiz-adv-x="783" 
d="M171 0l-157 482h93l105 -357q8 -24 10 -33q8 22 11 33l106 357h107l112 -357l9 -29l10 31l104 355h87l-155 -482h-100l-110 364l-11 35l-11 -35l-111 -364h-99z" />
    <glyph glyph-name="x" unicode="x" horiz-adv-x="490" 
d="M14 0l181 247l-171 235h105l94 -139l26 -37l24 36l96 140h100l-175 -235l182 -247h-104l-102 149q-12 20 -27 39q-18 -26 -26 -39l-103 -149h-100z" />
    <glyph glyph-name="y" unicode="y" horiz-adv-x="481" 
d="M119 -211l88 228l-193 465h95l120 -308l23 -59l21 59l106 308h90l-259 -693h-91z" />
    <glyph glyph-name="z" unicode="z" horiz-adv-x="461" 
d="M36 0v71l268 317l21 27h-279v67h373v-71l-265 -314q-16 -20 -25 -30h297v-67h-390z" />
    <glyph glyph-name="braceleft" unicode="{" horiz-adv-x="324" 
d="M275 -129q-82 0 -120 42t-38 127v130q0 47 -28.5 69.5t-72.5 22.5v78q44 0 72 22.5t28 69.5v129q0 86 38.5 127.5t120.5 41.5h19v-67h-15q-43 0 -61 -23.5t-18 -73.5v-153q0 -45 -25.5 -74.5t-69.5 -37.5q44 -8 70 -37.5t26 -74.5v-154q0 -52 18 -74.5t60 -22.5h15v-67
h-19z" />
    <glyph glyph-name="bar" unicode="|" horiz-adv-x="251" 
d="M166 -129h-81v859h81v-859z" />
    <glyph glyph-name="braceright" unicode="}" horiz-adv-x="324" 
d="M29 -129v67h16q43 0 61 23.5t18 73.5v153q0 45 25 74.5t70 37.5q-45 8 -70.5 37.5t-25.5 74.5v154q0 51 -18 74t-60 23h-16v67h19q83 0 121 -42t38 -127v-130q0 -47 28 -69.5t72 -22.5v-78q-44 0 -71.5 -22.5t-27.5 -69.5v-129q0 -87 -38.5 -128t-121.5 -41h-19z" />
    <glyph glyph-name="asciitilde" unicode="~" horiz-adv-x="599" 
d="M70 238q3 60 41.5 91t88.5 31q24 0 46.5 -6.5t63.5 -21.5q30 -12 49 -17.5t36 -5.5q24 0 40.5 13.5t21.5 36.5h74q-2 -57 -40.5 -89t-92.5 -32q-27 0 -52 7t-62 20q-27 10 -46 15.5t-36 5.5q-22 0 -38 -13.5t-19 -34.5h-75z" />
    <glyph glyph-name="uni00A0" unicode="&#xa0;" horiz-adv-x="237" 
 />
    <glyph glyph-name="exclamdown" unicode="&#xa1;" horiz-adv-x="236" 
d="M66 482h103v-109h-103v109zM97 294h41l27 -289v-223h-96v223z" />
    <glyph glyph-name="cent" unicode="&#xa2;" horiz-adv-x="609" 
d="M351 115q57 10 93 46.5t40 89.5h88q-9 -84 -68 -141t-153 -67v-100h-73v100q-115 11 -180 94.5t-65 216.5q0 83 31.5 148.5t87.5 106t126 49.5v100h73v-98q98 -9 156.5 -65t66.5 -145h-91q-2 55 -37.5 92t-94.5 45v-472zM165 192q41 -63 113 -77v471q-70 -13 -112 -75
t-42 -159t41 -160z" />
    <glyph glyph-name="sterling" unicode="&#xa3;" horiz-adv-x="651" 
d="M52 0v77h97v217h-111v72h111v126q0 69 28.5 119.5t79.5 77.5t118 27q102 0 161.5 -58.5t62.5 -154.5h-89q-1 62 -36.5 99.5t-100.5 37.5t-99.5 -41t-34.5 -115v-118h243v-72h-243v-217h364v-77h-551z" />
    <glyph glyph-name="currency" unicode="&#xa4;" horiz-adv-x="658" 
d="M525 194l80 -80l-51 -53l-80 80q-63 -46 -145 -46q-81 0 -145 46l-80 -80l-51 53l80 80q-46 67 -46 162t46 162l-80 80l51 54l80 -80q63 46 145 46t145 -46l80 80l51 -54l-79 -79q46 -67 46 -163q0 -94 -47 -162zM442.5 213q44.5 48 44.5 143t-45.5 143.5t-112.5 48.5
t-112.5 -48.5t-45.5 -143.5t44.5 -143t113.5 -48t113.5 48z" />
    <glyph glyph-name="yen" unicode="&#xa5;" horiz-adv-x="622" 
d="M588 700l-195 -328h159v-68h-199v-82h199v-67h-199v-155h-88v155h-196v67h196v82h-196v68h156l-191 328h100l127 -235l47 -86q33 54 51 87l131 234h98z" />
    <glyph glyph-name="brokenbar" unicode="&#xa6;" horiz-adv-x="251" 
d="M166 395h-81v335h81v-335zM166 -129h-81v335h81v-335z" />
    <glyph glyph-name="section" unicode="&#xa7;" horiz-adv-x="540" 
d="M445 80.5q24 -30.5 24 -68.5q0 -71 -57 -111t-147 -40t-143.5 42.5t-64.5 118.5h92q4 -45 34.5 -67t81.5 -22q54 0 83.5 18t29.5 47q0 26 -21 46.5t-61 41.5l-129 67q-60 32 -90.5 65t-30.5 80t31.5 82.5t84.5 58.5q-41 26 -65 58.5t-24 74.5q0 64 53 104t140 40
q86 0 137 -41t57 -114h-91q-9 83 -108 83q-48 0 -72.5 -18t-24.5 -47q0 -26 21 -46.5t61 -41.5l134 -67q59 -31 89.5 -64t30.5 -81t-32.5 -83.5t-87.5 -58.5q41 -26 65 -56.5zM154.5 265.5q16.5 -18.5 55.5 -38.5l115 -59q38 16 61 41t23 55q0 29 -17 48t-55 38l-118 58
q-37 -16 -59 -40.5t-22 -54.5q0 -29 16.5 -47.5z" />
    <glyph glyph-name="dieresis" unicode="&#xa8;" horiz-adv-x="396" 
d="M147 573h-100v103h100v-103zM348 573h-99v103h99v-103z" />
    <glyph glyph-name="copyright" unicode="&#xa9;" horiz-adv-x="822" 
d="M228.5 34q-83.5 49 -133 132.5t-49.5 184.5q0 100 49.5 183.5t133 132.5t182.5 49t183 -49t133 -132.5t49 -183.5q0 -101 -49 -185t-133 -132.5t-183 -48.5t-182.5 49zM561.5 88q68.5 40 108 109.5t39.5 153.5t-39.5 153t-108 109t-150.5 40t-150.5 -40t-108 -109
t-39.5 -153t39.5 -153.5t108 -109.5t150.5 -40t150.5 40zM280.5 202.5q-51.5 52.5 -51.5 148.5q0 57 25 103t68 71.5t96 25.5q69 0 114.5 -38t50.5 -102h-65q-6 38 -32.5 62t-67.5 24q-53 0 -86 -42t-33 -104q0 -67 31.5 -106.5t85.5 -39.5q42 0 71 23t34 63h65
q-3 -63 -50 -102t-122 -39q-82 0 -133.5 52.5z" />
    <glyph glyph-name="ordfeminine" unicode="&#xaa;" horiz-adv-x="399" 
d="M82 385.5q-34 28.5 -34 74.5q0 48 34.5 73.5t91.5 32.5l48 6q22 3 30 10t8 22q0 20 -15.5 34.5t-43.5 14.5q-32 0 -49.5 -17t-19.5 -44h-75q4 53 40.5 85t98.5 32q139 0 139 -147v-193h-72v12v32q-27 -56 -101 -56q-46 0 -80 28.5zM238.5 436q23.5 22 23.5 56v45
q-13 -10 -35 -13l-47 -7q-59 -10 -59 -53q0 -24 17 -37t42 -13q35 0 58.5 22z" />
    <glyph glyph-name="guillemotleft" unicode="&#xab;" horiz-adv-x="459" 
d="M234 39l-187 183v66l187 182v-106l-72 -67l-44 -42l44 -42l72 -68v-106zM428 39l-186 183v66l186 182v-106l-72 -67l-44 -42l44 -42l72 -68v-106z" />
    <glyph glyph-name="logicalnot" unicode="&#xac;" horiz-adv-x="613" 
d="M541 101h-72v163h-402v71h474v-234z" />
    <glyph glyph-name="uni00AD" unicode="&#xad;" horiz-adv-x="387" 
d="M324 232h-260v73h260v-73z" />
    <glyph glyph-name="registered" unicode="&#xae;" horiz-adv-x="647" 
d="M187 204q-63 37 -100 100t-37 137q0 75 37 138t100 100t137 37t136.5 -37t99.5 -100t37 -138q0 -74 -37 -137t-99.5 -100t-136.5 -37t-137 37zM435.5 247.5q50.5 29.5 80 80.5t29.5 113t-29.5 113t-80 80.5t-111.5 29.5t-112 -29.5t-80.5 -80.5t-29.5 -113t29.5 -113
t80.5 -80.5t112 -29.5t111.5 29.5zM222 295v294h125q43 0 69 -22.5t26 -59.5q0 -24 -12 -43t-32 -28q38 -16 38 -64v-77h-50v67q0 28 -11.5 39.5t-40.5 11.5h-63v-118h-49zM341 458q25 0 38.5 11t13.5 32q0 41 -52 41h-70v-84h70z" />
    <glyph glyph-name="macron" unicode="&#xaf;" horiz-adv-x="344" 
d="M324 586h-277v74h277v-74z" />
    <glyph glyph-name="degree" unicode="&#xb0;" horiz-adv-x="357" 
d="M105 441q-33 19 -52 51.5t-19 71.5t19 71.5t52 51.5t73 19t73.5 -19t53 -51.5t19.5 -71.5t-19.5 -71.5t-53 -51.5t-73.5 -19t-73 19zM232 509q21 22 21 55q0 34 -21 55.5t-54 21.5q-32 0 -53 -21.5t-21 -55.5q0 -33 21 -55t53 -22q33 0 54 22z" />
    <glyph glyph-name="plusminus" unicode="&#xb1;" horiz-adv-x="613" 
d="M344 543v-141h199v-71h-199v-140h-72v140h-203v71h203v141h72zM542 54h-474v71h474v-71z" />
    <glyph glyph-name="uni00B2" unicode="&#xb2;" horiz-adv-x="411" 
d="M39 341q1 58 28 100.5t83 81.5l49 34q42 28 64 53t22 60q0 36 -21 58t-57 22q-40 0 -62.5 -24t-23.5 -69h-81q0 70 46 112.5t123 42.5q68 0 112.5 -39.5t44.5 -100.5q0 -51 -30.5 -91t-91.5 -79l-54 -37q-24 -16 -36 -29t-13 -26h229v-69h-331z" />
    <glyph glyph-name="uni00B3" unicode="&#xb3;" horiz-adv-x="422" 
d="M86 372.5q-46 41.5 -47 111.5h80q1 -42 25 -66.5t66 -24.5q41 0 65 21.5t24 56.5t-24.5 57t-64.5 22h-34v62h34q37 0 58 19t21 53q0 31 -20.5 49t-56.5 18q-39 0 -61 -21.5t-24 -60.5h-83q3 66 48.5 104.5t120.5 38.5q69 0 113 -35.5t44 -90.5q0 -35 -22 -62t-61 -41
q43 -14 68 -45t25 -73q0 -59 -47.5 -96.5t-122.5 -37.5q-78 0 -124 41.5z" />
    <glyph glyph-name="acute" unicode="&#xb4;" horiz-adv-x="273" 
d="M114 567h-72l71 129h107z" />
    <glyph glyph-name="mu" unicode="&#xb5;" horiz-adv-x="570" 
d="M83 -211v694h86v-290q0 -71 26 -106t84 -35t90 43t32 121v266h86v-482h-84v29v38q-18 -38 -57.5 -60t-88.5 -22q-55 0 -88 24v-24v-196h-86z" />
    <glyph glyph-name="paragraph" unicode="&#xb6;" horiz-adv-x="564" 
d="M227 339q-90 0 -143.5 48.5t-53.5 130.5t55.5 132t150.5 50h231v-829h-74v763h-92v-763h-74v468z" />
    <glyph glyph-name="periodcentered" unicode="&#xb7;" horiz-adv-x="242" 
d="M178 257h-114v116h114v-116z" />
    <glyph glyph-name="cedilla" unicode="&#xb8;" horiz-adv-x="302" 
d="M90.5 -200.5q-27.5 12.5 -43.5 30.5l34 41q31 -31 66 -31q18 0 30.5 8t12.5 23q0 12 -11 20.5t-30 8.5q-14 0 -26 -5l-30 36l59 92l53 -19l-39 -59q39 0 63.5 -20.5t24.5 -53.5q0 -35 -26.5 -59.5t-78.5 -24.5q-31 0 -58.5 12.5z" />
    <glyph glyph-name="uni00B9" unicode="&#xb9;" horiz-adv-x="292" 
d="M147 661v27q-19 -24 -50 -39t-71 -16v67q48 4 84.5 32.5t47.5 69.5h70v-461h-81v320z" />
    <glyph glyph-name="ordmasculine" unicode="&#xba;" horiz-adv-x="414" 
d="M119 380.5q-37 23.5 -56.5 64t-19.5 88.5q0 76 44 126t120 50t120 -50t44 -126q0 -48 -19.5 -88.5t-56.5 -64t-88 -23.5t-88 23.5zM272.5 446q22.5 32 22.5 87t-22.5 87.5t-65.5 32.5t-65.5 -32.5t-22.5 -87.5t22.5 -87t65.5 -32t65.5 32z" />
    <glyph glyph-name="guillemotright" unicode="&#xbb;" horiz-adv-x="459" 
d="M60 471l186 -183v-66l-186 -182v106l72 67l44 42l-44 42l-72 68v106zM254 471l187 -183v-66l-187 -182v106l72 67l44 42l-44 42l-72 68v106z" />
    <glyph glyph-name="onequarter" unicode="&#xbc;" horiz-adv-x="845" 
d="M739 0h-73v104h-194v59l176 256h91v-257h76v-58h-76v-104zM666 162v181l-12 -18l-97 -141l-15 -22h124zM139 572v24q-17 -21 -45.5 -35t-64.5 -15v61q44 4 77 29.5t43 63.5h63v-419h-73v291zM197 0h-86l510 700h85z" />
    <glyph glyph-name="onehalf" unicode="&#xbd;" horiz-adv-x="890" 
d="M139 572v24q-17 -21 -45.5 -35t-64.5 -15v61q44 4 77 29.5t43 63.5h63v-419h-73v291zM197 0h-86l510 700h85zM549 0q1 53 25.5 91.5t75.5 73.5l45 31q38 26 58 49t20 54q0 33 -19 53t-52 20q-36 0 -56.5 -22t-21.5 -63h-74q0 64 42 102.5t112 38.5q62 0 102.5 -36
t40.5 -91q0 -47 -27.5 -83t-83.5 -72l-49 -33q-42 -28 -45 -50h208v-63h-301z" />
    <glyph glyph-name="threequarters" unicode="&#xbe;" horiz-adv-x="929" 
d="M80 309.5q-42 37.5 -43 101.5h73q1 -38 23 -60.5t60 -22.5q37 0 59 19.5t22 51.5t-22 52t-59 20h-31v56h31q33 0 52.5 17.5t19.5 48.5q0 28 -19 44.5t-51 16.5q-36 0 -56 -20t-22 -55h-75q3 60 44 95t110 35q62 0 102 -32t40 -82q0 -32 -20 -57t-55 -37q39 -13 61.5 -41
t22.5 -66q0 -53 -43 -87.5t-111 -34.5q-71 0 -113 37.5zM281 0h-86l510 700h85zM823 0h-73v104h-194v59l176 256h91v-257h76v-58h-76v-104zM750 162v181l-12 -18l-97 -141l-15 -22h124z" />
    <glyph glyph-name="questiondown" unicode="&#xbf;" horiz-adv-x="505" 
d="M215 482h103v-109h-103v109zM311 294q0 -71 -19.5 -116t-78.5 -93l-25 -21q-66 -52 -66 -116q0 -48 33 -79t90 -31q66 0 104 42.5t38 115.5h89q0 -71 -29.5 -123t-82 -79.5t-119.5 -27.5q-61 0 -110 24t-76.5 64.5t-27.5 87.5q0 57 27.5 100t79.5 85l27 22q32 26 45.5 59
t13.5 86h87z" />
    <glyph glyph-name="Agrave" unicode="&#xc0;" horiz-adv-x="681" 
d="M319 914l70 -129h-72l-106 129h108zM676 0h-101l-80 208h-314l-80 -208h-96l280 700h110zM210 284h256l-108 280q-7 18 -8 23l-12 30l-20 -53z" />
    <glyph glyph-name="Aacute" unicode="&#xc1;" horiz-adv-x="681" 
d="M372 914h107l-106 -129h-72zM676 0h-101l-80 208h-314l-80 -208h-96l280 700h110zM210 284h256l-108 280q-7 18 -8 23l-12 30l-20 -53z" />
    <glyph glyph-name="Acircumflex" unicode="&#xc2;" horiz-adv-x="681" 
d="M279 791h-84l93 123h105l93 -123h-85l-30 37q-15 19 -31 37q-18 -20 -32 -38zM676 0h-101l-80 208h-314l-80 -208h-96l280 700h110zM210 284h256l-108 280q-7 18 -8 23l-12 30l-20 -53z" />
    <glyph glyph-name="Atilde" unicode="&#xc3;" horiz-adv-x="681" 
d="M252 801h-68q0 53 26 79.5t68 26.5q18 0 32 -5.5t36 -17.5q15 -9 26.5 -14t24.5 -5q31 0 32 38h67q0 -52 -24.5 -77.5t-65.5 -25.5q-19 0 -34.5 5.5t-34.5 16.5q-20 10 -30 14t-22 4q-32 0 -33 -39zM676 0h-101l-80 208h-314l-80 -208h-96l280 700h110zM210 284h256
l-108 280q-7 18 -8 23l-12 30l-20 -53z" />
    <glyph glyph-name="Adieresis" unicode="&#xc4;" horiz-adv-x="681" 
d="M189 894h100v-103h-100v103zM391 894h99v-103h-99v103zM676 0h-101l-80 208h-314l-80 -208h-96l280 700h110zM210 284h256l-108 280q-7 18 -8 23l-12 30l-20 -53z" />
    <glyph glyph-name="Aring" unicode="&#xc5;" horiz-adv-x="681" 
d="M277.5 780.5q-25.5 24.5 -25.5 62.5t25.5 63.5t62.5 25.5q36 0 62 -25.5t26 -63.5t-26 -62.5t-62 -24.5q-37 0 -62.5 24.5zM314 872.5q-10 -10.5 -10 -29.5q0 -18 10 -28.5t26 -10.5q17 0 26.5 10t9.5 29t-10 29.5t-26 10.5t-26 -10.5zM676 0h-101l-80 208h-314l-80 -208
h-96l280 700h110zM210 284h256l-108 280q-7 18 -8 23l-12 30l-20 -53z" />
    <glyph glyph-name="AE" unicode="&#xc6;" horiz-adv-x="908" 
d="M480 327v-250h376v-77h-467v208h-200l-101 -208h-101l355 700h502v-76h-364v-220h348v-77h-348zM226 284h163v335q-19 -37 -26 -55z" />
    <glyph glyph-name="Ccedilla" unicode="&#xc7;" horiz-adv-x="722" 
d="M684 226q-13 -105 -86 -168.5t-187 -71.5l-27 -41q39 0 63.5 -20.5t24.5 -53.5q0 -35 -26.5 -59.5t-78.5 -24.5q-31 0 -58.5 12.5t-43.5 30.5l34 41q31 -31 66 -31q18 0 30.5 8t12.5 23q0 12 -11 20.5t-30 8.5q-14 0 -26 -5l-30 36l36 56q-90 8 -157.5 54.5t-104.5 126.5
t-37 186q0 107 43.5 189.5t120.5 127.5t173 45q83 0 148 -31.5t104 -86.5t46 -124h-100q-14 78 -66 121.5t-136 43.5q-71 0 -124.5 -34.5t-83 -99t-29.5 -151.5q0 -88 30 -154.5t84 -102.5t123 -36q85 0 139 44.5t69 120.5h95z" />
    <glyph glyph-name="Egrave" unicode="&#xc8;" horiz-adv-x="609" 
d="M374 785h-72l-106 129h108zM557 0h-467v700h455v-76h-364v-229h348v-77h-348v-241h376v-77z" />
    <glyph glyph-name="Eacute" unicode="&#xc9;" horiz-adv-x="609" 
d="M358 785h-72l71 129h107zM557 0h-467v700h455v-76h-364v-229h348v-77h-348v-241h376v-77z" />
    <glyph glyph-name="Ecircumflex" unicode="&#xca;" horiz-adv-x="609" 
d="M180 791l93 123h105l93 -123h-85l-30 37q-15 19 -31 37q-18 -20 -32 -38l-29 -36h-84zM557 0h-467v700h455v-76h-364v-229h348v-77h-348v-241h376v-77z" />
    <glyph glyph-name="Edieresis" unicode="&#xcb;" horiz-adv-x="609" 
d="M274 791h-100v103h100v-103zM475 791h-99v103h99v-103zM557 0h-467v700h455v-76h-364v-229h348v-77h-348v-241h376v-77z" />
    <glyph glyph-name="Igrave" unicode="&#xcc;" horiz-adv-x="272" 
d="M115 914l70 -129h-72l-106 129h108zM90 700h91v-700h-91v700z" />
    <glyph glyph-name="Iacute" unicode="&#xcd;" horiz-adv-x="272" 
d="M168 914h107l-106 -129h-72zM90 700h91v-700h-91v700z" />
    <glyph glyph-name="Icircumflex" unicode="&#xce;" horiz-adv-x="272" 
d="M189 914l93 -123h-85l-30 37q-15 19 -31 37q-18 -20 -32 -38l-29 -36h-84l93 123h105zM90 700h91v-700h-91v700z" />
    <glyph glyph-name="Idieresis" unicode="&#xcf;" horiz-adv-x="272" 
d="M85 791h-100v103h100v-103zM187 791v103h99v-103h-99zM90 700h91v-700h-91v700z" />
    <glyph glyph-name="Eth" unicode="&#xd0;" horiz-adv-x="733" 
d="M306 700q178 0 277 -84.5t99 -264.5q0 -163 -91.5 -257t-262.5 -94h-232v317h-73v73h73v310h210zM317 77q131 0 200.5 66t69.5 208q0 134 -67 203.5t-207 69.5h-126v-234h96v-73h-96v-240h130z" />
    <glyph glyph-name="Ntilde" unicode="&#xd1;" horiz-adv-x="764" 
d="M428 805.5q-15 5.5 -35 16.5q-20 10 -30 14t-22 4q-32 0 -33 -39h-68q0 53 26 79.5t68 26.5q18 0 32 -5.5t36 -17.5q15 -9 26.5 -14t24.5 -5q31 0 32 38h67q0 -52 -24.5 -77.5t-65.5 -25.5q-19 0 -34 5.5zM181 0h-91v700h137l355 -597v88v509h92v-700h-127l-366 612v-85
v-527z" />
    <glyph glyph-name="Ograve" unicode="&#xd2;" horiz-adv-x="758" 
d="M428 785h-72l-106 129h108zM209.5 30.5q-75.5 45.5 -119 128.5t-43.5 191t43.5 191t119 129t169.5 46q95 0 170.5 -46t118.5 -129t43 -191t-43.5 -191t-119 -128.5t-169.5 -45.5t-169.5 45.5zM503 96q53 35 82.5 100.5t29.5 153.5t-29.5 153.5t-83 100.5t-123.5 35
q-69 0 -122.5 -35t-83.5 -100.5t-30 -153.5t29.5 -153.5t82.5 -100.5t124 -35t124 35z" />
    <glyph glyph-name="Oacute" unicode="&#xd3;" horiz-adv-x="758" 
d="M412 785h-72l71 129h107zM209.5 30.5q-75.5 45.5 -119 128.5t-43.5 191t43.5 191t119 129t169.5 46q95 0 170.5 -46t118.5 -129t43 -191t-43.5 -191t-119 -128.5t-169.5 -45.5t-169.5 45.5zM503 96q53 35 82.5 100.5t29.5 153.5t-29.5 153.5t-83 100.5t-123.5 35
q-69 0 -122.5 -35t-83.5 -100.5t-30 -153.5t29.5 -153.5t82.5 -100.5t124 -35t124 35z" />
    <glyph glyph-name="Ocircumflex" unicode="&#xd4;" horiz-adv-x="758" 
d="M234 791l93 123h105l93 -123h-85l-30 37q-15 19 -31 37q-18 -20 -32 -38l-29 -36h-84zM209.5 30.5q-75.5 45.5 -119 128.5t-43.5 191t43.5 191t119 129t169.5 46q95 0 170.5 -46t118.5 -129t43 -191t-43.5 -191t-119 -128.5t-169.5 -45.5t-169.5 45.5zM503 96
q53 35 82.5 100.5t29.5 153.5t-29.5 153.5t-83 100.5t-123.5 35q-69 0 -122.5 -35t-83.5 -100.5t-30 -153.5t29.5 -153.5t82.5 -100.5t124 -35t124 35z" />
    <glyph glyph-name="Otilde" unicode="&#xd5;" horiz-adv-x="758" 
d="M410.5 805.5q-15.5 5.5 -34.5 16.5q-20 10 -30 14t-22 4q-32 0 -33 -39h-68q0 53 26 79.5t68 26.5q18 0 32 -5.5t36 -17.5q15 -9 26.5 -14t24.5 -5q31 0 32 38h67q0 -52 -24.5 -77.5t-65.5 -25.5q-19 0 -34.5 5.5zM209.5 30.5q-75.5 45.5 -119 128.5t-43.5 191t43.5 191
t119 129t169.5 46q95 0 170.5 -46t118.5 -129t43 -191t-43.5 -191t-119 -128.5t-169.5 -45.5t-169.5 45.5zM503 96q53 35 82.5 100.5t29.5 153.5t-29.5 153.5t-83 100.5t-123.5 35q-69 0 -122.5 -35t-83.5 -100.5t-30 -153.5t29.5 -153.5t82.5 -100.5t124 -35t124 35z" />
    <glyph glyph-name="Odieresis" unicode="&#xd6;" horiz-adv-x="758" 
d="M328 791h-100v103h100v-103zM529 791h-99v103h99v-103zM209.5 30.5q-75.5 45.5 -119 128.5t-43.5 191t43.5 191t119 129t169.5 46q95 0 170.5 -46t118.5 -129t43 -191t-43.5 -191t-119 -128.5t-169.5 -45.5t-169.5 45.5zM503 96q53 35 82.5 100.5t29.5 153.5t-29.5 153.5
t-83 100.5t-123.5 35q-69 0 -122.5 -35t-83.5 -100.5t-30 -153.5t29.5 -153.5t82.5 -100.5t124 -35t124 35z" />
    <glyph glyph-name="multiply" unicode="&#xd7;" horiz-adv-x="541" 
d="M271 250l-173 -173l-52 52l174 172l-174 172l53 52l172 -172l171 172l53 -52l-172 -172l172 -172l-52 -52z" />
    <glyph glyph-name="Oslash" unicode="&#xd8;" horiz-adv-x="758" 
d="M627 604q40 -49 62 -113.5t22 -140.5q0 -108 -43.5 -191t-119 -128.5t-169.5 -45.5q-105 0 -187 57l-60 -77l-64 46l65 84q-41 48 -63.5 113t-22.5 142q0 108 43.5 191t119 129t169.5 46q108 0 190 -59l61 79l62 -48zM188 166l330 426q-56 47 -139 47q-69 0 -122.5 -35
t-83.5 -100.5t-30 -153.5q0 -110 45 -184zM503 96q53 35 82.5 100.5t29.5 153.5q0 107 -44 182l-330 -426q59 -45 138 -45q71 0 124 35z" />
    <glyph glyph-name="Ugrave" unicode="&#xd9;" horiz-adv-x="693" 
d="M395 785h-72l-106 129h108zM152 57.5q-69 72.5 -69 215.5v427h91v-415q0 -114 43 -169t129 -55t129.5 54.5t43.5 169.5v415h91v-427q0 -143 -69 -215.5t-195 -72.5q-125 0 -194 72.5z" />
    <glyph glyph-name="Uacute" unicode="&#xda;" horiz-adv-x="693" 
d="M379 785h-72l71 129h107zM152 57.5q-69 72.5 -69 215.5v427h91v-415q0 -114 43 -169t129 -55t129.5 54.5t43.5 169.5v415h91v-427q0 -143 -69 -215.5t-195 -72.5q-125 0 -194 72.5z" />
    <glyph glyph-name="Ucircumflex" unicode="&#xdb;" horiz-adv-x="693" 
d="M201 791l93 123h105l93 -123h-85l-30 37q-14 19 -31 37q-18 -20 -32 -38l-29 -36h-84zM152 57.5q-69 72.5 -69 215.5v427h91v-415q0 -114 43 -169t129 -55t129.5 54.5t43.5 169.5v415h91v-427q0 -143 -69 -215.5t-195 -72.5q-125 0 -194 72.5z" />
    <glyph glyph-name="Udieresis" unicode="&#xdc;" horiz-adv-x="693" 
d="M295 791h-100v103h100v-103zM496 791h-99v103h99v-103zM152 57.5q-69 72.5 -69 215.5v427h91v-415q0 -114 43 -169t129 -55t129.5 54.5t43.5 169.5v415h91v-427q0 -143 -69 -215.5t-195 -72.5q-125 0 -194 72.5z" />
    <glyph glyph-name="Yacute" unicode="&#xdd;" horiz-adv-x="591" 
d="M331 785h-72l71 129h107zM249 0v302l-241 398h102l136 -235l29 -51q16 -29 19 -34q13 21 51 85l139 235h99l-243 -398v-302h-91z" />
    <glyph glyph-name="Thorn" unicode="&#xde;" horiz-adv-x="644" 
d="M90 0v700h91v-138h183q104 0 171.5 -45.5t67.5 -150.5q0 -108 -66.5 -154t-175.5 -46h-180v-166h-91zM363 242q147 0 147 124q0 120 -147 120h-182v-244h182z" />
    <glyph glyph-name="germandbls" unicode="&#xdf;" horiz-adv-x="589" 
d="M271.5 -13q-21.5 2 -29.5 5v78q11 -3 29 -5t33 -2q71 0 111.5 31.5t40.5 94.5q0 65 -45 101t-110 36h-46v68h47q62 0 104 34t42 93t-36 93t-98 34q-72 0 -113 -44.5t-41 -117.5v-486h-86v490q0 64 29 115.5t83 81t127 29.5q62 0 113 -22t81 -64t30 -99q0 -60 -37 -105.5
t-100 -63.5q69 -19 107 -63.5t38 -111.5q0 -95 -63.5 -148.5t-170.5 -53.5q-18 0 -39.5 2z" />
    <glyph glyph-name="agrave" unicode="&#xe0;" horiz-adv-x="509" 
d="M305 567h-72l-106 129h108zM92.5 25q-47.5 40 -47.5 107q0 65 44.5 101.5t115.5 48.5l103 16q27 4 38 15t11 33q0 39 -27 61.5t-70 22.5q-54 0 -83 -26.5t-31 -72.5h-86q2 45 25 83t66.5 61t101.5 23q89 0 138.5 -49t49.5 -133v-316h-82v24v41q-18 -38 -56.5 -59
t-91.5 -21q-71 0 -118.5 40zM319 88q38 36 38 94v71q-8 -12 -53 -21l-70 -13q-100 -19 -100 -87q0 -36 25.5 -58t63.5 -22q58 0 96 36z" />
    <glyph glyph-name="aacute" unicode="&#xe1;" horiz-adv-x="509" 
d="M289 567h-72l71 129h107zM92.5 25q-47.5 40 -47.5 107q0 65 44.5 101.5t115.5 48.5l103 16q27 4 38 15t11 33q0 39 -27 61.5t-70 22.5q-54 0 -83 -26.5t-31 -72.5h-86q2 45 25 83t66.5 61t101.5 23q89 0 138.5 -49t49.5 -133v-316h-82v24v41q-18 -38 -56.5 -59t-91.5 -21
q-71 0 -118.5 40zM319 88q38 36 38 94v71q-8 -12 -53 -21l-70 -13q-100 -19 -100 -87q0 -36 25.5 -58t63.5 -22q58 0 96 36z" />
    <glyph glyph-name="acircumflex" unicode="&#xe2;" horiz-adv-x="509" 
d="M111 573l93 123h105l93 -123h-85l-30 37q-14 19 -31 37q-18 -20 -32 -38l-29 -36h-84zM92.5 25q-47.5 40 -47.5 107q0 65 44.5 101.5t115.5 48.5l103 16q27 4 38 15t11 33q0 39 -27 61.5t-70 22.5q-54 0 -83 -26.5t-31 -72.5h-86q2 45 25 83t66.5 61t101.5 23
q89 0 138.5 -49t49.5 -133v-316h-82v24v41q-18 -38 -56.5 -59t-91.5 -21q-71 0 -118.5 40zM319 88q38 36 38 94v71q-8 -12 -53 -21l-70 -13q-100 -19 -100 -87q0 -36 25.5 -58t63.5 -22q58 0 96 36z" />
    <glyph glyph-name="atilde" unicode="&#xe3;" horiz-adv-x="509" 
d="M288 587.5q-15 5.5 -35 16.5q-20 10 -30 14t-22 4q-32 0 -33 -39h-68q0 53 26 79.5t68 26.5q18 0 32 -5.5t36 -17.5q15 -9 26.5 -14t24.5 -5q31 0 32 38h67q0 -52 -24.5 -77.5t-65.5 -25.5q-19 0 -34 5.5zM92.5 25q-47.5 40 -47.5 107q0 65 44.5 101.5t115.5 48.5l103 16
q27 4 38 15t11 33q0 39 -27 61.5t-70 22.5q-54 0 -83 -26.5t-31 -72.5h-86q2 45 25 83t66.5 61t101.5 23q89 0 138.5 -49t49.5 -133v-316h-82v24v41q-18 -38 -56.5 -59t-91.5 -21q-71 0 -118.5 40zM319 88q38 36 38 94v71q-8 -12 -53 -21l-70 -13q-100 -19 -100 -87
q0 -36 25.5 -58t63.5 -22q58 0 96 36z" />
    <glyph glyph-name="adieresis" unicode="&#xe4;" horiz-adv-x="509" 
d="M205 573h-100v103h100v-103zM406 573h-99v103h99v-103zM92.5 25q-47.5 40 -47.5 107q0 65 44.5 101.5t115.5 48.5l103 16q27 4 38 15t11 33q0 39 -27 61.5t-70 22.5q-54 0 -83 -26.5t-31 -72.5h-86q2 45 25 83t66.5 61t101.5 23q89 0 138.5 -49t49.5 -133v-316h-82v24v41
q-18 -38 -56.5 -59t-91.5 -21q-71 0 -118.5 40zM319 88q38 36 38 94v71q-8 -12 -53 -21l-70 -13q-100 -19 -100 -87q0 -36 25.5 -58t63.5 -22q58 0 96 36z" />
    <glyph glyph-name="aring" unicode="&#xe5;" horiz-adv-x="509" 
d="M193.5 562.5q-25.5 24.5 -25.5 62.5t25.5 63.5t62.5 25.5q36 0 62 -25.5t26 -63.5t-26 -62.5t-62 -24.5q-37 0 -62.5 24.5zM282.5 596q9.5 10 9.5 29t-10 29.5t-26 10.5t-26 -10.5t-10 -29.5q0 -18 10 -28.5t26 -10.5q17 0 26.5 10zM92.5 25q-47.5 40 -47.5 107
q0 65 44.5 101.5t115.5 48.5l103 16q27 4 38 15t11 33q0 39 -27 61.5t-70 22.5q-54 0 -83 -26.5t-31 -72.5h-86q2 45 25 83t66.5 61t101.5 23q89 0 138.5 -49t49.5 -133v-316h-82v24v41q-18 -38 -56.5 -59t-91.5 -21q-71 0 -118.5 40zM319 88q38 36 38 94v71q-8 -12 -53 -21
l-70 -13q-100 -19 -100 -87q0 -36 25.5 -58t63.5 -22q58 0 96 36z" />
    <glyph glyph-name="ae" unicode="&#xe6;" horiz-adv-x="856" 
d="M91.5 26.5q-46.5 41.5 -46.5 107.5q0 65 45.5 101t116.5 47l101 15q28 4 40 15.5t12 32.5q0 39 -29 62t-73 23q-53 0 -81.5 -26.5t-30.5 -72.5h-86q2 45 25.5 83t66.5 61t101 23q56 0 97.5 -22t65.5 -62q31 40 76 62t97 22q106 0 164.5 -69t58.5 -187v-17h-365
q1 -80 41.5 -126.5t104.5 -46.5q50 0 85.5 22.5t43.5 74.5h86q-8 -70 -62 -117t-151 -47q-70 0 -121 26.5t-80 78.5q-23 -50 -71.5 -77.5t-111.5 -27.5q-73 0 -119.5 41.5zM720 286q0 66 -34 105t-96 39q-59 0 -97.5 -41t-43.5 -103h271zM320.5 89q39.5 37 39.5 95v69
q-5 -7 -17.5 -11.5t-33.5 -8.5l-73 -14q-46 -9 -74 -30t-28 -55q0 -38 24.5 -60t63.5 -22q59 0 98.5 37z" />
    <glyph glyph-name="ccedilla" unicode="&#xe7;" horiz-adv-x="535" 
d="M499 162q-6 -75 -56.5 -122.5t-136.5 -53.5l-27 -41q39 0 63.5 -20.5t24.5 -53.5q0 -35 -26.5 -59.5t-78.5 -24.5q-31 0 -58.5 12.5t-43.5 30.5l34 41q31 -31 66 -31q18 0 30.5 8t12.5 23q0 12 -11 20.5t-30 8.5q-14 0 -26 -5l-30 36l36 57q-88 13 -143.5 78.5
t-55.5 175.5q0 75 32 133t87.5 90.5t123.5 32.5q86 0 144.5 -48.5t65.5 -129.5h-89q-6 49 -38.5 79.5t-84.5 30.5q-45 0 -79.5 -24.5t-53.5 -67.5t-19 -96q0 -86 42 -138t112 -52q53 0 87 29t41 81h85z" />
    <glyph glyph-name="egrave" unicode="&#xe8;" horiz-adv-x="540" 
d="M324 567h-72l-106 129h108zM106.5 52q-62.5 67 -62.5 191q0 73 29.5 131t82 91t117.5 33q106 0 164.5 -69t58.5 -187v-17h-366q1 -80 43 -126.5t106 -46.5q49 0 84 22.5t43 74.5h85q-8 -70 -62 -117t-151 -47q-109 0 -171.5 67zM404 286q0 66 -34.5 105t-96.5 39
q-59 0 -97 -41t-43 -103h271z" />
    <glyph glyph-name="eacute" unicode="&#xe9;" horiz-adv-x="540" 
d="M308 567h-72l71 129h107zM106.5 52q-62.5 67 -62.5 191q0 73 29.5 131t82 91t117.5 33q106 0 164.5 -69t58.5 -187v-17h-366q1 -80 43 -126.5t106 -46.5q49 0 84 22.5t43 74.5h85q-8 -70 -62 -117t-151 -47q-109 0 -171.5 67zM404 286q0 66 -34.5 105t-96.5 39
q-59 0 -97 -41t-43 -103h271z" />
    <glyph glyph-name="ecircumflex" unicode="&#xea;" horiz-adv-x="540" 
d="M130 573l93 123h105l93 -123h-85l-30 37q-15 19 -31 37q-18 -20 -32 -38l-29 -36h-84zM106.5 52q-62.5 67 -62.5 191q0 73 29.5 131t82 91t117.5 33q106 0 164.5 -69t58.5 -187v-17h-366q1 -80 43 -126.5t106 -46.5q49 0 84 22.5t43 74.5h85q-8 -70 -62 -117t-151 -47
q-109 0 -171.5 67zM404 286q0 66 -34.5 105t-96.5 39q-59 0 -97 -41t-43 -103h271z" />
    <glyph glyph-name="edieresis" unicode="&#xeb;" horiz-adv-x="540" 
d="M224 573h-100v103h100v-103zM425 573h-99v103h99v-103zM106.5 52q-62.5 67 -62.5 191q0 73 29.5 131t82 91t117.5 33q106 0 164.5 -69t58.5 -187v-17h-366q1 -80 43 -126.5t106 -46.5q49 0 84 22.5t43 74.5h85q-8 -70 -62 -117t-151 -47q-109 0 -171.5 67zM404 286
q0 66 -34.5 105t-96.5 39q-59 0 -97 -41t-43 -103h271z" />
    <glyph glyph-name="igrave" unicode="&#xec;" horiz-adv-x="233" 
d="M96 696l70 -129h-72l-106 129h108zM74 482h86v-482h-86v482z" />
    <glyph glyph-name="iacute" unicode="&#xed;" horiz-adv-x="233" 
d="M149 696h107l-106 -129h-72zM74 482h86v-482h-86v482z" />
    <glyph glyph-name="icircumflex" unicode="&#xee;" horiz-adv-x="233" 
d="M170 696l93 -123h-85l-30 37q-15 19 -31 37q-18 -20 -32 -38l-29 -36h-84l93 123h105zM74 482h86v-482h-86v482z" />
    <glyph glyph-name="idieresis" unicode="&#xef;" horiz-adv-x="233" 
d="M66 573h-100v103h100v-103zM168 573v103h99v-103h-99zM74 482h86v-482h-86v482z" />
    <glyph glyph-name="eth" unicode="&#xf0;" horiz-adv-x="562" 
d="M417 577q49 -69 74.5 -153t25.5 -173q0 -80 -30 -140.5t-84 -93t-123 -32.5t-123 32t-84 90.5t-30 134.5q0 74 30 132.5t82.5 91t119.5 32.5q29 0 57 -9.5t49 -27.5q-4 10 -21 38q-18 29 -37 51l-115 -33l-21 66l82 23q-35 31 -85 59l70 55q64 -33 114 -85l105 30l19 -66
zM388 104q40 52 40 138q0 85 -40.5 136.5t-107.5 51.5t-107.5 -51.5t-40.5 -136.5q0 -86 40 -138t108 -52t108 52z" />
    <glyph glyph-name="ntilde" unicode="&#xf1;" horiz-adv-x="554" 
d="M318 587.5q-15 5.5 -35 16.5q-20 10 -30 14t-22 4q-32 0 -33 -39h-68q0 53 26 79.5t68 26.5q18 0 32 -5.5t36 -17.5q15 -9 26.5 -14t24.5 -5q31 0 32 38h67q0 -52 -24.5 -77.5t-65.5 -25.5q-19 0 -34 5.5zM74 0v482h86v-33v-32q20 33 60.5 57t87.5 24q84 0 131 -51
t47 -143v-304h-86v293q0 70 -25 103.5t-81 33.5q-61 0 -97.5 -40.5t-36.5 -99.5v-290h-86z" />
    <glyph glyph-name="ograve" unicode="&#xf2;" horiz-adv-x="560" 
d="M329 567h-72l-106 129h108zM157 17q-54 32 -84 90.5t-30 134.5q0 74 30 132.5t84 91t123 32.5q68 0 122 -32.5t84.5 -91t30.5 -132.5q0 -76 -30.5 -134.5t-84.5 -90.5t-122 -32q-69 0 -123 32zM388 104q40 52 40 138q0 85 -40.5 136.5t-107.5 51.5t-107.5 -51.5
t-40.5 -136.5q0 -86 40 -138t108 -52t108 52z" />
    <glyph glyph-name="oacute" unicode="&#xf3;" horiz-adv-x="560" 
d="M313 567h-72l71 129h107zM157 17q-54 32 -84 90.5t-30 134.5q0 74 30 132.5t84 91t123 32.5q68 0 122 -32.5t84.5 -91t30.5 -132.5q0 -76 -30.5 -134.5t-84.5 -90.5t-122 -32q-69 0 -123 32zM388 104q40 52 40 138q0 85 -40.5 136.5t-107.5 51.5t-107.5 -51.5
t-40.5 -136.5q0 -86 40 -138t108 -52t108 52z" />
    <glyph glyph-name="ocircumflex" unicode="&#xf4;" horiz-adv-x="560" 
d="M135 573l93 123h105l93 -123h-85l-30 37q-15 19 -31 37q-18 -20 -32 -38l-29 -36h-84zM157 17q-54 32 -84 90.5t-30 134.5q0 74 30 132.5t84 91t123 32.5q68 0 122 -32.5t84.5 -91t30.5 -132.5q0 -76 -30.5 -134.5t-84.5 -90.5t-122 -32q-69 0 -123 32zM388 104
q40 52 40 138q0 85 -40.5 136.5t-107.5 51.5t-107.5 -51.5t-40.5 -136.5q0 -86 40 -138t108 -52t108 52z" />
    <glyph glyph-name="otilde" unicode="&#xf5;" horiz-adv-x="560" 
d="M311.5 587.5q-15.5 5.5 -34.5 16.5q-20 10 -30 14t-22 4q-32 0 -33 -39h-68q0 53 26 79.5t68 26.5q18 0 32 -5.5t36 -17.5q15 -9 26.5 -14t24.5 -5q31 0 32 38h67q0 -52 -24.5 -77.5t-65.5 -25.5q-19 0 -34.5 5.5zM157 17q-54 32 -84 90.5t-30 134.5q0 74 30 132.5t84 91
t123 32.5q68 0 122 -32.5t84.5 -91t30.5 -132.5q0 -76 -30.5 -134.5t-84.5 -90.5t-122 -32q-69 0 -123 32zM388 104q40 52 40 138q0 85 -40.5 136.5t-107.5 51.5t-107.5 -51.5t-40.5 -136.5q0 -86 40 -138t108 -52t108 52z" />
    <glyph glyph-name="odieresis" unicode="&#xf6;" horiz-adv-x="560" 
d="M229 573h-100v103h100v-103zM430 573h-99v103h99v-103zM157 17q-54 32 -84 90.5t-30 134.5q0 74 30 132.5t84 91t123 32.5q68 0 122 -32.5t84.5 -91t30.5 -132.5q0 -76 -30.5 -134.5t-84.5 -90.5t-122 -32q-69 0 -123 32zM388 104q40 52 40 138q0 85 -40.5 136.5
t-107.5 51.5t-107.5 -51.5t-40.5 -136.5q0 -86 40 -138t108 -52t108 52z" />
    <glyph glyph-name="divide" unicode="&#xf7;" horiz-adv-x="593" 
d="M344 440h-93v97h93v-97zM533 264h-474v71h474v-71zM344 63h-93v97h93v-97z" />
    <glyph glyph-name="oslash" unicode="&#xf8;" horiz-adv-x="560" 
d="M459 417q58 -71 58 -175q0 -76 -30.5 -134.5t-84.5 -90.5t-122 -32q-72 0 -128 36l-44 -57l-54 42l46 60q-27 33 -42 78t-15 98q0 74 30 132.5t84 91t123 32.5q71 0 127 -36l45 58l54 -42zM153 134l209 270q-35 26 -82 26q-67 0 -107.5 -51.5t-40.5 -136.5q0 -63 21 -108
zM388 104q40 52 40 138q0 61 -22 107l-209 -270q37 -27 83 -27q68 0 108 52z" />
    <glyph glyph-name="ugrave" unicode="&#xf9;" horiz-adv-x="546" 
d="M324 567h-72l-106 129h108zM112.5 34q-44.5 49 -44.5 141v307h86v-289q0 -71 26 -106t84 -35q59 0 91 43t32 121v266h85v-482h-84v29v38q-17 -38 -57 -60t-89 -22q-85 0 -129.5 49z" />
    <glyph glyph-name="uacute" unicode="&#xfa;" horiz-adv-x="546" 
d="M308 567h-72l71 129h107zM112.5 34q-44.5 49 -44.5 141v307h86v-289q0 -71 26 -106t84 -35q59 0 91 43t32 121v266h85v-482h-84v29v38q-17 -38 -57 -60t-89 -22q-85 0 -129.5 49z" />
    <glyph glyph-name="ucircumflex" unicode="&#xfb;" horiz-adv-x="546" 
d="M130 573l93 123h105l93 -123h-85l-30 37q-15 19 -31 37q-18 -20 -32 -38l-29 -36h-84zM112.5 34q-44.5 49 -44.5 141v307h86v-289q0 -71 26 -106t84 -35q59 0 91 43t32 121v266h85v-482h-84v29v38q-17 -38 -57 -60t-89 -22q-85 0 -129.5 49z" />
    <glyph glyph-name="udieresis" unicode="&#xfc;" horiz-adv-x="546" 
d="M224 573h-100v103h100v-103zM425 573h-99v103h99v-103zM112.5 34q-44.5 49 -44.5 141v307h86v-289q0 -71 26 -106t84 -35q59 0 91 43t32 121v266h85v-482h-84v29v38q-17 -38 -57 -60t-89 -22q-85 0 -129.5 49z" />
    <glyph glyph-name="yacute" unicode="&#xfd;" horiz-adv-x="481" 
d="M277 567h-72l71 129h107zM119 -211l88 228l-193 465h95l120 -308l23 -59l21 59l106 308h90l-259 -693h-91z" />
    <glyph glyph-name="thorn" unicode="&#xfe;" horiz-adv-x="583" 
d="M74 -211v911h86v-253v-31q22 34 65 58t94 24q68 0 118.5 -33t77 -91t26.5 -132q0 -76 -28 -134t-79 -90.5t-117 -32.5q-52 0 -94.5 22t-62.5 60v-40v-238h-86zM410.5 104.5q40.5 52.5 40.5 137.5q0 84 -40.5 136t-106.5 52t-107.5 -51.5t-41.5 -136.5t41.5 -137.5
t107.5 -52.5t106.5 52.5z" />
    <glyph glyph-name="ydieresis" unicode="&#xff;" horiz-adv-x="481" 
d="M193 573h-100v103h100v-103zM394 573h-99v103h99v-103zM119 -211l88 228l-193 465h95l120 -308l23 -59l21 59l106 308h90l-259 -693h-91z" />
    <glyph glyph-name="Amacron" unicode="&#x100;" horiz-adv-x="681" 
d="M201 878h277v-74h-277v74zM676 0h-101l-80 208h-314l-80 -208h-96l280 700h110zM210 284h256l-108 280q-7 18 -8 23l-12 30l-20 -53z" />
    <glyph glyph-name="amacron" unicode="&#x101;" horiz-adv-x="509" 
d="M394 586h-277v74h277v-74zM92.5 25q-47.5 40 -47.5 107q0 65 44.5 101.5t115.5 48.5l103 16q27 4 38 15t11 33q0 39 -27 61.5t-70 22.5q-54 0 -83 -26.5t-31 -72.5h-86q2 45 25 83t66.5 61t101.5 23q89 0 138.5 -49t49.5 -133v-316h-82v24v41q-18 -38 -56.5 -59
t-91.5 -21q-71 0 -118.5 40zM319 88q38 36 38 94v71q-8 -12 -53 -21l-70 -13q-100 -19 -100 -87q0 -36 25.5 -58t63.5 -22q58 0 96 36z" />
    <glyph glyph-name="Abreve" unicode="&#x102;" horiz-adv-x="681" 
d="M243.5 822q-35.5 37 -36.5 92h67q2 -27 17.5 -43t48.5 -16t49 16.5t18 42.5h67q-1 -56 -35.5 -92.5t-98.5 -36.5q-61 0 -96.5 37zM676 0h-101l-80 208h-314l-80 -208h-96l280 700h110zM210 284h256l-108 280q-7 18 -8 23l-12 30l-20 -53z" />
    <glyph glyph-name="abreve" unicode="&#x103;" horiz-adv-x="509" 
d="M159.5 604q-35.5 37 -36.5 92h67q2 -27 17.5 -43t48.5 -16t49 16.5t18 42.5h67q-1 -56 -35.5 -92.5t-98.5 -36.5q-61 0 -96.5 37zM92.5 25q-47.5 40 -47.5 107q0 65 44.5 101.5t115.5 48.5l103 16q27 4 38 15t11 33q0 39 -27 61.5t-70 22.5q-54 0 -83 -26.5t-31 -72.5
h-86q2 45 25 83t66.5 61t101.5 23q89 0 138.5 -49t49.5 -133v-316h-82v24v41q-18 -38 -56.5 -59t-91.5 -21q-71 0 -118.5 40zM319 88q38 36 38 94v71q-8 -12 -53 -21l-70 -13q-100 -19 -100 -87q0 -36 25.5 -58t63.5 -22q58 0 96 36z" />
    <glyph glyph-name="Aogonek" unicode="&#x104;" horiz-adv-x="681" 
d="M608 -116.5q14 -10.5 35 -10.5q19 0 33 4v-62q-15 -7 -50 -7q-44 0 -74.5 24.5t-30.5 67.5q0 64 76 100h-22l-80 208h-314l-80 -208h-96l280 700h110l281 -700q-82 -39 -82 -84q0 -22 14 -32.5zM210 284h256l-108 280q-7 18 -8 23l-12 30l-20 -53z" />
    <glyph glyph-name="aogonek" unicode="&#x105;" horiz-adv-x="509" 
d="M441 0q-35 -14 -58.5 -35.5t-23.5 -48.5q0 -22 14.5 -32.5t36.5 -10.5q17 0 31 4v-62q-17 -7 -47 -7q-46 0 -77 25t-31 68q0 66 73 103v20v41q-18 -38 -56.5 -59t-91.5 -21q-71 0 -118.5 40t-47.5 107q0 65 44.5 101.5t115.5 48.5l103 16q27 4 38 15t11 33q0 39 -27 61.5
t-70 22.5q-54 0 -83 -26.5t-31 -72.5h-86q2 45 25 83t66.5 61t101.5 23q89 0 138.5 -49t49.5 -133v-316zM357 253q-8 -12 -53 -21l-70 -13q-100 -19 -100 -87q0 -36 25.5 -58t63.5 -22q58 0 96 36t38 94v71z" />
    <glyph glyph-name="Cacute" unicode="&#x106;" horiz-adv-x="722" 
d="M413 785h-72l71 129h107zM207.5 29.5q-75.5 44.5 -117.5 128t-42 196.5q0 107 43.5 189.5t120.5 127.5t173 45q83 0 148 -31.5t104 -86.5t46 -124h-100q-14 78 -66 121.5t-136 43.5q-71 0 -124.5 -34.5t-83 -99t-29.5 -151.5q0 -88 30 -154.5t84 -102.5t123 -36
q85 0 139 44.5t69 120.5h95q-14 -112 -95 -176.5t-206 -64.5q-100 0 -175.5 44.5z" />
    <glyph glyph-name="cacute" unicode="&#x107;" horiz-adv-x="535" 
d="M319 567h-72l71 129h107zM160.5 14q-54.5 29 -86 87t-31.5 141q0 75 32 133t87.5 90.5t123.5 32.5q86 0 144.5 -48.5t65.5 -129.5h-89q-6 49 -38.5 79.5t-84.5 30.5q-45 0 -79.5 -24.5t-53.5 -67.5t-19 -96q0 -86 42 -138t112 -52q53 0 87 29t41 81h85q-7 -81 -63.5 -129
t-153.5 -48q-67 0 -121.5 29z" />
    <glyph glyph-name="Ccircumflex" unicode="&#x108;" horiz-adv-x="722" 
d="M235 791l93 123h105l93 -123h-85l-30 37q-14 19 -31 37q-18 -20 -32 -38l-29 -36h-84zM207.5 29.5q-75.5 44.5 -117.5 128t-42 196.5q0 107 43.5 189.5t120.5 127.5t173 45q83 0 148 -31.5t104 -86.5t46 -124h-100q-14 78 -66 121.5t-136 43.5q-71 0 -124.5 -34.5
t-83 -99t-29.5 -151.5q0 -88 30 -154.5t84 -102.5t123 -36q85 0 139 44.5t69 120.5h95q-14 -112 -95 -176.5t-206 -64.5q-100 0 -175.5 44.5z" />
    <glyph glyph-name="ccircumflex" unicode="&#x109;" horiz-adv-x="535" 
d="M141 573l93 123h105l93 -123h-85l-30 37q-14 19 -31 37q-18 -20 -32 -38l-29 -36h-84zM160.5 14q-54.5 29 -86 87t-31.5 141q0 75 32 133t87.5 90.5t123.5 32.5q86 0 144.5 -48.5t65.5 -129.5h-89q-6 49 -38.5 79.5t-84.5 30.5q-45 0 -79.5 -24.5t-53.5 -67.5t-19 -96
q0 -86 42 -138t112 -52q53 0 87 29t41 81h85q-7 -81 -63.5 -129t-153.5 -48q-67 0 -121.5 29z" />
    <glyph glyph-name="Cdotaccent" unicode="&#x10a;" horiz-adv-x="722" 
d="M429 791h-100v103h100v-103zM207.5 29.5q-75.5 44.5 -117.5 128t-42 196.5q0 107 43.5 189.5t120.5 127.5t173 45q83 0 148 -31.5t104 -86.5t46 -124h-100q-14 78 -66 121.5t-136 43.5q-71 0 -124.5 -34.5t-83 -99t-29.5 -151.5q0 -88 30 -154.5t84 -102.5t123 -36
q85 0 139 44.5t69 120.5h95q-14 -112 -95 -176.5t-206 -64.5q-100 0 -175.5 44.5z" />
    <glyph glyph-name="cdotaccent" unicode="&#x10b;" horiz-adv-x="535" 
d="M335 573h-100v103h100v-103zM160.5 14q-54.5 29 -86 87t-31.5 141q0 75 32 133t87.5 90.5t123.5 32.5q86 0 144.5 -48.5t65.5 -129.5h-89q-6 49 -38.5 79.5t-84.5 30.5q-45 0 -79.5 -24.5t-53.5 -67.5t-19 -96q0 -86 42 -138t112 -52q53 0 87 29t41 81h85
q-7 -81 -63.5 -129t-153.5 -48q-67 0 -121.5 29z" />
    <glyph glyph-name="Ccaron" unicode="&#x10c;" horiz-adv-x="722" 
d="M327 791l-93 123h84l29 -36q15 -19 32 -38q13 15 31 37l30 37h85l-93 -123h-105zM207.5 29.5q-75.5 44.5 -117.5 128t-42 196.5q0 107 43.5 189.5t120.5 127.5t173 45q83 0 148 -31.5t104 -86.5t46 -124h-100q-14 78 -66 121.5t-136 43.5q-71 0 -124.5 -34.5t-83 -99
t-29.5 -151.5q0 -88 30 -154.5t84 -102.5t123 -36q85 0 139 44.5t69 120.5h95q-14 -112 -95 -176.5t-206 -64.5q-100 0 -175.5 44.5z" />
    <glyph glyph-name="ccaron" unicode="&#x10d;" horiz-adv-x="535" 
d="M233 573l-93 123h84l29 -36q15 -19 32 -38q14 15 31 37l30 37h85l-93 -123h-105zM160.5 14q-54.5 29 -86 87t-31.5 141q0 75 32 133t87.5 90.5t123.5 32.5q86 0 144.5 -48.5t65.5 -129.5h-89q-6 49 -38.5 79.5t-84.5 30.5q-45 0 -79.5 -24.5t-53.5 -67.5t-19 -96
q0 -86 42 -138t112 -52q53 0 87 29t41 81h85q-7 -81 -63.5 -129t-153.5 -48q-67 0 -121.5 29z" />
    <glyph glyph-name="Dcaron" unicode="&#x10e;" horiz-adv-x="726" 
d="M295 791l-93 123h84l29 -36q15 -19 32 -38q13 15 31 37l30 37h85l-93 -123h-105zM90 0v700h210q178 0 277 -84.5t99 -264.5q0 -163 -91.5 -257t-262.5 -94h-232zM311 77q131 0 200.5 66t69.5 208q0 134 -67 203.5t-207 69.5h-126v-547h130z" />
    <glyph glyph-name="dcaron" unicode="&#x10f;" horiz-adv-x="639" 
d="M151 15q-50 30 -79 88t-29 138q0 73 27.5 131.5t78.5 92t118 33.5q55 0 95.5 -24.5t59.5 -56.5v39v244h86v-700h-86v28v39q-20 -35 -62.5 -58.5t-94.5 -23.5q-64 0 -114 30zM579 547q23 4 34.5 16.5t11.5 47.5h-45v89h100v-86q0 -60 -28 -87t-73 -30v50zM386.5 104
q41.5 52 41.5 138q0 85 -41 136.5t-107 51.5t-107 -52.5t-41 -136.5q0 -85 41 -137t107 -52q65 0 106.5 52z" />
    <glyph glyph-name="Dcroat" unicode="&#x110;" horiz-adv-x="733" 
d="M306 700q178 0 277 -84.5t99 -264.5q0 -163 -91.5 -257t-262.5 -94h-232v317h-73v73h73v310h210zM317 77q131 0 200.5 66t69.5 208q0 134 -67 203.5t-207 69.5h-126v-234h96v-73h-96v-240h130z" />
    <glyph glyph-name="dcroat" unicode="&#x111;" horiz-adv-x="582" 
d="M581 627v-73h-73v-554h-86v28v39q-20 -35 -62.5 -58.5t-94.5 -23.5q-64 0 -114 30t-79 88t-29 138q0 73 27.5 131.5t78.5 92t118 33.5q55 0 95.5 -24.5t59.5 -56.5v39v98h-174v73h174v73h86v-73h73zM386.5 104q41.5 52 41.5 138q0 85 -41 136.5t-107 51.5t-107 -52.5
t-41 -136.5q0 -85 41 -137t107 -52q65 0 106.5 52z" />
    <glyph glyph-name="Emacron" unicode="&#x112;" horiz-adv-x="609" 
d="M463 804h-277v74h277v-74zM557 0h-467v700h455v-76h-364v-229h348v-77h-348v-241h376v-77z" />
    <glyph glyph-name="emacron" unicode="&#x113;" horiz-adv-x="540" 
d="M413 586h-277v74h277v-74zM106.5 52q-62.5 67 -62.5 191q0 73 29.5 131t82 91t117.5 33q106 0 164.5 -69t58.5 -187v-17h-366q1 -80 43 -126.5t106 -46.5q49 0 84 22.5t43 74.5h85q-8 -70 -62 -117t-151 -47q-109 0 -171.5 67zM404 286q0 66 -34.5 105t-96.5 39
q-59 0 -97 -41t-43 -103h271z" />
    <glyph glyph-name="Ebreve" unicode="&#x114;" horiz-adv-x="609" 
d="M228.5 822q-35.5 37 -36.5 92h67q2 -27 17.5 -43t48.5 -16t49 16.5t18 42.5h67q-1 -56 -35.5 -92.5t-98.5 -36.5q-61 0 -96.5 37zM557 0h-467v700h455v-76h-364v-229h348v-77h-348v-241h376v-77z" />
    <glyph glyph-name="ebreve" unicode="&#x115;" horiz-adv-x="540" 
d="M178.5 604q-35.5 37 -36.5 92h67q2 -27 17.5 -43t48.5 -16t49 16.5t18 42.5h67q-1 -56 -35.5 -92.5t-98.5 -36.5q-61 0 -96.5 37zM106.5 52q-62.5 67 -62.5 191q0 73 29.5 131t82 91t117.5 33q106 0 164.5 -69t58.5 -187v-17h-366q1 -80 43 -126.5t106 -46.5
q49 0 84 22.5t43 74.5h85q-8 -70 -62 -117t-151 -47q-109 0 -171.5 67zM404 286q0 66 -34.5 105t-96.5 39q-59 0 -97 -41t-43 -103h271z" />
    <glyph glyph-name="Edotaccent" unicode="&#x116;" horiz-adv-x="609" 
d="M374 791h-100v103h100v-103zM557 0h-467v700h455v-76h-364v-229h348v-77h-348v-241h376v-77z" />
    <glyph glyph-name="edotaccent" unicode="&#x117;" horiz-adv-x="540" 
d="M324 573h-100v103h100v-103zM106.5 52q-62.5 67 -62.5 191q0 73 29.5 131t82 91t117.5 33q106 0 164.5 -69t58.5 -187v-17h-366q1 -80 43 -126.5t106 -46.5q49 0 84 22.5t43 74.5h85q-8 -70 -62 -117t-151 -47q-109 0 -171.5 67zM404 286q0 66 -34.5 105t-96.5 39
q-59 0 -97 -41t-43 -103h271z" />
    <glyph glyph-name="Eogonek" unicode="&#x118;" horiz-adv-x="609" 
d="M557 0q-35 -14 -58.5 -35.5t-23.5 -48.5q0 -22 14.5 -32.5t36.5 -10.5q17 0 31 4v-62q-17 -7 -47 -7q-46 0 -77 25t-31 68q0 62 66 99h-378v700h455v-76h-364v-229h348v-77h-348v-241h376v-77z" />
    <glyph glyph-name="eogonek" unicode="&#x119;" horiz-adv-x="540" 
d="M232.5 -167q-31.5 25 -31.5 68q0 48 44 85q-94 9 -147.5 75.5t-53.5 181.5q0 73 29.5 131t82 91t117.5 33q106 0 164.5 -69t58.5 -187v-17h-366q1 -80 43 -126.5t106 -46.5q49 0 84 22.5t43 74.5h85q-6 -54 -41.5 -95.5t-96.5 -59.5q-35 -11 -57 -30.5t-22 -47.5
q0 -22 14.5 -32.5t36.5 -10.5q17 0 31 4v-62q-15 -7 -46 -7q-46 0 -77.5 25zM404 286q0 66 -34.5 105t-96.5 39q-59 0 -97 -41t-43 -103h271z" />
    <glyph glyph-name="Ecaron" unicode="&#x11a;" horiz-adv-x="609" 
d="M272 791l-93 123h84l29 -36q15 -19 32 -38q13 15 31 37l30 37h85l-93 -123h-105zM557 0h-467v700h455v-76h-364v-229h348v-77h-348v-241h376v-77z" />
    <glyph glyph-name="ecaron" unicode="&#x11b;" horiz-adv-x="540" 
d="M222 573l-93 123h84l29 -36q15 -19 32 -38q14 15 31 37l30 37h85l-93 -123h-105zM106.5 52q-62.5 67 -62.5 191q0 73 29.5 131t82 91t117.5 33q106 0 164.5 -69t58.5 -187v-17h-366q1 -80 43 -126.5t106 -46.5q49 0 84 22.5t43 74.5h85q-8 -70 -62 -117t-151 -47
q-109 0 -171.5 67zM404 286q0 66 -34.5 105t-96.5 39q-59 0 -97 -41t-43 -103h271z" />
    <glyph glyph-name="Gcircumflex" unicode="&#x11c;" horiz-adv-x="737" 
d="M242 791l93 123h105l93 -123h-85l-30 37q-14 19 -31 37q-18 -20 -32 -38l-29 -36h-84zM203.5 32q-75.5 47 -116 129.5t-40.5 184.5q0 116 46 200t123.5 127t170.5 43q76 0 138.5 -28t101 -77.5t46.5 -113.5h-97q-11 63 -63 102.5t-126 39.5q-71 0 -126 -33.5t-86.5 -99.5
t-31.5 -160q0 -81 30 -146t84.5 -102t124.5 -37q98 0 154.5 55.5t56.5 159.5v13h-220v77h303v-366h-75v31v66q-29 -49 -89.5 -80.5t-132.5 -31.5q-100 0 -175.5 47z" />
    <glyph glyph-name="gcircumflex" unicode="&#x11d;" horiz-adv-x="581" 
d="M153 573l93 123h105l93 -123h-85l-30 37q-14 19 -31 37q-18 -20 -32 -38l-29 -36h-84zM122.5 -177.5q-57.5 49.5 -57.5 131.5h85q0 -52 34 -83t92 -31q70 0 107.5 38t37.5 116v59v32q-19 -37 -62 -58.5t-96 -21.5q-66 0 -115.5 30t-76.5 85.5t-27 129.5q0 73 29 129.5
t79.5 87.5t113.5 31q55 0 94 -23.5t61 -57.5v39v26h86v-458q0 -251 -232 -251q-95 0 -152.5 49.5zM386 121q41 49 41 129q0 52 -19 93t-52.5 64t-75.5 23q-65 0 -106 -50t-41 -130q0 -81 40.5 -129.5t106.5 -48.5q65 0 106 49z" />
    <glyph glyph-name="Gbreve" unicode="&#x11e;" horiz-adv-x="737" 
d="M290.5 822q-35.5 37 -36.5 92h67q2 -27 17.5 -43t48.5 -16t49 16.5t18 42.5h67q-1 -56 -35.5 -92.5t-98.5 -36.5q-61 0 -96.5 37zM203.5 32q-75.5 47 -116 129.5t-40.5 184.5q0 116 46 200t123.5 127t170.5 43q76 0 138.5 -28t101 -77.5t46.5 -113.5h-97
q-11 63 -63 102.5t-126 39.5q-71 0 -126 -33.5t-86.5 -99.5t-31.5 -160q0 -81 30 -146t84.5 -102t124.5 -37q98 0 154.5 55.5t56.5 159.5v13h-220v77h303v-366h-75v31v66q-29 -49 -89.5 -80.5t-132.5 -31.5q-100 0 -175.5 47z" />
    <glyph glyph-name="gbreve" unicode="&#x11f;" horiz-adv-x="581" 
d="M201.5 604q-35.5 37 -36.5 92h67q2 -27 17.5 -43t48.5 -16t49 16.5t18 42.5h67q-1 -56 -35.5 -92.5t-98.5 -36.5q-61 0 -96.5 37zM122.5 -177.5q-57.5 49.5 -57.5 131.5h85q0 -52 34 -83t92 -31q70 0 107.5 38t37.5 116v59v32q-19 -37 -62 -58.5t-96 -21.5
q-66 0 -115.5 30t-76.5 85.5t-27 129.5q0 73 29 129.5t79.5 87.5t113.5 31q55 0 94 -23.5t61 -57.5v39v26h86v-458q0 -251 -232 -251q-95 0 -152.5 49.5zM386 121q41 49 41 129q0 52 -19 93t-52.5 64t-75.5 23q-65 0 -106 -50t-41 -130q0 -81 40.5 -129.5t106.5 -48.5
q65 0 106 49z" />
    <glyph glyph-name="Gdotaccent" unicode="&#x120;" horiz-adv-x="737" 
d="M436 791h-100v103h100v-103zM203.5 32q-75.5 47 -116 129.5t-40.5 184.5q0 116 46 200t123.5 127t170.5 43q76 0 138.5 -28t101 -77.5t46.5 -113.5h-97q-11 63 -63 102.5t-126 39.5q-71 0 -126 -33.5t-86.5 -99.5t-31.5 -160q0 -81 30 -146t84.5 -102t124.5 -37
q98 0 154.5 55.5t56.5 159.5v13h-220v77h303v-366h-75v31v66q-29 -49 -89.5 -80.5t-132.5 -31.5q-100 0 -175.5 47z" />
    <glyph glyph-name="gdotaccent" unicode="&#x121;" horiz-adv-x="581" 
d="M347 573h-100v103h100v-103zM122.5 -177.5q-57.5 49.5 -57.5 131.5h85q0 -52 34 -83t92 -31q70 0 107.5 38t37.5 116v59v32q-19 -37 -62 -58.5t-96 -21.5q-66 0 -115.5 30t-76.5 85.5t-27 129.5q0 73 29 129.5t79.5 87.5t113.5 31q55 0 94 -23.5t61 -57.5v39v26h86v-458
q0 -251 -232 -251q-95 0 -152.5 49.5zM386 121q41 49 41 129q0 52 -19 93t-52.5 64t-75.5 23q-65 0 -106 -50t-41 -130q0 -81 40.5 -129.5t106.5 -48.5q65 0 106 49z" />
    <glyph glyph-name="uni0122" unicode="&#x122;" horiz-adv-x="737" 
d="M203.5 32q-75.5 47 -116 129.5t-40.5 184.5q0 116 46 200t123.5 127t170.5 43q76 0 138.5 -28t101 -77.5t46.5 -113.5h-97q-11 63 -63 102.5t-126 39.5q-71 0 -126 -33.5t-86.5 -99.5t-31.5 -160q0 -81 30 -146t84.5 -102t124.5 -37q98 0 154.5 55.5t56.5 159.5v13h-220
v77h303v-366h-75v31v66q-29 -49 -89.5 -80.5t-132.5 -31.5q-100 0 -175.5 47zM334 -234q23 4 34.5 16.5t11.5 47.5h-45v89h100v-86q0 -60 -28 -87t-73 -30v50z" />
    <glyph glyph-name="uni0123" unicode="&#x123;" horiz-adv-x="581" 
d="M348 726q-23 -4 -34.5 -16.5t-11.5 -47.5h45v-89h-100v86q0 60 28 87t73 30v-50zM122.5 -177.5q-57.5 49.5 -57.5 131.5h85q0 -52 34 -83t92 -31q70 0 107.5 38t37.5 116v59v32q-19 -37 -62 -58.5t-96 -21.5q-66 0 -115.5 30t-76.5 85.5t-27 129.5q0 73 29 129.5
t79.5 87.5t113.5 31q55 0 94 -23.5t61 -57.5v39v26h86v-458q0 -251 -232 -251q-95 0 -152.5 49.5zM386 121q41 49 41 129q0 52 -19 93t-52.5 64t-75.5 23q-65 0 -106 -50t-41 -130q0 -81 40.5 -129.5t106.5 -48.5q65 0 106 49z" />
    <glyph glyph-name="Hcircumflex" unicode="&#x124;" horiz-adv-x="735" 
d="M222 791l93 123h105l93 -123h-85l-30 37q-14 19 -31 37q-18 -20 -32 -38l-29 -36h-84zM181 0h-91v700h91v-294h372v294h91v-700h-91v329h-372v-329z" />
    <glyph glyph-name="hcircumflex" unicode="&#x125;" horiz-adv-x="554" 
d="M137 754l93 123h105l93 -123h-85l-30 37q-14 19 -31 37q-18 -20 -32 -38l-29 -36h-84zM74 0v700h86v-242v-41q20 36 60 58.5t88 22.5q84 0 131 -51t47 -143v-304h-86v293q0 70 -26 103.5t-83 33.5q-60 0 -95.5 -40.5t-35.5 -99.5v-290h-86z" />
    <glyph glyph-name="Hbar" unicode="&#x126;" horiz-adv-x="735" 
d="M644 591h73v-74h-73v-517h-91v329h-372v-329h-91v517h-73v74h73v109h91v-109h372v109h91v-109zM181 406h372v111h-372v-111z" />
    <glyph glyph-name="hbar" unicode="&#x127;" horiz-adv-x="554" 
d="M439 447q47 -51 47 -143v-304h-86v293q0 70 -26 103.5t-83 33.5q-60 0 -95.5 -40.5t-35.5 -99.5v-290h-86v554h-74v73h74v73h86v-73h173v-73h-173v-96v-41q20 36 60 58.5t88 22.5q84 0 131 -51z" />
    <glyph glyph-name="Itilde" unicode="&#x128;" horiz-adv-x="272" 
d="M292 903q0 -52 -24.5 -77.5t-65.5 -25.5q-19 0 -34 5.5t-35 16.5q-20 10 -30 14t-22 4q-32 0 -33 -39h-68q0 53 26 79.5t68 26.5q18 0 32 -5.5t36 -17.5q15 -9 26.5 -14t24.5 -5q31 0 32 38h67zM90 700h91v-700h-91v700z" />
    <glyph glyph-name="itilde" unicode="&#x129;" horiz-adv-x="233" 
d="M273 685q0 -52 -24.5 -77.5t-65.5 -25.5q-19 0 -34 5.5t-35 16.5q-20 10 -30 14t-22 4q-32 0 -33 -39h-68q0 53 26 79.5t68 26.5q18 0 32 -5.5t36 -17.5q15 -9 26.5 -14t24.5 -5q31 0 32 38h67zM74 482h86v-482h-86v482z" />
    <glyph glyph-name="Imacron" unicode="&#x12a;" horiz-adv-x="272" 
d="M-3 804v74h277v-74h-277zM90 700h91v-700h-91v700z" />
    <glyph glyph-name="imacron" unicode="&#x12b;" horiz-adv-x="233" 
d="M-22 586v74h277v-74h-277zM74 482h86v-482h-86v482z" />
    <glyph glyph-name="Ibreve" unicode="&#x12c;" horiz-adv-x="272" 
d="M270 914q-1 -56 -35.5 -92.5t-98.5 -36.5q-61 0 -96.5 37t-36.5 92h67q2 -27 17.5 -43t48.5 -16t49 16.5t18 42.5h67zM90 700h91v-700h-91v700z" />
    <glyph glyph-name="ibreve" unicode="&#x12d;" horiz-adv-x="233" 
d="M251 696q-1 -56 -35.5 -92.5t-98.5 -36.5q-61 0 -96.5 37t-36.5 92h67q2 -27 17.5 -43t48.5 -16t49 16.5t18 42.5h67zM74 482h86v-482h-86v482z" />
    <glyph glyph-name="Iogonek" unicode="&#x12e;" horiz-adv-x="272" 
d="M181 700v-700q-82 -39 -82 -84q0 -22 14.5 -32.5t36.5 -10.5q17 0 31 4v-62q-15 -7 -48 -7q-45 0 -76 24.5t-31 67.5q0 63 64 102v698h91z" />
    <glyph glyph-name="iogonek" unicode="&#x12f;" horiz-adv-x="233" 
d="M66 573v103h100v-103h-100zM160 482v-482q-35 -14 -58.5 -35.5t-23.5 -48.5q0 -22 14.5 -32.5t36.5 -10.5q17 0 31 4v-62q-17 -7 -47 -7q-46 0 -77 25t-31 68q0 62 69 101v480h86z" />
    <glyph glyph-name="Idotaccent" unicode="&#x130;" horiz-adv-x="272" 
d="M85 791v103h100v-103h-100zM90 700h91v-700h-91v700z" />
    <glyph glyph-name="dotlessi" unicode="&#x131;" horiz-adv-x="233" 
d="M74 482h86v-482h-86v482z" />
    <glyph glyph-name="IJ" unicode="&#x132;" horiz-adv-x="824" 
d="M90 700h91v-700h-91v700zM350 47.5q-56 62.5 -58 168.5h93q3 -155 130 -155q134 0 134 155v484h92v-489q0 -104 -62 -165t-167 -61q-106 0 -162 62.5z" />
    <glyph glyph-name="ij" unicode="&#x133;" horiz-adv-x="474" 
d="M67 573v103h99v-103h-99zM74 482h86v-482h-86v482zM307 573v103h99v-103h-99zM400 482v-575q0 -53 -32 -93.5t-102 -40.5q-28 0 -48 5v77q12 -4 25 -4q34 0 52.5 19t18.5 63v549h86z" />
    <glyph glyph-name="Jcircumflex" unicode="&#x134;" horiz-adv-x="552" 
d="M278 791l93 123h105l93 -123h-85l-30 37q-14 19 -31 37q-18 -20 -32 -38l-29 -36h-84zM78 47.5q-56 62.5 -58 168.5h93q3 -155 130 -155q134 0 134 155v484h92v-489q0 -104 -62 -165t-167 -61q-106 0 -162 62.5z" />
    <glyph glyph-name="jcircumflex" unicode="&#x135;" horiz-adv-x="241" 
d="M177 696l93 -123h-85l-30 37q-14 19 -31 37q-18 -20 -32 -38l-29 -36h-84l93 123h105zM167 482v-575q0 -53 -32 -93.5t-102 -40.5q-28 0 -48 5v77q12 -4 25 -4q34 0 52.5 19t18.5 63v549h86z" />
    <glyph glyph-name="uni0136" unicode="&#x136;" horiz-adv-x="622" 
d="M282 382l357 -382h-123l-296 319l-40 -41v-278h-90v700h90v-307l42 42l257 265h113zM285 -170v89h100v-86q0 -60 -28 -87t-73 -30v50q23 4 34.5 16.5t11.5 47.5h-45z" />
    <glyph glyph-name="uni0137" unicode="&#x137;" horiz-adv-x="490" 
d="M260 277l238 -277h-117l-180 219l-41 -40v-179h-86v700h86v-423q18 20 38 38l164 167h108zM215 -170v89h100v-86q0 -60 -28 -87t-73 -30v50q23 4 34.5 16.5t11.5 47.5h-45z" />
    <glyph glyph-name="Lacute" unicode="&#x139;" horiz-adv-x="556" 
d="M169 785h-72l71 129h107zM546 0h-456v700h91v-623h365v-77z" />
    <glyph glyph-name="lacute" unicode="&#x13a;" horiz-adv-x="233" 
d="M149 914h107l-106 -129h-72zM74 700h86v-700h-86v700z" />
    <glyph glyph-name="uni013B" unicode="&#x13b;" horiz-adv-x="556" 
d="M546 0h-456v700h91v-623h365v-77zM268 -234q23 4 34.5 16.5t11.5 47.5h-45v89h100v-86q0 -60 -28 -87t-73 -30v50z" />
    <glyph glyph-name="uni013C" unicode="&#x13c;" horiz-adv-x="233" 
d="M160 700v-700h-86v700h86zM68 -81h100v-86q0 -60 -28 -87t-73 -30v50q23 4 34.5 16.5t11.5 47.5h-45v89z" />
    <glyph glyph-name="Lcaron" unicode="&#x13d;" horiz-adv-x="556" 
d="M546 0h-456v700h91v-623h365v-77zM311 547q23 4 34.5 16.5t11.5 47.5h-45v89h100v-86q0 -60 -28 -87t-73 -30v50z" />
    <glyph glyph-name="lcaron" unicode="&#x13e;" horiz-adv-x="302" 
d="M74 700h86v-700h-86v700zM214 700h100v-86q0 -60 -28 -87t-73 -30v50q23 4 34.5 16.5t11.5 47.5h-45v89z" />
    <glyph glyph-name="Ldot" unicode="&#x13f;" horiz-adv-x="556" 
d="M546 0h-456v700h91v-623h365v-77zM450 284h-114v116h114v-116z" />
    <glyph glyph-name="ldot" unicode="&#x140;" horiz-adv-x="376" 
d="M74 700h86v-700h-86v700zM361 302h-114v116h114v-116z" />
    <glyph glyph-name="Lslash" unicode="&#x141;" horiz-adv-x="572" 
d="M194 294v-217h365v-77h-456v254l-66 -29v79l66 29v367h91v-326l163 72v-80z" />
    <glyph glyph-name="lslash" unicode="&#x142;" horiz-adv-x="317" 
d="M204 366l86 38v-79l-86 -38v-287h-86v248l-82 -36v80l82 36v372h86v-334z" />
    <glyph glyph-name="Nacute" unicode="&#x143;" horiz-adv-x="764" 
d="M429 785h-72l71 129h107zM181 0h-91v700h137l355 -597v88v509h92v-700h-127l-366 612v-85v-527z" />
    <glyph glyph-name="nacute" unicode="&#x144;" horiz-adv-x="554" 
d="M319 567h-72l71 129h107zM74 0v482h86v-33v-32q20 33 60.5 57t87.5 24q84 0 131 -51t47 -143v-304h-86v293q0 70 -25 103.5t-81 33.5q-61 0 -97.5 -40.5t-36.5 -99.5v-290h-86z" />
    <glyph glyph-name="uni0145" unicode="&#x145;" horiz-adv-x="764" 
d="M181 0h-91v700h137l355 -597v88v509h92v-700h-127l-366 612v-85v-527zM347 -234q23 4 34.5 16.5t11.5 47.5h-45v89h100v-86q0 -60 -28 -87t-73 -30v50z" />
    <glyph glyph-name="uni0146" unicode="&#x146;" horiz-adv-x="554" 
d="M74 0v482h86v-33v-32q20 33 60.5 57t87.5 24q84 0 131 -51t47 -143v-304h-86v293q0 70 -25 103.5t-81 33.5q-61 0 -97.5 -40.5t-36.5 -99.5v-290h-86zM230 -234q23 4 34.5 16.5t11.5 47.5h-45v89h100v-86q0 -60 -28 -87t-73 -30v50z" />
    <glyph glyph-name="Ncaron" unicode="&#x147;" horiz-adv-x="764" 
d="M343 791l-93 123h84l29 -36q15 -19 32 -38q13 15 31 37l30 37h85l-93 -123h-105zM181 0h-91v700h137l355 -597v88v509h92v-700h-127l-366 612v-85v-527z" />
    <glyph glyph-name="ncaron" unicode="&#x148;" horiz-adv-x="554" 
d="M233 573l-93 123h84l29 -36q15 -19 32 -38q14 15 31 37l30 37h85l-93 -123h-105zM74 0v482h86v-33v-32q20 33 60.5 57t87.5 24q84 0 131 -51t47 -143v-304h-86v293q0 70 -25 103.5t-81 33.5q-61 0 -97.5 -40.5t-36.5 -99.5v-290h-86z" />
    <glyph glyph-name="Eng" unicode="&#x14a;" horiz-adv-x="764" 
d="M465 -216v82q29 -8 52 -8q33 0 52 21t19 65v32l-407 637v-87v-526h-91v700h136l356 -561v52v509h92v-797q0 -29 -13 -58.5t-43 -50.5t-79 -21q-34 0 -74 11z" />
    <glyph glyph-name="eng" unicode="&#x14b;" horiz-adv-x="554" 
d="M439 447q47 -51 47 -143v-401q0 -29 -13 -58.5t-43 -50.5t-79 -21q-34 0 -74 11v82q29 -8 52 -8q33 0 52 21t19 65v349q0 70 -25 103.5t-81 33.5q-61 0 -97.5 -40.5t-36.5 -99.5v-290h-86v482h86v-33v-32q20 33 60.5 57t87.5 24q84 0 131 -51z" />
    <glyph glyph-name="Omacron" unicode="&#x14c;" horiz-adv-x="758" 
d="M517 804h-277v74h277v-74zM209.5 30.5q-75.5 45.5 -119 128.5t-43.5 191t43.5 191t119 129t169.5 46q95 0 170.5 -46t118.5 -129t43 -191t-43.5 -191t-119 -128.5t-169.5 -45.5t-169.5 45.5zM503 96q53 35 82.5 100.5t29.5 153.5t-29.5 153.5t-83 100.5t-123.5 35
q-69 0 -122.5 -35t-83.5 -100.5t-30 -153.5t29.5 -153.5t82.5 -100.5t124 -35t124 35z" />
    <glyph glyph-name="omacron" unicode="&#x14d;" horiz-adv-x="560" 
d="M418 586h-277v74h277v-74zM157 17q-54 32 -84 90.5t-30 134.5q0 74 30 132.5t84 91t123 32.5q68 0 122 -32.5t84.5 -91t30.5 -132.5q0 -76 -30.5 -134.5t-84.5 -90.5t-122 -32q-69 0 -123 32zM388 104q40 52 40 138q0 85 -40.5 136.5t-107.5 51.5t-107.5 -51.5
t-40.5 -136.5q0 -86 40 -138t108 -52t108 52z" />
    <glyph glyph-name="Obreve" unicode="&#x14e;" horiz-adv-x="758" 
d="M282.5 822q-35.5 37 -36.5 92h67q2 -27 17.5 -43t48.5 -16t49 16.5t18 42.5h67q-1 -56 -35.5 -92.5t-98.5 -36.5q-61 0 -96.5 37zM209.5 30.5q-75.5 45.5 -119 128.5t-43.5 191t43.5 191t119 129t169.5 46q95 0 170.5 -46t118.5 -129t43 -191t-43.5 -191t-119 -128.5
t-169.5 -45.5t-169.5 45.5zM503 96q53 35 82.5 100.5t29.5 153.5t-29.5 153.5t-83 100.5t-123.5 35q-69 0 -122.5 -35t-83.5 -100.5t-30 -153.5t29.5 -153.5t82.5 -100.5t124 -35t124 35z" />
    <glyph glyph-name="obreve" unicode="&#x14f;" horiz-adv-x="560" 
d="M183.5 604q-35.5 37 -36.5 92h67q2 -27 17.5 -43t48.5 -16t49 16.5t18 42.5h67q-1 -56 -35.5 -92.5t-98.5 -36.5q-61 0 -96.5 37zM157 17q-54 32 -84 90.5t-30 134.5q0 74 30 132.5t84 91t123 32.5q68 0 122 -32.5t84.5 -91t30.5 -132.5q0 -76 -30.5 -134.5t-84.5 -90.5
t-122 -32q-69 0 -123 32zM388 104q40 52 40 138q0 85 -40.5 136.5t-107.5 51.5t-107.5 -51.5t-40.5 -136.5q0 -86 40 -138t108 -52t108 52z" />
    <glyph glyph-name="Ohungarumlaut" unicode="&#x150;" horiz-adv-x="758" 
d="M342 785h-58l42 129h94zM471 785h-62l51 129h97zM209.5 30.5q-75.5 45.5 -119 128.5t-43.5 191t43.5 191t119 129t169.5 46q95 0 170.5 -46t118.5 -129t43 -191t-43.5 -191t-119 -128.5t-169.5 -45.5t-169.5 45.5zM503 96q53 35 82.5 100.5t29.5 153.5t-29.5 153.5
t-83 100.5t-123.5 35q-69 0 -122.5 -35t-83.5 -100.5t-30 -153.5t29.5 -153.5t82.5 -100.5t124 -35t124 35z" />
    <glyph glyph-name="ohungarumlaut" unicode="&#x151;" horiz-adv-x="560" 
d="M243 567h-58l42 129h94zM372 567h-62l51 129h97zM157 17q-54 32 -84 90.5t-30 134.5q0 74 30 132.5t84 91t123 32.5q68 0 122 -32.5t84.5 -91t30.5 -132.5q0 -76 -30.5 -134.5t-84.5 -90.5t-122 -32q-69 0 -123 32zM388 104q40 52 40 138q0 85 -40.5 136.5t-107.5 51.5
t-107.5 -51.5t-40.5 -136.5q0 -86 40 -138t108 -52t108 52z" />
    <glyph glyph-name="OE" unicode="&#x152;" horiz-adv-x="902" 
d="M402 0q-94 0 -175.5 43t-131 122.5t-49.5 184.5t49 185t130.5 122.5t176.5 42.5h438v-76h-314v-220h297v-77h-297v-250h325v-77h-449zM435 77v547h-33q-70 0 -129.5 -32.5t-95 -94.5t-35.5 -147t35.5 -147t94.5 -94t130 -32h33z" />
    <glyph glyph-name="oe" unicode="&#x153;" horiz-adv-x="926" 
d="M157 17q-54 32 -84 90.5t-30 134.5q0 75 30 133t84 90.5t123 32.5q62 0 112 -26.5t81 -74.5q31 47 79.5 74t106.5 27q106 0 164.5 -69t58.5 -187v-17h-365q1 -80 42.5 -126.5t105.5 -46.5q49 0 84 22.5t43 74.5h86q-8 -69 -62.5 -116.5t-150.5 -47.5q-66 0 -115.5 24
t-79.5 71q-32 -45 -81 -70t-109 -25q-69 0 -123 32zM388 104q40 52 40 138t-40.5 137t-107.5 51t-107.5 -51t-40.5 -137t40 -138t108 -52t108 52zM790 286q0 66 -34 105t-96 39q-59 0 -97 -41t-43 -103h270z" />
    <glyph glyph-name="Racute" unicode="&#x154;" horiz-adv-x="665" 
d="M370 785h-72l71 129h107zM90 0v700h297q102 0 160.5 -48t58.5 -136q0 -62 -38.5 -108t-90.5 -62q51 -9 82.5 -51t31.5 -109v-186h-91v161q0 82 -33.5 113.5t-113.5 31.5h-172v-306h-91zM365 383q71 0 109.5 31.5t38.5 90.5t-38.5 89t-109.5 30h-184v-241h184z" />
    <glyph glyph-name="racute" unicode="&#x155;" horiz-adv-x="347" 
d="M230 567h-72l71 129h107zM74 0v482h86v-21v-59q19 43 58.5 69.5t92.5 26.5q14 0 22 -1v-85q-14 2 -27 2q-71 0 -108.5 -40t-37.5 -119v-255h-86z" />
    <glyph glyph-name="uni0156" unicode="&#x156;" horiz-adv-x="665" 
d="M90 0v700h297q102 0 160.5 -48t58.5 -136q0 -62 -38.5 -108t-90.5 -62q51 -9 82.5 -51t31.5 -109v-186h-91v161q0 82 -33.5 113.5t-113.5 31.5h-172v-306h-91zM365 383q71 0 109.5 31.5t38.5 90.5t-38.5 89t-109.5 30h-184v-241h184zM302 -234q23 4 34.5 16.5t11.5 47.5
h-45v89h100v-86q0 -60 -28 -87t-73 -30v50z" />
    <glyph glyph-name="uni0157" unicode="&#x157;" horiz-adv-x="347" 
d="M74 0v482h86v-21v-59q19 43 58.5 69.5t92.5 26.5q14 0 22 -1v-85q-14 2 -27 2q-71 0 -108.5 -40t-37.5 -119v-255h-86zM67 -234q23 4 34.5 16.5t11.5 47.5h-45v89h100v-86q0 -60 -28 -87t-73 -30v50z" />
    <glyph glyph-name="Rcaron" unicode="&#x158;" horiz-adv-x="665" 
d="M284 791l-93 123h84l29 -36q15 -19 32 -38q13 15 31 37l30 37h85l-93 -123h-105zM90 0v700h297q102 0 160.5 -48t58.5 -136q0 -62 -38.5 -108t-90.5 -62q51 -9 82.5 -51t31.5 -109v-186h-91v161q0 82 -33.5 113.5t-113.5 31.5h-172v-306h-91zM365 383q71 0 109.5 31.5
t38.5 90.5t-38.5 89t-109.5 30h-184v-241h184z" />
    <glyph glyph-name="rcaron" unicode="&#x159;" horiz-adv-x="347" 
d="M144 573l-93 123h84l29 -36q15 -19 32 -38q13 15 31 37l30 37h85l-93 -123h-105zM74 0v482h86v-21v-59q19 43 58.5 69.5t92.5 26.5q14 0 22 -1v-85q-14 2 -27 2q-71 0 -108.5 -40t-37.5 -119v-255h-86z" />
    <glyph glyph-name="Sacute" unicode="&#x15a;" horiz-adv-x="637" 
d="M351 785h-72l71 129h107zM173 14q-64 29 -99 83.5t-36 127.5h93q4 -76 56 -120t135 -44q85 0 131.5 34.5t46.5 92.5q0 47 -35.5 73.5t-103.5 42.5l-104 24q-87 20 -141 68.5t-54 124.5q0 56 33 100.5t91.5 69.5t131.5 25q113 0 183.5 -57.5t76.5 -154.5h-93
q-5 62 -50.5 98.5t-118.5 36.5q-68 0 -113 -31t-45 -79q0 -45 30 -73t92 -42l124 -28q89 -21 140.5 -68.5t51.5 -123.5q0 -58 -33.5 -105.5t-95.5 -75.5t-146 -28t-148 29z" />
    <glyph glyph-name="sacute" unicode="&#x15b;" horiz-adv-x="483" 
d="M271 567h-72l71 129h107zM92.5 32.5q-54.5 47.5 -56.5 126.5h84q2 -50 34.5 -78.5t89.5 -28.5q50 0 80.5 21.5t30.5 57.5q0 58 -84 74l-73 14q-69 13 -108 48t-39 89q0 41 24 73t66.5 50.5t96.5 18.5q87 0 137 -40.5t55 -114.5h-85q-5 43 -34.5 65t-78.5 22
q-43 0 -69 -19t-26 -50q0 -28 20 -44t62 -24l75 -14q69 -13 107.5 -47t38.5 -92q0 -43 -24 -78.5t-68.5 -56t-104.5 -20.5q-96 0 -150.5 47.5z" />
    <glyph glyph-name="Scircumflex" unicode="&#x15c;" horiz-adv-x="637" 
d="M173 791l93 123h105l93 -123h-85l-30 37q-14 19 -31 37q-18 -20 -32 -38l-29 -36h-84zM173 14q-64 29 -99 83.5t-36 127.5h93q4 -76 56 -120t135 -44q85 0 131.5 34.5t46.5 92.5q0 47 -35.5 73.5t-103.5 42.5l-104 24q-87 20 -141 68.5t-54 124.5q0 56 33 100.5
t91.5 69.5t131.5 25q113 0 183.5 -57.5t76.5 -154.5h-93q-5 62 -50.5 98.5t-118.5 36.5q-68 0 -113 -31t-45 -79q0 -45 30 -73t92 -42l124 -28q89 -21 140.5 -68.5t51.5 -123.5q0 -58 -33.5 -105.5t-95.5 -75.5t-146 -28t-148 29z" />
    <glyph glyph-name="scircumflex" unicode="&#x15d;" horiz-adv-x="483" 
d="M93 573l93 123h105l93 -123h-85l-30 37q-14 19 -31 37q-18 -20 -32 -38l-29 -36h-84zM92.5 32.5q-54.5 47.5 -56.5 126.5h84q2 -50 34.5 -78.5t89.5 -28.5q50 0 80.5 21.5t30.5 57.5q0 58 -84 74l-73 14q-69 13 -108 48t-39 89q0 41 24 73t66.5 50.5t96.5 18.5
q87 0 137 -40.5t55 -114.5h-85q-5 43 -34.5 65t-78.5 22q-43 0 -69 -19t-26 -50q0 -28 20 -44t62 -24l75 -14q69 -13 107.5 -47t38.5 -92q0 -43 -24 -78.5t-68.5 -56t-104.5 -20.5q-96 0 -150.5 47.5z" />
    <glyph glyph-name="Scedilla" unicode="&#x15e;" horiz-adv-x="637" 
d="M566.5 94q-29.5 -46 -85 -74.5t-131.5 -33.5l-27 -41q39 0 63.5 -20.5t24.5 -53.5q0 -35 -26.5 -59.5t-78.5 -24.5q-31 0 -58.5 12.5t-43.5 30.5l34 41q31 -31 66 -31q18 0 30.5 8t12.5 23q0 12 -11 20.5t-30 8.5q-14 0 -26 -5l-30 36l36 55q-113 9 -180 73t-68 166h93
q4 -76 56 -120t135 -44q85 0 131.5 34.5t46.5 92.5q0 47 -35.5 73.5t-103.5 42.5l-104 24q-87 20 -141 68.5t-54 124.5q0 56 33 100.5t91.5 69.5t131.5 25q113 0 183.5 -57.5t76.5 -154.5h-93q-5 62 -50.5 98.5t-118.5 36.5q-68 0 -113 -31t-45 -79q0 -45 30 -73t92 -42
l124 -28q89 -21 140.5 -68.5t51.5 -123.5q0 -54 -29.5 -100z" />
    <glyph glyph-name="scedilla" unicode="&#x15f;" horiz-adv-x="483" 
d="M396.5 38q-43.5 -42 -118.5 -51l-28 -42q39 0 63.5 -20.5t24.5 -53.5q0 -35 -26.5 -59.5t-78.5 -24.5q-31 0 -58.5 12.5t-43.5 30.5l34 41q31 -31 66 -31q18 0 30.5 8t12.5 23q0 12 -11 20.5t-30 8.5q-14 0 -26 -5l-30 36l36 55q-83 8 -129 54.5t-48 118.5h84
q2 -50 34.5 -78.5t89.5 -28.5q50 0 80.5 21.5t30.5 57.5q0 58 -84 74l-73 14q-69 13 -108 48t-39 89q0 41 24 73t66.5 50.5t96.5 18.5q87 0 137 -40.5t55 -114.5h-85q-5 43 -34.5 65t-78.5 22q-43 0 -69 -19t-26 -50q0 -28 20 -44t62 -24l75 -14q69 -13 107.5 -47t38.5 -92
q0 -60 -43.5 -102z" />
    <glyph glyph-name="Scaron" unicode="&#x160;" horiz-adv-x="637" 
d="M265 791l-93 123h84l29 -36q15 -19 32 -38q13 15 31 37l30 37h85l-93 -123h-105zM173 14q-64 29 -99 83.5t-36 127.5h93q4 -76 56 -120t135 -44q85 0 131.5 34.5t46.5 92.5q0 47 -35.5 73.5t-103.5 42.5l-104 24q-87 20 -141 68.5t-54 124.5q0 56 33 100.5t91.5 69.5
t131.5 25q113 0 183.5 -57.5t76.5 -154.5h-93q-5 62 -50.5 98.5t-118.5 36.5q-68 0 -113 -31t-45 -79q0 -45 30 -73t92 -42l124 -28q89 -21 140.5 -68.5t51.5 -123.5q0 -58 -33.5 -105.5t-95.5 -75.5t-146 -28t-148 29z" />
    <glyph glyph-name="scaron" unicode="&#x161;" horiz-adv-x="483" 
d="M185 573l-93 123h84l29 -36q15 -19 32 -38q14 15 31 37l30 37h85l-93 -123h-105zM92.5 32.5q-54.5 47.5 -56.5 126.5h84q2 -50 34.5 -78.5t89.5 -28.5q50 0 80.5 21.5t30.5 57.5q0 58 -84 74l-73 14q-69 13 -108 48t-39 89q0 41 24 73t66.5 50.5t96.5 18.5
q87 0 137 -40.5t55 -114.5h-85q-5 43 -34.5 65t-78.5 22q-43 0 -69 -19t-26 -50q0 -28 20 -44t62 -24l75 -14q69 -13 107.5 -47t38.5 -92q0 -43 -24 -78.5t-68.5 -56t-104.5 -20.5q-96 0 -150.5 47.5z" />
    <glyph glyph-name="uni0162" unicode="&#x162;" horiz-adv-x="593" 
d="M342 0h-13l-36 -55q39 0 63.5 -20.5t24.5 -53.5q0 -35 -26.5 -59.5t-78.5 -24.5q-31 0 -58.5 12.5t-43.5 30.5l34 41q31 -31 66 -31q18 0 30.5 8t12.5 23q0 12 -11 20.5t-30 8.5q-14 0 -26 -5l-30 36l44 69h-13v624h-242v76h574v-76h-241v-624z" />
    <glyph glyph-name="uni0163" unicode="&#x163;" horiz-adv-x="330" 
d="M239 -5l-33 -50q39 0 63.5 -20.5t24.5 -53.5q0 -35 -26.5 -59.5t-78.5 -24.5q-31 0 -58.5 12.5t-43.5 30.5l34 41q31 -31 66 -31q18 0 30.5 8t12.5 23q0 12 -11 20.5t-30 8.5q-14 0 -26 -5l-30 36l48 75q-73 31 -73 131v274h-90v71h90v159h86v-159h100v-71h-100v-265
q0 -40 18.5 -57t52.5 -17q15 0 36 3v-74q-27 -6 -56 -6h-6z" />
    <glyph glyph-name="Tcaron" unicode="&#x164;" horiz-adv-x="593" 
d="M243 791l-93 123h84l29 -36q15 -19 32 -38q14 15 31 37l30 37h85l-93 -123h-105zM342 0h-91v624h-242v76h574v-76h-241v-624z" />
    <glyph glyph-name="tcaron" unicode="&#x165;" horiz-adv-x="330" 
d="M241 565q22 6 34 18.5t12 37.5h-47v79h101v-73q0 -51 -30.5 -75.5t-69.5 -28.5v42zM146.5 28.5q-38.5 33.5 -38.5 108.5v274h-90v71h90v159h86v-159h100v-71h-100v-265q0 -40 18.5 -57t52.5 -17q15 0 36 3v-74q-27 -6 -56 -6q-60 0 -98.5 33.5z" />
    <glyph glyph-name="Tbar" unicode="&#x166;" horiz-adv-x="593" 
d="M583 700v-76h-241v-237h151v-74h-151v-313h-91v313h-152v74h152v237h-242v76h574z" />
    <glyph glyph-name="tbar" unicode="&#x167;" horiz-adv-x="335" 
d="M306 75v-74q-27 -6 -56 -6q-60 0 -98.5 33.5t-38.5 108.5v92h-76v73h76v109h-90v71h90v159h86v-159h100v-71h-100v-109h76v-73h-76v-83q0 -40 18.5 -57t52.5 -17q15 0 36 3z" />
    <glyph glyph-name="Utilde" unicode="&#x168;" horiz-adv-x="693" 
d="M378 805.5q-15 5.5 -35 16.5q-20 10 -30 14t-22 4q-32 0 -33 -39h-68q0 53 26 79.5t68 26.5q18 0 32 -5.5t36 -17.5q15 -9 26.5 -14t24.5 -5q31 0 32 38h67q0 -52 -24.5 -77.5t-65.5 -25.5q-19 0 -34 5.5zM152 57.5q-69 72.5 -69 215.5v427h91v-415q0 -114 43 -169
t129 -55t129.5 54.5t43.5 169.5v415h91v-427q0 -143 -69 -215.5t-195 -72.5q-125 0 -194 72.5z" />
    <glyph glyph-name="utilde" unicode="&#x169;" horiz-adv-x="546" 
d="M307 587.5q-15 5.5 -35 16.5q-20 10 -30 14t-22 4q-32 0 -33 -39h-68q0 53 26 79.5t68 26.5q18 0 32 -5.5t36 -17.5q15 -9 26.5 -14t24.5 -5q31 0 32 38h67q0 -52 -24.5 -77.5t-65.5 -25.5q-19 0 -34 5.5zM112.5 34q-44.5 49 -44.5 141v307h86v-289q0 -71 26 -106t84 -35
q59 0 91 43t32 121v266h85v-482h-84v29v38q-17 -38 -57 -60t-89 -22q-85 0 -129.5 49z" />
    <glyph glyph-name="Umacron" unicode="&#x16a;" horiz-adv-x="693" 
d="M484 804h-277v74h277v-74zM152 57.5q-69 72.5 -69 215.5v427h91v-415q0 -114 43 -169t129 -55t129.5 54.5t43.5 169.5v415h91v-427q0 -143 -69 -215.5t-195 -72.5q-125 0 -194 72.5z" />
    <glyph glyph-name="umacron" unicode="&#x16b;" horiz-adv-x="546" 
d="M413 586h-277v74h277v-74zM112.5 34q-44.5 49 -44.5 141v307h86v-289q0 -71 26 -106t84 -35q59 0 91 43t32 121v266h85v-482h-84v29v38q-17 -38 -57 -60t-89 -22q-85 0 -129.5 49z" />
    <glyph glyph-name="Ubreve" unicode="&#x16c;" horiz-adv-x="693" 
d="M249.5 822q-35.5 37 -36.5 92h67q2 -27 17.5 -43t48.5 -16t49 16.5t18 42.5h67q-1 -56 -35.5 -92.5t-98.5 -36.5q-61 0 -96.5 37zM152 57.5q-69 72.5 -69 215.5v427h91v-415q0 -114 43 -169t129 -55t129.5 54.5t43.5 169.5v415h91v-427q0 -143 -69 -215.5t-195 -72.5
q-125 0 -194 72.5z" />
    <glyph glyph-name="ubreve" unicode="&#x16d;" horiz-adv-x="546" 
d="M178.5 604q-35.5 37 -36.5 92h67q2 -27 17.5 -43t48.5 -16t49 16.5t18 42.5h67q-1 -56 -35.5 -92.5t-98.5 -36.5q-61 0 -96.5 37zM112.5 34q-44.5 49 -44.5 141v307h86v-289q0 -71 26 -106t84 -35q59 0 91 43t32 121v266h85v-482h-84v29v38q-17 -38 -57 -60t-89 -22
q-85 0 -129.5 49z" />
    <glyph glyph-name="Uring" unicode="&#x16e;" horiz-adv-x="693" 
d="M283.5 780.5q-25.5 24.5 -25.5 62.5t25.5 63.5t62.5 25.5q36 0 62 -25.5t26 -63.5t-26 -62.5t-62 -24.5q-37 0 -62.5 24.5zM372.5 814q9.5 10 9.5 29t-10 29.5t-26 10.5t-26 -10.5t-10 -29.5q0 -18 10 -28.5t26 -10.5q17 0 26.5 10zM152 57.5q-69 72.5 -69 215.5v427h91
v-415q0 -114 43 -169t129 -55t129.5 54.5t43.5 169.5v415h91v-427q0 -143 -69 -215.5t-195 -72.5q-125 0 -194 72.5z" />
    <glyph glyph-name="uring" unicode="&#x16f;" horiz-adv-x="546" 
d="M212.5 562.5q-25.5 24.5 -25.5 62.5t25.5 63.5t62.5 25.5q36 0 62 -25.5t26 -63.5t-26 -62.5t-62 -24.5q-37 0 -62.5 24.5zM301.5 596q9.5 10 9.5 29t-10 29.5t-26 10.5t-26 -10.5t-10 -29.5q0 -18 10 -28.5t26 -10.5q17 0 26.5 10zM112.5 34q-44.5 49 -44.5 141v307h86
v-289q0 -71 26 -106t84 -35q59 0 91 43t32 121v266h85v-482h-84v29v38q-17 -38 -57 -60t-89 -22q-85 0 -129.5 49z" />
    <glyph glyph-name="Uhungarumlaut" unicode="&#x170;" horiz-adv-x="693" 
d="M309 785h-58l42 129h94zM438 785h-62l51 129h97zM152 57.5q-69 72.5 -69 215.5v427h91v-415q0 -114 43 -169t129 -55t129.5 54.5t43.5 169.5v415h91v-427q0 -143 -69 -215.5t-195 -72.5q-125 0 -194 72.5z" />
    <glyph glyph-name="uhungarumlaut" unicode="&#x171;" horiz-adv-x="546" 
d="M238 567h-58l42 129h94zM367 567h-62l51 129h97zM112.5 34q-44.5 49 -44.5 141v307h86v-289q0 -71 26 -106t84 -35q59 0 91 43t32 121v266h85v-482h-84v29v38q-17 -38 -57 -60t-89 -22q-85 0 -129.5 49z" />
    <glyph glyph-name="Uogonek" unicode="&#x172;" horiz-adv-x="693" 
d="M300 -167.5q-31 24.5 -31 67.5q0 53 52 85q-114 8 -176 80t-62 208v427h91v-415q0 -114 43 -169t129 -55t129.5 54.5t43.5 169.5v415h91v-427q0 -116 -47 -186.5t-134 -92.5q-35 -9 -61 -30t-26 -48q0 -22 14.5 -32.5t38.5 -10.5q15 0 29 4v-62q-17 -7 -46 -7
q-47 0 -78 24.5z" />
    <glyph glyph-name="uogonek" unicode="&#x173;" horiz-adv-x="546" 
d="M472 0q-35 -14 -58.5 -35.5t-23.5 -48.5q0 -22 14.5 -32.5t36.5 -10.5q17 0 31 4v-62q-17 -7 -47 -7q-46 0 -77 25t-31 68q0 65 71 102v26v38q-17 -38 -57 -60t-89 -22q-85 0 -129.5 49t-44.5 141v307h86v-289q0 -71 26 -106t84 -35q59 0 91 43t32 121v266h85v-482z" />
    <glyph glyph-name="Wcircumflex" unicode="&#x174;" horiz-adv-x="963" 
d="M339 791l93 123h105l93 -123h-85l-30 37q-15 19 -31 37q-18 -20 -32 -38l-29 -36h-84zM205 0l-190 700h94l136 -509q9 -30 22 -81l8 29q6 17 15 52l137 509h114l135 -509q12 -40 22 -82l22 82l139 509h89l-190 -700h-111l-139 524l-25 93l-24 -93l-142 -524h-112z" />
    <glyph glyph-name="wcircumflex" unicode="&#x175;" horiz-adv-x="783" 
d="M248 573l93 123h105l93 -123h-85l-30 37q-14 19 -31 37q-18 -20 -32 -38l-29 -36h-84zM171 0l-157 482h93l105 -357q8 -24 10 -33q8 22 11 33l106 357h107l112 -357l9 -29l10 31l104 355h87l-155 -482h-100l-110 364l-11 35l-11 -35l-111 -364h-99z" />
    <glyph glyph-name="Ycircumflex" unicode="&#x176;" horiz-adv-x="591" 
d="M153 791l93 123h105l93 -123h-85l-30 37q-14 19 -31 37q-18 -20 -32 -38l-29 -36h-84zM249 0v302l-241 398h102l136 -235l29 -51q16 -29 19 -34q13 21 51 85l139 235h99l-243 -398v-302h-91z" />
    <glyph glyph-name="ycircumflex" unicode="&#x177;" horiz-adv-x="481" 
d="M99 573l93 123h105l93 -123h-85l-30 37q-15 19 -31 37q-18 -20 -32 -38l-29 -36h-84zM119 -211l88 228l-193 465h95l120 -308l23 -59l21 59l106 308h90l-259 -693h-91z" />
    <glyph glyph-name="Ydieresis" unicode="&#x178;" horiz-adv-x="591" 
d="M247 791h-100v103h100v-103zM448 791h-99v103h99v-103zM249 0v302l-241 398h102l136 -235l29 -51q16 -29 19 -34q13 21 51 85l139 235h99l-243 -398v-302h-91z" />
    <glyph glyph-name="Zacute" unicode="&#x179;" horiz-adv-x="593" 
d="M339 785h-72l71 129h107zM34 0v85l375 489q19 26 24 31l14 19h-396v76h499v-82l-368 -478l-48 -63h428v-77h-528z" />
    <glyph glyph-name="zacute" unicode="&#x17a;" horiz-adv-x="461" 
d="M275 567h-72l71 129h107zM36 0v71l268 317l21 27h-279v67h373v-71l-265 -314q-16 -20 -25 -30h297v-67h-390z" />
    <glyph glyph-name="Zdotaccent" unicode="&#x17b;" horiz-adv-x="593" 
d="M355 791h-100v103h100v-103zM34 0v85l375 489q19 26 24 31l14 19h-396v76h499v-82l-368 -478l-48 -63h428v-77h-528z" />
    <glyph glyph-name="zdotaccent" unicode="&#x17c;" horiz-adv-x="461" 
d="M291 573h-100v103h100v-103zM36 0v71l268 317l21 27h-279v67h373v-71l-265 -314q-16 -20 -25 -30h297v-67h-390z" />
    <glyph glyph-name="Zcaron" unicode="&#x17d;" horiz-adv-x="593" 
d="M253 791l-93 123h84l29 -36q15 -19 32 -38q14 15 31 37l30 37h85l-93 -123h-105zM34 0v85l375 489q19 26 24 31l14 19h-396v76h499v-82l-368 -478l-48 -63h428v-77h-528z" />
    <glyph glyph-name="zcaron" unicode="&#x17e;" horiz-adv-x="461" 
d="M189 573l-93 123h84l29 -36q15 -19 32 -38q14 15 31 37l30 37h85l-93 -123h-105zM36 0v71l268 317l21 27h-279v67h373v-71l-265 -314q-16 -20 -25 -30h297v-67h-390z" />
    <glyph glyph-name="florin" unicode="&#x192;" horiz-adv-x="536" 
d="M380 622q-20 -20 -28 -64l-23 -134h168v-64h-179l-57 -337q-14 -77 -55.5 -114t-105.5 -37q-33 0 -68 11v74q36 -11 59 -11q38 0 58.5 20t27.5 64l56 330h-159v64h170l24 141q13 77 54.5 114t105.5 37q32 0 69 -11v-74q-18 5 -31.5 8t-27.5 3q-38 0 -58 -20z" />
    <glyph glyph-name="Aringacute" unicode="&#x1fa;" horiz-adv-x="681" 
d="M369 1109h107l-106 -129h-72zM277.5 780.5q-25.5 24.5 -25.5 62.5t25.5 63.5t62.5 25.5q36 0 62 -25.5t26 -63.5t-26 -62.5t-62 -24.5q-37 0 -62.5 24.5zM314 872.5q-10 -10.5 -10 -29.5q0 -18 10 -28.5t26 -10.5q17 0 26.5 10t9.5 29t-10 29.5t-26 10.5t-26 -10.5z
M676 0h-101l-80 208h-314l-80 -208h-96l280 700h110zM210 284h256l-108 280q-7 18 -8 23l-12 30l-20 -53z" />
    <glyph glyph-name="aringacute" unicode="&#x1fb;" horiz-adv-x="509" 
d="M293 762h-72l71 129h107zM193.5 562.5q-25.5 24.5 -25.5 62.5t25.5 63.5t62.5 25.5q36 0 62 -25.5t26 -63.5t-26 -62.5t-62 -24.5q-37 0 -62.5 24.5zM282.5 596q9.5 10 9.5 29t-10 29.5t-26 10.5t-26 -10.5t-10 -29.5q0 -18 10 -28.5t26 -10.5q17 0 26.5 10zM92.5 25
q-47.5 40 -47.5 107q0 65 44.5 101.5t115.5 48.5l103 16q27 4 38 15t11 33q0 39 -27 61.5t-70 22.5q-54 0 -83 -26.5t-31 -72.5h-86q2 45 25 83t66.5 61t101.5 23q89 0 138.5 -49t49.5 -133v-316h-82v24v41q-18 -38 -56.5 -59t-91.5 -21q-71 0 -118.5 40zM319 88
q38 36 38 94v71q-8 -12 -53 -21l-70 -13q-100 -19 -100 -87q0 -36 25.5 -58t63.5 -22q58 0 96 36z" />
    <glyph glyph-name="AEacute" unicode="&#x1fc;" horiz-adv-x="908" 
d="M604 914h107l-106 -129h-72zM480 327v-250h376v-77h-467v208h-200l-101 -208h-101l355 700h502v-76h-364v-220h348v-77h-348zM226 284h163v335q-19 -37 -26 -55z" />
    <glyph glyph-name="aeacute" unicode="&#x1fd;" horiz-adv-x="856" 
d="M455 567h-72l71 129h107zM91.5 26.5q-46.5 41.5 -46.5 107.5q0 65 45.5 101t116.5 47l101 15q28 4 40 15.5t12 32.5q0 39 -29 62t-73 23q-53 0 -81.5 -26.5t-30.5 -72.5h-86q2 45 25.5 83t66.5 61t101 23q56 0 97.5 -22t65.5 -62q31 40 76 62t97 22q106 0 164.5 -69
t58.5 -187v-17h-365q1 -80 41.5 -126.5t104.5 -46.5q50 0 85.5 22.5t43.5 74.5h86q-8 -70 -62 -117t-151 -47q-70 0 -121 26.5t-80 78.5q-23 -50 -71.5 -77.5t-111.5 -27.5q-73 0 -119.5 41.5zM720 286q0 66 -34 105t-96 39q-59 0 -97.5 -41t-43.5 -103h271zM320.5 89
q39.5 37 39.5 95v69q-5 -7 -17.5 -11.5t-33.5 -8.5l-73 -14q-46 -9 -74 -30t-28 -55q0 -38 24.5 -60t63.5 -22q59 0 98.5 37z" />
    <glyph glyph-name="Oslashacute" unicode="&#x1fe;" horiz-adv-x="758" 
d="M411 914h107l-106 -129h-72zM627 604q40 -49 62 -113.5t22 -140.5q0 -108 -43.5 -191t-119 -128.5t-169.5 -45.5q-105 0 -187 57l-60 -77l-64 46l65 84q-41 48 -63.5 113t-22.5 142q0 108 43.5 191t119 129t169.5 46q108 0 190 -59l61 79l62 -48zM188 166l330 426
q-56 47 -139 47q-69 0 -122.5 -35t-83.5 -100.5t-30 -153.5q0 -110 45 -184zM503 96q53 35 82.5 100.5t29.5 153.5q0 107 -44 182l-330 -426q59 -45 138 -45q71 0 124 35z" />
    <glyph glyph-name="oslashacute" unicode="&#x1ff;" horiz-adv-x="560" 
d="M312 696h107l-106 -129h-72zM459 417q58 -71 58 -175q0 -76 -30.5 -134.5t-84.5 -90.5t-122 -32q-72 0 -128 36l-44 -57l-54 42l46 60q-27 33 -42 78t-15 98q0 74 30 132.5t84 91t123 32.5q71 0 127 -36l45 58l54 -42zM153 134l209 270q-35 26 -82 26q-67 0 -107.5 -51.5
t-40.5 -136.5q0 -63 21 -108zM388 104q40 52 40 138q0 61 -22 107l-209 -270q37 -27 83 -27q68 0 108 52z" />
    <glyph glyph-name="uni0218" unicode="&#x218;" horiz-adv-x="637" 
d="M173 14q-64 29 -99 83.5t-36 127.5h93q4 -76 56 -120t135 -44q85 0 131.5 34.5t46.5 92.5q0 47 -35.5 73.5t-103.5 42.5l-104 24q-87 20 -141 68.5t-54 124.5q0 56 33 100.5t91.5 69.5t131.5 25q113 0 183.5 -57.5t76.5 -154.5h-93q-5 62 -50.5 98.5t-118.5 36.5
q-68 0 -113 -31t-45 -79q0 -45 30 -73t92 -42l124 -28q89 -21 140.5 -68.5t51.5 -123.5q0 -58 -33.5 -105.5t-95.5 -75.5t-146 -28t-148 29zM276 -234q23 4 34.5 16.5t11.5 47.5h-45v89h100v-86q0 -60 -28 -87t-73 -30v50z" />
    <glyph glyph-name="uni0219" unicode="&#x219;" horiz-adv-x="483" 
d="M92.5 32.5q-54.5 47.5 -56.5 126.5h84q2 -50 34.5 -78.5t89.5 -28.5q50 0 80.5 21.5t30.5 57.5q0 58 -84 74l-73 14q-69 13 -108 48t-39 89q0 41 24 73t66.5 50.5t96.5 18.5q87 0 137 -40.5t55 -114.5h-85q-5 43 -34.5 65t-78.5 22q-43 0 -69 -19t-26 -50q0 -28 20 -44
t62 -24l75 -14q69 -13 107.5 -47t38.5 -92q0 -43 -24 -78.5t-68.5 -56t-104.5 -20.5q-96 0 -150.5 47.5zM203 -234q23 4 34.5 16.5t11.5 47.5h-45v89h100v-86q0 -60 -28 -87t-73 -30v50z" />
    <glyph glyph-name="uni021A" unicode="&#x21a;" horiz-adv-x="593" 
d="M342 0h-91v624h-242v76h574v-76h-241v-624zM246 -234q23 4 34.5 16.5t11.5 47.5h-45v89h100v-86q0 -60 -28 -87t-73 -30v50z" />
    <glyph glyph-name="uni021B" unicode="&#x21b;" horiz-adv-x="330" 
d="M146.5 28.5q-38.5 33.5 -38.5 108.5v274h-90v71h90v159h86v-159h100v-71h-100v-265q0 -40 18.5 -57t52.5 -17q15 0 36 3v-74q-27 -6 -56 -6q-60 0 -98.5 33.5zM159 -234q23 4 34.5 16.5t11.5 47.5h-45v89h100v-86q0 -60 -28 -87t-73 -30v50z" />
    <glyph glyph-name="uni0226" unicode="&#x226;" horiz-adv-x="681" 
d="M289 894h100v-103h-100v103zM676 0h-101l-80 208h-314l-80 -208h-96l280 700h110zM210 284h256l-108 280q-7 18 -8 23l-12 30l-20 -53z" />
    <glyph glyph-name="uni0227" unicode="&#x227;" horiz-adv-x="509" 
d="M305 573h-100v103h100v-103zM92.5 25q-47.5 40 -47.5 107q0 65 44.5 101.5t115.5 48.5l103 16q27 4 38 15t11 33q0 39 -27 61.5t-70 22.5q-54 0 -83 -26.5t-31 -72.5h-86q2 45 25 83t66.5 61t101.5 23q89 0 138.5 -49t49.5 -133v-316h-82v24v41q-18 -38 -56.5 -59
t-91.5 -21q-71 0 -118.5 40zM319 88q38 36 38 94v71q-8 -12 -53 -21l-70 -13q-100 -19 -100 -87q0 -36 25.5 -58t63.5 -22q58 0 96 36z" />
    <glyph glyph-name="uni0232" unicode="&#x232;" horiz-adv-x="591" 
d="M436 804h-277v74h277v-74zM249 0v302l-241 398h102l136 -235l29 -51q16 -29 19 -34q13 21 51 85l139 235h99l-243 -398v-302h-91z" />
    <glyph glyph-name="uni0233" unicode="&#x233;" horiz-adv-x="481" 
d="M382 586h-277v74h277v-74zM119 -211l88 228l-193 465h95l120 -308l23 -59l21 59l106 308h90l-259 -693h-91z" />
    <glyph glyph-name="uni0237" unicode="&#x237;" horiz-adv-x="241" 
d="M167 482v-575q0 -53 -32 -93.5t-102 -40.5q-28 0 -48 5v77q12 -4 25 -4q34 0 52.5 19t18.5 63v549h86z" />
    <glyph glyph-name="circumflex" unicode="&#x2c6;" horiz-adv-x="386" 
d="M49 573l93 123h105l93 -123h-85l-30 37q-14 19 -31 37q-18 -20 -32 -38l-29 -36h-84z" />
    <glyph glyph-name="caron" unicode="&#x2c7;" horiz-adv-x="386" 
d="M142 573l-93 123h84l29 -36q15 -19 32 -38q14 15 31 37l30 37h85l-93 -123h-105z" />
    <glyph glyph-name="breve" unicode="&#x2d8;" horiz-adv-x="361" 
d="M83.5 604q-35.5 37 -36.5 92h67q2 -27 17.5 -43t48.5 -16t49 16.5t18 42.5h67q-1 -56 -35.5 -92.5t-98.5 -36.5q-61 0 -96.5 37z" />
    <glyph glyph-name="dotaccent" unicode="&#x2d9;" horiz-adv-x="194" 
d="M147 573h-100v103h100v-103z" />
    <glyph glyph-name="ring" unicode="&#x2da;" horiz-adv-x="271" 
d="M72.5 562.5q-25.5 24.5 -25.5 62.5t25.5 63.5t62.5 25.5q36 0 62 -25.5t26 -63.5t-26 -62.5t-62 -24.5q-37 0 -62.5 24.5zM161.5 596q9.5 10 9.5 29t-10 29.5t-26 10.5t-26 -10.5t-10 -29.5q0 -18 10 -28.5t26 -10.5q17 0 26.5 10z" />
    <glyph glyph-name="ogonek" unicode="&#x2db;" horiz-adv-x="245" 
d="M74 -167q-31 25 -31 68q0 75 97 114l58 -15q-35 -14 -58.5 -35.5t-23.5 -48.5q0 -22 14.5 -32.5t36.5 -10.5q17 0 31 4v-62q-17 -7 -47 -7q-46 0 -77 25z" />
    <glyph glyph-name="tilde" unicode="&#x2dc;" horiz-adv-x="407" 
d="M234.5 587.5q-15.5 5.5 -34.5 16.5q-20 10 -30 14t-22 4q-32 0 -33 -39h-68q0 53 26 79.5t68 26.5q18 0 32 -5.5t36 -17.5q15 -9 26.5 -14t24.5 -5q31 0 32 38h67q0 -52 -24.5 -77.5t-65.5 -25.5q-19 0 -34.5 5.5z" />
    <glyph glyph-name="hungarumlaut" unicode="&#x2dd;" horiz-adv-x="361" 
d="M102 567h-58l42 129h94zM231 567h-62l51 129h97z" />
    <glyph glyph-name="uni0394" unicode="&#x394;" horiz-adv-x="672" 
d="M640 0h-608v73l262 627h82l264 -627v-73zM118 73h435l-177 432l-41 98l-40 -98z" />
    <glyph glyph-name="uni03A9" unicode="&#x3a9;" horiz-adv-x="764" 
d="M77 0v71h97h21q-3 2 -7.5 4.5t-9.5 6.5q-59 42 -92.5 113.5t-33.5 161.5q0 107 42.5 188.5t117.5 126t170 44.5t170 -44.5t117.5 -126t42.5 -188.5q0 -90 -33.5 -162t-92.5 -113q-5 -4 -9.5 -6.5t-7.5 -4.5h21h96v-71h-258v71q54 8 97 43.5t68 96.5t25 143
q0 87 -30 151.5t-83.5 99t-122.5 34.5q-70 0 -123.5 -34.5t-83 -99t-29.5 -151.5q0 -82 25 -143t67.5 -96.5t96.5 -43.5v-71h-258z" />
    <glyph glyph-name="uni03BC" unicode="&#x3bc;" horiz-adv-x="570" 
d="M83 -211v694h86v-290q0 -71 26 -106t84 -35t90 43t32 121v266h86v-482h-84v29v38q-18 -38 -57.5 -60t-88.5 -22q-55 0 -88 24v-24v-196h-86z" />
    <glyph glyph-name="pi" unicode="&#x3c0;" horiz-adv-x="584" 
d="M395 18q-38 33 -38 108v289h-166v-415h-86v415h-82v67h520v-67h-100v-282q0 -40 18 -56t53 -16q15 0 36 3v-75q-23 -4 -54 -4q-63 0 -101 33z" />
    <glyph glyph-name="uni0E3F" unicode="&#xe3f;" horiz-adv-x="621" 
d="M351 1v-112h-73v111h-187v700h187v112h73v-112q95 -4 150.5 -48t55.5 -128q0 -55 -34 -96.5t-84 -57.5q63 -20 98.5 -64.5t35.5 -108.5q0 -179 -222 -196zM278 629h-98v-227h98v227zM438 593.5q-28 30.5 -87 34.5v-225q55 6 85 36t30 78q0 46 -28 76.5zM180 331v-260h98
v260h-98zM351 72q131 10 131 130q0 54 -30 88t-101 40v-258z" />
    <glyph glyph-name="Wgrave" unicode="&#x1e80;" horiz-adv-x="963" 
d="M533 785h-72l-106 129h108zM205 0l-190 700h94l136 -509q9 -30 22 -81l8 29q6 17 15 52l137 509h114l135 -509q12 -40 22 -82l22 82l139 509h89l-190 -700h-111l-139 524l-25 93l-24 -93l-142 -524h-112z" />
    <glyph glyph-name="wgrave" unicode="&#x1e81;" horiz-adv-x="783" 
d="M442 567h-72l-106 129h108zM171 0l-157 482h93l105 -357q8 -24 10 -33q8 22 11 33l106 357h107l112 -357l9 -29l10 31l104 355h87l-155 -482h-100l-110 364l-11 35l-11 -35l-111 -364h-99z" />
    <glyph glyph-name="Wacute" unicode="&#x1e82;" horiz-adv-x="963" 
d="M517 785h-72l71 129h107zM205 0l-190 700h94l136 -509q9 -30 22 -81l8 29q6 17 15 52l137 509h114l135 -509q12 -40 22 -82l22 82l139 509h89l-190 -700h-111l-139 524l-25 93l-24 -93l-142 -524h-112z" />
    <glyph glyph-name="wacute" unicode="&#x1e83;" horiz-adv-x="783" 
d="M426 567h-72l71 129h107zM171 0l-157 482h93l105 -357q8 -24 10 -33q8 22 11 33l106 357h107l112 -357l9 -29l10 31l104 355h87l-155 -482h-100l-110 364l-11 35l-11 -35l-111 -364h-99z" />
    <glyph glyph-name="Wdieresis" unicode="&#x1e84;" horiz-adv-x="963" 
d="M433 791h-100v103h100v-103zM634 791h-99v103h99v-103zM205 0l-190 700h94l136 -509q9 -30 22 -81l8 29q6 17 15 52l137 509h114l135 -509q12 -40 22 -82l22 82l139 509h89l-190 -700h-111l-139 524l-25 93l-24 -93l-142 -524h-112z" />
    <glyph glyph-name="wdieresis" unicode="&#x1e85;" horiz-adv-x="783" 
d="M342 573h-100v103h100v-103zM543 573h-99v103h99v-103zM171 0l-157 482h93l105 -357q8 -24 10 -33q8 22 11 33l106 357h107l112 -357l9 -29l10 31l104 355h87l-155 -482h-100l-110 364l-11 35l-11 -35l-111 -364h-99z" />
    <glyph glyph-name="uni1E9E" unicode="&#x1e9e;" horiz-adv-x="669" 
d="M284 -3v77q47 -13 97 -13q69 0 108.5 31t39.5 93q0 63 -43.5 97t-126.5 34h-56v77h61q71 0 108 33t37 86q0 55 -40.5 83.5t-109.5 28.5h-178v-624h-91v700h274q76 0 129 -24t80 -65t27 -92q0 -61 -36.5 -103.5t-90.5 -57.5q68 -18 107.5 -65.5t39.5 -115.5q0 -51 -25 -95
t-76.5 -70.5t-126.5 -26.5q-60 0 -108 12z" />
    <glyph glyph-name="Ygrave" unicode="&#x1ef2;" horiz-adv-x="591" 
d="M347 785h-72l-106 129h108zM249 0v302l-241 398h102l136 -235l29 -51q16 -29 19 -34q13 21 51 85l139 235h99l-243 -398v-302h-91z" />
    <glyph glyph-name="ygrave" unicode="&#x1ef3;" horiz-adv-x="481" 
d="M293 567h-72l-106 129h108zM119 -211l88 228l-193 465h95l120 -308l23 -59l21 59l106 308h90l-259 -693h-91z" />
    <glyph glyph-name="uni2002" unicode="&#x2002;" horiz-adv-x="459" 
 />
    <glyph glyph-name="uni2003" unicode="&#x2003;" horiz-adv-x="915" 
 />
    <glyph glyph-name="uni2009" unicode="&#x2009;" horiz-adv-x="118" 
 />
    <glyph glyph-name="uni200A" unicode="&#x200a;" horiz-adv-x="42" 
 />
    <glyph glyph-name="endash" unicode="&#x2013;" horiz-adv-x="564" 
d="M500 232h-436v73h436v-73z" />
    <glyph glyph-name="emdash" unicode="&#x2014;" horiz-adv-x="838" 
d="M774 232h-710v73h710v-73z" />
    <glyph glyph-name="uni2015" unicode="&#x2015;" horiz-adv-x="838" 
d="M774 232h-710v73h710v-73z" />
    <glyph glyph-name="quoteleft" unicode="&#x2018;" horiz-adv-x="228" 
d="M167 654q-50 -17 -50 -86v-13h47v-110h-105v119q0 66 30.5 101t77.5 39v-50z" />
    <glyph glyph-name="quoteright" unicode="&#x2019;" horiz-adv-x="221" 
d="M62 491q50 17 50 86v13h-47v110h105v-119q0 -66 -30.5 -101t-77.5 -39v50z" />
    <glyph glyph-name="quotesinglbase" unicode="&#x201a;" horiz-adv-x="234" 
d="M62 -99q50 17 50 86v13h-47v110h105v-119q0 -66 -30.5 -101t-77.5 -39v50z" />
    <glyph glyph-name="quotedblleft" unicode="&#x201c;" horiz-adv-x="406" 
d="M167 654q-50 -17 -50 -86v-13h47v-110h-105v119q0 66 30.5 101t77.5 39v-50zM345 654q-50 -17 -50 -86v-13h47v-110h-105v119q0 66 30.5 101t77.5 39v-50z" />
    <glyph glyph-name="quotedblright" unicode="&#x201d;" horiz-adv-x="398" 
d="M62 491q50 17 50 86v13h-47v110h105v-119q0 -66 -30.5 -101t-77.5 -39v50zM240 491q50 17 50 86v13h-47v110h105v-119q0 -66 -30.5 -101t-77.5 -39v50z" />
    <glyph glyph-name="quotedblbase" unicode="&#x201e;" horiz-adv-x="412" 
d="M62 -99q50 17 50 86v13h-47v110h105v-119q0 -66 -30.5 -101t-77.5 -39v50zM240 -99q50 17 50 86v13h-47v110h105v-119q0 -66 -30.5 -101t-77.5 -39v50z" />
    <glyph glyph-name="dagger" unicode="&#x2020;" horiz-adv-x="498" 
d="M288 0h-78v419h-178v78h178v203h78v-203h178v-78h-178v-419z" />
    <glyph glyph-name="daggerdbl" unicode="&#x2021;" horiz-adv-x="537" 
d="M307 253h179v-77h-179v-176h-78v176h-178v77h178v166h-178v78h178v203h78v-203h178v-78h-178v-166z" />
    <glyph glyph-name="bullet" unicode="&#x2022;" horiz-adv-x="393" 
d="M126 165.5q-32 18.5 -50.5 51t-18.5 70.5t18.5 71t50.5 52t70 19t70 -19t51 -52t19 -71t-19 -70.5t-51 -51t-70 -18.5t-70 18.5z" />
    <glyph glyph-name="ellipsis" unicode="&#x2026;" horiz-adv-x="726" 
d="M172 0h-109v116h109v-116zM418 0h-110v116h110v-116zM663 0h-110v116h110v-116z" />
    <glyph glyph-name="perthousand" unicode="&#x2030;" horiz-adv-x="1017" 
d="M298.5 422.5q-43.5 -46.5 -112.5 -46.5t-112 46.5t-43 120.5t43 120t112 46t112.5 -46t43.5 -120t-43.5 -120.5zM87 0l509 700h86l-510 -700h-85zM129.5 471.5q21.5 -27.5 56.5 -27.5t56.5 27.5t21.5 71.5q0 46 -21.5 74.5t-56.5 28.5t-56.5 -28.5t-21.5 -74.5
q0 -44 21.5 -71.5zM933 278.5q43 -46.5 43 -119.5q0 -75 -43 -121.5t-110 -46.5q-39 0 -70 17.5t-51 49.5q-20 -32 -52 -49.5t-70 -17.5q-68 0 -110 46.5t-42 121.5q0 74 42.5 120t109.5 46q38 0 70 -17.5t52 -48.5q20 31 51.5 48.5t69.5 17.5q67 0 110 -46.5zM639 86.5
q22 27.5 22 72.5q0 46 -22 74.5t-57 28.5t-56.5 -28.5t-21.5 -74.5q0 -45 21.5 -72.5t56.5 -27.5t57 27.5zM877 86.5q22 27.5 22 72.5q0 46 -22 74.5t-57 28.5t-56.5 -28.5t-21.5 -74.5q0 -45 21.5 -72.5t56.5 -27.5t57 27.5z" />
    <glyph glyph-name="guilsinglleft" unicode="&#x2039;" horiz-adv-x="301" 
d="M234 39l-187 183v66l187 182v-106l-72 -67l-44 -42l44 -42l72 -68v-106z" />
    <glyph glyph-name="guilsinglright" unicode="&#x203a;" horiz-adv-x="290" 
d="M60 471l187 -183v-66l-187 -182v106l72 67l44 42l-44 42l-72 68v106z" />
    <glyph glyph-name="fraction" unicode="&#x2044;" horiz-adv-x="222" 
d="M-101 0h-86l510 700h85z" />
    <glyph glyph-name="uni2070" unicode="&#x2070;" horiz-adv-x="437" 
d="M89 394.5q-47 63.5 -47 176.5t47.5 177t130.5 64q82 0 128.5 -64t46.5 -177t-46 -176.5t-129 -63.5q-84 0 -131 63.5zM288 438.5q24 45.5 24 132.5t-24 133t-68 46q-47 0 -71.5 -45.5t-24.5 -133.5q0 -86 25 -132t71 -46q44 0 68 45.5z" />
    <glyph glyph-name="uni2074" unicode="&#x2074;" horiz-adv-x="431" 
d="M320 341h-80v114h-214v65l194 282h100v-283h84v-64h-84v-114zM240 519v199q-4 -5 -7 -10t-6 -9l-107 -156l-17 -24h137z" />
    <glyph glyph-name="uni2075" unicode="&#x2075;" horiz-adv-x="408" 
d="M82 369.5q-46 38.5 -45 100.5h81q-1 -33 22.5 -55t60.5 -22q41 0 66.5 27.5t25.5 72.5q0 43 -24.5 70.5t-63.5 27.5q-26 0 -49 -14.5t-33 -37.5h-80l37 263h268v-69h-207l-16 -99l-4 -27q18 19 46.5 32t59.5 13q64 0 105 -45t41 -113q0 -74 -47 -118.5t-124 -44.5
q-74 0 -120 38.5z" />
    <glyph glyph-name="uni2076" unicode="&#x2076;" horiz-adv-x="428" 
d="M88.5 391.5q-46.5 60.5 -46.5 172.5q0 118 50.5 183t142.5 65q66 0 106.5 -35.5t44.5 -95.5h-81q-3 33 -21.5 51t-51.5 18q-50 0 -79 -37.5t-29 -98.5v-22q18 22 48 37t66 15q65 0 107 -42t42 -109q0 -46 -21.5 -83t-59.5 -58t-85 -21q-86 0 -132.5 60.5zM283 418.5
q24 26.5 24 69.5q0 41 -23.5 67.5t-61.5 26.5q-40 0 -64.5 -25t-24.5 -66q0 -46 23 -72.5t64 -26.5q39 0 63 26.5z" />
    <glyph glyph-name="uni2077" unicode="&#x2077;" horiz-adv-x="376" 
d="M98 341q8 113 47 207.5t108 164.5l20 20h-250v69h331v-63q-153 -165 -165 -398h-91z" />
    <glyph glyph-name="uni2078" unicode="&#x2078;" horiz-adv-x="431" 
d="M88 366.5q-47 35.5 -47 94.5q0 40 26 71.5t72 46.5q-41 14 -63.5 41.5t-22.5 62.5q0 57 45.5 93t118.5 36q71 0 116 -35.5t45 -91.5q0 -37 -23 -65t-63 -41q46 -14 72.5 -44.5t26.5 -70.5q0 -60 -48 -96.5t-127 -36.5q-81 0 -128 35.5zM275.5 630.5q22.5 19.5 22.5 50.5
t-22 50t-59 19q-38 0 -61 -18.5t-23 -48.5q0 -33 23 -52.5t61 -19.5q36 0 58.5 19.5zM284 414.5q26 21.5 26 56.5q0 34 -26.5 56t-66.5 22q-41 0 -68.5 -22t-27.5 -56q0 -35 26.5 -56.5t69.5 -21.5q41 0 67 21.5z" />
    <glyph glyph-name="uni2079" unicode="&#x2079;" horiz-adv-x="422" 
d="M85.5 368.5q-38.5 37.5 -41.5 86.5h81q9 -62 74 -62q97 0 102 155v9q-19 -21 -48.5 -36t-66.5 -15q-64 0 -105 42.5t-41 109.5q0 44 21 79t59 55t85 20q83 0 129 -62.5t46 -175.5q0 -117 -47 -180t-136 -63q-73 0 -111.5 37.5zM266 594.5q23 25.5 23 66.5q0 40 -23 64.5
t-61 24.5t-62 -25t-24 -64q0 -42 23.5 -67t62.5 -25q38 0 61 25.5z" />
    <glyph glyph-name="uni20A6" unicode="&#x20a6;" horiz-adv-x="603" 
d="M513 379h75v-64h-75v-315h-130l-106 315h-99v-315h-90v315h-74v64h74v321h136l108 -321h92v321h89v-321zM178 527v-148h78l-78 233v-85zM424 192v123h-71l71 -211v88z" />
    <glyph glyph-name="uni20A9" unicode="&#x20a9;" horiz-adv-x="1060" 
d="M1013 467v-63h-100l-23 -84h123v-63h-140l-70 -257h-106l-67 257h-197l-69 -257h-108l-69 257h-141v63h124l-23 84h-101v63h84l-63 233h90l62 -233h196l63 233h109l62 -233h195l64 233h86l-64 -233h83zM489 467h85l-15 59q-21 76 -28 100q-10 -42 -26 -100zM398 404h-162
l23 -84h117zM472 404l-22 -84h163l-22 84h-119zM688 320h116l23 84h-161zM359 257h-84l18 -66q10 -43 23 -90q13 43 25 90zM787 257h-83l18 -66q15 -62 24 -91q11 46 23 91z" />
    <glyph glyph-name="uni20AA" unicode="&#x20aa;" horiz-adv-x="684" 
d="M63 0v700h204q91 0 142 -52.5t51 -146.5v-342h-80v351q0 57 -30 88.5t-84 31.5h-116v-630h-87zM417 0q-92 0 -143 52.5t-51 146.5v342h81v-351q0 -57 29.5 -88.5t84.5 -31.5h115v630h88v-700h-204z" />
    <glyph glyph-name="Euro" unicode="&#x20ac;" horiz-adv-x="638" 
d="M600 233q-13 -113 -76 -180.5t-168 -67.5q-102 0 -168.5 66t-86.5 187h-72v64h64q-1 15 -1 47q0 31 1 46h-64v64h72q22 122 90.5 189.5t170.5 67.5q105 0 164 -63t68 -174h-89q-8 73 -45 119t-100 46q-141 0 -169 -185h226v-64h-233q-1 -15 -1 -46q0 -32 1 -47h233v-64
h-226q16 -92 57.5 -137t107.5 -45q71 0 108.5 48t45.5 129h90z" />
    <glyph glyph-name="uni20B4" unicode="&#x20b4;" horiz-adv-x="551" 
d="M536 469v-63h-521v63h380q10 27 10 56q0 48 -32 83t-89 35q-58 0 -91.5 -32t-36.5 -81h-89q3 48 31.5 91t77 69t108.5 26q65 0 111.5 -27t70.5 -70t24 -88q0 -35 -11 -62h57zM15 263v63h521v-63h-355q-26 -38 -26 -88q0 -48 33.5 -83t91.5 -35q59 0 92 31.5t36 81.5h89
q-3 -50 -30.5 -92.5t-76 -67.5t-110.5 -25q-66 0 -113.5 27t-72 69.5t-24.5 87.5q0 48 24 94h-79z" />
    <glyph glyph-name="uni20B8" unicode="&#x20b8;" horiz-adv-x="593" 
d="M556 624h-520v76h520v-76zM342 0h-91v452h-215v77h520v-77h-214v-452z" />
    <glyph glyph-name="uni20B9" unicode="&#x20b9;" horiz-adv-x="608" 
d="M571 700v-64h-183q23 -13 37 -27q30 -32 37 -73h109v-64h-108q-11 -85 -76 -124.5t-161 -39.5h-55l12.5 -12.5t16.5 -14.5l285 -281h-116l-309 308v71h162q66 0 102.5 24.5t46.5 68.5h-311v64h311q-8 46 -45 73t-104 27h-162v64h511z" />
    <glyph glyph-name="uni20BA" unicode="&#x20ba;" horiz-adv-x="586" 
d="M553 281q-4 -84 -48 -148t-118 -98.5t-166 -34.5h-88v238l-79 -41v69l79 41v87l-79 -41v69l79 41v237h88v-192l217 111v-69l-217 -111v-87l217 111v-69l-217 -111v-211q67 0 120.5 25t86 72t36.5 112h89z" />
    <glyph glyph-name="uni20BD" unicode="&#x20bd;" horiz-adv-x="628" 
d="M214 312v-90h263v-63h-263v-159h-87v159h-76v63h76v90h-76v64h76v324h229q105 0 171.5 -44t66.5 -150q0 -102 -66 -148t-172 -46h-142zM214 629v-253h138q77 0 114 35t37 95q0 59 -36.5 91t-114.5 32h-138z" />
    <glyph glyph-name="uni20BF" unicode="&#x20bf;" horiz-adv-x="619" 
d="M349 1v-112h-73v111h-185v700h185v112h73v-112h-16q102 0 162 -44t60 -132q0 -55 -33.5 -96.5t-83.5 -57.5q63 -20 98.5 -64.5t35.5 -108.5q0 -179 -223 -196zM180 629v-227h142q68 0 105 30.5t37 84.5q0 50 -33 81t-102 31h-149zM324 71q156 0 156 131q0 129 -160 129
h-140v-260h144z" />
    <glyph glyph-name="uni2113" unicode="&#x2113;" horiz-adv-x="510" 
d="M475 224q-3 -64 -25.5 -118.5t-63 -87.5t-95.5 -33q-72 0 -117 52.5t-60 153.5q-41 -8 -81 -9v73q43 2 74 8q-1 13 -1 41q0 111 24.5 204.5t75.5 150.5t128 57q69 0 104 -44t35 -114q0 -78 -37.5 -146.5t-102 -120t-145.5 -80.5q16 -158 106 -158q50 0 74.5 54t26.5 117
h80zM183 285q94 36 153.5 106.5t59.5 166.5q0 42 -16.5 65.5t-50.5 23.5q-55 0 -87.5 -59.5t-45.5 -138.5t-13 -145v-19z" />
    <glyph glyph-name="uni2116" unicode="&#x2116;" horiz-adv-x="1124" 
d="M824.5 381q-37.5 24 -57 64t-19.5 88q0 75 44 125.5t120 50.5t120.5 -50t44.5 -126q0 -48 -19.5 -88.5t-57 -64t-88.5 -23.5q-50 0 -87.5 24zM182 0h-91v700h137l355 -597v88v509h92v-700h-127l-366 612v-85v-527zM978 446q22 31 22 87q0 55 -22.5 87t-65.5 32t-65 -32
t-22 -87q0 -56 22 -87t65 -31q44 0 66 31zM1068 232h-311v64h311v-64z" />
    <glyph glyph-name="uni2117" unicode="&#x2117;" horiz-adv-x="822" 
d="M228.5 34q-83.5 49 -133 132.5t-49.5 184.5q0 100 49.5 183.5t133 132.5t182.5 49t183 -49t133 -132.5t49 -183.5q0 -101 -49 -185t-133 -132.5t-183 -48.5t-182.5 49zM561.5 88q68.5 40 108 109.5t39.5 153.5t-39.5 153t-108 109t-150.5 40t-150.5 -40t-108 -109
t-39.5 -153t39.5 -153.5t108 -109.5t150.5 -40t150.5 40zM291 157v387h171q60 0 95.5 -32.5t35.5 -88.5q0 -57 -35.5 -89.5t-95.5 -32.5h-109v-144h-62zM454 358q36 0 56 16t20 49q0 32 -20 48t-56 16h-101v-129h101z" />
    <glyph glyph-name="trademark" unicode="&#x2122;" horiz-adv-x="912" 
d="M234 317h-67v319h-134v64h335v-64h-134v-319zM426 317v383h89l100 -259q-3 6 16 -39l15 39l102 259h88v-383h-66v231v49q-16 -43 -19 -50l-90 -230h-63l-88 228q-12 34 -19 50v-49v-229h-65z" />
    <glyph glyph-name="Omega" unicode="&#x2126;" horiz-adv-x="764" 
d="M77 0v71h97h21q-3 2 -7.5 4.5t-9.5 6.5q-59 42 -92.5 113.5t-33.5 161.5q0 107 42.5 188.5t117.5 126t170 44.5t170 -44.5t117.5 -126t42.5 -188.5q0 -90 -33.5 -162t-92.5 -113q-5 -4 -9.5 -6.5t-7.5 -4.5h21h96v-71h-258v71q54 8 97 43.5t68 96.5t25 143
q0 87 -30 151.5t-83.5 99t-122.5 34.5q-70 0 -123.5 -34.5t-83 -99t-29.5 -151.5q0 -82 25 -143t67.5 -96.5t96.5 -43.5v-71h-258z" />
    <glyph glyph-name="onethird" unicode="&#x2153;" horiz-adv-x="883" 
d="M139 572v24q-17 -21 -45.5 -35t-64.5 -15v61q44 4 77 29.5t43 63.5h63v-419h-73v291zM197 0h-86l510 700h85zM578 28.5q-42 37.5 -43 101.5h73q1 -38 23 -60.5t60 -22.5q37 0 59 19.5t22 51.5t-22 52t-59 20h-31v56h31q33 0 52.5 17.5t19.5 48.5q0 28 -19 44.5t-51 16.5
q-36 0 -56 -20t-22 -55h-75q3 60 44 95t110 35q62 0 102 -32t40 -82q0 -32 -20 -57t-55 -37q39 -13 61.5 -41t22.5 -66q0 -53 -43 -87.5t-111 -34.5q-71 0 -113 37.5z" />
    <glyph glyph-name="twothirds" unicode="&#x2154;" horiz-adv-x="969" 
d="M40 281q1 53 25.5 91.5t75.5 73.5l45 31q38 26 58 49t20 54q0 33 -19 53t-52 20q-36 0 -56.5 -22t-21.5 -63h-74q0 64 42 102.5t112 38.5q62 0 102.5 -36t40.5 -91q0 -47 -27.5 -83t-83.5 -72l-49 -33q-42 -28 -45 -50h208v-63h-301zM286 0h-86l510 700h85zM668 28.5
q-42 37.5 -43 101.5h73q1 -38 23 -60.5t60 -22.5q37 0 59 19.5t22 51.5t-22 52t-59 20h-31v56h31q33 0 52.5 17.5t19.5 48.5q0 28 -19 44.5t-51 16.5q-36 0 -56 -20t-22 -55h-75q3 60 44 95t110 35q62 0 102 -32t40 -82q0 -32 -20 -57t-55 -37q39 -13 61.5 -41t22.5 -66
q0 -53 -43 -87.5t-111 -34.5q-71 0 -113 37.5z" />
    <glyph glyph-name="uni2155" unicode="&#x2155;" horiz-adv-x="881" 
d="M579 26q-42 35 -41 91h73q-1 -30 20.5 -50t55.5 -20q37 0 60 25t23 66q0 40 -22 64.5t-58 24.5q-23 0 -44 -13t-30 -34h-73l34 239h243v-63h-188l-14 -90l-4 -24q17 18 42.5 29.5t53.5 11.5q58 0 95.5 -40.5t37.5 -103.5q0 -67 -42.5 -107.5t-112.5 -40.5q-67 0 -109 35z
M139 572v24q-17 -21 -45.5 -35t-64.5 -15v61q44 4 77 29.5t43 63.5h63v-419h-73v291zM197 0h-86l510 700h85z" />
    <glyph glyph-name="uni2156" unicode="&#x2156;" horiz-adv-x="967" 
d="M40 281q1 53 25.5 91.5t75.5 73.5l45 31q38 26 58 49t20 54q0 33 -19 53t-52 20q-36 0 -56.5 -22t-21.5 -63h-74q0 64 42 102.5t112 38.5q62 0 102.5 -36t40.5 -91q0 -47 -27.5 -83t-83.5 -72l-49 -33q-42 -28 -45 -50h208v-63h-301zM286 0h-86l510 700h85zM668 26
q-42 35 -41 91h73q-1 -30 20.5 -50t55.5 -20q37 0 60 25t23 66q0 40 -22 64.5t-58 24.5q-23 0 -44 -13t-30 -34h-73l34 239h243v-63h-188l-14 -90l-4 -24q17 18 42.5 29.5t53.5 11.5q58 0 95.5 -40.5t37.5 -103.5q0 -67 -42.5 -107.5t-112.5 -40.5q-67 0 -109 35z" />
    <glyph glyph-name="uni2157" unicode="&#x2157;" horiz-adv-x="958" 
d="M76 309.5q-42 37.5 -43 101.5h73q1 -38 23 -60.5t60 -22.5q37 0 59 19.5t22 51.5t-22 52t-59 20h-31v56h31q33 0 52.5 17.5t19.5 48.5q0 28 -19 44.5t-51 16.5q-36 0 -56 -20t-22 -55h-75q3 60 44 95t110 35q62 0 102 -32t40 -82q0 -32 -20 -57t-55 -37q39 -13 61.5 -41
t22.5 -66q0 -53 -43 -87.5t-111 -34.5q-71 0 -113 37.5zM277 0h-86l510 700h85zM659 26q-42 35 -41 91h73q-1 -30 20.5 -50t55.5 -20q37 0 60 25t23 66q0 40 -22 64.5t-58 24.5q-23 0 -44 -13t-30 -34h-73l34 239h243v-63h-188l-14 -90l-4 -24q17 18 42.5 29.5t53.5 11.5
q58 0 95.5 -40.5t37.5 -103.5q0 -67 -42.5 -107.5t-112.5 -40.5q-67 0 -109 35z" />
    <glyph glyph-name="uni2158" unicode="&#x2158;" horiz-adv-x="974" 
d="M289 0h-86l510 700h85zM671 26q-42 35 -41 91h73q-1 -30 20.5 -50t55.5 -20q37 0 60 25t23 66q0 40 -22 64.5t-58 24.5q-23 0 -44 -13t-30 -34h-73l34 239h243v-63h-188l-14 -90l-4 -24q17 18 42.5 29.5t53.5 11.5q58 0 95.5 -40.5t37.5 -103.5q0 -67 -42.5 -107.5
t-112.5 -40.5q-67 0 -109 35zM295 281h-73v104h-194v59l176 256h91v-257h76v-58h-76v-104zM222 443v181l-12 -18l-97 -141l-15 -22h124z" />
    <glyph glyph-name="uni2159" unicode="&#x2159;" horiz-adv-x="900" 
d="M589 46q-42 55 -42 157q0 106 46.5 165.5t129.5 59.5q60 0 96.5 -32t40.5 -87h-74q-2 30 -19 46.5t-47 16.5q-46 0 -72 -34t-26 -90v-20q16 20 43 33.5t60 13.5q60 0 98 -38t38 -99q0 -64 -43 -105.5t-108 -41.5q-79 0 -121 55zM766 70q22 24 22 64q0 37 -21.5 61
t-55.5 24q-36 0 -58.5 -23t-22.5 -60q0 -42 21 -66t58 -24q35 0 57 24zM139 572v24q-17 -21 -45.5 -35t-64.5 -15v61q44 4 77 29.5t43 63.5h63v-419h-73v291zM197 0h-86l510 700h85z" />
    <glyph glyph-name="uni215A" unicode="&#x215a;" horiz-adv-x="980" 
d="M72 307q-42 35 -41 91h73q-1 -30 20.5 -50t55.5 -20q37 0 60 25t23 66q0 40 -22 64.5t-58 24.5q-23 0 -44 -13t-30 -34h-73l34 239h243v-63h-188l-14 -90l-4 -24q17 18 42.5 29.5t53.5 11.5q58 0 95.5 -40.5t37.5 -103.5q0 -67 -42.5 -107.5t-112.5 -40.5q-67 0 -109 35z
M281 0h-86l510 700h85zM673 46q-42 55 -42 157q0 106 46.5 165.5t129.5 59.5q60 0 96.5 -32t40.5 -87h-74q-2 30 -19 46.5t-47 16.5q-46 0 -72 -34t-26 -90v-20q16 20 43 33.5t60 13.5q60 0 98 -38t38 -99q0 -64 -43 -105.5t-108 -41.5q-79 0 -121 55zM850 70q22 24 22 64
q0 37 -21.5 61t-55.5 24q-36 0 -58.5 -23t-22.5 -60q0 -42 21 -66t58 -24q35 0 57 24z" />
    <glyph glyph-name="oneeighth" unicode="&#x215b;" horiz-adv-x="898" 
d="M588 23q-43 32 -43 86q0 36 23.5 65t65.5 42q-37 14 -57.5 38.5t-20.5 56.5q0 52 41 84.5t108 32.5q65 0 106 -32.5t41 -82.5q0 -34 -21 -59.5t-58 -37.5q42 -13 66 -40.5t24 -63.5q0 -55 -43 -88t-116 -33t-116 32zM758.5 262.5q20.5 17.5 20.5 46.5t-20 46t-54 17
t-55 -17t-21 -44q0 -30 20.5 -48t55.5 -18q33 0 53.5 17.5zM766.5 67q23.5 20 23.5 51t-24.5 51t-60.5 20q-37 0 -62 -20t-25 -51q0 -32 24 -51.5t63 -19.5q38 0 61.5 20zM139 572v24q-17 -21 -45.5 -35t-64.5 -15v61q44 4 77 29.5t43 63.5h63v-419h-73v291zM197 0h-86
l510 700h85z" />
    <glyph glyph-name="threeeighths" unicode="&#x215c;" horiz-adv-x="974" 
d="M76 309.5q-42 37.5 -43 101.5h73q1 -38 23 -60.5t60 -22.5q37 0 59 19.5t22 51.5t-22 52t-59 20h-31v56h31q33 0 52.5 17.5t19.5 48.5q0 28 -19 44.5t-51 16.5q-36 0 -56 -20t-22 -55h-75q3 60 44 95t110 35q62 0 102 -32t40 -82q0 -32 -20 -57t-55 -37q39 -13 61.5 -41
t22.5 -66q0 -53 -43 -87.5t-111 -34.5q-71 0 -113 37.5zM277 0h-86l510 700h85zM668 23q-43 32 -43 86q0 36 23.5 65t65.5 42q-37 14 -57.5 38.5t-20.5 56.5q0 52 41 84.5t108 32.5q65 0 106 -32.5t41 -82.5q0 -34 -21 -59.5t-58 -37.5q42 -13 66 -40.5t24 -63.5
q0 -55 -43 -88t-116 -33t-116 32zM838.5 262.5q20.5 17.5 20.5 46.5t-20 46t-54 17t-55 -17t-21 -44q0 -30 20.5 -48t55.5 -18q33 0 53.5 17.5zM846.5 67q23.5 20 23.5 51t-24.5 51t-60.5 20q-37 0 -62 -20t-25 -51q0 -32 24 -51.5t63 -19.5q38 0 61.5 20z" />
    <glyph glyph-name="fiveeighths" unicode="&#x215d;" horiz-adv-x="978" 
d="M72 307q-42 35 -41 91h73q-1 -30 20.5 -50t55.5 -20q37 0 60 25t23 66q0 40 -22 64.5t-58 24.5q-23 0 -44 -13t-30 -34h-73l34 239h243v-63h-188l-14 -90l-4 -24q17 18 42.5 29.5t53.5 11.5q58 0 95.5 -40.5t37.5 -103.5q0 -67 -42.5 -107.5t-112.5 -40.5q-67 0 -109 35z
M281 0h-86l510 700h85zM672 23q-43 32 -43 86q0 36 23.5 65t65.5 42q-37 14 -57.5 38.5t-20.5 56.5q0 52 41 84.5t108 32.5q65 0 106 -32.5t41 -82.5q0 -34 -21 -59.5t-58 -37.5q42 -13 66 -40.5t24 -63.5q0 -55 -43 -88t-116 -33t-116 32zM842.5 262.5q20.5 17.5 20.5 46.5
t-20 46t-54 17t-55 -17t-21 -44q0 -30 20.5 -48t55.5 -18q33 0 53.5 17.5zM850.5 67q23.5 20 23.5 51t-24.5 51t-60.5 20q-37 0 -62 -20t-25 -51q0 -32 24 -51.5t63 -19.5q38 0 61.5 20z" />
    <glyph glyph-name="seveneighths" unicode="&#x215e;" horiz-adv-x="917" 
d="M215 0h-86l510 700h85zM606 23q-43 32 -43 86q0 36 23.5 65t65.5 42q-37 14 -57.5 38.5t-20.5 56.5q0 52 41 84.5t108 32.5q65 0 106 -32.5t41 -82.5q0 -34 -21 -59.5t-58 -37.5q42 -13 66 -40.5t24 -63.5q0 -55 -43 -88t-116 -33t-116 32zM776.5 262.5
q20.5 17.5 20.5 46.5t-20 46t-54 17t-55 -17t-21 -44q0 -30 20.5 -48t55.5 -18q33 0 53.5 17.5zM784.5 67q23.5 20 23.5 51t-24.5 51t-60.5 20q-37 0 -62 -20t-25 -51q0 -32 24 -51.5t63 -19.5q38 0 61.5 20zM96 281q7 103 42.5 189t98.5 149l18 18h-227v63h301v-57
q-139 -150 -150 -362h-83z" />
    <glyph glyph-name="uni215F" unicode="&#x215f;" horiz-adv-x="742" 
d="M149 572v24q-17 -21 -45.5 -35t-64.5 -15v61q44 4 77 29.5t43 63.5h63v-419h-73v291zM207 0h-86l510 700h85z" />
    <glyph glyph-name="arrowleft" unicode="&#x2190;" horiz-adv-x="789" 
d="M181 315l267 -266h-108l-308 307l308 308h108l-267 -267h567v-82h-567z" />
    <glyph glyph-name="arrowup" unicode="&#x2191;" horiz-adv-x="680" 
d="M381 0h-82v567l-266 -267v108l307 308l307 -308v-108l-266 267v-567z" />
    <glyph glyph-name="arrowright" unicode="&#x2192;" horiz-adv-x="789" 
d="M449 49h-108l267 266h-567v82h567l-267 267h108l308 -308z" />
    <glyph glyph-name="arrowdown" unicode="&#x2193;" horiz-adv-x="678" 
d="M298 133v567h82v-567l266 267v-108l-307 -308l-307 308v108z" />
    <glyph glyph-name="uni2196" unicode="&#x2196;" horiz-adv-x="665" 
d="M612 219l-57 -59l-406 406v-377l-77 76v435h435l77 -76h-376z" />
    <glyph glyph-name="uni2197" unicode="&#x2197;" horiz-adv-x="665" 
d="M516 566l-406 -406l-57 59l404 405h-376l77 76h435v-435l-77 -76v377z" />
    <glyph glyph-name="uni2198" unicode="&#x2198;" horiz-adv-x="665" 
d="M52 481l57 59l406 -406v377l77 -76v-435h-435l-77 76h376z" />
    <glyph glyph-name="uni2199" unicode="&#x2199;" horiz-adv-x="665" 
d="M149 134l406 406l57 -59l-404 -405h376l-77 -76h-435v435l77 76v-377z" />
    <glyph glyph-name="partialdiff" unicode="&#x2202;" horiz-adv-x="592" 
d="M135 11.5q-50 26.5 -79 77.5t-29 122q0 62 30 119.5t84.5 93t123.5 35.5q134 0 194 -129l6 44q2 15 2 44q0 107 -56.5 168.5t-159.5 61.5v68q138 0 214.5 -84.5t76.5 -233.5q0 -112 -33.5 -206t-100.5 -150.5t-161 -56.5q-62 0 -112 26.5zM371 103q48 52 48 139
q0 66 -39.5 109t-100.5 43q-76 0 -121 -52t-45 -139q0 -70 36.5 -111t93.5 -41q80 0 128 52z" />
    <glyph glyph-name="emptyset" unicode="&#x2205;" horiz-adv-x="608" 
d="M487 422q35 -35 54.5 -81.5t19.5 -98.5q0 -70 -34.5 -129t-93.5 -93.5t-129 -34.5q-69 0 -129 35l-43 -56l-54 42l43 56q-35 35 -54.5 81.5t-19.5 98.5q0 69 34.5 128t93.5 93.5t129 34.5q71 0 128 -34l44 56l54 -42zM131 176.5q12 -31.5 34 -57.5l224 288q-42 21 -85 21
q-50 0 -92.5 -25t-67.5 -68t-25 -93q0 -34 12 -65.5zM396.5 81q42.5 25 67.5 67.5t25 93.5q0 35 -12.5 66.5t-34.5 56.5l-223 -288q39 -21 85 -21q50 0 92.5 25z" />
    <glyph glyph-name="Delta" unicode="&#x2206;" horiz-adv-x="672" 
d="M640 0h-608v73l262 627h82l264 -627v-73zM118 73h435l-177 432l-41 98l-40 -98z" />
    <glyph glyph-name="product" unicode="&#x220f;" horiz-adv-x="589" 
d="M554 700v-66h-90v-763h-80v763h-179v-763h-80v763h-90v66h519z" />
    <glyph glyph-name="summation" unicode="&#x2211;" horiz-adv-x="530" 
d="M36 -129v76l260 338l-260 339v76h456v-66h-367l44 -56l206 -272v-41l-209 -273q-13 -18 -43 -56h369v-65h-456z" />
    <glyph glyph-name="minus" unicode="&#x2212;" horiz-adv-x="605" 
d="M540 264h-474v71h474v-71z" />
    <glyph glyph-name="uni2215" unicode="&#x2215;" horiz-adv-x="413" 
d="M107 0h-78l277 700h78z" />
    <glyph glyph-name="radical" unicode="&#x221a;" horiz-adv-x="544" 
d="M125 -129l-110 413h80l66 -259l19 -75q3 14 6 26.5t5 22.5l6 28l145 673h190v-66h-127l-167 -763h-113z" />
    <glyph glyph-name="infinity" unicode="&#x221e;" horiz-adv-x="758" 
d="M121 149.5q-37 22.5 -57.5 62.5t-20.5 91q0 49 21 89t58 63t83 23q55 0 94.5 -29.5t79.5 -82.5q39 53 78.5 82.5t94.5 29.5q46 0 83 -23t58.5 -63t21.5 -89q0 -51 -21 -91t-58 -62.5t-84 -22.5q-56 0 -96 30t-77 84q-38 -54 -78 -84t-96 -30q-47 0 -84 22.5zM274 226
q29 26 63 76q-33 50 -62.5 76.5t-67.5 26.5q-40 0 -64.5 -28.5t-24.5 -73.5q0 -46 24.5 -74.5t64.5 -28.5q38 0 67 26zM615 228.5q25 28.5 25 74.5q0 45 -25 73.5t-64 28.5t-67.5 -26t-63.5 -77q35 -51 63.5 -76.5t67.5 -25.5t64 28.5z" />
    <glyph glyph-name="integral" unicode="&#x222b;" horiz-adv-x="323" 
d="M33 -211v71h24q33 0 48.5 18t15.5 56v620q0 73 37 109.5t107 36.5h25v-71h-25q-33 0 -48.5 -18.5t-15.5 -56.5v-620q0 -72 -37 -108.5t-107 -36.5h-24z" />
    <glyph glyph-name="approxequal" unicode="&#x2248;" horiz-adv-x="597" 
d="M69 326q3 60 41.5 91t88.5 31q24 0 46.5 -6.5t63.5 -21.5q30 -12 49 -17.5t36 -5.5q24 0 40.5 13.5t21.5 36.5h74q-2 -57 -40.5 -89t-92.5 -32q-27 0 -52 7t-62 20q-27 10 -46 15.5t-36 5.5q-22 0 -38 -13.5t-19 -34.5h-75zM69 132q3 60 41.5 91t88.5 31q24 0 46.5 -6.5
t63.5 -21.5q30 -12 49 -17.5t36 -5.5q24 0 40.5 13.5t21.5 36.5h74q-2 -57 -40.5 -89t-92.5 -32q-27 0 -52 7t-62 20q-27 10 -46 15.5t-36 5.5q-22 0 -38 -13.5t-19 -34.5h-75z" />
    <glyph glyph-name="notequal" unicode="&#x2260;" horiz-adv-x="610" 
d="M541 427v-71h-171l-54 -114h225v-71h-259l-71 -151h-76l71 151h-139v71h173l54 114h-227v71h261l71 151h76l-71 -151h137z" />
    <glyph glyph-name="lessequal" unicode="&#x2264;" horiz-adv-x="608" 
d="M531 137l-473 178v80l473 177v-84l-289 -101l-90 -31l38 -13l51 -18l290 -102v-86zM532 0h-474v71h474v-71z" />
    <glyph glyph-name="greaterequal" unicode="&#x2265;" horiz-adv-x="607" 
d="M75 137v85l289 101q40 15 89 31q-50 16 -88 30l-290 102v86l472 -178v-80zM548 0h-474v71h474v-71z" />
    <glyph glyph-name="angleleft" unicode="&#x2329;" horiz-adv-x="317" 
d="M303 731l-200 -426l205 -434h-85l-204 432l200 428h84z" />
    <glyph glyph-name="angleright" unicode="&#x232a;" horiz-adv-x="319" 
d="M10 731h85l204 -432l-200 -428h-84l200 426z" />
    <glyph glyph-name="uni2460" unicode="&#x2460;" horiz-adv-x="822" 
d="M228.5 34q-83.5 49 -133 132.5t-49.5 184.5q0 100 49.5 183.5t133 132.5t182.5 49t183 -49t133 -132.5t49 -183.5q0 -101 -49 -185t-133 -132.5t-183 -48.5t-182.5 49zM561.5 88q68.5 40 108 109.5t39.5 153.5t-39.5 153t-108 109t-150.5 40t-150.5 -40t-108 -109
t-39.5 -153t39.5 -153.5t108 -109.5t150.5 -40t150.5 40zM398 430v35q-14 -25 -43 -41.5t-67 -17.5v59q45 4 78 30.5t42 62.5h56v-419h-66v291z" />
    <glyph glyph-name="uni2461" unicode="&#x2461;" horiz-adv-x="822" 
d="M228.5 34q-83.5 49 -133 132.5t-49.5 184.5q0 100 49.5 183.5t133 132.5t182.5 49t183 -49t133 -132.5t49 -183.5q0 -101 -49 -185t-133 -132.5t-183 -48.5t-182.5 49zM561.5 88q68.5 40 108 109.5t39.5 153.5t-39.5 153t-108 109t-150.5 40t-150.5 -40t-108 -109
t-39.5 -153t39.5 -153.5t108 -109.5t150.5 -40t150.5 40zM263 144q0 52 24.5 90.5t76.5 72.5l45 31q38 26 58 48.5t20 52.5q0 33 -19.5 53t-51.5 20q-36 0 -56.5 -22t-21.5 -62h-75q1 64 43 102.5t112 38.5q62 0 102.5 -36t40.5 -92q0 -46 -27.5 -81t-83.5 -72l-49 -33
q-23 -15 -33.5 -25.5t-11.5 -22.5h208v-63h-301z" />
    <glyph glyph-name="uni2462" unicode="&#x2462;" horiz-adv-x="822" 
d="M228.5 34q-83.5 49 -133 132.5t-49.5 184.5q0 100 49.5 183.5t133 132.5t182.5 49t183 -49t133 -132.5t49 -183.5q0 -101 -49 -185t-133 -132.5t-183 -48.5t-182.5 49zM561.5 88q68.5 40 108 109.5t39.5 153.5t-39.5 153t-108 109t-150.5 40t-150.5 -40t-108 -109
t-39.5 -153t39.5 -153.5t108 -109.5t150.5 -40t150.5 40zM297 168.5q-41 37.5 -42 101.5h67q1 -39 24 -61.5t61 -22.5q39 0 62 19t23 53t-23.5 53.5t-61.5 19.5h-26v55h27q33 0 54 17t21 49q0 29 -19.5 46t-53.5 17q-37 0 -58.5 -20.5t-23.5 -55.5h-67q2 60 42 95t108 35
q60 0 99.5 -32t39.5 -82q0 -34 -20.5 -59t-55.5 -36q37 -11 61.5 -39.5t24.5 -67.5q0 -54 -42.5 -88t-109.5 -34q-70 0 -111 37.5z" />
    <glyph glyph-name="uni2463" unicode="&#x2463;" horiz-adv-x="822" 
d="M228.5 34q-83.5 49 -133 132.5t-49.5 184.5q0 100 49.5 183.5t133 132.5t182.5 49t183 -49t133 -132.5t49 -183.5q0 -101 -49 -185t-133 -132.5t-183 -48.5t-182.5 49zM561.5 88q68.5 40 108 109.5t39.5 153.5t-39.5 153t-108 109t-150.5 40t-150.5 -40t-108 -109
t-39.5 -153t39.5 -153.5t108 -109.5t150.5 -40t150.5 40zM491 139h-65v105h-194v59l175 255h84v-257h77v-57h-77v-105zM426 301v195q-11 -20 -18 -29l-98 -143q-13 -19 -16 -23h132z" />
    <glyph glyph-name="uni2464" unicode="&#x2464;" horiz-adv-x="822" 
d="M228.5 34q-83.5 49 -133 132.5t-49.5 184.5q0 100 49.5 183.5t133 132.5t182.5 49t183 -49t133 -132.5t49 -183.5q0 -101 -49 -185t-133 -132.5t-183 -48.5t-182.5 49zM561.5 88q68.5 40 108 109.5t39.5 153.5t-39.5 153t-108 109t-150.5 40t-150.5 -40t-108 -109
t-39.5 -153t39.5 -153.5t108 -109.5t150.5 -40t150.5 40zM304 166.5q-40 35.5 -40 89.5h66q0 -30 21.5 -50t58.5 -20q39 0 63 25t24 67q0 38 -22 63t-62 25q-26 0 -47.5 -14t-29.5 -33h-66l34 234h236v-61h-189l-14 -90q-1 -8 -1.5 -15t-2.5 -15q16 21 42.5 34.5t57.5 13.5
q57 0 93 -40.5t36 -99.5q0 -68 -41.5 -108.5t-109.5 -40.5q-67 0 -107 35.5z" />
    <glyph glyph-name="uni2465" unicode="&#x2465;" horiz-adv-x="822" 
d="M228.5 34q-83.5 49 -133 132.5t-49.5 184.5q0 100 49.5 183.5t133 132.5t182.5 49t183 -49t133 -132.5t49 -183.5q0 -101 -49 -185t-133 -132.5t-183 -48.5t-182.5 49zM561.5 88q68.5 40 108 109.5t39.5 153.5t-39.5 153t-108 109t-150.5 40t-150.5 -40t-108 -109
t-39.5 -153t39.5 -153.5t108 -109.5t150.5 -40t150.5 40zM294 186q-41 55 -41 158q0 106 45 165.5t128 59.5q59 0 94 -32t39 -86h-67q-2 29 -20.5 46t-49.5 17q-49 0 -75 -37t-26 -102v-16q16 24 43.5 40t63.5 16q57 0 94.5 -38.5t37.5 -98.5q0 -64 -42 -105.5t-105 -41.5
q-78 0 -119 55zM471 209.5q23 24.5 23 64.5q0 38 -22 62t-58 24q-38 0 -61.5 -23.5t-23.5 -60.5q0 -43 22.5 -67t59.5 -24t60 24.5z" />
    <glyph glyph-name="uni2466" unicode="&#x2466;" horiz-adv-x="822" 
d="M228.5 34q-83.5 49 -133 132.5t-49.5 184.5q0 100 49.5 183.5t133 132.5t182.5 49t183 -49t133 -132.5t49 -183.5q0 -101 -49 -185t-133 -132.5t-183 -48.5t-182.5 49zM561.5 88q68.5 40 108 109.5t39.5 153.5t-39.5 153t-108 109t-150.5 40t-150.5 -40t-108 -109
t-39.5 -153t39.5 -153.5t108 -109.5t150.5 -40t150.5 40zM338 139q7 107 44 190.5t96 142.5q10 11 20 19h-228v62h293v-56q-66 -72 -105 -159.5t-44 -198.5h-76z" />
    <glyph glyph-name="uni2467" unicode="&#x2467;" horiz-adv-x="822" 
d="M228.5 34q-83.5 49 -133 132.5t-49.5 184.5q0 100 49.5 183.5t133 132.5t182.5 49t183 -49t133 -132.5t49 -183.5q0 -101 -49 -185t-133 -132.5t-183 -48.5t-182.5 49zM561.5 88q68.5 40 108 109.5t39.5 153.5t-39.5 153t-108 109t-150.5 40t-150.5 -40t-108 -109
t-39.5 -153t39.5 -153.5t108 -109.5t150.5 -40t150.5 40zM297 163.5q-41 32.5 -41 86.5q0 36 24 64.5t65 41.5q-36 13 -57 37.5t-21 57.5q0 52 40 85t105 33q64 0 103.5 -32.5t39.5 -83.5q0 -34 -21 -60t-57 -37q41 -12 65 -39.5t24 -63.5q0 -55 -42 -88.5t-113 -33.5
q-73 0 -114 32.5zM468 402.5q22 17.5 22 46.5q0 30 -21.5 47.5t-56.5 17.5q-36 0 -57.5 -17t-21.5 -46q0 -30 21.5 -48t57.5 -18q34 0 56 17.5zM475.5 205.5q24.5 19.5 24.5 52.5q0 31 -25 51.5t-63 20.5q-39 0 -64.5 -20.5t-25.5 -51.5q0 -33 24.5 -52.5t65.5 -19.5
q39 0 63.5 19.5z" />
    <glyph glyph-name="uni2468" unicode="&#x2468;" horiz-adv-x="822" 
d="M228.5 34q-83.5 49 -133 132.5t-49.5 184.5q0 100 49.5 183.5t133 132.5t182.5 49t183 -49t133 -132.5t49 -183.5q0 -101 -49 -185t-133 -132.5t-183 -48.5t-182.5 49zM561.5 88q68.5 40 108 109.5t39.5 153.5t-39.5 153t-108 109t-150.5 40t-150.5 -40t-108 -109
t-39.5 -153t39.5 -153.5t108 -109.5t150.5 -40t150.5 40zM311 164.5q-34 33.5 -38 77.5h67q9 -56 71 -56q92 0 97 142v17q-15 -21 -44.5 -37t-65.5 -16q-55 0 -92 37.5t-37 98.5q0 62 42 101.5t105 39.5q72 0 114 -55.5t42 -160.5q0 -108 -42.5 -165t-121.5 -57
q-63 0 -97 33.5zM473.5 369q22.5 23 22.5 62q0 37 -22.5 60t-57.5 23t-58 -23t-23 -60q0 -39 22 -62t59 -23q35 0 57.5 23z" />
    <glyph glyph-name="uni24EA" unicode="&#x24ea;" horiz-adv-x="822" 
d="M228.5 34q-83.5 49 -133 132.5t-49.5 184.5q0 100 49.5 183.5t133 132.5t182.5 49t183 -49t133 -132.5t49 -183.5q0 -101 -49 -185t-133 -132.5t-183 -48.5t-182.5 49zM561.5 88q68.5 40 108 109.5t39.5 153.5t-39.5 153t-108 109t-150.5 40t-150.5 -40t-108 -109
t-39.5 -153t39.5 -153.5t108 -109.5t150.5 -40t150.5 40zM295.5 189q-41.5 58 -41.5 160t42.5 161t115.5 59q72 0 114 -58.5t42 -161.5q0 -102 -41.5 -160t-114.5 -58q-75 0 -116.5 58zM478 227.5q23 40.5 23 121.5q0 82 -23 123t-66 41q-44 0 -67 -40.5t-23 -123.5
q0 -81 23.5 -121.5t66.5 -40.5t66 40.5z" />
    <glyph glyph-name="uni24FF" unicode="&#x24ff;" horiz-adv-x="822" 
d="M594 33.5q84 48.5 133 132.5t49 185q0 100 -49 183.5t-133 132.5t-183 49t-182.5 -49t-133 -132.5t-49.5 -183.5q0 -101 49.5 -184.5t133 -132.5t182.5 -49t183 48.5zM295.5 189q-41.5 58 -41.5 160t42.5 161t115.5 59q72 0 114 -58.5t42 -161.5q0 -102 -41.5 -160
t-114.5 -58q-75 0 -116.5 58zM478 227.5q23 40.5 23 121.5q0 82 -23 123t-66 41q-44 0 -67 -40.5t-23 -123.5q0 -81 23.5 -121.5t66.5 -40.5t66 40.5z" />
    <glyph glyph-name="filledbox" unicode="&#x25a0;" horiz-adv-x="880" 
d="M790 0h-700v700h700v-700z" />
    <glyph glyph-name="H22073" unicode="&#x25a1;" horiz-adv-x="880" 
d="M790 0h-700v700h700v-700zM168 624v-548h544v548h-544z" />
    <glyph glyph-name="H18543" unicode="&#x25aa;" horiz-adv-x="560" 
d="M480 150h-400v400h400v-400z" />
    <glyph glyph-name="H18551" unicode="&#x25ab;" horiz-adv-x="560" 
d="M480 150h-400v400h400v-400zM155 475v-250h250v250h-250z" />
    <glyph glyph-name="triagup" unicode="&#x25b2;" horiz-adv-x="806" 
d="M781 0h-756l378 718z" />
    <glyph glyph-name="uni25B3" unicode="&#x25b3;" horiz-adv-x="805" 
d="M780 0h-755l377 718zM402 558l-254 -484h509z" />
    <glyph glyph-name="uni25B6" unicode="&#x25b6;" horiz-adv-x="740" 
d="M715 350l-625 -358v716z" />
    <glyph glyph-name="uni25B7" unicode="&#x25b7;" horiz-adv-x="740" 
d="M715 350l-625 -358v716zM164 581v-462l404 231z" />
    <glyph glyph-name="triagdn" unicode="&#x25bc;" horiz-adv-x="806" 
d="M403 -18l-378 718h756z" />
    <glyph glyph-name="uni25BD" unicode="&#x25bd;" horiz-adv-x="805" 
d="M402 -18l-377 718h755zM657 626h-509l254 -484z" />
    <glyph glyph-name="uni25C0" unicode="&#x25c0;" horiz-adv-x="740" 
d="M650 708v-716l-625 358z" />
    <glyph glyph-name="uni25C1" unicode="&#x25c1;" horiz-adv-x="740" 
d="M650 708v-716l-625 358zM172 350l404 -231v462z" />
    <glyph glyph-name="uni25C6" unicode="&#x25c6;" horiz-adv-x="846" 
d="M826 350l-403 -403l-403 403l403 402z" />
    <glyph glyph-name="uni25C7" unicode="&#x25c7;" horiz-adv-x="846" 
d="M826 350l-403 -403l-403 403l403 402zM125 350l298 -299l298 299l-298 298z" />
    <glyph glyph-name="lozenge" unicode="&#x25ca;" horiz-adv-x="500" 
d="M291 0h-82l-174 350l174 350h82l174 -350zM280 139l104 208l-108 216l-27 55l-27 -55l-106 -210l107 -214q15 -33 29 -57q16 30 28 57z" />
    <glyph glyph-name="circle" unicode="&#x25cb;" horiz-adv-x="844" 
d="M234.5 25.5q-86.5 50.5 -137 137t-50.5 187.5t50.5 187.5t137 137t187.5 50.5t187.5 -50.5t137 -137t50.5 -187.5t-50.5 -187.5t-137 -137t-187.5 -50.5t-187.5 50.5zM569 91q67 40 106.5 108.5t39.5 150.5t-39.5 150.5t-106.5 108.5t-147 40t-147 -40t-106.5 -108.5
t-39.5 -150.5t39.5 -150.5t106.5 -108.5t147 -40t147 40z" />
    <glyph glyph-name="H18533" unicode="&#x25cf;" horiz-adv-x="828" 
d="M230.5 31.5q-84.5 49.5 -134 134.5t-49.5 184t49.5 184t134 134.5t183.5 49.5t183.5 -49.5t134 -134.5t49.5 -184t-49.5 -184t-134 -134.5t-183.5 -49.5t-183.5 49.5z" />
    <glyph glyph-name="uni25FB" unicode="&#x25fb;" horiz-adv-x="730" 
d="M640 75h-550v550h550v-550zM165 550v-400h400v400h-400z" />
    <glyph glyph-name="uni25FC" unicode="&#x25fc;" horiz-adv-x="730" 
d="M640 75h-550v550h550v-550z" />
    <glyph glyph-name="uni2661" unicode="&#x2661;" horiz-adv-x="792" 
d="M662.5 688.5q42.5 -26.5 66 -74.5t23.5 -111q0 -79 -39.5 -158.5t-116.5 -166t-201 -197.5q-122 110 -198.5 196t-116.5 166.5t-40 159.5q0 63 23.5 111t66 74.5t98.5 26.5t101.5 -29t66.5 -78q21 49 66.5 78t101.5 29t98.5 -26.5zM612 317.5q65 98.5 65 187.5
q0 66 -31.5 104t-88.5 38t-90 -34.5t-38 -100.5h-66q-5 66 -38 100.5t-90 34.5t-88.5 -38t-31.5 -103q0 -89 65.5 -189.5t214.5 -242.5q152 145 217 243.5z" />
    <glyph glyph-name="heart" unicode="&#x2665;" horiz-adv-x="792" 
d="M663 689q42 -26 65.5 -74t23.5 -110q0 -116 -86 -237t-271 -287q-181 163 -268 285.5t-87 239.5q0 62 23.5 109.5t66 73.5t96.5 26q67 0 111.5 -39t58.5 -105q14 66 58.5 105t111.5 39q55 0 97 -26z" />
    <glyph glyph-name="uni2776" unicode="&#x2776;" horiz-adv-x="822" 
d="M594 33.5q84 48.5 133 132.5t49 185q0 100 -49 183.5t-133 132.5t-183 49t-182.5 -49t-133 -132.5t-49.5 -183.5q0 -101 49.5 -184.5t133 -132.5t182.5 -49t183 48.5zM398 430v35q-14 -25 -43 -41.5t-67 -17.5v59q45 4 78 30.5t42 62.5h56v-419h-66v291z" />
    <glyph glyph-name="uni2777" unicode="&#x2777;" horiz-adv-x="822" 
d="M594 33.5q84 48.5 133 132.5t49 185q0 100 -49 183.5t-133 132.5t-183 49t-182.5 -49t-133 -132.5t-49.5 -183.5q0 -101 49.5 -184.5t133 -132.5t182.5 -49t183 48.5zM263 144q0 52 24.5 90.5t76.5 72.5l45 31q38 26 58 48.5t20 52.5q0 33 -19.5 53t-51.5 20
q-36 0 -56.5 -22t-21.5 -62h-75q1 64 43 102.5t112 38.5q62 0 102.5 -36t40.5 -92q0 -46 -27.5 -81t-83.5 -72l-49 -33q-23 -15 -33.5 -25.5t-11.5 -22.5h208v-63h-301z" />
    <glyph glyph-name="uni2778" unicode="&#x2778;" horiz-adv-x="822" 
d="M594 33.5q84 48.5 133 132.5t49 185q0 100 -49 183.5t-133 132.5t-183 49t-182.5 -49t-133 -132.5t-49.5 -183.5q0 -101 49.5 -184.5t133 -132.5t182.5 -49t183 48.5zM297 168.5q-41 37.5 -42 101.5h67q1 -39 24 -61.5t61 -22.5q39 0 62 19t23 53t-23.5 53.5t-61.5 19.5
h-26v55h27q33 0 54 17t21 49q0 29 -19.5 46t-53.5 17q-37 0 -58.5 -20.5t-23.5 -55.5h-67q2 60 42 95t108 35q60 0 99.5 -32t39.5 -82q0 -34 -20.5 -59t-55.5 -36q37 -11 61.5 -39.5t24.5 -67.5q0 -54 -42.5 -88t-109.5 -34q-70 0 -111 37.5z" />
    <glyph glyph-name="uni2779" unicode="&#x2779;" horiz-adv-x="822" 
d="M594 33.5q84 48.5 133 132.5t49 185q0 100 -49 183.5t-133 132.5t-183 49t-182.5 -49t-133 -132.5t-49.5 -183.5q0 -101 49.5 -184.5t133 -132.5t182.5 -49t183 48.5zM491 139h-65v105h-194v59l175 255h84v-257h77v-57h-77v-105zM426 301v195q-11 -20 -18 -29l-98 -143
q-13 -19 -16 -23h132z" />
    <glyph glyph-name="uni277A" unicode="&#x277a;" horiz-adv-x="822" 
d="M594 33.5q84 48.5 133 132.5t49 185q0 100 -49 183.5t-133 132.5t-183 49t-182.5 -49t-133 -132.5t-49.5 -183.5q0 -101 49.5 -184.5t133 -132.5t182.5 -49t183 48.5zM304 166.5q-40 35.5 -40 89.5h66q0 -30 21.5 -50t58.5 -20q39 0 63 25t24 67q0 38 -22 63t-62 25
q-26 0 -47.5 -14t-29.5 -33h-66l34 234h236v-61h-189l-14 -90q-1 -8 -1.5 -15t-2.5 -15q16 21 42.5 34.5t57.5 13.5q57 0 93 -40.5t36 -99.5q0 -68 -41.5 -108.5t-109.5 -40.5q-67 0 -107 35.5z" />
    <glyph glyph-name="uni277B" unicode="&#x277b;" horiz-adv-x="822" 
d="M594 33.5q84 48.5 133 132.5t49 185q0 100 -49 183.5t-133 132.5t-183 49t-182.5 -49t-133 -132.5t-49.5 -183.5q0 -101 49.5 -184.5t133 -132.5t182.5 -49t183 48.5zM294 186q-41 55 -41 158q0 106 45 165.5t128 59.5q59 0 94 -32t39 -86h-67q-2 29 -20.5 46t-49.5 17
q-49 0 -75 -37t-26 -102v-16q16 24 43.5 40t63.5 16q57 0 94.5 -38.5t37.5 -98.5q0 -64 -42 -105.5t-105 -41.5q-78 0 -119 55zM471 209.5q23 24.5 23 64.5q0 38 -22 62t-58 24q-38 0 -61.5 -23.5t-23.5 -60.5q0 -43 22.5 -67t59.5 -24t60 24.5z" />
    <glyph glyph-name="uni277C" unicode="&#x277c;" horiz-adv-x="822" 
d="M594 33.5q84 48.5 133 132.5t49 185q0 100 -49 183.5t-133 132.5t-183 49t-182.5 -49t-133 -132.5t-49.5 -183.5q0 -101 49.5 -184.5t133 -132.5t182.5 -49t183 48.5zM338 139q7 107 44 190.5t96 142.5q10 11 20 19h-228v62h293v-56q-66 -72 -105 -159.5t-44 -198.5h-76z
" />
    <glyph glyph-name="uni277D" unicode="&#x277d;" horiz-adv-x="822" 
d="M594 33.5q84 48.5 133 132.5t49 185q0 100 -49 183.5t-133 132.5t-183 49t-182.5 -49t-133 -132.5t-49.5 -183.5q0 -101 49.5 -184.5t133 -132.5t182.5 -49t183 48.5zM297 163.5q-41 32.5 -41 86.5q0 36 24 64.5t65 41.5q-36 13 -57 37.5t-21 57.5q0 52 40 85t105 33
q64 0 103.5 -32.5t39.5 -83.5q0 -34 -21 -60t-57 -37q41 -12 65 -39.5t24 -63.5q0 -55 -42 -88.5t-113 -33.5q-73 0 -114 32.5zM468 402.5q22 17.5 22 46.5q0 30 -21.5 47.5t-56.5 17.5q-36 0 -57.5 -17t-21.5 -46q0 -30 21.5 -48t57.5 -18q34 0 56 17.5zM475.5 205.5
q24.5 19.5 24.5 52.5q0 31 -25 51.5t-63 20.5q-39 0 -64.5 -20.5t-25.5 -51.5q0 -33 24.5 -52.5t65.5 -19.5q39 0 63.5 19.5z" />
    <glyph glyph-name="uni277E" unicode="&#x277e;" horiz-adv-x="822" 
d="M594 33.5q84 48.5 133 132.5t49 185q0 100 -49 183.5t-133 132.5t-183 49t-182.5 -49t-133 -132.5t-49.5 -183.5q0 -101 49.5 -184.5t133 -132.5t182.5 -49t183 48.5zM311 164.5q-34 33.5 -38 77.5h67q9 -56 71 -56q92 0 97 142v17q-15 -21 -44.5 -37t-65.5 -16
q-55 0 -92 37.5t-37 98.5q0 62 42 101.5t105 39.5q72 0 114 -55.5t42 -160.5q0 -108 -42.5 -165t-121.5 -57q-63 0 -97 33.5zM473.5 369q22.5 23 22.5 62q0 37 -22.5 60t-57.5 23t-58 -23t-23 -60q0 -39 22 -62t59 -23q35 0 57.5 23z" />
    <glyph glyph-name="uni300A" unicode="&#x300a;" horiz-adv-x="509" 
d="M303 731l-200 -426l205 -434h-85l-204 432l200 428h84zM494 731l-200 -426l205 -434h-85l-204 432l200 428h84z" />
    <glyph glyph-name="uni300B" unicode="&#x300b;" horiz-adv-x="510" 
d="M11 731h85l204 -432l-200 -428h-84l200 426zM202 731h85l204 -432l-200 -428h-84l200 426z" />
    <glyph glyph-name="uni300C" unicode="&#x300c;" horiz-adv-x="284" 
d="M150 300h-81v431h196v-67h-115v-364z" />
    <glyph glyph-name="uni300D" unicode="&#x300d;" horiz-adv-x="271" 
d="M123 300h81v-431h-196v67h115v364z" />
    <glyph glyph-name="uni300E" unicode="&#x300e;" horiz-adv-x="436" 
d="M256 245h-186v486h331v-184h-145v-302zM136 676v-376h55v302h144v74h-199z" />
    <glyph glyph-name="uni300F" unicode="&#x300f;" horiz-adv-x="434" 
d="M177 357h186v-486h-331v184h145v302zM297 -74v376h-55v-302h-144v-74h199z" />
    <glyph glyph-name="uni3010" unicode="&#x3010;" horiz-adv-x="327" 
d="M91 -129v860h230v-3q-80 -96 -118 -197t-38 -229t37.5 -229t118.5 -200v-2h-230z" />
    <glyph glyph-name="uni3011" unicode="&#x3011;" horiz-adv-x="321" 
d="M236 731v-860h-230v3q80 96 118 197t38 229t-37.5 229t-118.5 200v2h230z" />
    <glyph glyph-name="uni3014" unicode="&#x3014;" horiz-adv-x="274" 
d="M251 -100l-60 -43l-129 169v548l130 171l60 -43l-109 -142v-518z" />
    <glyph glyph-name="uni3015" unicode="&#x3015;" horiz-adv-x="274" 
d="M23 702l60 43l129 -169v-548l-130 -171l-60 43l109 142v518z" />
    <glyph glyph-name="uniE000" unicode="&#xe000;" horiz-adv-x="790" 
d="M395 296l-304 -311l-55 55l305 310l-304 309l55 56l303 -310l304 310l55 -55l-304 -309l304 -309l-55 -56z" />
    <glyph glyph-name="uniE001" unicode="&#xe001;" horiz-adv-x="905" 
d="M364 120l441 576l65 -52l-507 -659l-323 414l67 53z" />
    <glyph glyph-name="uniE002" unicode="&#xe002;" horiz-adv-x="934" 
d="M854 591h-774v76h774v-76zM854 314h-774v76h774v-76zM854 36h-774v77h774v-77z" />
    <glyph glyph-name="uniE003" unicode="&#xe003;" horiz-adv-x="882" 
d="M791 0h-701v700h701v-700zM176 624v-547h529v547h-529z" />
    <glyph glyph-name="uniE004" unicode="&#xe004;" horiz-adv-x="882" 
d="M262 449l69 46l117 -195l296 414l68 -49l-372 -506zM175 77h529v251h86v-328h-700v700h453v-76h-368v-547z" />
    <glyph glyph-name="uniE005" unicode="&#xe005;" horiz-adv-x="882" 
d="M791 0h-701v700h701v-700zM176 624v-547h529v547h-529zM498 295h-114v116h114v-116z" />
    <glyph glyph-name="uniE006" unicode="&#xe006;" horiz-adv-x="688" 
d="M389 239l143 146l62 -62l-250 -246l-249 246l62 62l143 -147v462h89v-461zM25 77h638v-77h-638v77z" />
    <glyph glyph-name="uniE008" unicode="&#xe008;" horiz-adv-x="694" 
d="M197 90.5q-69 40.5 -109.5 109.5t-40.5 150t40.5 150t109.5 109.5t150 40.5t150 -40.5t109.5 -109.5t40.5 -150t-40.5 -150t-109.5 -109.5t-150 -40.5t-150 40.5z" />
    <glyph glyph-name="uniE009" unicode="&#xe009;" horiz-adv-x="574" 
d="M167 142.5q-55 32.5 -87.5 87.5t-32.5 120t32.5 120t87.5 87.5t120 32.5t120 -32.5t87.5 -87.5t32.5 -120t-32.5 -120t-87.5 -87.5t-120 -32.5t-120 32.5z" />
    <glyph glyph-name="uniE010" unicode="&#xe010;" horiz-adv-x="724" 
d="M204.5 77.5q-72.5 42.5 -115 115t-42.5 157.5t42.5 157.5t115 115t157.5 42.5t157.5 -42.5t115 -115t42.5 -157.5t-42.5 -157.5t-115 -115t-157.5 -42.5t-157.5 42.5zM478.5 146q53.5 32 85 86t31.5 118t-31.5 118t-85 86t-116.5 32t-116.5 -32t-85 -86t-31.5 -118
t31.5 -118t85 -86t116.5 -32t116.5 32z" />
    <glyph glyph-name="uniE011" unicode="&#xe011;" horiz-adv-x="574" 
d="M167 142.5q-55 32.5 -87.5 87.5t-32.5 120t32.5 120t87.5 87.5t120 32.5t120 -32.5t87.5 -87.5t32.5 -120t-32.5 -120t-87.5 -87.5t-120 -32.5t-120 32.5zM367.5 210q36.5 22 58 59t21.5 81t-21.5 81t-58 59t-80.5 22t-80.5 -22t-58 -59t-21.5 -81t21.5 -81t58 -59
t80.5 -22t80.5 22z" />
    <glyph glyph-name="uniE012" unicode="&#xe012;" horiz-adv-x="844" 
d="M234.5 25.5q-86.5 50.5 -137 137t-50.5 187.5q0 102 50.5 188t137 136.5t187.5 50.5q102 0 188 -50.5t136.5 -136.5t50.5 -188q0 -101 -50.5 -187.5t-136.5 -137t-188 -50.5q-101 0 -187.5 50.5zM573.5 88q69.5 41 110.5 110.5t41 151.5t-41 151.5t-110.5 110.5
t-151.5 41t-151.5 -41t-110.5 -110.5t-41 -151.5t41 -151.5t110.5 -110.5t151.5 -41t151.5 41zM306.5 150q-53.5 31 -84.5 84.5t-31 115.5t31 115.5t84.5 84.5t115.5 31t115.5 -31t84.5 -84.5t31 -115.5t-31 -115.5t-84.5 -84.5t-115.5 -31t-115.5 31zM501.5 212.5
q36.5 21.5 58 58t21.5 79.5t-21.5 79.5t-58 58t-79.5 21.5t-79.5 -21.5t-58 -58t-21.5 -79.5t21.5 -79.5t58 -58t79.5 -21.5t79.5 21.5zM361 289q-26 26 -26 61q0 36 26 61.5t61 25.5q36 0 61.5 -25.5t25.5 -61.5q0 -35 -25.5 -61t-61.5 -26q-35 0 -61 26z" />
    <glyph glyph-name="uniE013" unicode="&#xe013;" horiz-adv-x="730" 
d="M207.5 77.5q-72.5 42.5 -115 115t-42.5 157.5t42.5 157.5t115 115t157.5 42.5t157.5 -42.5t115 -115t42.5 -157.5t-42.5 -157.5t-115 -115t-157.5 -42.5t-157.5 42.5zM485 142.5q55 32.5 87.5 87.5t32.5 120t-32.5 120t-87.5 87.5t-120 32.5t-120 -32.5t-87.5 -87.5
t-32.5 -120t32.5 -120t87.5 -87.5t120 -32.5t120 32.5zM282 207q-38 22 -60 60t-22 83t22 83t60 60t83 22t83 -22t60 -60t22 -83t-22 -83t-60 -60t-83 -22t-83 22zM428.5 286.5q26.5 26.5 26.5 63.5q0 38 -26 64t-64 26q-37 0 -63.5 -26.5t-26.5 -63.5t26.5 -63.5
t63.5 -26.5t63.5 26.5z" />
    <glyph glyph-name="uniE014" unicode="&#xe014;" horiz-adv-x="580" 
d="M170 142.5q-55 32.5 -87.5 87.5t-32.5 120t32.5 120t87.5 87.5t120 32.5t120 -32.5t87.5 -87.5t32.5 -120t-32.5 -120t-87.5 -87.5t-120 -32.5t-120 32.5zM373 207q38 22 60 60t22 83t-22 83t-60 60t-83 22t-83 -22t-60 -60t-22 -83t22 -83t60 -60t83 -22t83 22z
M226.5 286.5q-26.5 26.5 -26.5 63.5t26.5 63.5t63.5 26.5q38 0 64 -26t26 -64q0 -37 -26.5 -63.5t-63.5 -26.5t-63.5 26.5z" />
    <glyph glyph-name="uniE015" unicode="&#xe015;" horiz-adv-x="881" 
d="M790 0h-700v700h700v-700zM165 625v-550h550v550h-550zM640 150h-400v400h400v-400zM315 475v-250h250v250h-250zM490 300h-100v100h100v-100z" />
    <glyph glyph-name="uniE016" unicode="&#xe016;" horiz-adv-x="730" 
d="M640 75h-550v550h550v-550zM165 550v-400h400v400h-400zM490 225h-250v250h250v-250zM315 400v-100h100v100h-100z" />
    <glyph glyph-name="uniE017" unicode="&#xe017;" horiz-adv-x="560" 
d="M480 150h-400v400h400v-400zM155 475v-250h250v250h-250zM330 300h-100v100h100v-100z" />
    <glyph glyph-name="uniF8FF" unicode="&#xf8ff;" horiz-adv-x="932" 
d="M101 661q5 -11 8 -35q4 -38 14 -61q9 -19 27 -47t33 -46t40.5 -27t69.5 -7q46 3 79 3q39 0 76 -4q40 -4 58 -4q37 0 66 8q18 5 37 20.5t28 30.5q12 20 29 37.5t32 17.5q12 0 17 -9t5 -27q0 -12 8 -19.5t20 -7.5q19 0 30 10q5 6 8 11t6 9q7 12 13 19t15 7q17 0 26.5 -27.5
t9.5 -54.5q0 -61 -4.5 -89.5t-21.5 -73.5q-7 -16 -18 -71.5t-16 -87.5q-4 -27 -8 -96q-4 -44 -32 -40q-9 1 -17 11t-18 28q-9 15 -15 23t-12 8q-4 0 -5 -7t-1.5 -13t-0.5 -9q-1 -21 -3.5 -32.5t-9.5 -14.5q-6 -2 -10 -2q-12 0 -24 11t-17 36q-13 55 -45 90q-20 23 -37 32.5
t-52 9.5q-26 0 -66 -6q-37 -6 -56.5 -20t-27.5 -37t-14 -66q-2 -18 -7.5 -32t-15.5 -14q-13 0 -20.5 12t-13.5 33q-7 25 -14 25t-10.5 -8.5t-7.5 -24.5q-6 -23 -12 -34t-18 -11q-9 0 -17.5 8.5t-10.5 29.5l-22 184q-6 38 -13 75t-10 45q-10 26 -31 65q-19 32 -35 69
q-9 23 -16.5 61t-7.5 72t9.5 54.5t29.5 20.5q14 0 19 -11zM687 510q-14 -10 -16 -19v-3q0 -11 6 -17zM827 485q0 8 -6 14q-7 -14 -7 -25q0 -9 4 -13l8 16q1 3 1 8zM726 367q0 9 -9 15t-31 16q-12 6 -21 -6.5t-9 -27.5q16 19 33 16t17 -17q0 -12 -5 -15.5t-15.5 -4
t-14.5 -3.5q-9 -7 -9 -11q0 -5 13 -7q15 -3 23 -3q1 6 4 10.5t7 8.5q9 7 14 18q3 6 3 11zM802.5 332.5q7.5 8.5 6.5 18.5q-1 12 -8.5 21t-15.5 9q-5 0 -8 -5q12 0 19 -20q3 -8 -4 -17.5t-18 -9.5q3 -5 6 -7t9 0t13.5 10.5z" />
    <glyph glyph-name="G.aalt" horiz-adv-x="731" 
d="M200 31.5q-75 46.5 -114 128.5t-39 185q0 116 46.5 200t125 127.5t172.5 43.5q77 0 140 -28t101.5 -77.5t45.5 -113.5h-96q-11 63 -63.5 102.5t-127.5 39.5q-72 0 -128.5 -33.5t-88 -100t-31.5 -160.5q0 -83 28.5 -147t82.5 -100.5t127 -36.5q61 0 110 26t77.5 76.5
t28.5 120.5v5h-221v77h310v-70q0 -91 -38.5 -161.5t-108.5 -110t-161 -39.5q-103 0 -178 46.5z" />
    <glyph glyph-name="Gbreve.aalt" horiz-adv-x="731" 
d="M290.5 822q-35.5 37 -36.5 92h67q2 -27 17.5 -43t48.5 -16t49 16.5t18 42.5h67q-1 -56 -35.5 -92.5t-98.5 -36.5q-61 0 -96.5 37zM200 31.5q-75 46.5 -114 128.5t-39 185q0 116 46.5 200t125 127.5t172.5 43.5q77 0 140 -28t101.5 -77.5t45.5 -113.5h-96
q-11 63 -63.5 102.5t-127.5 39.5q-72 0 -128.5 -33.5t-88 -100t-31.5 -160.5q0 -83 28.5 -147t82.5 -100.5t127 -36.5q61 0 110 26t77.5 76.5t28.5 120.5v5h-221v77h310v-70q0 -91 -38.5 -161.5t-108.5 -110t-161 -39.5q-103 0 -178 46.5z" />
    <glyph glyph-name="Gcircumflex.aalt" horiz-adv-x="731" 
d="M242 791l93 123h105l93 -123h-85l-30 37q-14 19 -31 37q-18 -20 -32 -38l-29 -36h-84zM200 31.5q-75 46.5 -114 128.5t-39 185q0 116 46.5 200t125 127.5t172.5 43.5q77 0 140 -28t101.5 -77.5t45.5 -113.5h-96q-11 63 -63.5 102.5t-127.5 39.5q-72 0 -128.5 -33.5
t-88 -100t-31.5 -160.5q0 -83 28.5 -147t82.5 -100.5t127 -36.5q61 0 110 26t77.5 76.5t28.5 120.5v5h-221v77h310v-70q0 -91 -38.5 -161.5t-108.5 -110t-161 -39.5q-103 0 -178 46.5z" />
    <glyph glyph-name="uni0122.ss06" horiz-adv-x="731" 
d="M200 31.5q-75 46.5 -114 128.5t-39 185q0 116 46.5 200t125 127.5t172.5 43.5q77 0 140 -28t101.5 -77.5t45.5 -113.5h-96q-11 63 -63.5 102.5t-127.5 39.5q-72 0 -128.5 -33.5t-88 -100t-31.5 -160.5q0 -83 28.5 -147t82.5 -100.5t127 -36.5q61 0 110 26t77.5 76.5
t28.5 120.5v5h-221v77h310v-70q0 -91 -38.5 -161.5t-108.5 -110t-161 -39.5q-103 0 -178 46.5zM334 -234q23 4 34.5 16.5t11.5 47.5h-45v89h100v-86q0 -60 -28 -87t-73 -30v50z" />
    <glyph glyph-name="uni0122.ss06.ss12" horiz-adv-x="731" 
d="M200 31.5q-75 46.5 -114 128.5t-39 185q0 116 46.5 200t125 127.5t172.5 43.5q77 0 140 -28t101.5 -77.5t45.5 -113.5h-96q-11 63 -63.5 102.5t-127.5 39.5q-72 0 -128.5 -33.5t-88 -100t-31.5 -160.5q0 -83 28.5 -147t82.5 -100.5t127 -36.5q61 0 110 26t77.5 76.5
t28.5 120.5v5h-221v77h310v-70q0 -91 -38.5 -161.5t-108.5 -110t-161 -39.5q-103 0 -178 46.5zM352 -275h-70l61 194h99z" />
    <glyph glyph-name="uni0122.ss12" horiz-adv-x="737" 
d="M203.5 32q-75.5 47 -116 129.5t-40.5 184.5q0 116 46 200t123.5 127t170.5 43q76 0 138.5 -28t101 -77.5t46.5 -113.5h-97q-11 63 -63 102.5t-126 39.5q-71 0 -126 -33.5t-86.5 -99.5t-31.5 -160q0 -81 30 -146t84.5 -102t124.5 -37q98 0 154.5 55.5t56.5 159.5v13h-220
v77h303v-366h-75v31v66q-29 -49 -89.5 -80.5t-132.5 -31.5q-100 0 -175.5 47zM352 -275h-70l61 194h99z" />
    <glyph glyph-name="Gdotaccent.aalt" horiz-adv-x="731" 
d="M436 791h-100v103h100v-103zM200 31.5q-75 46.5 -114 128.5t-39 185q0 116 46.5 200t125 127.5t172.5 43.5q77 0 140 -28t101.5 -77.5t45.5 -113.5h-96q-11 63 -63.5 102.5t-127.5 39.5q-72 0 -128.5 -33.5t-88 -100t-31.5 -160.5q0 -83 28.5 -147t82.5 -100.5t127 -36.5
q61 0 110 26t77.5 76.5t28.5 120.5v5h-221v77h310v-70q0 -91 -38.5 -161.5t-108.5 -110t-161 -39.5q-103 0 -178 46.5z" />
    <glyph glyph-name="I.aalt" horiz-adv-x="387" 
d="M340 700v-75h-100v-550h100v-75h-293v75h102v550h-102v75h293z" />
    <glyph glyph-name="IJ.aalt" horiz-adv-x="977" 
d="M340 700v-75h-100v-550h100v-75h-293v75h102v550h-102v75h293zM957 625h-104v-414q0 -104 -62 -165t-167 -61q-106 0 -162 62.5t-58 168.5h93q3 -155 130 -155q134 0 134 155v409h-155v75h351v-75z" />
    <glyph glyph-name="Iacute.aalt" horiz-adv-x="387" 
d="M226 914h107l-106 -129h-72zM340 700v-75h-100v-550h100v-75h-293v75h102v550h-102v75h293z" />
    <glyph glyph-name="Ibreve.aalt" horiz-adv-x="387" 
d="M97.5 822q-35.5 37 -36.5 92h67q2 -27 17.5 -43t48.5 -16t49 16.5t18 42.5h67q-1 -56 -35.5 -92.5t-98.5 -36.5q-61 0 -96.5 37zM340 700v-75h-100v-550h100v-75h-293v75h102v550h-102v75h293z" />
    <glyph glyph-name="Icircumflex.aalt" horiz-adv-x="387" 
d="M133 791h-84l93 123h105l93 -123h-85l-30 37q-15 19 -31 37q-18 -20 -32 -38zM47 700h293v-75h-100v-550h100v-75h-293v75h102v550h-102v75z" />
    <glyph glyph-name="Idieresis.aalt" horiz-adv-x="387" 
d="M43 894h100v-103h-100v103zM245 791v103h99v-103h-99zM47 700h293v-75h-100v-550h100v-75h-293v75h102v550h-102v75z" />
    <glyph glyph-name="Idotaccent.aalt" horiz-adv-x="387" 
d="M143 894h100v-103h-100v103zM340 700v-75h-100v-550h100v-75h-293v75h102v550h-102v75h293z" />
    <glyph glyph-name="Igrave.aalt" horiz-adv-x="387" 
d="M173 914l70 -129h-72l-106 129h108zM340 700v-75h-100v-550h100v-75h-293v75h102v550h-102v75h293z" />
    <glyph glyph-name="Imacron.aalt" horiz-adv-x="387" 
d="M55 878h277v-74h-277v74zM340 700v-75h-100v-550h100v-75h-293v75h102v550h-102v75h293z" />
    <glyph glyph-name="Iogonek.aalt" horiz-adv-x="387" 
d="M340 625h-100v-550h100v-75h-100q-35 -14 -58.5 -35.5t-23.5 -48.5q0 -22 14.5 -32.5t36.5 -10.5q17 0 31 4v-62q-17 -7 -47 -7q-46 0 -77 25t-31 68q0 62 66 99h-104v75h102v550h-102v75h293v-75z" />
    <glyph glyph-name="Itilde.aalt" horiz-adv-x="387" 
d="M106 801h-68q0 53 26 79.5t68 26.5q18 0 32 -5.5t36 -17.5q15 -9 26.5 -14t24.5 -5q31 0 32 38h67q0 -52 -24.5 -77.5t-65.5 -25.5q-19 0 -34.5 5.5t-34.5 16.5q-20 10 -30 14t-22 4q-32 0 -33 -39zM47 700h293v-75h-100v-550h100v-75h-293v75h102v550h-102v75z" />
    <glyph glyph-name="J.aalt" horiz-adv-x="593" 
d="M573 625h-104v-414q0 -104 -62 -165t-167 -61q-106 0 -162 62.5t-58 168.5h93q3 -155 130 -155q134 0 134 155v409h-155v75h351v-75z" />
    <glyph glyph-name="Jcircumflex.aalt" horiz-adv-x="593" 
d="M362 791h-84l93 123h105l93 -123h-85l-30 37q-14 19 -31 37q-18 -20 -32 -38zM573 625h-104v-414q0 -104 -62 -165t-167 -61q-106 0 -162 62.5t-58 168.5h93q3 -155 130 -155q134 0 134 155v409h-155v75h351v-75z" />
    <glyph glyph-name="uni0136.aalt" horiz-adv-x="622" 
d="M282 382l357 -382h-123l-296 319l-40 -41v-278h-90v700h90v-307l42 42l257 265h113zM302 -275h-70l61 194h99z" />
    <glyph glyph-name="Lcaron.aalt" horiz-adv-x="556" 
d="M546 0h-456v700h91v-623h365v-77zM370 506h-70l61 194h99z" />
    <glyph glyph-name="uni013B.aalt" horiz-adv-x="556" 
d="M546 0h-456v700h91v-623h365v-77zM286 -275h-70l61 194h99z" />
    <glyph glyph-name="uni0145.aalt" horiz-adv-x="764" 
d="M181 0h-91v700h137l355 -597v88v509h92v-700h-127l-366 612v-85v-527zM365 -275h-70l61 194h99z" />
    <glyph glyph-name="R.aalt" horiz-adv-x="648" 
d="M90 0v700h293q102 0 162.5 -52t60.5 -139q0 -86 -61 -137.5t-166 -51.5l238 -320h-116l-228 318h-92v-318h-91zM365 395q72 0 110 28.5t38 85.5t-38 86t-110 29h-184v-229h184z" />
    <glyph glyph-name="Racute.aalt" horiz-adv-x="648" 
d="M345 785h-72l71 129h107zM90 0v700h293q102 0 162.5 -52t60.5 -139q0 -86 -61 -137.5t-166 -51.5l238 -320h-116l-228 318h-92v-318h-91zM365 395q72 0 110 28.5t38 85.5t-38 86t-110 29h-184v-229h184z" />
    <glyph glyph-name="Rcaron.aalt" horiz-adv-x="648" 
d="M259 791l-93 123h84l29 -36q15 -19 32 -38q13 15 31 37l30 37h85l-93 -123h-105zM90 0v700h293q102 0 162.5 -52t60.5 -139q0 -86 -61 -137.5t-166 -51.5l238 -320h-116l-228 318h-92v-318h-91zM365 395q72 0 110 28.5t38 85.5t-38 86t-110 29h-184v-229h184z" />
    <glyph glyph-name="uni0156.ss07" horiz-adv-x="648" 
d="M90 0v700h293q102 0 162.5 -52t60.5 -139q0 -86 -61 -137.5t-166 -51.5l238 -320h-116l-228 318h-92v-318h-91zM365 395q72 0 110 28.5t38 85.5t-38 86t-110 29h-184v-229h184zM292 -234q23 4 34.5 16.5t11.5 47.5h-45v89h100v-86q0 -60 -28 -87t-73 -30v50z" />
    <glyph glyph-name="uni0156.ss07.ss12" horiz-adv-x="648" 
d="M90 0v700h293q102 0 162.5 -52t60.5 -139q0 -86 -61 -137.5t-166 -51.5l238 -320h-116l-228 318h-92v-318h-91zM365 395q72 0 110 28.5t38 85.5t-38 86t-110 29h-184v-229h184zM310 -275h-70l61 194h99z" />
    <glyph glyph-name="uni0156.ss12" horiz-adv-x="665" 
d="M90 0v700h297q102 0 160.5 -48t58.5 -136q0 -62 -38.5 -108t-90.5 -62q51 -9 82.5 -51t31.5 -109v-186h-91v161q0 82 -33.5 113.5t-113.5 31.5h-172v-306h-91zM365 383q71 0 109.5 31.5t38.5 90.5t-38.5 89t-109.5 30h-184v-241h184zM320 -275h-70l61 194h99z" />
    <glyph glyph-name="uni0218.aalt" horiz-adv-x="637" 
d="M173 14q-64 29 -99 83.5t-36 127.5h93q4 -76 56 -120t135 -44q85 0 131.5 34.5t46.5 92.5q0 47 -35.5 73.5t-103.5 42.5l-104 24q-87 20 -141 68.5t-54 124.5q0 56 33 100.5t91.5 69.5t131.5 25q113 0 183.5 -57.5t76.5 -154.5h-93q-5 62 -50.5 98.5t-118.5 36.5
q-68 0 -113 -31t-45 -79q0 -45 30 -73t92 -42l124 -28q89 -21 140.5 -68.5t51.5 -123.5q0 -58 -33.5 -105.5t-95.5 -75.5t-146 -28t-148 29zM294 -275h-70l61 194h99z" />
    <glyph glyph-name="uni021A.aalt" horiz-adv-x="593" 
d="M342 0h-91v624h-242v76h574v-76h-241v-624zM264 -275h-70l61 194h99z" />
    <glyph glyph-name="a.salt" horiz-adv-x="582" 
d="M151 15q-50 30 -79 88t-29 139q0 72 27.5 130.5t78.5 92t118 33.5q55 0 95.5 -24.5t59.5 -56.5v39v26h86v-482h-86v26v40q-20 -36 -62.5 -58.5t-94.5 -22.5q-64 0 -114 30zM386 103.5q41 51.5 41 138.5q0 86 -40.5 137t-106.5 51t-107 -52t-41 -136q0 -86 41 -138
t107 -52q65 0 106 51.5z" />
    <glyph glyph-name="aacute.aalt" horiz-adv-x="582" 
d="M324 567h-72l71 129h107zM151 15q-50 30 -79 88t-29 139q0 72 27.5 130.5t78.5 92t118 33.5q55 0 95.5 -24.5t59.5 -56.5v39v26h86v-482h-86v26v40q-20 -36 -62.5 -58.5t-94.5 -22.5q-64 0 -114 30zM386 103.5q41 51.5 41 138.5q0 86 -40.5 137t-106.5 51t-107 -52
t-41 -136q0 -86 41 -138t107 -52q65 0 106 51.5z" />
    <glyph glyph-name="abreve.aalt" horiz-adv-x="582" 
d="M194.5 604q-35.5 37 -36.5 92h67q2 -27 17.5 -43t48.5 -16t49 16.5t18 42.5h67q-1 -56 -35.5 -92.5t-98.5 -36.5q-61 0 -96.5 37zM151 15q-50 30 -79 88t-29 139q0 72 27.5 130.5t78.5 92t118 33.5q55 0 95.5 -24.5t59.5 -56.5v39v26h86v-482h-86v26v40
q-20 -36 -62.5 -58.5t-94.5 -22.5q-64 0 -114 30zM386 103.5q41 51.5 41 138.5q0 86 -40.5 137t-106.5 51t-107 -52t-41 -136q0 -86 41 -138t107 -52q65 0 106 51.5z" />
    <glyph glyph-name="acircumflex.aalt" horiz-adv-x="582" 
d="M146 573l93 123h105l93 -123h-85l-30 37q-15 19 -31 37q-18 -20 -32 -38l-29 -36h-84zM151 15q-50 30 -79 88t-29 139q0 72 27.5 130.5t78.5 92t118 33.5q55 0 95.5 -24.5t59.5 -56.5v39v26h86v-482h-86v26v40q-20 -36 -62.5 -58.5t-94.5 -22.5q-64 0 -114 30zM386 103.5
q41 51.5 41 138.5q0 86 -40.5 137t-106.5 51t-107 -52t-41 -136q0 -86 41 -138t107 -52q65 0 106 51.5z" />
    <glyph glyph-name="adieresis.aalt" horiz-adv-x="582" 
d="M240 573h-100v103h100v-103zM441 573h-99v103h99v-103zM151 15q-50 30 -79 88t-29 139q0 72 27.5 130.5t78.5 92t118 33.5q55 0 95.5 -24.5t59.5 -56.5v39v26h86v-482h-86v26v40q-20 -36 -62.5 -58.5t-94.5 -22.5q-64 0 -114 30zM386 103.5q41 51.5 41 138.5
q0 86 -40.5 137t-106.5 51t-107 -52t-41 -136q0 -86 41 -138t107 -52q65 0 106 51.5z" />
    <glyph glyph-name="uni0227.aalt" horiz-adv-x="582" 
d="M340 573h-100v103h100v-103zM151 15q-50 30 -79 88t-29 139q0 72 27.5 130.5t78.5 92t118 33.5q55 0 95.5 -24.5t59.5 -56.5v39v26h86v-482h-86v26v40q-20 -36 -62.5 -58.5t-94.5 -22.5q-64 0 -114 30zM386 103.5q41 51.5 41 138.5q0 86 -40.5 137t-106.5 51t-107 -52
t-41 -136q0 -86 41 -138t107 -52q65 0 106 51.5z" />
    <glyph glyph-name="agrave.aalt" horiz-adv-x="582" 
d="M340 567h-72l-106 129h108zM151 15q-50 30 -79 88t-29 139q0 72 27.5 130.5t78.5 92t118 33.5q55 0 95.5 -24.5t59.5 -56.5v39v26h86v-482h-86v26v40q-20 -36 -62.5 -58.5t-94.5 -22.5q-64 0 -114 30zM386 103.5q41 51.5 41 138.5q0 86 -40.5 137t-106.5 51t-107 -52
t-41 -136q0 -86 41 -138t107 -52q65 0 106 51.5z" />
    <glyph glyph-name="amacron.aalt" horiz-adv-x="582" 
d="M429 586h-277v74h277v-74zM151 15q-50 30 -79 88t-29 139q0 72 27.5 130.5t78.5 92t118 33.5q55 0 95.5 -24.5t59.5 -56.5v39v26h86v-482h-86v26v40q-20 -36 -62.5 -58.5t-94.5 -22.5q-64 0 -114 30zM386 103.5q41 51.5 41 138.5q0 86 -40.5 137t-106.5 51t-107 -52
t-41 -136q0 -86 41 -138t107 -52q65 0 106 51.5z" />
    <glyph glyph-name="aogonek.aalt" horiz-adv-x="582" 
d="M508 0q-35 -14 -58.5 -35.5t-23.5 -48.5q0 -22 14.5 -32.5t36.5 -10.5q17 0 31 4v-62q-17 -7 -47 -7q-46 0 -77 25t-31 68q0 62 69 101v24v40q-20 -36 -62.5 -58.5t-94.5 -22.5q-64 0 -114 30t-79 88t-29 139q0 72 27.5 130.5t78.5 92t118 33.5q55 0 95.5 -24.5
t59.5 -56.5v39v26h86v-482zM386 103.5q41 51.5 41 138.5q0 86 -40.5 137t-106.5 51t-107 -52t-41 -136q0 -86 41 -138t107 -52q65 0 106 51.5z" />
    <glyph glyph-name="aring.aalt" horiz-adv-x="582" 
d="M228.5 562.5q-25.5 24.5 -25.5 62.5t25.5 63.5t62.5 25.5q36 0 62 -25.5t26 -63.5t-26 -62.5t-62 -24.5q-37 0 -62.5 24.5zM317.5 596q9.5 10 9.5 29t-10 29.5t-26 10.5t-26 -10.5t-10 -29.5q0 -18 10 -28.5t26 -10.5q17 0 26.5 10zM151 15q-50 30 -79 88t-29 139
q0 72 27.5 130.5t78.5 92t118 33.5q55 0 95.5 -24.5t59.5 -56.5v39v26h86v-482h-86v26v40q-20 -36 -62.5 -58.5t-94.5 -22.5q-64 0 -114 30zM386 103.5q41 51.5 41 138.5q0 86 -40.5 137t-106.5 51t-107 -52t-41 -136q0 -86 41 -138t107 -52q65 0 106 51.5z" />
    <glyph glyph-name="aringacute.aalt" horiz-adv-x="582" 
d="M328 762h-72l71 129h107zM228.5 562.5q-25.5 24.5 -25.5 62.5t25.5 63.5t62.5 25.5q36 0 62 -25.5t26 -63.5t-26 -62.5t-62 -24.5q-37 0 -62.5 24.5zM317.5 596q9.5 10 9.5 29t-10 29.5t-26 10.5t-26 -10.5t-10 -29.5q0 -18 10 -28.5t26 -10.5q17 0 26.5 10zM151 15
q-50 30 -79 88t-29 139q0 72 27.5 130.5t78.5 92t118 33.5q55 0 95.5 -24.5t59.5 -56.5v39v26h86v-482h-86v26v40q-20 -36 -62.5 -58.5t-94.5 -22.5q-64 0 -114 30zM386 103.5q41 51.5 41 138.5q0 86 -40.5 137t-106.5 51t-107 -52t-41 -136q0 -86 41 -138t107 -52
q65 0 106 51.5z" />
    <glyph glyph-name="atilde.aalt" horiz-adv-x="582" 
d="M322.5 587.5q-15.5 5.5 -34.5 16.5q-20 10 -30 14t-22 4q-32 0 -33 -39h-68q0 53 26 79.5t68 26.5q18 0 32 -5.5t36 -17.5q15 -9 26.5 -14t24.5 -5q31 0 32 38h67q0 -52 -24.5 -77.5t-65.5 -25.5q-19 0 -34.5 5.5zM151 15q-50 30 -79 88t-29 139q0 72 27.5 130.5t78.5 92
t118 33.5q55 0 95.5 -24.5t59.5 -56.5v39v26h86v-482h-86v26v40q-20 -36 -62.5 -58.5t-94.5 -22.5q-64 0 -114 30zM386 103.5q41 51.5 41 138.5q0 86 -40.5 137t-106.5 51t-107 -52t-41 -136q0 -86 41 -138t107 -52q65 0 106 51.5z" />
    <glyph glyph-name="dcaron.aalt" horiz-adv-x="627" 
d="M151 15q-50 30 -79 88t-29 138q0 73 27.5 131.5t78.5 92t118 33.5q55 0 95.5 -24.5t59.5 -56.5v39v244h86v-700h-86v28v39q-20 -35 -62.5 -58.5t-94.5 -23.5q-64 0 -114 30zM607 506h-70l61 194h99zM386.5 104q41.5 52 41.5 138q0 85 -41 136.5t-107 51.5t-107 -52.5
t-41 -136.5q0 -85 41 -137t107 -52q65 0 106.5 52z" />
    <glyph glyph-name="uni0123.aalt" horiz-adv-x="581" 
d="M299 767h70l-61 -194h-99zM122.5 -177.5q-57.5 49.5 -57.5 131.5h85q0 -52 34 -83t92 -31q70 0 107.5 38t37.5 116v59v32q-19 -37 -62 -58.5t-96 -21.5q-66 0 -115.5 30t-76.5 85.5t-27 129.5q0 73 29 129.5t79.5 87.5t113.5 31q55 0 94 -23.5t61 -57.5v39v26h86v-458
q0 -251 -232 -251q-95 0 -152.5 49.5zM386 121q41 49 41 129q0 52 -19 93t-52.5 64t-75.5 23q-65 0 -106 -50t-41 -130q0 -81 40.5 -129.5t106.5 -48.5q65 0 106 49z" />
    <glyph glyph-name="i.aalt" horiz-adv-x="233" 
d="M66 573v103h100v-103h-100zM74 482h86v-482h-86v482z" />
    <glyph glyph-name="lcaron.aalt" horiz-adv-x="276" 
d="M74 700h86v-700h-86v700zM189 506l61 194h99l-90 -194h-70z" />
    <glyph glyph-name="uni013C.aalt" horiz-adv-x="233" 
d="M160 700v-700h-86v700h86zM15 -275l61 194h99l-90 -194h-70z" />
    <glyph glyph-name="uni0146.aalt" horiz-adv-x="554" 
d="M74 0v482h86v-33v-32q20 33 60.5 57t87.5 24q84 0 131 -51t47 -143v-304h-86v293q0 70 -25 103.5t-81 33.5q-61 0 -97.5 -40.5t-36.5 -99.5v-290h-86zM248 -275h-70l61 194h99z" />
    <glyph glyph-name="q.aalt" horiz-adv-x="588" 
d="M510 -140h100v-71h-186v237v41q-22 -39 -63 -60.5t-93 -21.5q-67 0 -118 30t-79 88t-28 138q0 73 27.5 131.5t78.5 92t119 33.5q54 0 96.5 -23.5t63.5 -57.5v42v23h82v-622zM386.5 103.5q41.5 51.5 41.5 137.5t-40.5 137.5t-106.5 51.5q-67 0 -108 -52.5t-41 -136.5
q0 -85 40.5 -137t106.5 -52t107.5 51.5z" />
    <glyph glyph-name="uni0157.aalt" horiz-adv-x="347" 
d="M74 0v482h86v-21v-59q19 43 58.5 69.5t92.5 26.5q14 0 22 -1v-85q-14 2 -27 2q-71 0 -108.5 -40t-37.5 -119v-255h-86zM85 -275h-70l61 194h99z" />
    <glyph glyph-name="glyph277" horiz-adv-x="347" 
d="M333 497v-85q-14 2 -27 2q-71 0 -108.5 -40t-37.5 -119v-255h-86v482h86v-21v-59q19 43 58.5 69.5t92.5 26.5q14 0 22 -1zM85 -275h-70l61 194h99z" />
    <glyph glyph-name="uni0219.aalt" horiz-adv-x="483" 
d="M92.5 32.5q-54.5 47.5 -56.5 126.5h84q2 -50 34.5 -78.5t89.5 -28.5q50 0 80.5 21.5t30.5 57.5q0 58 -84 74l-73 14q-69 13 -108 48t-39 89q0 41 24 73t66.5 50.5t96.5 18.5q87 0 137 -40.5t55 -114.5h-85q-5 43 -34.5 65t-78.5 22q-43 0 -69 -19t-26 -50q0 -28 20 -44
t62 -24l75 -14q69 -13 107.5 -47t38.5 -92q0 -43 -24 -78.5t-68.5 -56t-104.5 -20.5q-96 0 -150.5 47.5zM221 -275h-70l61 194h99z" />
    <glyph glyph-name="t.aalt" horiz-adv-x="385" 
d="M235 0h-86v411h-134v71h134v159h86v-159h135v-71h-135v-411z" />
    <glyph glyph-name="tbar.aalt" horiz-adv-x="394" 
d="M375 482v-71h-135v-112h76v-73h-76v-226h-86v226h-76v73h76v112h-134v71h134v159h86v-159h135z" />
    <glyph glyph-name="tcaron.ss03" horiz-adv-x="385" 
d="M282 565q22 6 34 18.5t12 37.5h-47v79h101v-73q0 -51 -30.5 -75.5t-69.5 -28.5v42zM235 0h-86v411h-134v71h134v159h86v-159h135v-71h-135v-411z" />
    <glyph glyph-name="tcaron.ss03.ss12" horiz-adv-x="385" 
d="M342 553h-65l56 147h91zM235 0h-86v411h-134v71h134v159h86v-159h135v-71h-135v-411z" />
    <glyph glyph-name="tcaron.ss12" horiz-adv-x="330" 
d="M302 553h-65l56 147h91zM146.5 28.5q-38.5 33.5 -38.5 108.5v274h-90v71h90v159h86v-159h100v-71h-100v-265q0 -40 18.5 -57t52.5 -17q15 0 36 3v-74q-27 -6 -56 -6q-60 0 -98.5 33.5z" />
    <glyph glyph-name="uni0163.ss03" horiz-adv-x="385" 
d="M235 0h-10l-36 -55q39 0 63.5 -20.5t24.5 -53.5q0 -35 -26.5 -59.5t-78.5 -24.5q-31 0 -58.5 12.5t-43.5 30.5l34 41q31 -31 66 -31q18 0 30.5 8t12.5 23q0 12 -11 20.5t-30 8.5q-14 0 -26 -5l-30 36l44 69h-11v411h-134v71h134v159h86v-159h135v-71h-135v-411z" />
    <glyph glyph-name="uni021B.ss03" horiz-adv-x="385" 
d="M235 0h-86v411h-134v71h134v159h86v-159h135v-71h-135v-411zM142 -234q23 4 34.5 16.5t11.5 47.5h-45v89h100v-86q0 -60 -28 -87t-73 -30v50z" />
    <glyph glyph-name="uni021B.ss03.ss12" horiz-adv-x="385" 
d="M235 0h-86v411h-134v71h134v159h86v-159h135v-71h-135v-411zM160 -275h-70l61 194h99z" />
    <glyph glyph-name="uni021B.ss12" horiz-adv-x="330" 
d="M146.5 28.5q-38.5 33.5 -38.5 108.5v274h-90v71h90v159h86v-159h100v-71h-100v-265q0 -40 18.5 -57t52.5 -17q15 0 36 3v-74q-27 -6 -56 -6q-60 0 -98.5 33.5zM177 -275h-70l61 194h99z" />
    <glyph glyph-name="u.aalt" horiz-adv-x="540" 
d="M119.5 37.5q-51.5 52.5 -51.5 153.5v291h86v-284q0 -72 28.5 -108t87.5 -36q116 0 116 144v284h85v-292q0 -100 -51 -152.5t-150 -52.5t-150.5 52.5z" />
    <glyph glyph-name="uacute.aalt" horiz-adv-x="540" 
d="M304 567h-72l71 129h107zM119.5 37.5q-51.5 52.5 -51.5 153.5v291h86v-284q0 -72 28.5 -108t87.5 -36q116 0 116 144v284h85v-292q0 -100 -51 -152.5t-150 -52.5t-150.5 52.5z" />
    <glyph glyph-name="ubreve.aalt" horiz-adv-x="540" 
d="M174.5 604q-35.5 37 -36.5 92h67q2 -27 17.5 -43t48.5 -16t49 16.5t18 42.5h67q-1 -56 -35.5 -92.5t-98.5 -36.5q-61 0 -96.5 37zM119.5 37.5q-51.5 52.5 -51.5 153.5v291h86v-284q0 -72 28.5 -108t87.5 -36q116 0 116 144v284h85v-292q0 -100 -51 -152.5t-150 -52.5
t-150.5 52.5z" />
    <glyph glyph-name="ucircumflex.aalt" horiz-adv-x="540" 
d="M126 573l93 123h105l93 -123h-85l-30 37q-14 19 -31 37q-18 -20 -32 -38l-29 -36h-84zM119.5 37.5q-51.5 52.5 -51.5 153.5v291h86v-284q0 -72 28.5 -108t87.5 -36q116 0 116 144v284h85v-292q0 -100 -51 -152.5t-150 -52.5t-150.5 52.5z" />
    <glyph glyph-name="udieresis.aalt" horiz-adv-x="540" 
d="M220 573h-100v103h100v-103zM421 573h-99v103h99v-103zM119.5 37.5q-51.5 52.5 -51.5 153.5v291h86v-284q0 -72 28.5 -108t87.5 -36q116 0 116 144v284h85v-292q0 -100 -51 -152.5t-150 -52.5t-150.5 52.5z" />
    <glyph glyph-name="ugrave.aalt" horiz-adv-x="540" 
d="M320 567h-72l-106 129h108zM119.5 37.5q-51.5 52.5 -51.5 153.5v291h86v-284q0 -72 28.5 -108t87.5 -36q116 0 116 144v284h85v-292q0 -100 -51 -152.5t-150 -52.5t-150.5 52.5z" />
    <glyph glyph-name="uhungarumlaut.aalt" horiz-adv-x="540" 
d="M234 567h-58l42 129h94zM363 567h-62l51 129h97zM119.5 37.5q-51.5 52.5 -51.5 153.5v291h86v-284q0 -72 28.5 -108t87.5 -36q116 0 116 144v284h85v-292q0 -100 -51 -152.5t-150 -52.5t-150.5 52.5z" />
    <glyph glyph-name="umacron.aalt" horiz-adv-x="540" 
d="M409 586h-277v74h277v-74zM119.5 37.5q-51.5 52.5 -51.5 153.5v291h86v-284q0 -72 28.5 -108t87.5 -36q116 0 116 144v284h85v-292q0 -100 -51 -152.5t-150 -52.5t-150.5 52.5z" />
    <glyph glyph-name="uogonek.aalt" horiz-adv-x="540" 
d="M239 -167.5q-31 24.5 -31 67.5q0 49 46 85q-92 4 -139 56.5t-47 149.5v291h86v-284q0 -72 28.5 -108t87.5 -36q116 0 116 144v284h85v-292q0 -146 -105 -188q-36 -15 -60.5 -37t-24.5 -49q0 -22 13.5 -32.5t34.5 -10.5q20 0 34 4v-62q-17 -7 -48 -7q-45 0 -76 24.5z" />
    <glyph glyph-name="uring.aalt" horiz-adv-x="540" 
d="M208.5 562.5q-25.5 24.5 -25.5 62.5t25.5 63.5t62.5 25.5q36 0 62 -25.5t26 -63.5t-26 -62.5t-62 -24.5q-37 0 -62.5 24.5zM297.5 596q9.5 10 9.5 29t-10 29.5t-26 10.5t-26 -10.5t-10 -29.5q0 -18 10 -28.5t26 -10.5q17 0 26.5 10zM119.5 37.5q-51.5 52.5 -51.5 153.5
v291h86v-284q0 -72 28.5 -108t87.5 -36q116 0 116 144v284h85v-292q0 -100 -51 -152.5t-150 -52.5t-150.5 52.5z" />
    <glyph glyph-name="utilde.aalt" horiz-adv-x="540" 
d="M303 587.5q-15 5.5 -35 16.5q-20 10 -30 14t-22 4q-32 0 -33 -39h-68q0 53 26 79.5t68 26.5q18 0 32 -5.5t36 -17.5q15 -9 26.5 -14t24.5 -5q31 0 32 38h67q0 -52 -24.5 -77.5t-65.5 -25.5q-19 0 -34 5.5zM119.5 37.5q-51.5 52.5 -51.5 153.5v291h86v-284
q0 -72 28.5 -108t87.5 -36q116 0 116 144v284h85v-292q0 -100 -51 -152.5t-150 -52.5t-150.5 52.5z" />
    <glyph glyph-name="y.aalt" horiz-adv-x="481" 
d="M40 -222v79q18 -6 41 -6q31 0 52.5 14t35.5 52l37 100l-193 465h95l122 -309q14 -38 22 -56q12 36 20 57l106 308h90l-222 -592q-24 -63 -63 -90t-95 -27q-27 0 -48 5z" />
    <glyph glyph-name="yacute.aalt" horiz-adv-x="481" 
d="M276 567h-72l71 129h107zM40 -222v79q18 -6 41 -6q31 0 52.5 14t35.5 52l37 100l-193 465h95l122 -309q14 -38 22 -56q12 36 20 57l106 308h90l-222 -592q-24 -63 -63 -90t-95 -27q-27 0 -48 5z" />
    <glyph glyph-name="ycircumflex.aalt" horiz-adv-x="481" 
d="M98 573l93 123h105l93 -123h-85l-30 37q-14 19 -31 37q-18 -20 -32 -38l-29 -36h-84zM40 -222v79q18 -6 41 -6q31 0 52.5 14t35.5 52l37 100l-193 465h95l122 -309q14 -38 22 -56q12 36 20 57l106 308h90l-222 -592q-24 -63 -63 -90t-95 -27q-27 0 -48 5z" />
    <glyph glyph-name="ydieresis.aalt" horiz-adv-x="481" 
d="M192 573h-100v103h100v-103zM393 573h-99v103h99v-103zM40 -222v79q18 -6 41 -6q31 0 52.5 14t35.5 52l37 100l-193 465h95l122 -309q14 -38 22 -56q12 36 20 57l106 308h90l-222 -592q-24 -63 -63 -90t-95 -27q-27 0 -48 5z" />
    <glyph glyph-name="ygrave.aalt" horiz-adv-x="481" 
d="M292 567h-72l-106 129h108zM40 -222v79q18 -6 41 -6q31 0 52.5 14t35.5 52l37 100l-193 465h95l122 -309q14 -38 22 -56q12 36 20 57l106 308h90l-222 -592q-24 -63 -63 -90t-95 -27q-27 0 -48 5z" />
    <glyph glyph-name="uni0233.aalt" horiz-adv-x="481" 
d="M381 586h-277v74h277v-74zM40 -222v79q18 -6 41 -6q31 0 52.5 14t35.5 52l37 100l-193 465h95l122 -309q14 -38 22 -56q12 36 20 57l106 308h90l-222 -592q-24 -63 -63 -90t-95 -27q-27 0 -48 5z" />
    <glyph glyph-name="zero.zero" horiz-adv-x="613" 
d="M441.5 672.5q57.5 -43.5 88.5 -126t31 -197.5q0 -174 -67 -269t-187 -95q-121 0 -187.5 95.5t-66.5 268.5q0 114 30.5 196.5t88 126.5t135.5 44q77 0 134.5 -43.5zM144 349q0 -87 16 -153l261 386q-41 62 -114 62q-163 0 -163 -295zM427 128.5q42 72.5 42 220.5
q0 93 -16 153l-259 -385q42 -61 113 -61q78 0 120 72.5z" />
    <glyph glyph-name="one.ss09" horiz-adv-x="353" 
d="M11 624v76h251v-700h-88v624h-163z" />
    <glyph glyph-name="three.ss10" horiz-adv-x="586" 
d="M326 417q69 -7 115.5 -38.5t68.5 -77t22 -95.5q0 -64 -31 -114t-86.5 -78.5t-124.5 -28.5q-74 0 -129 27t-84 76t-29 114h90q0 -64 40 -105t112 -41q66 0 108.5 42t42.5 111q0 70 -48.5 109t-132.5 39q-19 0 -29 -1v64l175 203h-326v77h425v-82z" />
    <glyph glyph-name="four.ss09" horiz-adv-x="636" 
d="M479 0h-88v224h-312v476h88v-396h224v396h88v-396h129v-80h-129v-224z" />
    <glyph glyph-name="six.ss11" horiz-adv-x="572" 
d="M421 429.5q51 -29.5 80.5 -83t29.5 -121.5q0 -73 -31.5 -127.5t-87 -83.5t-126.5 -29t-125.5 29.5t-85 84t-30.5 126.5q0 66 21.5 119t62.5 116l154 240h104l-176 -267q41 26 97 26q62 0 113 -29.5zM398.5 103.5q41.5 45.5 41.5 118.5t-40.5 119t-108.5 46
q-69 0 -111 -46t-42 -119t41 -118.5t109 -45.5q69 0 110.5 45.5z" />
    <glyph glyph-name="nine.ss11" horiz-adv-x="573" 
d="M410.5 686q54.5 -30 85.5 -86t31 -130q0 -63 -20.5 -115.5t-58.5 -114.5l-143 -240h-104l173 284q-46 -31 -102 -31q-67 0 -118.5 30t-79.5 81.5t-28 114.5q0 68 32 122t87.5 84.5t123.5 30.5q67 0 121.5 -30zM179 369.5q41 -44.5 108 -44.5q66 0 107 44.5t41 112.5
q0 71 -40.5 115.5t-107.5 44.5q-68 0 -108.5 -44t-40.5 -116q0 -68 41 -112.5z" />
    <glyph glyph-name="uni24EA.aalt" horiz-adv-x="822" 
d="M594 667q84 -49 133 -132.5t49 -183.5q0 -101 -49 -185t-133 -132.5t-183 -48.5t-182.5 49t-133 132.5t-49.5 184.5q0 100 49.5 183.5t133 132.5t182.5 49t183 -49zM561.5 88q68.5 40 108 109.5t39.5 153.5t-39.5 153t-108 109t-150.5 40t-150.5 -40t-108 -109
t-39.5 -153t39.5 -153.5t108 -109.5t150.5 -40t150.5 40zM526 510.5q42 -58.5 42 -161.5q0 -102 -41.5 -160t-114.5 -58q-75 0 -116.5 58t-41.5 160t42.5 161t115.5 59q72 0 114 -58.5zM345 472.5q-23 -40.5 -23 -123.5q0 -42 6 -72l141 208q-21 28 -57 28q-44 0 -67 -40.5z
M478 227.5q23 40.5 23 121.5q0 46 -8 81l-142 -211q22 -32 61 -32q43 0 66 40.5z" />
    <glyph glyph-name="uni2460.aalt" horiz-adv-x="822" 
d="M228.5 34q-83.5 49 -133 132.5t-49.5 184.5q0 100 49.5 183.5t133 132.5t182.5 49t183 -49t133 -132.5t49 -183.5q0 -101 -49 -185t-133 -132.5t-183 -48.5t-182.5 49zM561.5 88q68.5 40 108 109.5t39.5 153.5t-39.5 153t-108 109t-150.5 40t-150.5 -40t-108 -109
t-39.5 -153t39.5 -153.5t108 -109.5t150.5 -40t150.5 40zM468 139h-66v357h-92v62h158v-419z" />
    <glyph glyph-name="uni2462.aalt" horiz-adv-x="822" 
d="M228.5 34q-83.5 49 -133 132.5t-49.5 184.5q0 100 49.5 183.5t133 132.5t182.5 49t183 -49t133 -132.5t49 -183.5q0 -101 -49 -185t-133 -132.5t-183 -48.5t-182.5 49zM561.5 88q68.5 40 108 109.5t39.5 153.5t-39.5 153t-108 109t-150.5 40t-150.5 -40t-108 -109
t-39.5 -153t39.5 -153.5t108 -109.5t150.5 -40t150.5 40zM302.5 168.5q-40.5 37.5 -41.5 101.5h66q1 -39 23.5 -61.5t60.5 -22.5q39 0 62 20.5t23 57.5q0 38 -27.5 54.5t-82.5 16.5v56l83 100h-185v62h262v-56l-93 -111q110 -24 110 -122q0 -57 -42.5 -95t-108.5 -38
q-69 0 -109.5 37.5z" />
    <glyph glyph-name="uni2463.aalt" horiz-adv-x="822" 
d="M228.5 34q-83.5 49 -133 132.5t-49.5 184.5q0 100 49.5 183.5t133 132.5t182.5 49t183 -49t133 -132.5t49 -183.5q0 -101 -49 -185t-133 -132.5t-183 -48.5t-182.5 49zM561.5 88q68.5 40 108 109.5t39.5 153.5t-39.5 153t-108 109t-150.5 40t-150.5 -40t-108 -109
t-39.5 -153t39.5 -153.5t108 -109.5t150.5 -40t150.5 40zM514 139h-66v125h-185v289h64v-232h121v232h66v-232h77v-57h-77v-125z" />
    <glyph glyph-name="uni2465.aalt" horiz-adv-x="822" 
d="M228.5 34q-83.5 49 -133 132.5t-49.5 184.5q0 100 49.5 183.5t133 132.5t182.5 49t183 -49t133 -132.5t49 -183.5q0 -101 -49 -185t-133 -132.5t-183 -48.5t-182.5 49zM561.5 88q68.5 40 108 109.5t39.5 153.5t-39.5 153t-108 109t-150.5 40t-150.5 -40t-108 -109
t-39.5 -153t39.5 -153.5t108 -109.5t150.5 -40t150.5 40zM300.5 172.5q-41.5 41.5 -41.5 105.5q0 59 44 129l97 151h75l-104 -153q27 10 52 10q58 0 95 -38t37 -99q0 -42 -19.5 -75.5t-53.5 -52.5t-75 -19q-65 0 -106.5 41.5zM467 211q23 24 23 63q0 38 -22.5 62t-58.5 24
q-38 0 -61 -23.5t-23 -60.5q0 -43 22 -66t60 -23q37 0 60 24z" />
    <glyph glyph-name="uni2468.aalt" horiz-adv-x="822" 
d="M228.5 34q-83.5 49 -133 132.5t-49.5 184.5q0 100 49.5 183.5t133 132.5t182.5 49t183 -49t133 -132.5t49 -183.5q0 -101 -49 -185t-133 -132.5t-183 -48.5t-182.5 49zM561.5 88q68.5 40 108 109.5t39.5 153.5t-39.5 153t-108 109t-150.5 40t-150.5 -40t-108 -109
t-39.5 -153t39.5 -153.5t108 -109.5t150.5 -40t150.5 40zM457 307q-28 -15 -60 -15q-36 0 -66.5 17t-48.5 48.5t-18 70.5q0 61 42 101t105 40q67 0 108 -39.5t41 -103.5q0 -62 -35 -122l-91 -165h-74zM468 369.5q23 23.5 23 61.5q0 37 -22.5 60t-57.5 23q-34 0 -57.5 -24
t-23.5 -60q0 -38 22.5 -61t58.5 -23q34 0 57 23.5z" />
    <glyph glyph-name="uni24FF.aalt" horiz-adv-x="822" 
d="M594 33.5q84 48.5 133 132.5t49 185q0 100 -49 183.5t-133 132.5t-183 49t-182.5 -49t-133 -132.5t-49.5 -183.5q0 -101 49.5 -184.5t133 -132.5t182.5 -49t183 48.5zM295.5 189q-41.5 58 -41.5 160t42.5 161t115.5 59q72 0 114 -58.5t42 -161.5q0 -102 -41.5 -160
t-114.5 -58q-75 0 -116.5 58zM469 486q-21 27 -57 27q-46 0 -69 -46.5t-23 -113.5q0 -39 8 -77zM480.5 233q22.5 46 22.5 113q0 41 -10 84l-142 -211q22 -32 61 -32q46 0 68.5 46z" />
    <glyph glyph-name="uni2776.aalt" horiz-adv-x="822" 
d="M594 33.5q84 48.5 133 132.5t49 185q0 100 -49 183.5t-133 132.5t-183 49t-182.5 -49t-133 -132.5t-49.5 -183.5q0 -101 49.5 -184.5t133 -132.5t182.5 -49t183 48.5zM468 139h-66v357h-92v62h158v-419z" />
    <glyph glyph-name="uni2778.aalt" horiz-adv-x="822" 
d="M594 33.5q84 48.5 133 132.5t49 185q0 100 -49 183.5t-133 132.5t-183 49t-182.5 -49t-133 -132.5t-49.5 -183.5q0 -101 49.5 -184.5t133 -132.5t182.5 -49t183 48.5zM302.5 168.5q-40.5 37.5 -41.5 101.5h66q1 -39 23.5 -61.5t60.5 -22.5q39 0 62 20.5t23 57.5
q0 38 -27.5 54.5t-82.5 16.5v56l83 100h-185v62h262v-56l-93 -111q110 -24 110 -122q0 -57 -42.5 -95t-108.5 -38q-69 0 -109.5 37.5z" />
    <glyph glyph-name="uni2779.aalt" horiz-adv-x="822" 
d="M594 33.5q84 48.5 133 132.5t49 185q0 100 -49 183.5t-133 132.5t-183 49t-182.5 -49t-133 -132.5t-49.5 -183.5q0 -101 49.5 -184.5t133 -132.5t182.5 -49t183 48.5zM514 139h-66v125h-185v289h64v-232h121v232h66v-232h77v-57h-77v-125z" />
    <glyph glyph-name="uni277B.aalt" horiz-adv-x="822" 
d="M594 33.5q84 48.5 133 132.5t49 185q0 100 -49 183.5t-133 132.5t-183 49t-182.5 -49t-133 -132.5t-49.5 -183.5q0 -101 49.5 -184.5t133 -132.5t182.5 -49t183 48.5zM300.5 172.5q-41.5 41.5 -41.5 105.5q0 59 44 129l97 151h75l-104 -153q27 10 52 10q58 0 95 -38
t37 -99q0 -42 -19.5 -75.5t-53.5 -52.5t-75 -19q-65 0 -106.5 41.5zM467 211q23 24 23 63q0 38 -22.5 62t-58.5 24q-38 0 -61 -23.5t-23 -60.5q0 -43 22 -66t60 -23q37 0 60 24z" />
    <glyph glyph-name="uni277E.aalt" horiz-adv-x="822" 
d="M594 33.5q84 48.5 133 132.5t49 185q0 100 -49 183.5t-133 132.5t-183 49t-182.5 -49t-133 -132.5t-49.5 -183.5q0 -101 49.5 -184.5t133 -132.5t182.5 -49t183 48.5zM457 307q-28 -15 -60 -15q-36 0 -66.5 17t-48.5 48.5t-18 70.5q0 61 42 101t105 40q67 0 108 -39.5
t41 -103.5q0 -62 -35 -122l-91 -165h-74zM468 369.5q23 23.5 23 61.5q0 37 -22.5 60t-57.5 23q-34 0 -57.5 -24t-23.5 -60q0 -38 22.5 -61t58.5 -23q34 0 57 23.5z" />
    <glyph glyph-name="zero.tnum" 
d="M114.5 80.5q-66.5 95.5 -66.5 268.5q0 114 30.5 196.5t88 126.5t135.5 44q77 0 134.5 -43.5t88.5 -126t31 -197.5q0 -174 -67 -269t-187 -95q-121 0 -187.5 95.5zM422 128.5q42 72.5 42 220.5q0 149 -41.5 222t-120.5 73q-163 0 -163 -295q0 -147 42.5 -220t120.5 -73
t120 72.5z" />
    <glyph glyph-name="zero.tnum.zero" 
d="M436.5 672.5q57.5 -43.5 88.5 -126t31 -197.5q0 -174 -67 -269t-187 -95q-121 0 -187.5 95.5t-66.5 268.5q0 114 30.5 196.5t88 126.5t135.5 44q77 0 134.5 -43.5zM139 349q0 -87 16 -153l261 386q-41 62 -114 62q-163 0 -163 -295zM422 128.5q42 72.5 42 220.5
q0 93 -16 153l-259 -385q42 -61 113 -61q78 0 120 72.5z" />
    <glyph glyph-name="one.tnum" 
d="M359 77h203v-77h-502v77h212v414v69q-26 -42 -71.5 -70.5t-96.5 -30.5v88q60 7 113 51.5t71 101.5h71v-623z" />
    <glyph glyph-name="one.tnum.ss09" 
d="M359 700v-622h193v-78h-483v78h203v546h-173v76h260z" />
    <glyph glyph-name="two.tnum" 
d="M64 0q0 68 32 119t114 113l95 73q59 46 95.5 93t36.5 106q0 62 -35.5 101t-97.5 39q-65 0 -104 -45.5t-39 -129.5v-13h-90v23q0 73 30.5 126.5t83.5 82t119 28.5q65 0 116 -26t79.5 -73.5t28.5 -111.5q0 -76 -45.5 -138.5t-149.5 -141.5l-49 -37q-54 -40 -80 -65t-31 -43
h367v-80h-476z" />
    <glyph glyph-name="three.tnum" 
d="M171 12q-54 27 -83.5 76t-29.5 114h89q0 -64 40.5 -105t111.5 -41q70 0 113.5 37.5t43.5 101.5q0 62 -43.5 97t-110.5 35h-41v77h42q58 0 96.5 32.5t38.5 91.5q0 55 -36 85.5t-96 30.5q-70 0 -107.5 -36.5t-39.5 -103.5h-90q2 96 65 154t173 58q63 0 113.5 -23.5
t79.5 -65.5t29 -95q0 -55 -32.5 -98.5t-94.5 -64.5q71 -19 108 -65.5t37 -111.5q0 -60 -31.5 -107t-88 -73.5t-128.5 -26.5q-74 0 -128 27z" />
    <glyph glyph-name="three.tnum.ss10" 
d="M340 417q69 -7 115.5 -38.5t68.5 -77t22 -95.5q0 -64 -31 -114t-86.5 -78.5t-124.5 -28.5q-74 0 -129 27t-84 76t-29 114h90q0 -64 40 -105t112 -41q66 0 108.5 42t42.5 111q0 70 -48.5 109t-132.5 39q-19 0 -29 -1v64l175 203h-326v77h425v-82z" />
    <glyph glyph-name="four.tnum" 
d="M441 0h-88v179h-321v85l291 436h118v-441h129v-80h-129v-179zM353 259v362l-30 -48l-185 -279l-23 -35h238z" />
    <glyph glyph-name="four.tnum.ss09" 
d="M437 0h-88v224h-312v476h88v-396h224v396h88v-396h129v-80h-129v-224z" />
    <glyph glyph-name="five.tnum" 
d="M171 10.5q-53 25.5 -81.5 71t-28.5 105.5h90q0 -60 37.5 -95.5t103.5 -35.5q75 0 117.5 46.5t42.5 125.5q0 76 -39.5 122t-108.5 46q-52 0 -93 -29t-55 -64h-84l51 397h381v-80h-315l-23 -177l-6 -52q27 35 71 55.5t94 20.5q63 0 113 -30.5t77.5 -84t27.5 -118.5
q0 -73 -31 -129.5t-87 -88t-130 -31.5q-71 0 -124 25.5z" />
    <glyph glyph-name="six.tnum" 
d="M165.5 29.5q-57.5 44.5 -83.5 129.5q-25 76 -25 175q0 70 14 135.5t40 112.5q36 65 94.5 99.5t133.5 34.5q61 0 108 -23.5t73.5 -65t26.5 -96.5h-89q-2 52 -34.5 83.5t-86.5 31.5q-88 0 -136.5 -67t-54.5 -195q-1 -10 -1 -32q24 45 74 76t112 31q64 0 113.5 -30.5
t76.5 -83.5t27 -119q0 -69 -31.5 -124t-86 -86t-121.5 -31q-86 0 -143.5 44.5zM385 73.5q34 21.5 53 61t19 90.5q0 69 -39.5 116t-103.5 47q-43 0 -78 -21.5t-55 -58t-20 -80.5q0 -86 41 -131t107 -45q42 0 76 21.5z" />
    <glyph glyph-name="six.tnum.ss11" 
d="M433 429.5q51 -29.5 80.5 -83t29.5 -121.5q0 -73 -31.5 -127.5t-87 -83.5t-126.5 -29t-125.5 29.5t-85 84t-30.5 126.5q0 66 21.5 119t62.5 116l154 240h104l-176 -267q41 26 97 26q62 0 113 -29.5zM410.5 103.5q41.5 45.5 41.5 118.5t-40.5 119t-108.5 46
q-69 0 -111 -46t-42 -119t41 -118.5t109 -45.5q69 0 110.5 45.5z" />
    <glyph glyph-name="seven.tnum" 
d="M187 0q14 178 72.5 322t150.5 253q16 21 40 45h-380v80h463v-86q-108 -120 -176.5 -281t-75.5 -333h-94z" />
    <glyph glyph-name="eight.tnum" 
d="M119.5 39q-66.5 54 -66.5 147q0 58 39.5 107t107.5 70q-60 22 -95 65.5t-35 99.5q0 53 29 96t82 67.5t121 24.5t120.5 -24.5t81.5 -67.5t29 -96q0 -56 -34.5 -99.5t-94.5 -65.5q68 -21 107.5 -70t39.5 -107q0 -93 -66.5 -147t-182.5 -54t-182.5 54zM404 440q39 34 39 88
q0 53 -38.5 86.5t-102.5 33.5t-103 -34t-39 -86q0 -54 39 -88t103 -34q63 0 102 34zM417 88q43 36 43 98q0 58 -44 96t-114 38t-114 -38t-44 -96q0 -62 43 -98t115 -36t115 36z" />
    <glyph glyph-name="nine.tnum" 
d="M128 35q-54 50 -58 131h90q4 -54 36.5 -83t88.5 -29q87 0 130.5 75.5t43.5 188.5q0 17 -1 30q-26 -39 -74 -65t-105 -26q-62 0 -113.5 29t-81 81t-29.5 118t31 118.5t85.5 82.5t121.5 30q87 0 145 -47.5t85 -136.5q24 -79 24 -176q0 -71 -13.5 -136.5t-39.5 -111.5
q-34 -61 -88 -92t-125 -31q-99 0 -153 50zM370.5 346.5q34.5 21.5 54.5 58.5t20 83q0 45 -20 82t-54.5 58t-76.5 21q-41 0 -75 -21t-53 -58t-19 -82q0 -46 19 -83t53 -58.5t75 -21.5q42 0 76.5 21.5z" />
    <glyph glyph-name="nine.tnum.ss11" 
d="M425.5 686q54.5 -30 85.5 -86t31 -130q0 -63 -20.5 -115.5t-58.5 -114.5l-143 -240h-104l173 284q-46 -31 -102 -31q-67 0 -118.5 30t-79.5 81.5t-28 114.5q0 68 32 122t87.5 84.5t123.5 30.5q67 0 121.5 -30zM194 369.5q41 -44.5 108 -44.5q66 0 107 44.5t41 112.5
q0 71 -40.5 115.5t-107.5 44.5q-68 0 -108.5 -44t-40.5 -116q0 -68 41 -112.5z" />
    <glyph glyph-name="zero.dnom" horiz-adv-x="397" 
d="M81 48.5q-43 57.5 -43 160.5q0 102 43 160.5t119 58.5q74 0 116.5 -58.5t42.5 -160.5q0 -103 -42 -160.5t-117 -57.5q-76 0 -119 57.5zM262.5 88.5q21.5 41.5 21.5 120.5t-21.5 121t-62.5 42q-43 0 -65 -41.5t-22 -121.5q0 -78 22.5 -120t64.5 -42q41 0 62.5 41.5z" />
    <glyph glyph-name="zero.dnom.zero" horiz-adv-x="397" 
d="M316.5 369q42.5 -59 42.5 -160q0 -102 -42 -160t-117 -58q-76 0 -119 58t-43 160t43 160.5t119 58.5q74 0 116.5 -59zM135 330q-22 -41 -22 -121q0 -32 5 -64l135 200q-20 26 -53 26q-43 0 -65 -41zM263 89.5q22 41.5 22 119.5q0 41 -6 71l-136 -202q21 -30 57 -30
q41 0 63 41.5z" />
    <glyph glyph-name="one.dnom" horiz-adv-x="265" 
d="M133 291v24q-17 -21 -45.5 -35t-64.5 -15v61q44 4 77 29.5t43 63.5h63v-419h-73v291z" />
    <glyph glyph-name="one.dnom.ss09" horiz-adv-x="250" 
d="M191 0h-73v356h-92v63h165v-419z" />
    <glyph glyph-name="two.dnom" horiz-adv-x="374" 
d="M35 0q1 53 25.5 91.5t75.5 73.5l45 31q38 26 58 49t20 54q0 33 -19 53t-52 20q-36 0 -56.5 -22t-21.5 -63h-74q0 64 42 102.5t112 38.5q62 0 102.5 -36t40.5 -91q0 -47 -27.5 -83t-83.5 -72l-49 -33q-42 -28 -45 -50h208v-63h-301z" />
    <glyph glyph-name="three.dnom" horiz-adv-x="384" 
d="M78 28.5q-42 37.5 -43 101.5h73q1 -38 23 -60.5t60 -22.5q37 0 59 19.5t22 51.5t-22 52t-59 20h-31v56h31q33 0 52.5 17.5t19.5 48.5q0 28 -19 44.5t-51 16.5q-36 0 -56 -20t-22 -55h-75q3 60 44 95t110 35q62 0 102 -32t40 -82q0 -32 -20 -57t-55 -37q39 -13 61.5 -41
t22.5 -66q0 -53 -43 -87.5t-111 -34.5q-71 0 -113 37.5z" />
    <glyph glyph-name="three.dnom.ss10" horiz-adv-x="384" 
d="M81 28.5q-41 37.5 -42 100.5h67q1 -39 23.5 -61t60.5 -22t61 20.5t23 57.5q0 41 -27.5 58t-82.5 17v55l84 103h-186v62h263v-56l-93 -114q110 -23 110 -125q0 -58 -42.5 -95.5t-108.5 -37.5q-69 0 -110 37.5z" />
    <glyph glyph-name="four.dnom" horiz-adv-x="392" 
d="M291 0h-73v104h-194v59l176 256h91v-257h76v-58h-76v-104zM218 162v181l-12 -18l-97 -141l-15 -22h124z" />
    <glyph glyph-name="four.dnom.ss09" horiz-adv-x="408" 
d="M307 0h-73v124h-185v295h73v-237h112v237h73v-237h77v-58h-77v-124z" />
    <glyph glyph-name="five.dnom" horiz-adv-x="372" 
d="M75 26q-42 35 -41 91h73q-1 -30 20.5 -50t55.5 -20q37 0 60 25t23 66q0 40 -22 64.5t-58 24.5q-23 0 -44 -13t-30 -34h-73l34 239h243v-63h-188l-14 -90l-4 -24q17 18 42.5 29.5t53.5 11.5q58 0 95.5 -40.5t37.5 -103.5q0 -67 -42.5 -107.5t-112.5 -40.5q-67 0 -109 35z
" />
    <glyph glyph-name="six.dnom" horiz-adv-x="389" 
d="M80 46q-42 55 -42 157q0 106 46.5 165.5t129.5 59.5q60 0 96.5 -32t40.5 -87h-74q-2 30 -19 46.5t-47 16.5q-46 0 -72 -34t-26 -90v-20q16 20 43 33.5t60 13.5q60 0 98 -38t38 -99q0 -64 -43 -105.5t-108 -41.5q-79 0 -121 55zM257 70q22 24 22 64q0 37 -21.5 61
t-55.5 24q-36 0 -58.5 -23t-22.5 -60q0 -42 21 -66t58 -24q35 0 57 24z" />
    <glyph glyph-name="six.dnom.ss11" horiz-adv-x="372" 
d="M304 237q38 -38 38 -99q0 -41 -20 -75t-55 -53t-77 -19q-67 0 -109.5 41.5t-42.5 105.5q0 34 12 65.5t33 63.5l97 152h82l-102 -152q22 8 46 8q60 0 98 -38zM247.5 72q21.5 24 21.5 62q0 37 -21.5 61t-55.5 24q-36 0 -58.5 -23t-22.5 -60q0 -41 21 -64.5t58 -23.5
q36 0 57.5 24z" />
    <glyph glyph-name="seven.dnom" horiz-adv-x="342" 
d="M89 0q7 103 42.5 189t98.5 149l18 18h-227v63h301v-57q-139 -150 -150 -362h-83z" />
    <glyph glyph-name="eight.dnom" horiz-adv-x="392" 
d="M80 23q-43 32 -43 86q0 36 23.5 65t65.5 42q-37 14 -57.5 38.5t-20.5 56.5q0 52 41 84.5t108 32.5q65 0 106 -32.5t41 -82.5q0 -34 -21 -59.5t-58 -37.5q42 -13 66 -40.5t24 -63.5q0 -55 -43 -88t-116 -33t-116 32zM250.5 262.5q20.5 17.5 20.5 46.5t-20 46t-54 17
t-55 -17t-21 -44q0 -30 20.5 -48t55.5 -18q33 0 53.5 17.5zM258.5 67q23.5 20 23.5 51t-24.5 51t-60.5 20q-37 0 -62 -20t-25 -51q0 -32 24 -51.5t63 -19.5q38 0 61.5 20z" />
    <glyph glyph-name="nine.dnom" horiz-adv-x="384" 
d="M78 25q-35 34 -38 79h74q8 -57 67 -57q88 0 93 141v8q-17 -19 -44.5 -32.5t-60.5 -13.5q-59 0 -96 38.5t-37 99.5t42.5 100.5t107.5 39.5q76 0 117.5 -56.5t41.5 -159.5q0 -107 -42.5 -164t-123.5 -57q-66 0 -101 34zM241.5 230q21.5 23 21.5 61q0 36 -21.5 58.5
t-55.5 22.5t-56 -23t-22 -58q0 -38 21.5 -61t56.5 -23q34 0 55.5 23z" />
    <glyph glyph-name="nine.dnom.ss11" horiz-adv-x="377" 
d="M297 388.5q42 -39.5 42 -103.5q0 -58 -35 -122l-92 -163h-80l95 162q-27 -12 -55 -12q-37 0 -68.5 18t-49.5 49.5t-18 69.5q0 40 20 72t54.5 50.5t76.5 18.5q68 0 110 -39.5zM130.5 229.5q21.5 -22.5 56.5 -22.5q34 0 55 23.5t21 60.5q0 35 -21 58t-55 23
q-33 0 -55.5 -23.5t-22.5 -58.5q0 -38 21.5 -60.5z" />
    <glyph glyph-name="zero.numr" horiz-adv-x="397" 
d="M81 329.5q-43 57.5 -43 160.5q0 102 43 160.5t119 58.5q74 0 116.5 -58.5t42.5 -160.5q0 -103 -42 -160.5t-117 -57.5q-76 0 -119 57.5zM262.5 369.5q21.5 41.5 21.5 120.5t-21.5 121t-62.5 42q-43 0 -65 -41.5t-22 -121.5q0 -78 22.5 -120t64.5 -42q41 0 62.5 41.5z" />
    <glyph glyph-name="zero.numr.zero" horiz-adv-x="397" 
d="M316.5 650q42.5 -59 42.5 -160q0 -102 -42 -160t-117 -58q-76 0 -119 58t-43 160t43 160.5t119 58.5q74 0 116.5 -59zM135 611q-22 -41 -22 -121q0 -32 5 -64l135 200q-20 26 -53 26q-43 0 -65 -41zM263 370.5q22 41.5 22 119.5q0 41 -6 71l-136 -202q21 -30 57 -30
q41 0 63 41.5z" />
    <glyph glyph-name="one.numr" horiz-adv-x="265" 
d="M134 572v24q-17 -21 -45.5 -35t-64.5 -15v61q44 4 77 29.5t43 63.5h63v-419h-73v291z" />
    <glyph glyph-name="one.numr.ss09" horiz-adv-x="250" 
d="M191 281h-73v356h-92v63h165v-419z" />
    <glyph glyph-name="two.numr" horiz-adv-x="374" 
d="M35 281q1 53 25.5 91.5t75.5 73.5l45 31q38 26 58 49t20 54q0 33 -19 53t-52 20q-36 0 -56.5 -22t-21.5 -63h-74q0 64 42 102.5t112 38.5q62 0 102.5 -36t40.5 -91q0 -47 -27.5 -83t-83.5 -72l-49 -33q-42 -28 -45 -50h208v-63h-301z" />
    <glyph glyph-name="three.numr" horiz-adv-x="384" 
d="M78 309.5q-42 37.5 -43 101.5h73q1 -38 23 -60.5t60 -22.5q37 0 59 19.5t22 51.5t-22 52t-59 20h-31v56h31q33 0 52.5 17.5t19.5 48.5q0 28 -19 44.5t-51 16.5q-36 0 -56 -20t-22 -55h-75q3 60 44 95t110 35q62 0 102 -32t40 -82q0 -32 -20 -57t-55 -37q39 -13 61.5 -41
t22.5 -66q0 -53 -43 -87.5t-111 -34.5q-71 0 -113 37.5z" />
    <glyph glyph-name="three.numr.ss10" horiz-adv-x="384" 
d="M81 309.5q-41 37.5 -42 100.5h67q1 -39 23.5 -61t60.5 -22t61 20.5t23 57.5q0 41 -27.5 58t-82.5 17v55l84 103h-186v62h263v-56l-93 -114q110 -23 110 -125q0 -58 -42.5 -95.5t-108.5 -37.5q-69 0 -110 37.5z" />
    <glyph glyph-name="four.numr" horiz-adv-x="392" 
d="M291 281h-73v104h-194v59l176 256h91v-257h76v-58h-76v-104zM218 443v181l-12 -18l-97 -141l-15 -22h124z" />
    <glyph glyph-name="four.numr.ss09" horiz-adv-x="408" 
d="M307 281h-73v124h-185v295h73v-237h112v237h73v-237h77v-58h-77v-124z" />
    <glyph glyph-name="five.numr" horiz-adv-x="372" 
d="M75 307q-42 35 -41 91h73q-1 -30 20.5 -50t55.5 -20q37 0 60 25t23 66q0 40 -22 64.5t-58 24.5q-23 0 -44 -13t-30 -34h-73l34 239h243v-63h-188l-14 -90l-4 -24q17 18 42.5 29.5t53.5 11.5q58 0 95.5 -40.5t37.5 -103.5q0 -67 -42.5 -107.5t-112.5 -40.5q-67 0 -109 35z
" />
    <glyph glyph-name="six.numr" horiz-adv-x="389" 
d="M80 327q-42 55 -42 157q0 106 46.5 165.5t129.5 59.5q60 0 96.5 -32t40.5 -87h-74q-2 30 -19 46.5t-47 16.5q-46 0 -72 -34t-26 -90v-20q16 20 43 33.5t60 13.5q60 0 98 -38t38 -99q0 -64 -43 -105.5t-108 -41.5q-79 0 -121 55zM257 351q22 24 22 64q0 37 -21.5 61
t-55.5 24q-36 0 -58.5 -23t-22.5 -60q0 -42 21 -66t58 -24q35 0 57 24z" />
    <glyph glyph-name="six.numr.ss11" horiz-adv-x="372" 
d="M304 518q38 -38 38 -99q0 -41 -20 -75t-55 -53t-77 -19q-67 0 -109.5 41.5t-42.5 105.5q0 34 12 65.5t33 63.5l97 152h82l-102 -152q22 8 46 8q60 0 98 -38zM247.5 353q21.5 24 21.5 62q0 37 -21.5 61t-55.5 24q-36 0 -58.5 -23t-22.5 -60q0 -41 21 -64.5t58 -23.5
q36 0 57.5 24z" />
    <glyph glyph-name="seven.numr" horiz-adv-x="342" 
d="M90 281q7 103 42.5 189t98.5 149l18 18h-227v63h301v-57q-139 -150 -150 -362h-83z" />
    <glyph glyph-name="eight.numr" horiz-adv-x="392" 
d="M80 304q-43 32 -43 86q0 36 23.5 65t65.5 42q-37 14 -57.5 38.5t-20.5 56.5q0 52 41 84.5t108 32.5q65 0 106 -32.5t41 -82.5q0 -34 -21 -59.5t-58 -37.5q42 -13 66 -40.5t24 -63.5q0 -55 -43 -88t-116 -33t-116 32zM250.5 543.5q20.5 17.5 20.5 46.5t-20 46t-54 17
t-55 -17t-21 -44q0 -30 20.5 -48t55.5 -18q33 0 53.5 17.5zM258.5 348q23.5 20 23.5 51t-24.5 51t-60.5 20q-37 0 -62 -20t-25 -51q0 -32 24 -51.5t63 -19.5q38 0 61.5 20z" />
    <glyph glyph-name="nine.numr" horiz-adv-x="384" 
d="M78 306q-35 34 -38 79h74q8 -57 67 -57q88 0 93 141v8q-17 -19 -44.5 -32.5t-60.5 -13.5q-59 0 -96 38.5t-37 99.5t42.5 100.5t107.5 39.5q76 0 117.5 -56.5t41.5 -159.5q0 -107 -42.5 -164t-123.5 -57q-66 0 -101 34zM241.5 511q21.5 23 21.5 61q0 36 -21.5 58.5
t-55.5 22.5t-56 -23t-22 -58q0 -38 21.5 -61t56.5 -23q34 0 55.5 23z" />
    <glyph glyph-name="nine.numr.ss11" horiz-adv-x="377" 
d="M297 669.5q42 -39.5 42 -103.5q0 -58 -35 -122l-92 -163h-80l95 162q-27 -12 -55 -12q-37 0 -68.5 18t-49.5 49.5t-18 69.5q0 40 20 72t54.5 50.5t76.5 18.5q68 0 110 -39.5zM130.5 510.5q21.5 -22.5 56.5 -22.5q34 0 55 23.5t21 60.5q0 35 -21 58t-55 23
q-33 0 -55.5 -23.5t-22.5 -58.5q0 -38 21.5 -60.5z" />
    <glyph glyph-name="uni2070.aalt" horiz-adv-x="437" 
d="M348 747q47 -65 47 -176q0 -113 -46.5 -176.5t-128.5 -63.5q-84 0 -131 63.5t-47 176.5q0 111 47.5 176t130.5 65q81 0 128 -65zM148.5 704q-24.5 -45 -24.5 -133q0 -36 5 -71l150 221q-23 28 -59 28q-47 0 -71.5 -45zM290 439.5q24 45.5 24 131.5q0 47 -7 79l-150 -223
q24 -33 63 -33q46 0 70 45.5z" />
    <glyph glyph-name="uni00B9.aalt" horiz-adv-x="274" 
d="M210 341h-80v392h-101v69h181v-461z" />
    <glyph glyph-name="uni00B3.aalt" horiz-adv-x="384" 
d="M81 402.5q-41 37.5 -42 100.5h67q1 -39 23.5 -61t60.5 -22t61 20.5t23 57.5q0 41 -27.5 58t-82.5 17v55l84 103h-186v62h263v-56l-93 -114q110 -23 110 -125q0 -58 -42.5 -95.5t-108.5 -37.5q-69 0 -110 37.5z" />
    <glyph glyph-name="uni2074.aalt" horiz-adv-x="448" 
d="M338 341h-81v136h-203v325h80v-261h123v261h81v-261h84v-64h-84v-136z" />
    <glyph glyph-name="uni2076.aalt" horiz-adv-x="408" 
d="M334 602q42 -42 42 -109q0 -46 -22 -83t-60 -58t-85 -21q-48 0 -86 21t-59.5 58t-21.5 83q0 37 13 71.5t36 70.5l107 167h90l-111 -166q24 8 50 8q65 0 107 -42zM272.5 420q23.5 26 23.5 68q0 41 -23.5 67.5t-61.5 26.5q-40 0 -64.5 -25t-24.5 -66q0 -46 23 -71.5
t64 -25.5q40 0 63.5 26z" />
    <glyph glyph-name="uni2079.aalt" horiz-adv-x="415" 
d="M327 769q46 -43 46 -114q0 -64 -39 -135l-101 -179h-88l104 178q-28 -13 -60 -13q-41 0 -75 20t-54 54.5t-20 76.5q0 44 21.5 79.5t59.5 55.5t85 20q75 0 121 -43zM143.5 594q23.5 -25 62.5 -25q37 0 60 25.5t23 66.5q0 39 -23 64t-60 25t-61.5 -26t-24.5 -64
q0 -41 23.5 -66z" />
    <glyph glyph-name="uni215F.aalt" horiz-adv-x="724" 
d="M204 281h-73v356h-92v63h165v-419zM189 0h-86l510 700h85z" />
    <glyph glyph-name="onehalf.aalt" horiz-adv-x="881" 
d="M204 281h-73v356h-92v63h165v-419zM189 0h-86l510 700h85zM541 0q1 53 25.5 91.5t75.5 73.5l45 31q38 26 58 49t20 54q0 33 -19 53t-52 20q-36 0 -56.5 -22t-21.5 -63h-74q0 64 42 102.5t112 38.5q62 0 102.5 -36t40.5 -91q0 -47 -27.5 -83t-83.5 -72l-49 -33
q-42 -28 -45 -50h208v-63h-301z" />
    <glyph glyph-name="onethird.ss09" horiz-adv-x="875" 
d="M204 281h-73v356h-92v63h165v-419zM189 0h-86l510 700h85zM570 28.5q-42 37.5 -43 101.5h73q1 -38 23 -60.5t60 -22.5q37 0 59 19.5t22 51.5t-22 52t-59 20h-31v56h31q33 0 52.5 17.5t19.5 48.5q0 28 -19 44.5t-51 16.5q-36 0 -56 -20t-22 -55h-75q3 60 44 95t110 35
q62 0 102 -32t40 -82q0 -32 -20 -57t-55 -37q39 -13 61.5 -41t22.5 -66q0 -53 -43 -87.5t-111 -34.5q-71 0 -113 37.5z" />
    <glyph glyph-name="onethird.ss09.ss10" horiz-adv-x="875" 
d="M204 281h-73v356h-92v63h165v-419zM189 0h-86l510 700h85zM573 28.5q-41 37.5 -42 100.5h67q1 -39 23.5 -61t60.5 -22t61 20.5t23 57.5q0 41 -27.5 58t-82.5 17v55l84 103h-186v62h263v-56l-93 -114q110 -23 110 -125q0 -58 -42.5 -95.5t-108.5 -37.5q-69 0 -110 37.5z
" />
    <glyph glyph-name="onethird.ss10" horiz-adv-x="883" 
d="M139 572v24q-17 -21 -45.5 -35t-64.5 -15v61q44 4 77 29.5t43 63.5h63v-419h-73v291zM197 0h-86l510 700h85zM581 28.5q-41 37.5 -42 100.5h67q1 -39 23.5 -61t60.5 -22t61 20.5t23 57.5q0 41 -27.5 58t-82.5 17v55l84 103h-186v62h263v-56l-93 -114q110 -23 110 -125
q0 -58 -42.5 -95.5t-108.5 -37.5q-69 0 -110 37.5z" />
    <glyph glyph-name="twothirds.aalt" horiz-adv-x="969" 
d="M40 281q1 53 25.5 91.5t75.5 73.5l45 31q38 26 58 49t20 54q0 33 -19 53t-52 20q-36 0 -56.5 -22t-21.5 -63h-74q0 64 42 102.5t112 38.5q62 0 102.5 -36t40.5 -91q0 -47 -27.5 -83t-83.5 -72l-49 -33q-42 -28 -45 -50h208v-63h-301zM286 0h-86l510 700h85zM671 28.5
q-41 37.5 -42 100.5h67q1 -39 23.5 -61t60.5 -22t61 20.5t23 57.5q0 41 -27.5 58t-82.5 17v55l84 103h-186v62h263v-56l-93 -114q110 -23 110 -125q0 -58 -42.5 -95.5t-108.5 -37.5q-69 0 -110 37.5z" />
    <glyph glyph-name="onequarter.aalt" horiz-adv-x="912" 
d="M807 0h-73v124h-185v295h73v-237h112v237h73v-237h77v-58h-77v-124zM204 281h-73v356h-92v63h165v-419zM189 0h-86l510 700h85z" />
    <glyph glyph-name="threequarters.ss09" horiz-adv-x="1005" 
d="M80 309.5q-42 37.5 -43 101.5h73q1 -38 23 -60.5t60 -22.5q37 0 59 19.5t22 51.5t-22 52t-59 20h-31v56h31q33 0 52.5 17.5t19.5 48.5q0 28 -19 44.5t-51 16.5q-36 0 -56 -20t-22 -55h-75q3 60 44 95t110 35q62 0 102 -32t40 -82q0 -32 -20 -57t-55 -37q39 -13 61.5 -41
t22.5 -66q0 -53 -43 -87.5t-111 -34.5q-71 0 -113 37.5zM281 0h-86l510 700h85zM899 0h-73v124h-185v295h73v-237h112v237h73v-237h77v-58h-77v-124z" />
    <glyph glyph-name="threequarters.ss09.ss10" horiz-adv-x="1005" 
d="M81 309.5q-41 37.5 -42 100.5h67q1 -39 23.5 -61t60.5 -22t61 20.5t23 57.5q0 41 -27.5 58t-82.5 17v55l84 103h-186v62h263v-56l-93 -114q110 -23 110 -125q0 -58 -42.5 -95.5t-108.5 -37.5q-69 0 -110 37.5zM281 0h-86l510 700h85zM899 0h-73v124h-185v295h73v-237h112
v237h73v-237h77v-58h-77v-124z" />
    <glyph glyph-name="threequarters.ss10" horiz-adv-x="929" 
d="M81 309.5q-41 37.5 -42 100.5h67q1 -39 23.5 -61t60.5 -22t61 20.5t23 57.5q0 41 -27.5 58t-82.5 17v55l84 103h-186v62h263v-56l-93 -114q110 -23 110 -125q0 -58 -42.5 -95.5t-108.5 -37.5q-69 0 -110 37.5zM281 0h-86l510 700h85zM823 0h-73v104h-194v59l176 256h91
v-257h76v-58h-76v-104zM750 162v181l-12 -18l-97 -141l-15 -22h124z" />
    <glyph glyph-name="uni2155.aalt" horiz-adv-x="873" 
d="M571 26q-42 35 -41 91h73q-1 -30 20.5 -50t55.5 -20q37 0 60 25t23 66q0 40 -22 64.5t-58 24.5q-23 0 -44 -13t-30 -34h-73l34 239h243v-63h-188l-14 -90l-4 -24q17 18 42.5 29.5t53.5 11.5q58 0 95.5 -40.5t37.5 -103.5q0 -67 -42.5 -107.5t-112.5 -40.5q-67 0 -109 35z
M204 281h-73v356h-92v63h165v-419zM189 0h-86l510 700h85z" />
    <glyph glyph-name="uni2157.aalt" horiz-adv-x="958" 
d="M77 309.5q-41 37.5 -42 100.5h67q1 -39 23.5 -61t60.5 -22t61 20.5t23 57.5q0 41 -27.5 58t-82.5 17v55l84 103h-186v62h263v-56l-93 -114q110 -23 110 -125q0 -58 -42.5 -95.5t-108.5 -37.5q-69 0 -110 37.5zM277 0h-86l510 700h85zM659 26q-42 35 -41 91h73
q-1 -30 20.5 -50t55.5 -20q37 0 60 25t23 66q0 40 -22 64.5t-58 24.5q-23 0 -44 -13t-30 -34h-73l34 239h243v-63h-188l-14 -90l-4 -24q17 18 42.5 29.5t53.5 11.5q58 0 95.5 -40.5t37.5 -103.5q0 -67 -42.5 -107.5t-112.5 -40.5q-67 0 -109 35z" />
    <glyph glyph-name="uni2158.aalt" horiz-adv-x="987" 
d="M302 0h-86l510 700h85zM684 26q-42 35 -41 91h73q-1 -30 20.5 -50t55.5 -20q37 0 60 25t23 66q0 40 -22 64.5t-58 24.5q-23 0 -44 -13t-30 -34h-73l34 239h243v-63h-188l-14 -90l-4 -24q17 18 42.5 29.5t53.5 11.5q58 0 95.5 -40.5t37.5 -103.5q0 -67 -42.5 -107.5
t-112.5 -40.5q-67 0 -109 35zM307 281h-73v124h-185v295h73v-237h112v237h73v-237h77v-58h-77v-124z" />
    <glyph glyph-name="uni2159.ss09" horiz-adv-x="892" 
d="M204 281h-73v356h-92v63h165v-419zM189 0h-86l510 700h85zM580 46q-42 55 -42 157q0 106 46.5 165.5t129.5 59.5q60 0 96.5 -32t40.5 -87h-74q-2 30 -19 46.5t-47 16.5q-46 0 -72 -34t-26 -90v-20q16 20 43 33.5t60 13.5q60 0 98 -38t38 -99q0 -64 -43 -105.5t-108 -41.5
q-79 0 -121 55zM757 70q22 24 22 64q0 37 -21.5 61t-55.5 24q-36 0 -58.5 -23t-22.5 -60q0 -42 21 -66t58 -24q35 0 57 24z" />
    <glyph glyph-name="uni2159.ss09.ss11" horiz-adv-x="865" 
d="M788 237q38 -38 38 -99q0 -41 -20 -75t-55 -53t-77 -19q-67 0 -109.5 41.5t-42.5 105.5q0 34 12 65.5t33 63.5l97 152h82l-102 -152q22 8 46 8q60 0 98 -38zM731.5 72q21.5 24 21.5 62q0 37 -21.5 61t-55.5 24q-36 0 -58.5 -23t-22.5 -60q0 -41 21 -64.5t58 -23.5
q36 0 57.5 24zM204 281h-73v356h-92v63h165v-419zM189 0h-86l510 700h85z" />
    </font>
</defs>
</svg>
